<?xml version="1.0" encoding="UTF-8"?>
<svg width="283px" height="283px" viewBox="0 0 283 283" version="1.1" xmlns="http://www.w3.org/2000/svg" xmlns:xlink="http://www.w3.org/1999/xlink">
    <title>forschungsraum-1</title>
    <defs>
        <radialGradient cx="100%" cy="0%" fx="100%" fy="0%" r="141.421356%" id="radialGradient-1">
            <stop stop-color="#D89D86" offset="0%"></stop>
            <stop stop-color="#E0DBD9" offset="71.7902042%"></stop>
            <stop stop-color="#DCD5D2" offset="100%"></stop>
        </radialGradient>
        <filter x="-19.0%" y="-19.0%" width="138.0%" height="138.0%" filterUnits="objectBoundingBox" id="filter-2">
            <feGaussianBlur stdDeviation="13" in="SourceGraphic"></feGaussianBlur>
        </filter>
        <filter color-interpolation-filters="auto" id="filter-3">
            <feColorMatrix in="SourceGraphic" type="matrix" values="0 0 0 0 0.007843 0 0 0 0 0.149020 0 0 0 0 0.349020 0 0 0 1.000000 0"></feColorMatrix>
        </filter>
    </defs>
    <g id="wireframes-v0.6" stroke="none" stroke-width="1" fill="none" fill-rule="evenodd">
        <g id="Forschungsraum" transform="translate(-54.000000, -611.000000)">
            <g id="forschungsraum-1" transform="translate(93.000000, 650.000000)">
                <g id="Group-8">
                    <g id="Blur-Rectangle" fill="url(#radialGradient-1)">
                        <rect id="Blur-rectangle" filter="url(#filter-2)" x="0" y="0" width="205" height="205" rx="12"></rect>
                    </g>
                    <g filter="url(#filter-3)" id="rectangle" stroke-linecap="round" stroke-linejoin="round">
                        <g transform="translate(11.000000, 14.000000)">
                            <path d="M0,1.37108926 C0.438725969,1.37608217 0.87035811,1.38107508 1.29489642,1.38606799 C1.71834338,1.39230913 2.13578786,1.39792616 2.54722988,1.40291907 C2.9586719,1.40791198 3.36411144,1.41290489 3.76354852,1.41789781 C4.16189424,1.42289072 4.55478316,1.42788363 4.9422153,1.43287654 C5.3307388,1.43786945 5.71053143,1.44223825 6.08159319,1.44598293 C6.4515636,1.45097585 6.81880561,1.45534464 7.18331922,1.45908933 C7.54783284,1.46408224 7.90416127,1.46845104 8.25230451,1.47219572 C8.5993564,1.47718863 9.02553175,1.48280566 9.53083057,1.4890468 C10.0339467,1.49528794 10.5201467,1.50090497 10.9894307,1.50589788 C11.4554406,1.51089079 11.8750678,1.5158837 12.2483123,1.52087661 C12.6193741,1.52586952 13.0182655,1.53086244 13.4449865,1.53585535 C13.8727989,1.54084826 14.3137076,1.54584117 14.7677126,1.55083408 C15.2195348,1.555827 15.6811793,1.56081991 16.152646,1.56581282 C16.6241127,1.57205396 17.0961251,1.57767098 17.5686832,1.5826639 C18.0423326,1.58765681 18.5154364,1.59264972 18.9879945,1.59764263 C19.4616439,1.60263554 19.9331106,1.60825257 20.4023946,1.61449371 C20.8705872,1.61948662 21.3393256,1.62447953 21.8086095,1.62947245 C22.2778935,1.63446536 22.7171652,1.63883416 23.1264245,1.64257884 C23.5335011,1.64757175 23.9105653,1.65194055 24.2576172,1.65568523 C24.6068518,1.65818169 24.9413531,1.66130226 25.261121,1.66504694 C25.5787062,1.66879163 25.8837408,1.6719122 26.1762248,1.67440865 C26.4665261,1.67815334 26.7715607,1.68127391 27.0913286,1.68377036 C27.4100052,1.68751505 27.7445064,1.69125973 28.0948324,1.69500441 C28.4418843,1.69750087 28.8020325,1.70062144 29.1752769,1.70436612 C29.5507041,1.70811081 29.938682,1.7124796 30.3392104,1.71747252 C30.7397388,1.7212172 31.1533636,1.72496188 31.5800846,1.72870657 C32.007897,1.73245125 32.449897,1.73682005 32.9060847,1.74181296 C33.3622724,1.74555765 33.8162774,1.74992644 34.2680997,1.75491936 C34.7199219,1.75866404 35.1706528,1.76240872 35.6202924,1.76615341 C36.0710233,1.77114632 36.5212085,1.77551512 36.9708481,1.7792598 C37.4183049,1.78300448 37.8646704,1.78674917 38.3099445,1.79049385 C38.7552186,1.79423854 39.1999471,1.79798322 39.6441298,1.8017279 C40.0872212,1.80672082 40.5281299,1.81108961 40.9668559,1.8148343 C41.4077646,1.81857898 41.8481276,1.82232367 42.2879449,1.82606835 C42.7266709,1.82856481 43.1626684,1.83168538 43.5959376,1.83543006 C44.0302982,1.83917474 44.4630217,1.84291943 44.8941081,1.84666411 C45.3241032,1.85040879 45.7535526,1.85352936 46.1824564,1.85602582 C46.6102688,1.8597705 47.0375355,1.86351519 47.4642565,1.86725987 C47.8898862,1.86975633 48.3149702,1.8728769 48.7395085,1.87662158 C49.1640468,1.87911804 49.585311,1.88223861 50.0033012,1.88598329 C50.4202,1.88847975 50.8376445,1.8909762 51.2556347,1.89347266 C51.6714421,1.89721734 52.0861582,1.90033791 52.4997829,1.90283437 C52.9134077,1.90533082 53.3237583,1.90845139 53.7308349,1.91219608 C54.1400942,1.91469253 54.5482621,1.91718899 54.9553387,1.91968545 C55.3624153,1.9221819 55.7673092,1.92467836 56.1700203,1.92717481 C56.5727315,1.92967127 56.9738056,1.93216773 57.3732427,1.93466418 C57.7715884,1.93716064 58.1688428,1.93965709 58.5650058,1.94215355 C58.9633515,1.94340178 59.3578774,1.94527412 59.7485836,1.94777058 C60.1403812,1.95026703 60.528359,1.95276349 60.9125171,1.95525994 C61.2934011,1.95650817 61.6715567,1.95838051 62.0469839,1.96087697 C62.4224111,1.96337343 62.7945642,1.96524577 63.1634432,1.966494 C63.5323223,1.96899045 63.8968359,1.97086279 64.2569841,1.97211102 C64.619315,1.97460748 64.9772805,1.97647982 65.3308805,1.97772805 C65.6866632,1.9802245 66.0380806,1.98209684 66.3851324,1.98334507 C66.7332757,1.9845933 67.0765078,1.98646564 67.4148288,1.9889621 C67.7542412,1.99021033 68.0996561,1.99145855 68.4510734,1.99270678 C68.800308,1.99395501 69.1566364,1.99520324 69.5200587,1.99645147 C69.8823896,1.99894792 70.2485402,2.00082026 70.6185106,2.00206849 C70.9917551,2.00331672 71.369365,2.00456495 71.7513404,2.00581318 C72.1344071,2.0070614 72.5245676,2.00893375 72.921822,2.0114302 C73.317985,2.01267843 73.7163307,2.01392666 74.1168591,2.01517489 C74.5195703,2.01642311 74.9288296,2.01767134 75.344637,2.01891957 C75.7626272,2.0201678 76.1849828,2.02141603 76.6117038,2.02266425 C77.0373335,2.02391248 77.4624175,2.02516071 77.8869558,2.02640894 C78.3114941,2.02765717 78.7343954,2.02828128 79.1556596,2.02828128 C79.5780152,2.02952951 80.0014622,2.03077774 80.4260005,2.03202596 C80.8494474,2.03202596 81.2723487,2.03265008 81.6947043,2.03389831 C82.1148772,2.03389831 82.5350501,2.03389831 82.955223,2.03389831 C83.3721218,2.03389831 83.7895663,2.03389831 84.2075564,2.03389831 C84.6277293,2.03389831 85.0468108,2.03389831 85.464801,2.03389831 C85.8827912,2.03389831 86.2991443,2.03389831 86.7138604,2.03389831 C87.1296678,2.03265008 87.5411098,2.03202596 87.9481864,2.03202596 C88.355263,2.03077774 88.7585198,2.02952951 89.1579569,2.02828128 C89.5563026,2.02828128 89.9502829,2.02703305 90.3398978,2.0245366 C90.730604,2.02328837 91.1163991,2.02204014 91.4972831,2.02079191 C91.8814411,2.01829546 92.259051,2.01642311 92.6301128,2.01517489 C93.0011746,2.01267843 93.3695079,2.01018197 93.7351129,2.00768552 C94.1018092,2.00518906 94.4614117,2.00269261 94.8139204,2.00019615 C95.1653377,1.99645147 95.5156637,1.9933309 95.8648983,1.99083444 C96.2152243,1.98708976 96.5584564,1.98396919 96.8945947,1.98147273 C97.2318244,1.97772805 97.6487232,1.97273513 98.1452911,1.966494 C98.6418591,1.96150108 99.2055455,1.95401172 99.8363505,1.94402589 C100.467156,1.9352883 101.008469,1.92717481 101.460291,1.91968545 C101.914296,1.91219608 102.323556,1.90470671 102.688069,1.89721734 C103.054766,1.8909762 103.451474,1.88348684 103.878195,1.87474924 C104.306008,1.86601164 104.721815,1.85664993 105.125618,1.84666411 C105.526146,1.83792652 105.91085,1.82856481 106.279729,1.81857898 C106.647517,1.80984139 106.99566,1.80047968 107.324159,1.79049385 C107.650475,1.78175626 108.021537,1.77114632 108.437344,1.75866404 C108.855334,1.74618176 109.375366,1.72933068 109.99744,1.70811081 C110.619515,1.68689093 111.143912,1.66816751 111.570633,1.65194055 C111.995171,1.63571359 112.374418,1.62011074 112.708374,1.605132 C113.041238,1.59140149 113.398658,1.57579864 113.780633,1.55832345 C114.161517,1.54209649 114.570777,1.52274895 115.008411,1.50028085 C115.444955,1.47906098 115.906053,1.45534464 116.391708,1.42913186 C116.878453,1.40291907 117.340098,1.37670628 117.776641,1.3504935 C118.213184,1.32428071 118.620261,1.29806792 118.997871,1.27185513 C119.375481,1.24564235 119.773281,1.21630899 120.191271,1.18385506 C120.605987,1.15140114 121.037619,1.11582664 121.486167,1.07713157 C121.933624,1.03843651 122.364165,0.997244983 122.77779,0.953557004 C123.191415,0.911117253 123.583212,0.865556933 123.953183,0.816876042 C124.324244,0.768195152 124.687667,0.723258945 125.043449,0.682067422 C125.398141,0.639627671 125.829227,0.591570895 126.336709,0.537897093 C126.845282,0.485471518 127.407877,0.436790628 128.024494,0.391854421 C128.642203,0.346918214 129.202615,0.310719603 129.705731,0.283258588 C130.208847,0.257045801 130.635023,0.23645004 130.984257,0.221471304 C131.336766,0.206492569 131.695277,0.192762061 132.059791,0.180279781 C132.422122,0.166549274 132.771356,0.154066994 133.107495,0.142832943 C133.446907,0.131598891 133.849072,0.118492497 134.313991,0.103513762 C134.777818,0.0885350262 135.273295,0.0741804046 135.800421,0.060449897 C136.326455,0.0454711615 136.853036,0.0336129958 137.380162,0.0248754001 C137.908379,0.0148895764 138.43987,0.00802432261 138.974636,0.00427963873 C139.509401,-0.000713273121 139.979777,-0.0013373871 140.385762,0.00240729678 C140.792839,0.00615198067 141.205918,0.0161378044 141.624999,0.0323647679 C142.045172,0.0485917314 142.277631,0.060449897 142.322377,0.0679392648 C142.36494,0.0766768605 142.598491,0.119116611 143.023029,0.195258517 C143.447567,0.271400423 143.874834,0.339428847 144.304829,0.399343789 C144.735915,0.459258731 145.239032,0.524790699 145.814177,0.595939693 C146.38714,0.665840459 146.888074,0.722634831 147.316977,0.76632281 C147.745881,0.810010788 148.1666,0.844961171 148.579133,0.871173958 C148.992758,0.897386746 149.296701,0.918606621 149.490963,0.934833584 C149.685225,0.951060548 150.003901,0.963542828 150.446993,0.972280423 C150.890084,0.981018019 151.317351,0.988507387 151.728793,0.994748527 C152.140235,1.00098967 152.609519,1.00785492 153.136645,1.01534429 C153.660497,1.02283366 154.162521,1.02969891 154.642719,1.03594005 C155.121825,1.04218119 155.691514,1.04904644 156.351786,1.05653581 C157.010966,1.06277695 157.691428,1.06714575 158.393171,1.0696422 C159.093823,1.07089043 159.743727,1.07900391 160.342882,1.09398265 C160.942038,1.11020961 161.599581,1.14141531 162.315512,1.18759975 C163.031443,1.23378418 163.652972,1.26311754 164.180098,1.27559982 C164.708315,1.28933033 165.240898,1.30368495 165.777846,1.31866368 C166.314794,1.33489065 166.590908,1.33426653 166.606187,1.31679134 C166.621466,1.29931615 166.629105,1.28995444 166.629105,1.28870621 C166.629105,1.28620976 166.952147,1.29057855 167.598231,1.30181261 C168.243224,1.31179843 168.937873,1.31554311 169.68218,1.31304666 C170.426486,1.31179843 171.352503,1.30181261 172.460232,1.28308919 C173.571234,1.26561399 174.517988,1.2481388 175.300491,1.23066361 C176.081904,1.21318842 177.739353,1.19758557 178.134424,1.18759975" id="STROKE_8adba27f-af86-497d-af94-82352c2dbb43" stroke="#000000" stroke-width="4"></path>
                            <path d="M178.134837,1.15208476 C178.124402,3.53917386 178.315217,7.42390221 178.312609,9.00874442 C178.307391,10.5947426 178.30087,12.4784044 178.293043,14.6597299 C178.286522,16.8422114 178.28587,19.1298866 178.291087,21.5227556 C178.295,23.9156246 178.304783,26.2281532 178.320435,28.4603416 C178.333478,30.6913741 178.356304,32.8414882 178.388913,34.9106841 C178.420217,36.978724 178.457391,38.8814594 178.500435,40.6188904 C178.543478,42.3574773 178.606087,44.2891121 178.688261,46.4137948 C178.766522,48.5396335 178.829783,50.110026 178.878043,51.1249724 C178.923696,52.1410747 178.971304,53.5282451 179.02087,55.2864836 C179.06913,57.0458781 179.098478,58.2891296 179.108913,59.0162381 C179.118043,59.7433466 179.123913,60.14736 179.126522,60.2282782 C179.12913,60.3091965 179.139565,60.944983 179.157826,62.1356376 C179.176087,63.3262922 179.197609,64.9949426 179.222391,67.1415888 C179.251087,69.2882351 179.273913,71.0615012 179.29087,72.4613874 C179.311739,73.8612735 179.327391,75.0721577 179.337826,76.0940399 C179.349565,77.1159221 179.359348,78.1794195 179.367174,79.2845319 C179.377609,80.3884884 179.388043,81.4456278 179.398478,82.4559503 C179.408913,83.4674287 179.423913,84.6592393 179.443478,86.031382 C179.461739,87.4035248 179.477391,88.8548518 179.490435,90.3853632 C179.503478,91.9147186 179.51587,93.4354042 179.527609,94.9474199 C179.543261,96.4594357 179.560217,97.9575797 179.578478,99.4418521 C179.595435,100.924968 179.611739,102.229487 179.627391,103.355407 C179.640435,104.481327 179.65087,105.414777 179.658696,106.155757 C179.66913,106.896737 179.678913,107.635983 179.688043,108.373496 C179.69587,109.109852 179.703696,109.809795 179.711522,110.473325 C179.716739,111.136855 179.723261,111.911358 179.731087,112.796835 C179.738913,113.683468 179.745435,114.603047 179.750652,115.55557 C179.75587,116.508094 179.757174,117.457728 179.754565,118.404472 C179.751957,119.351216 179.750652,120.293335 179.750652,121.230831 C179.753261,122.168327 179.750652,123.045713 179.742826,123.862987 C179.737609,124.680262 179.728478,125.44494 179.715435,126.15702 C179.702391,126.867945 179.686087,127.5991 179.666522,128.350484 C179.645652,129.101868 179.616304,129.871169 179.578478,130.658388 C179.539348,131.445608 179.502174,132.170982 179.466957,132.834512 C179.434348,133.496886 179.393913,134.238444 179.345652,135.059187 C179.294783,135.879929 179.271304,136.626689 179.275217,137.299467 C179.283043,137.972244 179.286957,138.278 179.286957,138.216733 C179.286957,138.155467 179.288261,138.363542 179.29087,138.84096 C179.29087,139.318378 179.288261,139.785392 179.283043,140.242002 C179.275217,140.698612 179.268043,141.114185 179.261522,141.488722 C179.256304,141.862102 179.248478,142.269583 179.238043,142.711165 C179.230217,143.153904 179.221087,143.577569 179.210652,143.98216 C179.200217,144.386752 179.18913,144.865326 179.177391,145.417882 C179.166957,145.969282 179.15913,146.545536 179.153913,147.146643 C179.146087,147.74775 179.14087,148.352903 179.138261,148.962102 C179.135652,149.571301 179.135652,150.185702 179.138261,150.805305 C179.138261,151.424908 179.135652,152.019657 179.130435,152.589553 C179.125217,153.159449 179.122609,153.705069 179.122609,154.226414 C179.122609,154.748915 179.118696,155.301471 179.11087,155.884083 C179.104348,156.466694 179.09587,157.081095 179.085435,157.727285 C179.077609,158.374631 179.069783,158.958977 179.061957,159.480322 C179.05413,160.002823 179.046304,160.562315 179.038478,161.158798 C179.033261,161.754125 179.030652,162.244259 179.030652,162.629199 C179.028043,163.015294 179.026087,163.269609 179.024783,163.392142 C179.022174,163.514676 179.02087,163.683448 179.02087,163.89846 C179.02087,164.113471 179.02087,164.207683 179.02087,164.181096 C179.02087,164.155664 179.019565,164.18283 179.016957,164.262592 C179.011739,164.34351 179.00913,164.538292 179.00913,164.846937 C179.006522,165.155583 179.006522,165.289098 179.00913,165.247483 C179.00913,165.205868 179.007826,165.439375 179.005217,165.948004 C179.002609,166.457789 179.001304,166.682048 179.001304,166.620782 C179.003913,166.559515 179.003913,166.642167 179.001304,166.868738 C179.001304,167.094154 179.001304,167.4658 179.001304,167.983677 C179.001304,168.500398 179.002609,168.966834 179.005217,169.382985 C179.007826,169.799136 179.011739,170.252856 179.016957,170.744146 C179.019565,171.235435 179.02413,171.700137 179.030652,172.138252 C179.03587,172.576367 179.041087,173.079794 179.046304,173.648534 C179.05413,174.217274 179.064565,174.923575 179.077609,175.767437 C179.090652,176.612455 179.103043,177.345343 179.114783,177.966102 L178.134837,1.15208476 Z" id="STROKE_5b809c9a-db9e-4aa1-a997-4bc4ffe024cb" stroke="#000000" stroke-width="4"></path>
                            <path d="M179.021739,178.220339 C176.540122,178.251525 173.765461,178.279322 170.697756,178.303729 C167.631139,178.328136 165.075989,178.343051 163.032305,178.348475 C160.987531,178.353898 159.274474,178.35661 157.893135,178.35661 C156.511796,178.355254 155.131002,178.351864 153.750752,178.346441 C152.371592,178.341017 150.98644,178.332881 149.595297,178.322034 C148.205243,178.312542 146.841334,178.301017 145.50357,178.287458 C144.166896,178.275254 142.890138,178.263051 141.673296,178.250847 C140.456454,178.238644 139.306609,178.227119 138.223761,178.216271 C137.140914,178.20678 136.107633,178.197288 135.123919,178.187797 C134.139116,178.178305 133.303013,178.170169 132.615612,178.16339 C131.93039,178.15661 131.366633,178.151864 130.924343,178.149153 C130.484232,178.146441 130.045755,178.145085 129.608912,178.145085 C129.175337,178.143729 128.741762,178.143051 128.308188,178.143051 C127.871345,178.144407 127.432867,178.145763 126.992756,178.147119 C126.553735,178.148475 126.106542,178.150508 125.65118,178.15322 C125.196907,178.157288 124.732284,178.161356 124.257313,178.165424 C123.782341,178.169492 123.295931,178.174237 122.798083,178.179661 C122.300234,178.186441 121.790947,178.19322 121.270222,178.2 C120.748407,178.20678 120.192821,178.214237 119.603464,178.222373 C119.014107,178.230508 118.472684,178.238644 117.979193,178.24678 C117.48788,178.254915 117.070102,178.261695 116.725856,178.267119 C116.380521,178.272542 116.027016,178.277966 115.665341,178.28339 C115.303665,178.288814 114.933275,178.294915 114.554169,178.301695 C114.176153,178.308475 113.789421,178.315254 113.393975,178.322034 C112.997439,178.328814 112.58892,178.335593 112.168418,178.342373 C111.746826,178.349153 111.311617,178.35661 110.862791,178.364746 C110.413965,178.372881 109.952066,178.381017 109.477095,178.389153 C109.001034,178.397288 108.514079,178.406102 108.016231,178.415593 C107.516203,178.423729 107.002014,178.432542 106.473663,178.442034 C105.946401,178.451525 105.407156,178.461695 104.855927,178.472542 C104.306878,178.482034 103.743122,178.492203 103.164659,178.503051 C102.586196,178.513898 101.99466,178.524746 101.390052,178.535593 C100.787623,178.546441 100.172665,178.557288 99.5451801,178.568136 C98.9198737,178.580339 98.282584,178.591864 97.6333111,178.602712 C96.9840382,178.613559 96.40612,178.623729 95.8995564,178.63322 C95.3962609,178.641356 94.9741246,178.648136 94.6331474,178.653559 C94.2932596,178.658983 93.9495589,178.665085 93.6020454,178.671864 C93.2534425,178.677288 92.9026608,178.682712 92.5497004,178.688136 C92.1945612,178.693559 91.8377879,178.699661 91.4793805,178.706441 C91.1220626,178.711864 90.7614765,178.717288 90.3976222,178.722712 C90.0315891,178.729492 89.6633773,178.735593 89.2929867,178.741017 C88.9236855,178.746441 88.5516609,178.752542 88.1769128,178.759322 C87.7999859,178.764746 87.4214249,178.770847 87.0412299,178.777627 C86.6577667,178.783051 86.2726694,178.788475 85.8859381,178.793898 C85.4981174,178.800678 85.1075732,178.80678 84.7143055,178.812203 C84.3199485,178.818983 83.9239574,178.825085 83.5263322,178.830508 C83.128707,178.835932 82.7278137,178.842034 82.3236522,178.848814 C81.9173119,178.854237 81.5087929,178.860339 81.0980951,178.867119 C80.6873973,178.872542 80.2745208,178.878644 79.8594654,178.885424 C79.4422313,178.890847 79.0233632,178.896949 78.6028609,178.903729 C78.1790905,178.909153 77.752052,178.915254 77.3217453,178.922034 C76.8925279,178.928814 76.4616766,178.934915 76.0291911,178.940339 C75.5956162,178.947119 75.1576838,178.95322 74.7153939,178.958644 C74.2720146,178.965424 73.8270012,178.972203 73.3803537,178.978983 C72.935885,178.984407 72.4870588,178.990508 72.033875,178.997288 C71.58287,179.002712 71.1275075,179.008814 70.6677874,179.015593 C70.2102461,179.022373 69.7483473,179.029153 69.2820909,179.035932 C68.8191027,179.041356 68.3523016,179.047458 67.8816877,179.054237 C67.4110738,179.061017 66.9377364,179.067119 66.4616755,179.072542 C65.9845253,179.079322 65.505741,179.086102 65.0253227,179.092881 C64.5427255,179.099661 64.0574049,179.105763 63.5693609,179.111186 C63.0802274,179.117966 62.5889152,179.124746 62.0954242,179.131525 C61.6019332,179.138305 61.1062635,179.145085 60.608415,179.151864 C60.1105665,179.157288 59.6094498,179.16339 59.105065,179.170169 C58.6006802,179.176949 58.0941166,179.183729 57.5853742,179.190508 C57.0766318,179.197288 56.565166,179.204068 56.0509768,179.210847 C55.5335193,179.216271 55.0155172,179.222373 54.4969704,179.229153 C53.9773342,179.235932 53.4549745,179.242712 52.9298914,179.249492 C52.4037189,179.256271 51.8759123,179.263051 51.3464717,179.269831 C50.8181204,179.27661 50.2859563,179.28339 49.7499793,179.290169 C49.2140024,179.295593 48.6758467,179.301695 48.1355122,179.308475 C47.5929989,179.315254 47.0483069,179.322034 46.5014361,179.328814 C45.956744,179.335593 45.4098732,179.342373 44.8608237,179.349153 C44.3095953,179.355932 43.7561882,179.362712 43.2006024,179.369492 C42.6439271,179.376271 42.0845284,179.383051 41.5224062,179.389831 C40.9591946,179.39661 40.3932596,179.40339 39.8246011,179.410169 C39.2592108,179.416949 38.691097,179.423729 38.1202598,179.430508 C37.5505119,179.437288 36.9666021,179.444068 36.3685302,179.450847 C35.7704584,179.457627 35.1631267,179.464407 34.5465354,179.471186 C33.9310334,179.477966 33.3030034,179.485424 32.6624456,179.493559 C32.019709,179.500339 31.4505059,179.506441 30.9548361,179.511864 C30.4591664,179.517288 30.0435663,179.522034 29.708036,179.526102 C29.3692376,179.530169 29.0288051,179.534237 28.6867385,179.538305 C28.3435825,179.542373 27.9987924,179.545763 27.6523683,179.548475 C27.3037654,179.552542 26.9524391,179.55661 26.5983892,179.560678 C26.2454288,179.564746 25.8881108,179.568814 25.5264353,179.572881 C25.1669386,179.576949 24.8052631,179.581017 24.4414088,179.585085 C24.0753757,179.589153 23.7060745,179.59322 23.3335052,179.597288 C22.9609359,179.601356 22.5878218,179.605424 22.2141631,179.609492 C21.8372362,179.613559 21.4581305,179.617627 21.0768461,179.621695 C20.6944723,179.625763 20.309375,179.629831 19.9215543,179.633898 C19.534823,179.637966 19.1437341,179.642034 18.7482877,179.646102 C18.3517519,179.650169 17.953582,179.654915 17.5537781,179.660339 C17.1561529,179.664407 16.7552595,179.668475 16.3510981,179.672542 C15.9469366,179.67661 15.5395069,179.680678 15.1288091,179.684746 C14.7159326,179.690169 14.3008772,179.694915 13.8836431,179.698983 C13.4642303,179.703051 13.0453621,179.707119 12.6270386,179.711186 C12.2076258,179.71661 11.7838554,179.721356 11.3557274,179.725424 C10.9265101,179.729492 10.4945693,179.734237 10.0599051,179.739661 C9.62633023,179.743729 9.19003192,179.747797 8.75101014,179.751864 C8.31089898,179.757288 7.86969843,179.762034 7.4274085,179.766102 C6.98511857,179.771525 6.53738172,179.776271 6.08419795,179.780339 C5.63319295,179.785763 5.18000918,179.790508 4.72464664,179.794576 C4.27146287,179.8 3.81392157,179.804746 3.35202272,179.808814 C2.88794511,179.814237 2.42277812,179.818983 1.95652174,179.823051" id="STROKE_fd79e021-1145-4e4c-91a9-f96bc2fe9f49" stroke="#000000" stroke-width="4"></path>
                            <path d="M1.95652174,178.983051 C1.94093192,177.401562 1.9201455,176.185077 1.89416248,175.333596 C1.86947861,174.482114 1.84414516,173.728969 1.81816213,173.074161 C1.79347826,172.419353 1.76359778,171.72521 1.7285207,170.991733 C1.69474277,170.257099 1.66161441,169.545024 1.62913563,168.855509 C1.597956,168.165994 1.56742595,167.496724 1.53754547,166.847701 C1.50896414,166.198678 1.48103239,165.494701 1.45375022,164.735772 C1.42257059,163.976843 1.38814308,163.163539 1.35046769,162.29586 C1.31279231,161.428182 1.2783648,160.534473 1.24718517,159.614734 C1.21730469,158.694995 1.19716785,157.744598 1.18677464,156.763543 C1.17378313,155.781331 1.16403949,154.865641 1.15754374,154.016473 C1.15234713,153.168462 1.14974883,152.387552 1.14974883,151.673742 C1.15234713,150.958775 1.16209077,150.255377 1.17897973,149.563548 C1.19976615,148.872876 1.23029621,148.192616 1.27056989,147.522768 C1.31344188,146.85292 1.34137364,146.221251 1.35436515,145.627759 C1.36995496,145.034267 1.36735666,144.351114 1.34657024,143.578302 C1.32968127,142.80549 1.32968127,142.059865 1.34657024,141.341427 C1.36475836,140.621833 1.36475836,139.984378 1.34657024,139.429064 C1.32708297,138.872593 1.29265547,138.285464 1.24328772,137.667677 C1.19521912,137.048733 1.16274034,136.349384 1.14585138,135.569631 C1.12766326,134.78872 1.10557769,134.062763 1.07959466,133.391758 C1.05231249,132.720754 1.03477395,132.270139 1.02697904,132.039915 C1.01658583,131.810848 1.01009007,131.315693 1.00749177,130.55445 C1.00489347,129.79205 1.00359432,128.682 1.00359432,127.2243 C1.00619262,125.766601 1.01138923,124.265517 1.01918413,122.721049 C1.02438074,121.177739 1.02957734,119.588152 1.03477395,117.952289 C1.03997055,116.317583 1.04516716,114.736673 1.05036376,113.209559 C1.05556037,111.682445 1.06075697,110.340436 1.06595358,109.183531 C1.06855188,108.027784 1.07115018,106.801465 1.07374848,105.504575 C1.07764594,104.207685 1.07959466,102.911952 1.07959466,101.617376 C1.07959466,100.321643 1.07959466,98.6990843 1.07959466,96.7497002 C1.07959466,94.8003161 1.07764594,92.5958346 1.07374848,90.1362556 C1.07115018,87.6766766 1.06075697,85.0638078 1.04256886,82.2976491 C1.02697904,79.5326474 1.0068422,76.6027867 0.982158323,73.5080672 C0.956175299,70.4121907 0.915252035,67.3585413 0.859388533,64.3471188 C0.800926728,61.3356964 0.727524684,58.397159 0.639182401,55.5315065 C0.548241815,52.665854 0.48978001,50.1195072 0.463796986,47.8924661 C0.43651481,45.6654249 0.43651481,43.7900827 0.463796986,42.2664395 C0.492378313,40.7416393 0.498874069,38.4845186 0.483284254,35.4950774 C0.46769444,32.5056361 0.425472025,28.7277645 0.35661701,24.1614624 C0.289061147,19.5963172 0.220855708,15.3261827 0.152000693,11.3510588 C0.0805473757,7.37593495 0.0298804781,4.60919783 0,3.05084746" id="STROKE_f211bdbc-4187-49e5-a577-21a2ed16bb35" stroke="#000000" stroke-width="4"></path>
                        </g>
                    </g>
                </g>
                <path d="M225.164562,33.4095735 L240.520591,36.4414654 L228.88146,46.9071536 L227.285647,41.1127856 C210.113899,45.6418869 196.621388,48.4122937 186.794514,49.4233576 C174.731361,50.6645072 159.016632,50.1990096 139.639143,48.0317991 L138.578556,47.9119 L137.58502,47.7983887 L137.812042,45.8113153 L138.805579,45.9248266 C158.539446,48.1794145 174.471461,48.6806897 186.58982,47.4338602 C196.291797,46.4356465 209.684519,43.6860772 226.754405,39.1845051 L225.164562,33.4095735 Z" id="Line" fill="#022659" fill-rule="nonzero" transform="translate(189.052805, 41.755066) rotate(-23.000000) translate(-189.052805, -41.755066) "></path>
            </g>
        </g>
    </g>
</svg>