<svg xmlns="http://www.w3.org/2000/svg" width="81" height="64" viewBox="0 0 81 64">
    <defs>
        <filter id="a43ezmj1pa" color-interpolation-filters="auto">
            <feColorMatrix in="SourceGraphic" values="0 0 0 0 0.007843 0 0 0 0 0.149020 0 0 0 0 0.349020 0 0 0 1.000000 0"/>
        </filter>
    </defs>
    <g fill="none" fill-rule="evenodd">
        <g>
            <g>
                <g>
                    <g stroke-linecap="round" stroke-linejoin="round" filter="url(#a43ezmj1pa)" transform="translate(-463.000000, -2049.000000) translate(44.000000, 1872.000000) translate(419.374145, 177.400722)">
                        <g>
                            <path stroke="#000" d="M5.373 5.308c-.122.063-.204.11-.249.139l-.099.065c-.022.015-.028.017-.018.008.01-.009-.02.01-.09.057-.07.048-.139.099-.209.154-.07.055-.1.08-.088.074.012-.006-.006.012-.055.053-.048.04-.073.059-.074.053 0-.005-.039.029-.116.102-.076.074-.191.191-.344.352-.152.16-.283.302-.392.425-.11.123-.215.244-.318.363-.103.119-.189.229-.258.33-.07.102-.114.164-.132.187-.019.023-.033.043-.042.06-.009.018-.006.02.009.008.014-.013-.005.024-.056.109-.051.084-.113.187-.183.307-.07.12-.126.218-.166.293-.04.075-.042.098-.009.071.033-.027-.003.055-.109.245s-.218.4-.336.63c-.117.231-.215.434-.295.61-.08.176-.173.385-.28.626-.108.24-.19.431-.247.571-.057.14-.113.28-.167.42-.054.139-.107.28-.158.422-.05.143-.102.296-.154.46-.05.163-.096.304-.135.423-.039.12-.077.258-.114.415-.036.157-.068.268-.094.333-.026.066-.074.281-.144.647-.069.365-.112.729-.128 1.09-.016.362-.027.641-.032.84-.005.197-.011.333-.017.408l-.033.476c-.016.243-.027.482-.033.717-.006.236-.009.418-.008.547l.004.297c.001.071.004.134.007.19.002.057.005.096.01.116.005.02.007.028.005.024-.003-.004-.005.068-.006.217-.002.15-.003.374-.004.675-.001.301.005.594.02.88.016.284.039.561.07.83.032.268.057.504.074.706.017.203.028.372.031.507.004.135.021.3.053.493.033.194.08.417.14.67.06.253.13.493.21.72.079.228.168.443.267.645.1.202.192.393.278.57l.296.615c.111.232.208.426.291.582.083.157.139.256.167.298.027.042.07.112.126.21l.163.28c.052.09.111.189.177.297.064.109.098.164.1.165.003.002.101.143.296.425.194.28.36.522.5.722.14.2.248.353.326.46.078.105.135.18.172.226.035.045.047.059.036.041l-.01-.015.004.005.042.062c.03.047.098.138.203.274.104.136.15.195.14.178-.01-.018-.003-.011.023.02.027.033.065.075.116.127.05.051.127.136.23.255.102.118.239.277.41.478.172.201.323.374.454.52.13.145.262.285.395.42.134.136.258.252.37.35l.218.187c.033.026.073.059.123.097.048.04.074.06.075.06l-.013-.012c-.01-.01.018.013.086.068l.19.148c.06.044.082.056.068.035-.013-.02.021 0 .103.061.082.061.217.152.406.271l.762.48c.32.2.607.372.859.519.25.146.47.264.655.356.185.09.36.178.525.262.164.084.354.184.568.299.215.115.463.22.744.314.281.095.54.168.774.22.235.053.493.1.774.142.282.042.533.085.753.13.22.044.41.09.57.136.16.047.354.09.581.126.227.037.488.069.782.095.294.027.578.049.851.066.274.017.537.029.79.036.252.008.491.011.718.01.227 0 .44-.004.642-.012s.388-.02.56-.037c.173-.016.366-.042.582-.078.215-.037.486-.08.813-.13.326-.049.652-.1.979-.153.326-.053.593-.103.802-.148.208-.046.332-.072.372-.079.04-.006.185-.046.435-.12.25-.072.502-.162.757-.269.254-.107.45-.196.588-.268.137-.072.235-.127.294-.165.058-.039.173-.111.344-.218.171-.107.33-.199.474-.275.145-.076.32-.181.525-.316.205-.134.348-.234.428-.3.08-.067.133-.113.16-.138l.07-.066.164-.154c.09-.085.134-.129.134-.133 0-.004-.004.001-.013.015-.009.014.003.007.034-.02.031-.029.084-.07.159-.126.074-.057.113-.089.119-.096l-.02.035c-.02.03.136-.07.466-.302.332-.232.643-.474.934-.725l.654-.562c.145-.124.3-.26.467-.406.166-.147.262-.236.289-.266.026-.03.062-.064.107-.105.045-.04.125-.12.242-.24.116-.12.217-.243.302-.367.085-.124.23-.311.434-.56.205-.25.353-.428.444-.534.092-.107.165-.194.22-.26.054-.068.138-.187.252-.358.113-.172.201-.313.265-.424.064-.11.118-.185.162-.224.043-.039.105-.126.185-.263.08-.136.184-.33.314-.58.129-.252.241-.483.337-.695.095-.212.19-.446.286-.703.096-.257.184-.507.264-.75.08-.241.136-.412.166-.511.03-.099.057-.192.081-.28.024-.086.052-.181.085-.284.033-.104.063-.2.092-.287l.087-.26.065-.195c.013-.043.017-.059.011-.048-.006.011.001-.006.022-.05.02-.045.067-.202.14-.471.073-.27.15-.577.23-.922.08-.345.141-.602.184-.772.043-.17.084-.293.124-.368.04-.075.075-.202.107-.38.032-.18.065-.422.098-.728.034-.306.062-.594.085-.864.022-.269.04-.52.052-.753.013-.233.022-.468.028-.707.005-.238.007-.48.003-.724-.003-.243-.011-.507-.025-.791-.013-.285-.034-.59-.061-.913-.028-.324-.056-.611-.085-.861-.029-.25-.062-.508-.097-.774-.037-.265-.074-.49-.111-.673-.038-.183-.066-.31-.084-.383-.019-.073-.03-.094-.035-.063-.006.03-.021-.006-.045-.111-.024-.106-.065-.298-.123-.576-.06-.278-.142-.546-.248-.801-.106-.256-.212-.465-.317-.629-.104-.163-.176-.281-.216-.354l-.142-.248c-.054-.091-.09-.152-.108-.18-.02-.029-.027-.037-.022-.025.005.011 0 .003-.017-.026-.016-.028-.088-.144-.213-.346-.127-.203-.197-.313-.21-.329-.014-.016-.09-.126-.227-.331-.138-.205-.296-.41-.472-.613s-.33-.379-.461-.527c-.131-.148-.237-.286-.318-.413-.08-.127-.11-.167-.09-.121.02.046.003.012-.051-.102-.056-.114-.17-.271-.345-.47-.174-.2-.318-.362-.431-.485-.113-.123-.206-.212-.28-.268l-.097-.074.01.006c-.003 0-.008-.005-.016-.012-.008-.008-.048-.037-.12-.087l-.244-.175c-.091-.066-.175-.13-.252-.192-.076-.063-.11-.091-.101-.085l.011.007s-.01-.008-.03-.02c-.02-.014-.104-.08-.249-.197l-.364-.297-.235-.193c-.06-.048-.136-.112-.228-.192-.092-.079-.186-.157-.284-.234l-.2-.159c-.035-.029-.088-.07-.158-.125-.07-.054-.11-.087-.122-.099-.013-.01-.05-.038-.113-.082l-.195-.134c-.067-.046-.103-.07-.106-.07-.004 0 .008.004.034.012.026.007-.117-.074-.43-.243-.313-.17-.555-.292-.727-.366-.171-.074-.358-.186-.562-.336-.203-.15-.382-.276-.537-.377-.155-.101-.32-.203-.495-.306-.174-.103-.326-.188-.455-.254s-.255-.121-.38-.166c-.123-.044-.258-.089-.403-.134-.145-.045-.245-.075-.3-.09-.056-.013-.15-.033-.284-.06-.133-.025-.292-.051-.477-.078-.184-.026-.417-.057-.698-.093l-.748-.098c-.218-.03-.442-.061-.674-.095-.232-.034-.426-.062-.583-.082-.157-.021-.21-.033-.162-.035.048-.002.022-.013-.079-.033-.1-.02-.269-.048-.504-.088-.235-.039-.472-.068-.71-.086-.24-.019-.48-.027-.722-.025-.243.002-.458.008-.644.017-.187.01-.377.026-.57.052l-.446.057c-.103.013-.228.026-.374.04-.147.015-.337.045-.571.09-.234.046-.452.094-.654.144-.203.05-.345.083-.428.1-.082.016-.188.04-.315.072l-.239.06-.25.068c-.134.036-.25.069-.35.098l-.16.048c-.009.004-.031.01-.07.022l-.135.04c-.052.014-.071.014-.056-.002.015-.016-.03-.005-.133.033-.103.038-.205.078-.305.12l-.23.098c-.054.023-.08.032-.076.028.004-.003-.003-.002-.02.006l-.166.066-.167.067c-.017.008-.021.007-.011-.004.01-.01-.02 0-.091.03l-.247.107-.31.136c-.113.05-.17.076-.17.078l.009-.005c.007-.005-.02.003-.078.023-.06.02-.223.097-.49.232-.267.134-.468.241-.601.321-.133.08-.235.145-.305.195-.07.05-.107.074-.109.072-.003-.002-.002-.003.002-.003s.007-.003.01-.01c.001-.007-.03.013-.092.06L9 2.688c-.052.04-.075.056-.069.05.005-.005 0-.005-.014 0l.02-.008c.029-.01-.11.081-.412.277l-.706.453c-.167.107-.282.182-.343.225L7.2 3.88c-.12.087-.17.123-.15.107.023-.015-.002.002-.071.051l-.086.06c.012-.007.014-.007.005.003-.01.01-.035.026-.079.05-.043.024-.1.061-.17.113-.07.052-.162.132-.28.239l-.306.282-.14.13c-.008.007.001.003.028-.011.025-.014-.006.015-.094.086-.087.071-.134.108-.14.108" transform="translate(22.921228, 8.772563)"/>
                        </g>
                    </g>
                    <path fill="#022659" fill-rule="nonzero" d="M8.24 32.287l7.517 1.749-6.186 4.614-.617-2.946-.219.039c-.813.14-1.566.254-2.259.344-2.149.28-4.084.302-5.804.064l-.425-.065L0 36.045l.082-.493.247.041c1.773.296 3.8.296 6.083-.001.686-.09 1.432-.204 2.239-.342l.2-.036-.61-2.927z" transform="translate(-463.000000, -2049.000000) translate(44.000000, 1872.000000) translate(419.374145, 177.400722)"/>
                    <path fill="#022659" fill-rule="nonzero" d="M21.102 50.07l7.564 1.535-6.054 4.787-.7-2.927-.289.06c-.9.179-1.728.326-2.487.442-2.224.339-4.221.383-5.994.13l-.405-.063-.246-.042.084-.493.247.042c1.814.311 3.894.289 6.239-.068.75-.115 1.572-.261 2.465-.44l.27-.055-.694-2.908z" transform="translate(-463.000000, -2049.000000) translate(44.000000, 1872.000000) translate(419.374145, 177.400722) translate(20.578344, 53.230627) rotate(-32.000000) translate(-20.578344, -53.230627)"/>
                    <path fill="#022659" fill-rule="nonzero" d="M58.63 51.723l6.74 3.76-7.22 2.722.219-2.967-.146.002c-.907.014-1.74.07-2.497.167-2.222.286-3.71.674-4.444 1.149l-.11.075-.201.149-.297-.403.201-.148c.78-.575 2.367-1.007 4.787-1.318.777-.1 1.627-.156 2.552-.171l.192-.003.224-3.014z" transform="translate(-463.000000, -2049.000000) translate(44.000000, 1872.000000) translate(419.374145, 177.400722) translate(58.022367, 54.964153) rotate(-130.000000) translate(-58.022367, -54.964153)"/>
                    <path fill="#022659" fill-rule="nonzero" d="M71.8 27.984l6.782 3.684-7.191 2.803.187-2.968-.198.005c-.834.029-1.604.094-2.308.195-2.194.316-3.665.728-4.395 1.218l-.11.078-.198.151-.304-.397.2-.152c.774-.592 2.346-1.049 4.736-1.393.722-.104 1.51-.17 2.361-.2l.247-.006.191-3.018z" transform="translate(-463.000000, -2049.000000) translate(44.000000, 1872.000000) translate(419.374145, 177.400722) translate(71.323551, 31.227586) rotate(180.000000) translate(-71.323551, -31.227586)"/>
                    <path fill="#022659" fill-rule="nonzero" d="M65.93 6.934l6.826 3.6-7.156 2.892.151-2.972-.22.009c-.857.037-1.648.111-2.372.222-2.222.338-3.713.764-4.458 1.26l-.111.078-.2.15-.301-.399.2-.15c.787-.594 2.378-1.065 4.794-1.434.742-.113 1.55-.189 2.426-.227l.267-.01.153-3.019z" transform="translate(-463.000000, -2049.000000) translate(44.000000, 1872.000000) translate(419.374145, 177.400722) translate(65.422329, 10.180090) rotate(140.000000) translate(-65.422329, -10.180090)"/>
                </g>
            </g>
        </g>
    </g>
</svg>
