<svg xmlns="http://www.w3.org/2000/svg" width="197" height="122" viewBox="0 0 197 122">
    <defs>
        <filter id="54dvm6bxia" color-interpolation-filters="auto">
            <feColorMatrix in="SourceGraphic" values="0 0 0 0 0.647059 0 0 0 0 0.129412 0 0 0 0 0.231373 0 0 0 1.000000 0"/>
        </filter>
    </defs>
    <g fill="none" fill-rule="evenodd">
        <g filter="url(#54dvm6bxia)" transform="translate(-128.000000, -1639.000000)">
            <g>
                <path stroke="#000" stroke-linecap="round" stroke-linejoin="round" stroke-width="4" d="M69.52 9.456l-4.087.018.874-.003 1.3-.007c.232 0 3.01-.013 8.337-.038l12.857-.06 6.6-.03 3.539-.015c1.206-.006 2.5-.012 3.881-.017l10.558-.05c5.66-.027 10.048-.047 13.164-.06l5.714-.028 4.942-.022 5.09-.023 6.766-.033 8.786-.04 4.742-.02 2.312-.012c.517-.002 1.036-.004 1.555-.008h.4c-.254 0 .055-.001.925-.005l2.788-.012c.995-.005 1.757-.009 2.287-.01l1.235-.008h.097l3.842-.017c2.787-.014 4.799-.023 6.035-.028l2.72-.012c.582-.004 1.11-.006 1.588-.008l.732-.002.087-.003.654-.002.644-.003h.03l.41-.002c.3 0 .993-.004 2.076-.01M67.852 46.243l-3.31.015 1.004-.002c.517-.004 1.025-.006 1.522-.008.496-.003.974-.006 1.433-.007l1.08-.005c.265-.002.548-.003.85-.003l1.068-.005c.409-.003.593-.004.551-.002h-.312l2.037-.01 3.939-.018 2.36-.01c.475-.003.972-.006 1.491-.007l.674-.003.34-.002c.296-.002 1.822-.009 4.577-.02 2.757-.014 5.471-.026 8.142-.038l5.806-.027 2.419-.01 2.598-.013 2.648-.013 1.248-.005 2.154-.01 2.936-.015 2.608-.01c.832-.005 1.915-.01 3.25-.015 1.34-.006 1.957-.01 1.854-.01l2.788-.012c1.959-.008 4.767-.022 8.424-.04-.136.002-.635.004-1.497.007M64.892 78.004h-.18l1.732-.008c1.614-.006 4.196-.018 7.745-.035M67.872 110.73l-1.053.006c-1.255.003-1.69.004-1.303.002h-.073c.446 0 3.305-.009 8.577-.027l14.91-.048c4.668-.015 8.187-.026 10.556-.032l4.86-.018c.872-.001 1.469-.003 1.79-.005l1.208-.005h.597l1.208-.005c.897-.003 1.748-.006 2.553-.007l2.05-.008 1.397-.002.664-.003h-.062l.569-.002 1.457-.005 1.448-.005.674-.003h.569l.394-.002.47-.003c.266 0 .554 0 .863-.002h.36c-.1 0 .838-.004 2.813-.01l4.655-.015 2.848-.008 1.92-.007 1.492-.005.834-.003h.312l.19-.002 1.62-.005 2.895-.008 2.124-.007.731-.003h-.107.337c.208-.002.639-.003 1.293-.005M16.147 69.066l-.145-.145c-.02-.015-.04-.032-.06-.05.03.026.107.1.23.222.126.12.165.174.117.16-.048-.011-.052-.02-.01-.027.045-.007.364.378.956 1.154.594.777 1.05 1.61 1.365 2.5.315.888.49 1.762.527 2.623.032.862.018 1.506-.04 1.933-.055.427-.147.863-.277 1.309-.131.444-.177.641-.137.593.038-.05-.11.33-.445 1.139-.337.81-.834 1.586-1.49 2.33-.654.743-1.257 1.295-1.81 1.657-.552.362-1.17.685-1.851.969-.683.285-1.414.469-2.194.55-.78.084-1.463.079-2.047-.014-.586-.096-1.13-.205-1.635-.328-.504-.125-1.12-.393-1.847-.804-.729-.409-1.355-.88-1.877-1.416-.526-.536-.906-.98-1.14-1.335-.239-.352-.423-.634-.552-.846-.13-.213-.29-.542-.482-.986-.188-.445-.311-.78-.37-1.006-.063-.225-.115-.423-.157-.593-.045-.17-.077-.306-.097-.406-.02-.098-.025-.17-.015-.217.01-.046.008-.022-.005.07-.01.09-.052-.27-.127-1.08-.072-.809-.05-1.628.065-2.457.113-.83.4-1.72.86-2.673.463-.953.957-1.722 1.483-2.306.531-.582 1.131-1.108 1.8-1.577.669-.468 1.424-.842 2.266-1.12.842-.28 1.77-.43 2.783-.454 1.015-.023 1.95.124 2.803.443.856.319 1.483.62 1.882.901.403.28.69.477.86.588.172.11.546.443 1.12.997.579.552 1.075 1.241 1.487 2.067.413.824.664 1.43.752 1.82.086.389.197.744.332 1.066.133.32.099 1.69-.103 4.107M.407 15.343c.08-.128.388-.632.926-1.511l1.433-2.338.973-1.595.826-1.349c.315-.517.844-1.384 1.588-2.6l2.306-3.765C9.249.89 9.695.162 9.794 0c.232.355.905 1.4 2.02 3.136l7.702 12M.484 16.292H.074l1.341-.005 1.847-.01 1.263-.005 1.35-.007.854-.003c.165 0 .278 0 .34-.002h.095l1.991-.008 3.847-.02 2.683-.012 1.168-.005c.208 0 .355-.001.44-.003H17.41c-.088.002.397 0 1.457-.005h-.16l.452-.002h-.047.023M19.439 35.943v-.408c-.007-.083-.008-.302-.005-.655.003.327.045 6.26.125 17.801l-9.657.073c-6.119.045-9.372.068-9.76.07-.003.011-.05-6.29-.142-18.906l10.408-.077c5.953-.044 8.956-.066 9.011-.068h.005" transform="translate(130.000000, 1641.000000)"/>
                <g fill="#1E2422">
                    <path d="M9.548 1.596c.22 0 .397.178.397.399v7.18h7.16c.22 0 .399.179.399.4 0 .22-.178.398-.398.398h-7.16v7.18c0 .221-.179.4-.398.4-.22 0-.398-.179-.398-.4v-7.18H1.99c-.22 0-.399-.178-.399-.399 0-.22.178-.399.398-.399h7.16v-7.18c0-.22.179-.4.399-.4z" transform="translate(130.000000, 1641.000000) translate(0.893576, 100.851505)"/>
                </g>
                <path stroke="#000" stroke-linecap="round" stroke-linejoin="round" stroke-width="4" d="M19.564 52.681c.125-.002-4.578.033-14.108.105l6.298-.047c4.704-.036 7.307-.055 7.81-.058" transform="translate(130.000000, 1641.000000)"/>
            </g>
        </g>
    </g>
</svg>
