<svg xmlns="http://www.w3.org/2000/svg" width="60" height="60" viewBox="0 0 60 60">
    <defs>
        <filter id="i6f5ff1dfa" color-interpolation-filters="auto">
            <feColorMatrix in="SourceGraphic" values="0 0 0 0 0.647059 0 0 0 0 0.129412 0 0 0 0 0.231373 0 0 0 1.000000 0"/>
        </filter>
    </defs>
    <g fill="none" fill-rule="evenodd" stroke-linecap="round" stroke-linejoin="round">
        <g>
            <g>
                <g filter="url(#i6f5ff1dfa)" transform="translate(-1045.000000, -2051.000000) translate(44.000000, 1872.000000) translate(562.000000, 0.000000)">
                    <g stroke="#000">
                        <path d="M7.714 48.358c-.399.063-.536.088-.411.073-.426.399-.558.528-.395.389-.01.01-.013.036-.008.078-.064.01-.06.028.012.055.073.028.391-.196.956-.672.564-.476 1.38-1.17 2.446-2.078 1.065-.91 1.932-1.636 2.602-2.178.669-.542 1.656-1.472 2.962-2.791 1.305-1.318 3.16-3.122 5.568-5.412 2.407-2.289 4.272-4.042 5.596-5.258 1.323-1.217 2.87-2.821 4.638-4.814 1.768-1.992 3.074-3.49 3.918-4.495.845-1.004 1.74-1.954 2.685-2.85.946-.896 1.75-1.68 2.41-2.352.66-.672 1.401-1.413 2.222-2.221.821-.81 1.387-1.343 1.697-1.603.31-.26.704-.595 1.181-1.005.477-.409.857-.721 1.14-.936.285-.214.734-.65 1.35-1.304.003.02-.008.053-.034.096-.025.044-.065.099-.118.166" transform="translate(440.000000, 180.335821)"/>
                        <path d="M1.016 28.856c-.338-.221-.455-.295-.353-.222-.585.007-.77.014-.556.02-.014.002-.033.02-.057.053-.055-.036-.064-.02-.03.05.035.068.422.117 1.163.145.739.029 1.81.066 3.214.113s2.536.095 3.399.146c.862.05 2.223.027 4.082-.066 1.858-.093 4.452-.174 7.782-.243 3.331-.07 5.898-.107 7.701-.113 1.803-.006 4.033-.15 6.691-.429 2.66-.28 4.641-.506 5.946-.678 1.306-.173 2.611-.27 3.917-.295 1.307-.024 2.432-.061 3.376-.112.943-.052 1.992-.1 3.147-.144 1.156-.044 1.936-.057 2.341-.04.406.017.924.035 1.554.054.63.02 1.122.045 1.478.078.355.033.982.015 1.88-.054-.01.017-.04.033-.089.048-.05.015-.116.03-.2.042" transform="translate(440.000000, 180.335821)"/>
                        <path d="M5.588 13.452c-.162-.369-.22-.494-.175-.377-.493-.312-.652-.407-.477-.286-.012-.006-.038-.002-.077.013-.026-.06-.043-.05-.053.026-.008.076.29.327.893.753.605.425 1.483 1.037 2.633 1.837 1.151.8 2.074 1.455 2.77 1.964.694.51 1.845 1.23 3.455 2.158 1.61.93 3.829 2.27 6.658 4.017 2.83 1.749 5.001 3.108 6.515 4.08 1.514.973 3.462 2.063 5.844 3.27 2.381 1.208 4.166 2.093 5.355 2.656 1.188.563 2.337 1.189 3.445 1.877 1.108.688 2.071 1.266 2.89 1.735.819.469 1.725.998 2.717 1.588.992.59 1.653 1.002 1.984 1.236.33.234.755.53 1.273.888.517.358.915.646 1.195.866.28.22.815.544 1.606.974-.02.008-.053.005-.102-.01-.049-.013-.112-.036-.192-.07" transform="translate(440.000000, 180.335821)"/>
                        <path d="M20.743 2.545c.108-.387.143-.522.104-.402-.187-.551-.25-.725-.19-.52-.005-.013-.028-.026-.067-.04.017-.062-.001-.066-.056-.011-.056.054.015.435.215 1.143s.495 1.734.882 3.076.688 2.428.906 3.259c.216.83.655 2.11 1.316 3.839.66 1.729 1.536 4.158 2.626 7.287 1.09 3.13 1.915 5.546 2.475 7.248.56 1.703 1.383 3.769 2.468 6.197 1.085 2.429 1.91 4.234 2.477 5.416.566 1.181 1.062 2.386 1.487 3.613.425 1.228.807 2.28 1.146 3.158.34.876.707 1.854 1.105 2.933.397 1.08.65 1.813.758 2.202.108.39.25.885.425 1.486.176.6.303 1.074.38 1.42.08.346.29.934.632 1.764-.02-.007-.045-.03-.074-.072-.03-.04-.064-.1-.103-.176" transform="translate(440.000000, 180.335821)"/>
                        <path d="M37.5 2.434c.32-.247.428-.334.326-.26.181-.553.234-.73.16-.53.003-.014-.006-.038-.03-.072.051-.038.038-.053-.039-.043-.076.011-.247.36-.512 1.046-.266.687-.646 1.684-1.14 2.99-.496 1.306-.906 2.357-1.231 3.152-.326.795-.742 2.082-1.251 3.862-.508 1.78-1.264 4.248-2.269 7.405-1.005 3.157-1.794 5.585-2.366 7.283-.573 1.699-1.154 3.844-1.743 6.436-.588 2.592-1.01 4.53-1.266 5.814-.255 1.284-.58 2.544-.977 3.781-.396 1.238-.722 2.308-.976 3.213-.255.905-.547 1.908-.877 3.01-.33 1.101-.568 1.84-.714 2.217-.147.375-.33.857-.55 1.443-.22.587-.403 1.042-.548 1.366-.145.324-.33.92-.552 1.789-.014-.017-.019-.05-.017-.101.001-.05.009-.118.023-.202" transform="translate(440.000000, 180.335821)"/>
                        <path d="M53.013 16.365c.402.055.54.071.415.049.524-.257.689-.342.493-.256.013-.007.023-.031.03-.072.064.009.065-.01.004-.057-.06-.048-.43.074-1.11.365-.68.29-1.663.716-2.95 1.276-1.287.56-2.33 1.001-3.13 1.325-.8.325-2.019.927-3.656 1.808-1.635.881-3.94 2.067-6.916 3.555-2.976 1.49-5.276 2.623-6.9 3.401-1.622.778-3.572 1.863-5.85 3.254-2.279 1.391-3.97 2.444-5.072 3.16-1.103.714-2.24 1.363-3.407 1.944-1.169.582-2.168 1.098-2.997 1.548-.829.45-1.755.943-2.777 1.478-1.024.535-1.722.881-2.095 1.04-.374.158-.849.363-1.425.616-.577.253-1.033.44-1.366.563-.335.123-.893.408-1.674.855.003-.02.023-.048.06-.082.038-.034.091-.075.161-.124" transform="translate(440.000000, 180.335821)"/>
                        <path d="M30.51 1.1c.243-.32.325-.432.245-.335.03-.581.036-.765.016-.553 0-.014-.017-.034-.048-.06.039-.05.023-.062-.049-.033-.072.03-.145.41-.22 1.143-.078.732-.185 1.793-.323 3.181-.137 1.39-.259 2.51-.366 3.361-.106.853-.172 2.204-.197 4.053-.026 1.85-.111 4.429-.257 7.738-.146 3.308-.275 5.855-.385 7.643-.11 1.788-.11 4.009-.002 6.664.109 2.655.207 4.635.296 5.942.088 1.306.102 2.608.042 3.904-.06 1.297-.095 2.415-.104 3.355-.01.94-.029 1.983-.06 3.132-.03 1.148-.067 1.922-.112 2.324-.043.4-.094.913-.153 1.536-.06.623-.118 1.11-.174 1.46-.056.35-.078.974-.066 1.87-.017-.012-.032-.043-.043-.093-.013-.05-.023-.116-.031-.2" transform="translate(440.000000, 180.335821)"/>
                        <path d="M11.252 7.761c-.048-.398-.067-.535-.057-.41-.384-.44-.509-.576-.376-.41-.01-.009-.035-.012-.077-.01-.007-.064-.026-.061-.056.01-.032.071.18.397.636.977s1.119 1.417 1.99 2.513c.87 1.095 1.565 1.986 2.082 2.672.518.687 1.413 1.705 2.685 3.056 1.273 1.35 3.01 3.268 5.213 5.751 2.204 2.484 3.89 4.407 5.06 5.77 1.169 1.363 2.719 2.964 4.65 4.802 1.931 1.837 3.385 3.195 4.36 4.075.975.88 1.894 1.807 2.756 2.783.861.975 1.617 1.805 2.266 2.488.648.683 1.362 1.45 2.142 2.297.78.85 1.294 1.433 1.543 1.751.248.319.568.723.96 1.214.393.49.691.88.895 1.171.204.29.623.755 1.256 1.393-.02.001-.053-.011-.095-.037-.043-.027-.096-.068-.161-.123" transform="translate(440.000000, 180.335821)"/>
                        <path d="M1.909 24.124c-.294-.277-.396-.37-.31-.28-.577-.095-.761-.12-.55-.078-.015 0-.037.013-.067.041-.047-.045-.059-.03-.037.044.021.074.394.19 1.117.349.722.159 1.77.384 3.145.676 1.372.291 2.479.538 3.319.739.838.201 2.18.42 4.027.654 1.847.235 4.415.61 7.706 1.127 3.291.517 5.824.931 7.597 1.241 1.775.311 3.996.562 6.662.754 2.667.192 4.659.318 5.975.378 1.316.06 2.619.193 3.909.399 1.29.205 2.403.365 3.341.48.938.116 1.98.254 3.125.413 1.144.16 1.915.284 2.311.372.396.088.902.197 1.518.326.617.13 1.097.241 1.441.336.344.094.964.186 1.862.276-.015.016-.047.026-.097.032-.051.006-.12.01-.205.01" transform="translate(440.000000, 180.335821)"/>
                        <path d="M43.63 5.281c.374-.154.502-.21.384-.167.32-.486.418-.643.293-.47.007-.012.004-.038-.01-.077.059-.024.05-.04-.027-.051-.076-.01-.333.281-.77.875s-1.068 1.456-1.892 2.587c-.824 1.13-1.498 2.037-2.021 2.72-.523.682-1.266 1.815-2.228 3.399-.961 1.583-2.344 3.767-4.15 6.55-1.804 2.784-3.207 4.92-4.209 6.409-1.002 1.488-2.13 3.406-3.384 5.754-1.254 2.347-2.174 4.106-2.76 5.278-.585 1.173-1.233 2.304-1.943 3.394-.71 1.09-1.307 2.038-1.792 2.844-.486.806-1.033 1.697-1.642 2.674-.609.976-1.034 1.627-1.277 1.95-.24.326-.545.742-.913 1.25-.367.51-.664.9-.889 1.175-.226.274-.562.801-1.007 1.58-.008-.019-.005-.053.01-.1.016-.05.041-.112.077-.189" transform="translate(440.000000, 180.335821)"/>
                        <path d="M15.533 5.091c.027-.4.034-.539.02-.415-.292-.503-.389-.66-.289-.47-.007-.013-.032-.022-.074-.027.004-.063-.015-.063-.059 0-.043.064.104.423.441 1.079.338.655.83 1.602 1.479 2.84.648 1.24 1.161 2.244 1.54 3.015.378.771 1.064 1.94 2.058 3.504.993 1.564 2.337 3.772 4.03 6.623 1.693 2.851 2.985 5.056 3.875 6.614.89 1.558 2.11 3.42 3.657 5.586 1.548 2.166 2.718 3.772 3.51 4.819.791 1.046 1.518 2.129 2.18 3.248.662 1.12 1.246 2.075 1.754 2.867.507.792 1.064 1.678 1.668 2.657.605.979 1 1.648 1.184 2.008.184.36.421.818.714 1.373.292.555.51.994.656 1.317.145.324.469.858.97 1.603-.02-.002-.049-.02-.085-.054-.037-.035-.083-.085-.136-.153" transform="translate(440.000000, 180.335821)"/>
                        <path d="M25.965 1.021c.181-.36.241-.484.18-.375C26.068.07 26.04-.111 26.06.1c-.003-.014-.023-.032-.06-.052.03-.057.013-.064-.052-.023-.065.042-.068.43-.01 1.163.059.734.147 1.796.267 3.188.12 1.39.205 2.515.256 3.37.051.857.233 2.197.546 4.02.313 1.824.7 4.375 1.162 7.655.461 3.28.802 5.808 1.021 7.586.22 1.778.625 3.963 1.219 6.555.592 2.591 1.05 4.521 1.377 5.789.328 1.268.58 2.544.759 3.83.178 1.287.348 2.393.51 3.318.162.925.333 1.955.514 3.09.18 1.135.286 1.903.316 2.306.03.402.074.915.129 1.539.056.623.088 1.112.097 1.467.01.354.102.971.277 1.85-.018-.008-.038-.036-.059-.082-.02-.046-.043-.11-.066-.192" transform="translate(440.000000, 180.335821)"/>
                        <path d="M3.373 18.06c-.225-.334-.305-.448-.24-.341-.542-.218-.715-.282-.52-.194-.013-.005-.038.004-.073.026-.036-.054-.051-.042-.046.035.005.076.343.27 1.015.578.672.31 1.646.755 2.924 1.335 1.277.58 2.304 1.059 3.08 1.436.776.376 2.04.877 3.79 1.502 1.752.624 4.179 1.542 7.28 2.754 3.1 1.212 5.483 2.16 7.15 2.843 1.665.683 3.778 1.405 6.34 2.165s4.478 1.31 5.75 1.651c1.272.34 2.515.75 3.73 1.227 1.215.478 2.268.874 3.16 1.187.889.314 1.875.672 2.958 1.073 1.084.402 1.81.689 2.178.86.367.17.837.386 1.41.644.575.259 1.019.471 1.333.637.316.166.902.39 1.76.67-.019.012-.053.015-.104.01-.05-.006-.118-.019-.201-.038" transform="translate(440.000000, 180.335821)"/>
                        <path d="M8.28 10.07c-.1-.388-.136-.522-.11-.4-.438-.385-.58-.504-.426-.356-.01-.009-.037-.009-.078 0-.016-.063-.034-.057-.055.018-.022.074.232.368.761.883.53.516 1.299 1.26 2.308 2.23 1.009.971 1.816 1.763 2.42 2.375.605.613 1.628 1.505 3.068 2.676 1.441 1.17 3.42 2.841 5.934 5.013 2.515 2.171 4.442 3.856 5.782 5.055 1.34 1.198 3.09 2.58 5.249 4.147 2.159 1.567 3.78 2.722 4.864 3.466 1.084.743 2.118 1.542 3.103 2.396.985.853 1.844 1.576 2.577 2.167.734.591 1.544 1.257 2.43 1.995.885.738 1.473 1.25 1.762 1.533.289.283.66.642 1.115 1.077.453.434.8.782 1.042 1.043.241.26.719.665 1.432 1.214-.02.005-.054-.003-.1-.024-.047-.021-.105-.055-.177-.1" transform="translate(440.000000, 180.335821)"/>
                        <path d="M1.802 34.2c-.378-.146-.509-.194-.393-.143-.57.13-.75.174-.539.135-.014.004-.029.025-.045.063-.06-.023-.067-.005-.018.055.047.06.436.027 1.166-.1s1.786-.315 3.167-.563c1.382-.25 2.5-.44 3.353-.57.854-.133 2.18-.439 3.976-.92 1.797-.481 4.316-1.104 7.557-1.87 3.242-.765 5.742-1.34 7.503-1.724 1.76-.384 3.91-.991 6.45-1.821s4.43-1.467 5.67-1.908c1.239-.442 2.494-.812 3.766-1.11 1.272-.297 2.363-.57 3.275-.817.912-.248 1.928-.515 3.048-.8 1.12-.285 1.88-.462 2.279-.53s.909-.159 1.53-.272c.62-.114 1.107-.192 1.46-.235.353-.042.962-.191 1.828-.447-.008.02-.034.042-.078.067-.045.024-.107.052-.188.082" transform="translate(440.000000, 180.335821)"/>
                    </g>
                </g>
            </g>
        </g>
    </g>
</svg>
