<svg xmlns="http://www.w3.org/2000/svg" width="254" height="183" viewBox="0 0 254 183">
    <defs>
        <filter id="gb6mx5y9za" color-interpolation-filters="auto">
            <feColorMatrix in="SourceGraphic" values="0 0 0 0 0.647059 0 0 0 0 0.129412 0 0 0 0 0.231373 0 0 0 1.000000 0"/>
        </filter>
    </defs>
    <g fill="none" fill-rule="evenodd" stroke-linecap="round" stroke-linejoin="round">
        <g filter="url(#gb6mx5y9za)" transform="translate(-808.000000, -1319.000000)">
            <g stroke="#000" stroke-width="4">
                <path d="M8.251 44.32c.147.243.027-.013-.36-.766-.39-.754-.73-1.22-1.015-1.401-.283-.179-.67-.336-1.159-.471-.49-.136-.696-.197-.617-.183.082.013.105.035.07.065-.033.032-.053-.018-.06-.148-.008-.129-.5.367-1.475 1.486-.975 1.118-1.725 2.247-2.25 3.388C.86 47.433.53 48.266.397 48.79c-.133.521-.254 1.185-.362 1.992-.107.805.031 1.773.414 2.902.388 1.13 1.017 1.907 1.888 2.333.87.426 1.759.687 2.666.782.907.095 1.574.118 2 .068.423-.05.7-.152.834-.304.133-.153.372-.406.716-.759.348-.353.547-.56.597-.621.045-.064.037-.078-.025-.043-.061.033.055-.134.35-.501.296-.37.669-1.039 1.118-2.008.451-.969.743-1.945.876-2.93.13-.983.226-1.777.288-2.38.063-.603-.01-1.127-.218-1.574-.204-.444-.417-.782-.639-1.014-.221-.233-.395-.4-.522-.502-.126-.1-.159-.132-.097-.095.062.039-.044-.043-.317-.245-.273-.203-.546-.39-.819-.564-.273-.174-.389-.222-.347-.143.038.078.035.066-.01-.038-.042-.103-.331-.194-.869-.27-.532-.079-.945-.071-1.238.022-.29.094-.48.202-.57.326-.09.124-.252.312-.484.564l-.34.38c.004.004.038-.014.103-.054.065-.039-.075.137-.42.528-.344.39-.782 1.112-1.313 2.168-.532 1.054-.798 2.092-.798 3.112-.004 1.023.042 1.779.137 2.268.096.488.262.867.497 1.136.231.27.436.48.614.629.178.148.219.19.122.127-.098-.065.022-.021.36.13.34.153.653.255.94.309.287.052.684.058 1.192.017.504-.041.878-.238 1.12-.59.249-.355.436-.62.563-.795.126-.177.254-.434.384-.77.133-.334.387-.785.762-1.353.372-.57.332-2.292-.123-5.167-.18.015-.38-.003-.599-.053-.225-.052-.53.081-.914.399-.383.317-.712.649-.988.994-.28.346-.459.575-.537.687-.078.114-.227.367-.445.76-.216.392-.367.623-.452.691-.084.069-.228.405-.429 1.01-.201.606-.273 1.055-.215 1.346.055.29.13.594.225.91.09.315.327.485.712.508.38.023.5.023.364-.002-.136-.024.01.072.44.288.429.214.964 0 1.605-.64.637-.64 1.112-1.322 1.423-2.05.313-.726.43-.992.352-.796-.075.197-.046.068.087-.386.137-.453.24-.911.307-1.376.069-.464.047-.814-.064-1.05-.114-.234-.377-.467-.79-.699-.409-.232-.584-.31-.526-.233.055.079-.007.048-.185-.09-.178-.14-.578.114-1.2.764s-1.073 1.314-1.354 1.992c-.283.68-.479 1.307-.587 1.88-.11.575-.088 1.37.065 2.386.311-.049.389-.021.232.082-.154.104-.065.119.27.045.338-.073.816-.289 1.433-.646.614-.36.959-.699 1.034-1.018.075-.317.143-.372.204-.165.065.207.496-1.177 1.294-4.152-.065-.02-.365-.03-.9-.03.082 1.23.132 1.755.148 1.578.017-.179.082-.18.195-.005M245.81 49.054c-.134-.828-.198-1.145-.192-.95-.158-.633-.455-1.407-.891-2.322-.436-.918-.94-1.558-1.51-1.92-.573-.363-1.17-.503-1.79-.421-.625.082-1.574.89-2.85 2.426-1.27 1.537-2.21 2.759-2.818 3.666-.604.907-1.03 1.932-1.278 3.075-.25 1.143-.376 2.113-.38 2.912-.003.797.127 1.353.39 1.669.268.316.75.755 1.445 1.318.694.561 1.448.992 2.262 1.293.81.3 1.457.451 1.945.456.488.003.889.05 1.204.138.32.087.774-.032 1.365-.356.59-.326 1.15-.78 1.683-1.366.533-.584 1.102-1.195 1.708-1.832.604-.638 1.242-1.506 1.915-2.606.67-1.099 1.136-2.187 1.395-3.265.263-1.078.383-2.007.36-2.79-.019-.781-.125-1.317-.32-1.608-.2-.29-.304-.501-.312-.632-.01-.132-.243-.478-.699-1.04-.454-.563-1.228-.922-2.32-1.077-1.093-.157-2.002-.262-2.726-.316-.722-.052-1.47.063-2.244.343-.774.28-1.232.518-1.373.717-.14.197-.416.404-.83.622-.415.215-1.014.944-1.794 2.187-.784 1.243-1.175 2.496-1.171 3.76.003 1.262.068 2.207.194 2.834.124.626.248 1.022.372 1.187.127.168.35.335.672.504.325.17.705.274 1.141.31.433.04.91.082 1.433.129.521.048 1.188 0 2-.146.812-.145 1.534-.423 2.165-.834.627-.413 1.034-.701 1.22-.865.188-.165.581-.505 1.179-1.02.602-.514 1.085-1.208 1.448-2.08.364-.873.557-1.705.577-2.496.02-.791-.226-1.361-.737-1.709-.51-.349-.96-.562-1.346-.639-.387-.075-.576-.11-.566-.107.01.005-.208-.036-.652-.12-.446-.084-.993-.056-1.64.084-.646.142-1.071.271-1.276.386-.208.117-.764.494-1.668 1.13-.904.639-1.668 1.421-2.292 2.349-.62.927-.968 1.776-1.043 2.546-.072.768-.118 1.412-.138 1.932-.016.52.107.935.37 1.245.261.31.544.497.849.562.303.067.589.123.859.168.266.045.675.069 1.228.072l1.156.008c.221.003.363-.026.424-.088.059-.062.224-.16.497-.296.27-.135.618-.558 1.044-1.27.426-.712.775-1.53 1.048-2.453.273-.923.418-1.705.435-2.346.02-.642-.003-1.12-.068-1.436-.068-.316-.187-.516-.357-.601-.17-.084-.311-.142-.424-.176-.117-.032-.19-.064-.22-.098-.028-.033-.175-.023-.442.03-.268.054-.574.21-.919.47-.34.256-.675.593-1.003 1.009-.328.418-.705.803-1.131 1.155-.423.351-.94 1.865-1.55 4.541-.307-.112-.125-.082.544.09.667.17 1.337.11 2.01-.183.672-.294 1.091-.675 1.258-1.142.166-.466.28-.836.342-1.108.058-.272.123-.598.195-.977.071-.38.1-.57.087-.572-.017-.001-.022-.011-.015-.03.007-.02.012.019.015.116 0 .095-.026-.39-.077-1.454.12-.055-.157-.06-.83-.015-.672.045-1.241.425-1.707 1.14-.468.715-.796 1.277-.984 1.684-.19.408-.256.834-.2 1.278.055.446.105.664.15.654.044-.008.074-.005.093.01.02.017-.011.017-.093 0-.085-.015.14.017.674.096.53.08 1.205.252 2.028.516.825.264 1.315.46 1.468.589M212.568 72.114l-.512.266c-.238.122-.503.26-.794.411-.29.15-.459.237-.507.26-.053.026-.026.012.082-.042.107-.052-.13.068-.711.358-.583.293-1.352.67-2.307 1.13-.955.463-1.967.929-3.034 1.397-1.066.467-1.58.694-1.54.679l-.854.373c-.607.266-1.555.656-2.843 1.17-1.29.515-2.352.928-3.184 1.24-.832.313-1.65.612-2.454.898-.802.286-1.432.505-1.89.659-.456.155-1.039.355-1.748.599-.707.242-1.78.586-3.218 1.03-1.44.444-2.525.768-3.255.972-.733.206-1.432.4-2.098.584-.664.182-1.542.418-2.634.707-1.088.287-2.707.69-4.856 1.208-2.152.52-4.727 1.064-7.724 1.634-2.998.571-5.406.99-7.226 1.258-1.82.269-3.334.486-4.54.651-1.206.164-2.31.303-3.311.419-1.002.113-1.809.203-2.42.268-.614.063-1.192.122-1.735.175-.543.054-1.02.099-1.433.136-.41.038-.776.068-1.099.09-.32.022-.79.067-1.408.135-.617.069-2.142.172-4.574.31-2.435.14-4.333.231-5.694.277-1.36.043-2.371.071-3.034.085l-1.453.025-.914.01c-.298.003-.567.006-.809.007l-.656.005c-.2.002-.431 0-.694-.005-.26-.005-.25-.002.03.008.276.01-.621.005-2.692-.015-2.074-.02-3.699-.056-4.876-.108-1.176-.052-2.362-.099-3.555-.14-1.193-.042-3.028-.143-5.505-.304-2.48-.158-5.08-.399-7.802-.721-2.718-.323-4.672-.56-5.862-.714-1.187-.152-2.657-.37-4.41-.652-1.754-.282-3.037-.497-3.85-.644-.813-.147-1.719-.317-2.716-.509-.998-.194-1.585-.307-1.76-.34l-1.86-.389c-1.065-.222-1.975-.421-2.729-.596-.754-.176-1.263-.294-1.527-.354-.263-.062-.806-.194-1.628-.396-.823-.202-1.43-.354-1.823-.456-.398-.1-.677-.172-.839-.215l-.986-.263c-.488-.13-.936-.252-1.346-.364-.412-.113-.714-.202-.906-.265-.195-.064-.216-.069-.065-.015.153.053-.657-.178-2.432-.695-1.779-.518-3.619-1.101-5.52-1.751-1.902-.652-3.326-1.154-4.271-1.506-.947-.355-1.664-.626-2.15-.815l-1.049-.41c-.211-.084-.627-.254-1.248-.51-.624-.254-.764-.308-.42-.162.345.145.021.011-.97-.401-.993-.413-1.862-.787-2.61-1.123-.75-.336-1.325-.597-1.725-.782-.4-.184-.775-.36-1.123-.529l-.4-.19-.302-.138c-.286-.134-.875-.42-1.765-.86-.89-.44-1.753-.884-2.589-1.33-.836-.446-1.458-.784-1.868-1.013l-.966-.538-.36-.208c-.01-.007.007.003.048.03.047.025-.057-.034-.312-.176-.256-.143-.652-.375-1.188-.694-.541-.32-.954-.567-1.239-.744-.29-.177-.465-.287-.526-.329-.065-.04-.098-.058-.098-.055l-.49-.3c-.324-.204-.655-.415-.993-.632-.338-.219-.682-.445-1.033-.679-.355-.236-.506-.336-.455-.3.052.033.115.08.19.142.071.06-1.09-.756-3.485-2.448l.22.16M26.407 28.405c.035-.035-.166.117-.602.456-.181.094.378-.327 1.678-1.26 1.305-.936 2.437-1.723 3.395-2.361.96-.637 1.674-1.103 2.145-1.398.474-.294.723-.448.747-.461.023-.014.114-.071.272-.173.16-.102.705-.428 1.635-.978.925-.551 1.64-.967 2.145-1.248.507-.282.738-.402.691-.358-.041.042.27-.135.936-.529.665-.394 2.13-1.16 4.395-2.295 2.265-1.135 4.633-2.221 7.105-3.26 2.467-1.04 4.384-1.812 5.752-2.316 1.374-.506 2.427-.889 3.161-1.148l1.698-.594c.396-.14 1.023-.328 1.882-.564.858-.237 1.654-.518 2.39-.844.734-.324 3.737-1.152 9.01-2.484 5.27-1.331 9.59-2.325 12.96-2.982 3.372-.658 7.306-1.254 11.802-1.789 4.492-.535 8.065-.9 10.718-1.095 2.65-.196 5.345-.37 8.084-.524 2.738-.154 6.357-.219 10.856-.195 4.502.025 8.4.145 11.694.36 3.296.214 6.367.442 9.215.685 2.845.24 6.266.666 10.264 1.278 4 .611 7.241 1.167 9.724 1.669 2.484.5 4.42.914 5.808 1.245 1.388.33 2.529.615 3.423.852.893.236 1.794.456 2.7.662.908.207 2.886.79 5.935 1.746 3.05.96 5.314 1.691 6.794 2.196 1.475.504 3.51 1.272 6.104 2.303 2.598 1.03 4.93 2.047 6.993 3.05 2.064 1 3.536 1.73 4.417 2.19.879.457 1.57.826 2.072 1.105.504.279.8.44.889.481.088.042.523.289 1.306.742.784.453 1.423.828 1.917 1.127l1.004.614c.18.11.29.18.332.206.041.027.234.148.577.363.344.217.522.333.534.346.016.014-.02-.012-.108-.078-.083-.066.233.135.947.604.712.47 1.263.84 1.652 1.113l1.012.702c.283.197.48.336.594.418.11.084.147.113.112.088-.036-.023-.113-.082-.23-.175-.116-.094.778.573 2.682 2" transform="translate(810.000000, 1321.000000)"/>
                <path d="M31.433 46.185c.398-.094.57-.134.517-.123.975-.222 1.377-.313 1.205-.273l-.045.01c.147-.032.368-.078.665-.14.3-.064.559-.11.779-.14.218-.03.756-.138 1.615-.321.857-.186 2.486-.452 4.886-.8 2.398-.349 4.997-.601 7.797-.757 2.8-.155 4.815-.216 6.047-.182 1.228.035 2.075.001 2.539-.1.466-.101 3.054 0 7.764.305 4.71.302 8.34.627 10.888.975 2.552.347 4.89.696 7.014 1.045 2.125.35 4.247.742 6.366 1.173 2.12.43 4.172.892 6.154 1.383 1.984.493 3.452.85 4.404 1.072.952.223 3.113.835 6.482 1.837 3.37 1.003 5.89 1.791 7.557 2.366 1.664.575 3.247 1.133 4.749 1.674 1.506.541 2.923 1.073 4.251 1.596 1.33.522 2.336.92 3.016 1.198.676.278 1.236.505 1.68.682.447.177 1.557.646 3.331 1.408 1.78.76 3.568 1.56 5.366 2.401 1.797.839 3.218 1.514 4.261 2.027 1.04.512 1.885.933 2.534 1.263.655.331 11.585 6.289 12.923 7.077M190.8 98.793l-.637-.611c-.112-.105-.154-.146-.128-.123l-.494-.456c-.008-.01-.057-.058-.145-.143l.03.03-.045-.04.063.06-.033-.032.657.621c.153.144.195.182.127.115.446.425.628.597.547.517.215.203.48.46.799.769l.704.69c.148.146.358.357.631.63s.348.348.225.226c-.12-.123.05.047.512.511.463.463.822.827 1.079 1.09.256.264.382.396.379.394 0-.002-.01-.015-.032-.04l-.03-.03.307.323c.204.21.438.454.701.732.26.277.476.508.65.691l.277.301.264.28c.162.171.394.423.697.755l.756.837c.198.224.325.37.38.436.051.069.035.051-.048-.052-.088-.106.339.375 1.281 1.443.944 1.068 1.953 2.28 3.028 3.636 1.077 1.357 1.802 2.281 2.175 2.774.378.491.915 1.22 1.61 2.188.693.967 1.15 1.611 1.371 1.932.22.32.578.852 1.076 1.594.501.743.97 1.466 1.406 2.168.433.7.75 1.218.951 1.553.201.336.277.464.227.384-.045-.082.09.143.402.674.308.53.44.757.395.682.136.237.332.588.589 1.055l.46.829c.047.087.128.24.241.459.115.218.148.279.098.18-.049-.099.038.06.26.476.22.415.432.825.634 1.233.2.406.394.805.579 1.195.19.39.252.513.187.371-.07-.14-.066-.13.013.033.078.162.148.313.21.454.064.142.173.374.326.696l-.005-.007c.355.777.479 1.05.372.82.308.716.44 1.018.395.906.221.528.34.811.354.85.017.038.008.015-.027-.07l.267.654M9.34 81c-.338-.716.138.619 1.428 4.005 1.293 3.387 2.616 6.239 3.97 8.556 1.354 2.315 2.28 3.952 2.778 4.909.495.957 1.825 2.934 3.99 5.93 2.169 2.995 3.968 5.361 5.398 7.099 1.43 1.737 3.271 3.795 5.525 6.174 2.252 2.378 4.28 4.43 6.084 6.155 1.801 1.726 3.82 3.55 6.057 5.47 2.24 1.924 4.336 3.65 6.287 5.18 1.95 1.53 3.725 2.873 5.323 4.033 1.6 1.16 2.946 2.116 4.04 2.87 1.091.75 2.094 1.438 3.008 2.061.91.625 2.176 1.44 3.797 2.446 1.623 1.006 2.977 1.839 4.062 2.499 1.084.66 2.765 1.663 5.043 3.01 2.282 1.346 5.325 2.97 9.128 4.874 3.803 1.903 6.937 3.411 9.403 4.525 2.463 1.113 5.187 2.277 8.171 3.491 2.981 1.215 6.044 2.366 9.188 3.454 3.142 1.086 5.39 1.843 6.743 2.273 1.352.427 3.27.985 5.755 1.674 2.483.69 5.02 1.381 7.61 2.074 2.588.695 6.346 1.49 11.275 2.386 4.928.894 8.934 1.492 12.016 1.794 3.084.301 5.213.49 6.387.57 1.17.078 2.005.13 2.506.157.501.025 1.155.054 1.96.088.807.033 1.493.058 2.057.073.57.013 1.064.023 1.483.03l.644.01.567.002c.37.004.678-.01.926-.04.25-.03.343.008.278.115-.065.107 1.666.051 5.193-.168 3.523-.217 6.126-.416 7.807-.596 1.68-.18 2.895-.33 3.642-.446.744-.119 1.333-.211 1.765-.278.437-.069.68-.109.732-.12l.517-.09c.29-.05.408-.07.357-.06-.053.01-.044.008.027-.006l.485-.09c.253-.045.454-.082.604-.11l.457-.09c.16-.03.283-.055.372-.073l.047-.01.332-.068c.273-.055.595-.122.966-.2.368-.079.745-.163 1.131-.253.385-.089.695-.163.932-.221l.367-.088c.003 0 .017-.003.042-.01.027-.008.025-.008-.005 0l.092-.02c.092-.022.554-.141 1.386-.358l-.055.015M219.81 159.601c.172-.49.248-.687.228-.594.18-.366.27-.53.27-.493.157-.074.276-.349.354-.825-.205-.508-.212 1.237-.023 5.235-.006.08.202.125.627.133.426.008.831-.171 1.216-.539.383-.37.574-.574.574-.614 0-.042.036-.115.107-.22.072-.104.149-.258.23-.462.078-.203.104-.292.077-.265-.024.027-.026.057-.005.093.024.035.13-.434.318-1.406.193-.973.163-1.565-.088-1.777-.253-.214-.799-.34-1.638-.38-.835-.04-1.502.038-2 .232-.497.196-.857.37-1.078.524-.22.152-.41.273-.57.363-.162.09-.317.185-.464.283-.144.097-.464.374-.958.83-.498.458-.908.895-1.231 1.31-.321.417-.487.671-.497.765-.01.092-.068.226-.175.403-.105.177-.181.583-.23 1.216-.048.633.058 1.103.318 1.41.26.308.895.508 1.907.6 1.01.091 1.998.091 2.964 0 .965-.092 1.884-.553 2.756-1.384.87-.832 1.602-1.579 2.194-2.24.588-.66.973-1.35 1.156-2.068.182-.72.235-1.253.16-1.598-.078-.348-.314-.594-.706-.74-.395-.143-.816-.23-1.264-.26-.446-.029-.794-.039-1.043-.03-.247.008-.598.005-1.054-.01-.454-.014-1.104.333-1.95 1.04-.845.706-1.445 1.334-1.8 1.884-.354.55-.597 1.014-.726 1.393-.127.378-.202.812-.225 1.301-.018.49.066.889.255 1.198.188.307.409.49.664.549.25.057.308.076.174.057-.136-.018.088.03.672.146.59.115 1.273.067 2.05-.143.779-.209 1.448-.701 2.007-1.476.56-.774.934-1.588 1.124-2.443.188-.858.178-1.516-.03-1.975-.205-.458-.76-.712-1.663-.762-.904-.05-1.697-.024-2.38.078-.682.103-1.197.407-1.545.912-.351.504-.592.924-.724 1.258-.13.334-.204.547-.222.639l-.04.18c-.007.027-.046.276-.117.747-.069.471-.028.946.122 1.423.15.478.291.81.424.998.13.185.577.432 1.341.74.764.307 1.63.444 2.6.41.964-.032 1.75-.275 2.358-.73.606-.454 1.1-1.055 1.483-1.803.385-.75.613-1.298.685-1.642.073-.344.131-.928.174-1.752.039-.825-.007-1.608-.137-2.35-.133-.74-.513-1.326-1.141-1.757-.627-.43-1.28-.718-1.96-.862-.676-.144-1.54.203-2.594 1.04-1.057.837-1.77 1.565-2.137 2.183-.363.62-.64 1.301-.834 2.045-.191.743-.342 1.451-.452 2.125-.111.673.019 1.264.39 1.774.37.508.676.862.916 1.063.241.2.71.34 1.406.42.699.082 1.342.112 1.93.088.589-.021 1.22-.561 1.892-1.619.676-1.057 1.037-2.146 1.083-3.265.049-1.121.052-1.949.01-2.483-.046-.535-.112-.924-.197-1.168-.083-.242-.131-.338-.145-.288-.01.048-.084-.062-.224-.331-.137-.27-.535-.458-1.196-.561-.66-.104-1.308.067-1.945.513-.634.445-1.243 1.187-1.828 2.228-.585 1.04-.851 2.092-.796 3.153.057 1.06.151 1.825.285 2.293.133.466.464.837.993 1.112.526.276 1.268.528 2.225.757.955.23 1.86-.075 2.716-.917.854-.84 1.509-1.627 1.965-2.358.451-.732.714-1.512.789-2.34.072-.83.155-1.625.25-2.387.093-.761-.008-1.291-.302-1.588-.297-.3-.926-.461-1.888-.487-.965-.026-1.743.154-2.332.542-.587.386-1.137.777-1.648 1.175-.51.398-1.024.917-1.54 1.559-.514.64-.901 1.156-1.161 1.548-.263.393-.486 1.006-.67 1.84-.18.832-.17 1.523.03 2.072.202.55.431.904.687 1.063.258.16.498.373.72.639.22.264.721.38 1.505.35.78-.031 1.392-.04 1.835-.027.444.014 1.132-.44 2.062-1.36.929-.921 1.577-4.481 1.945-10.681-.075-.428-.686-.283-1.832.433-1.149.715-1.79 1.297-1.923 1.745-.13.446-.222.856-.277 1.23-.055.374-.014.75.122 1.125.137.376.29.64.462.795M249.96 75.282v-.068.2-.012c.012.525.017.77.015.735l.007.684c.007.422.012.591.015.506v-.063.514c0 .3-.001.468-.005.506-.003.039-.006.19-.01.456-.003.266.002.534.015.805.01.27-.009 1.198-.057 2.781-.045 1.584-.097 2.849-.157 3.794-.055.946-.117 1.843-.185 2.692-.068.849-.12 1.473-.155 1.874-.036.401-.05.558-.04.469.007-.089-.003.004-.03.278-.021.272-.083.86-.184 1.764-.097.904-.186 1.671-.268 2.3l-.107.828c.01-.082.012-.109.005-.08l-.05.386c-.032.23-.07.503-.117.82l-.135.949c-.047.317-.106.702-.177 1.155l-.185 1.125-.087.532c-.014.056-.024.082-.03.077-.004-.005.013-.045.05-.12.031-.075-.107.677-.415 2.255-.31 1.58-.55 2.76-.721 3.544-.174.785-.29 1.315-.353 1.589-.061.274-.148.645-.26 1.115-.109.47-.152.65-.129.544.022-.107-.02.046-.122.46-.102.417-.14.575-.113.477.027-.099-.043.182-.21.842-.17.661-.351 1.348-.546 2.06-.198.711-.323 1.155-.375 1.33l-.22.767c-.094.334-.198.689-.311 1.063l-.235.767c-.042.135-.07.22-.083.255-.013.035-.011.031.005-.012.017-.045-.009.04-.077.258-.065.215-.16.516-.285.902-.123.388-.253.79-.389 1.205l-.36 1.073c-.101.297-.145.425-.132.383.013-.041.002-.008-.035.1-.035.108-.057.17-.067.189l-.108.313-.312.9c-.146.412-.276.77-.39 1.072l-.146.396c.016-.038.015-.033-.005.017-.02.052-.038.102-.053.148-.02.047-.079.2-.177.461-.097.261-.236.623-.42 1.086-.178.462-.223.583-.134.363.086-.222.05-.131-.108.273-.16.404-.325.818-.497 1.24-.173.423-.258.635-.254.637-.318.765-.427 1.024-.327.777l-.352.832c-.022.053-.015.035.02-.055.412-.91-.083.204-1.486 3.338l.093-.196M227.757 75.538c.133-.35.19-.499.168-.449.011-.033.034-.088.067-.163-.085.207-.127.313-.127.316l-.053.145c-.033.096-.121.332-.264.71-.14.377-.251.68-.333.907l-.087.238c-.301.855-.405 1.145-.312.87l-.43 1.23c.055-.159-.004.02-.18.536l-.151.449c.071-.216.042-.13-.088.255-.13.386-.22.66-.272.82-.048.16-.123.393-.225.699l-.252.814c-.075.24-.114.367-.117.384l-.03.087c-.017.042-.088.276-.215.702-.13.426-.28.937-.45 1.531-.17.597-.284.988-.339 1.176l-.264.937c-.12.436-.164.601-.133.496.033-.105.02-.046-.042.178-.065.225-.163.593-.292 1.103-.134.51-.246.945-.337 1.303-.092.356-.133.517-.123.483.01-.035.01-.027 0 .023s-.036.158-.077.323c-.043.167-.115.461-.215.882-.098.421-.192.842-.282 1.263l-.117.512c.015-.077.018-.097.01-.058-.007.04-.043.209-.108.506-.065.297-.097.441-.097.431.003-.01-.003.023-.02.098-.013.075-.052.271-.117.589-.069.319-.091.42-.068.305.025-.116.022-.104-.01.038-.03.142-.066.32-.107.531-.043.214-.067.334-.07.361-.007.027-.016.072-.027.136-.017.061-.06.271-.128.629-.065.355-.094.502-.087.44-.118.654-.157.867-.118.64.045-.276-.007.005-.157.844-.146.84-.26 1.505-.34 1.995-.08.491-.153.939-.214 1.343l-.127.857-.04.266c-.004.012-.009.05-.015.115-.007.065-.005.054.005-.032l-.028.197c-.033.22-.066.453-.097.702-.033.25-.063.463-.09.642-.022.177-.028.234-.018.17.005-.062.007-.078.005-.05l-.09.682-.072.576c.003-.04.01-.093.02-.158-.123 1.036-.162 1.358-.117.967-.007.11-.004.107.01-.012.01-.119-.007.005-.05.37-.042.365-.08.727-.115 1.086-.037.36-.072.73-.107 1.11-.04.38-.059.562-.055.549.003-.014.008-.065.015-.156.01-.09.001-.002-.025.264-.025.267-.06.667-.103 1.2-.045.535-.062.728-.052.581.003-.033.005-.035.005-.005-.003.03-.046.608-.127 1.734v-.015.116" transform="translate(810.000000, 1321.000000)"/>
            </g>
        </g>
    </g>
</svg>
