<svg xmlns="http://www.w3.org/2000/svg" width="236" height="234" viewBox="0 0 236 234">
    <defs>
        <filter id="w9mqa1tfaa" color-interpolation-filters="auto">
            <feColorMatrix in="SourceGraphic" values="0 0 0 0 0.647059 0 0 0 0 0.129412 0 0 0 0 0.231373 0 0 0 1.000000 0"/>
        </filter>
    </defs>
    <g fill="none" fill-rule="evenodd" stroke-linecap="round" stroke-linejoin="round">
        <g filter="url(#w9mqa1tfaa)" transform="translate(-117.000000, -947.000000)">
            <g stroke="#000" stroke-width="4">
                <path d="M30.725 192.84c-1.59.254-2.137.352-1.64.294-1.696 1.589-2.22 2.104-1.573 1.548-.04.042-.05.145-.03.311-.255.038-.238.112.048.222.289.111 1.557-.783 3.805-2.683 2.248-1.898 5.496-4.66 9.744-8.286 4.241-3.626 7.696-6.521 10.363-8.684 2.663-2.162 6.596-5.872 11.798-11.13 5.196-5.257 12.587-12.45 22.173-21.581 9.587-9.129 17.018-16.119 22.29-20.97 5.268-4.85 11.426-11.248 18.473-19.195 7.04-7.945 12.242-13.92 15.603-17.925 3.365-4.006 6.93-7.795 10.694-11.367 3.768-3.572 6.968-6.699 9.599-9.379 2.629-2.68 5.579-5.633 8.85-8.858 3.268-3.225 5.52-5.355 6.756-6.391 1.237-1.036 2.805-2.371 4.705-4.006 1.899-1.632 3.413-2.876 4.542-3.733 1.13-.856 2.923-2.59 5.375-5.202.012.083-.033.212-.135.386-.102.173-.259.393-.47.658" transform="translate(120.000000, 950.000000)"/>
                <path d="M4.046 115.073c-1.344-.884-1.812-1.179-1.405-.886-2.33.026-3.068.053-2.214.081-.056.004-.133.074-.229.21-.216-.144-.255-.078-.117.197.136.274 1.68.467 4.63.581 2.943.114 7.21.264 12.802.45 5.59.187 10.101.38 13.537.58 3.433.197 8.852.11 16.256-.26 7.402-.374 17.733-.697 30.995-.97 13.268-.276 23.492-.427 30.671-.453 7.18-.023 16.063-.593 26.65-1.709 10.59-1.115 18.484-2.017 23.682-2.703 5.198-.689 10.398-1.08 15.6-1.177 5.202-.095 9.684-.245 13.444-.449 3.756-.205 7.934-.396 12.535-.571 4.602-.176 7.71-.23 9.325-.162 1.614.07 3.677.143 6.188.219 2.506.075 4.469.178 5.886.308 1.414.132 3.911.06 7.49-.213-.045.066-.165.13-.357.189-.197.062-.464.118-.8.168" transform="translate(120.000000, 950.000000)"/>
                <path d="M22.254 53.642c-.644-1.469-.876-1.97-.695-1.502-1.965-1.244-2.598-1.624-1.898-1.141-.05-.024-.154-.006-.31.054-.102-.238-.171-.204-.208.102-.034.305 1.152 1.306 3.556 3.002 2.409 1.695 5.904 4.137 10.486 7.328 4.585 3.192 8.26 5.802 11.028 7.832 2.766 2.031 7.353 4.9 13.762 8.606 6.412 3.708 15.252 9.048 26.52 16.019 11.269 6.97 19.917 12.394 25.945 16.27 6.032 3.878 13.791 8.224 23.277 13.04 9.484 4.816 16.593 8.346 21.328 10.591 4.733 2.245 9.306 4.74 13.72 7.484 4.414 2.744 8.25 5.05 11.509 6.918 3.263 1.87 6.87 3.982 10.823 6.335 3.95 2.35 6.585 3.993 7.903 4.927 1.315.934 3.005 2.115 5.068 3.542 2.06 1.426 3.646 2.577 4.76 3.451 1.112.876 3.245 2.171 6.397 3.886-.078.032-.213.02-.406-.036-.194-.054-.449-.149-.764-.285" transform="translate(120.000000, 950.000000)"/>
                <path d="M82.615 10.149c.431-1.545.569-2.08.412-1.605-.744-2.197-.995-2.889-.752-2.074-.024-.05-.114-.103-.27-.16.07-.245-.005-.259-.223-.041-.225.216.06 1.735.857 4.56.798 2.823 1.97 6.911 3.514 12.264 1.538 5.35 2.74 9.682 3.606 12.995.863 3.31 2.61 8.414 5.24 15.31 2.634 6.894 6.12 16.582 10.46 29.06 4.343 12.48 7.63 22.114 9.857 28.904 2.232 6.791 5.51 15.028 9.83 24.712 4.32 9.685 7.608 16.883 9.865 21.595 2.256 4.712 4.23 9.516 5.923 14.411 1.692 4.898 3.213 9.095 4.563 12.591 1.352 3.495 2.819 7.395 4.4 11.7 1.583 4.302 2.59 7.229 3.021 8.78.431 1.552.996 3.527 1.694 5.924.7 2.397 1.205 4.285 1.516 5.664.312 1.38 1.15 3.726 2.514 7.035-.082-.028-.18-.124-.294-.288-.119-.164-.256-.397-.412-.7" transform="translate(120.000000, 950.000000)"/>
                <path d="M149.355 9.706c1.272-.984 1.704-1.33 1.297-1.038.722-2.204.933-2.907.635-2.11.016-.059-.023-.155-.118-.288.205-.154.154-.21-.153-.17-.305.041-.986 1.431-2.043 4.17-1.058 2.74-2.573 6.714-4.542 11.923-1.973 5.208-3.607 9.397-4.9 12.567-1.296 3.17-2.956 8.305-4.982 15.402-2.021 7.098-5.033 16.942-9.036 29.531-4.003 12.59-7.144 22.27-9.424 29.044-2.28 6.773-4.594 15.328-6.94 25.664-2.345 10.336-4.026 18.064-5.045 23.185-1.015 5.119-2.311 10.145-3.89 15.079-1.578 4.933-2.874 9.204-3.889 12.812-1.015 3.608-2.178 7.609-3.49 12.001-1.313 4.393-2.261 7.34-2.845 8.84-.584 1.5-1.314 3.418-2.19 5.757-.878 2.339-1.605 4.154-2.18 5.445-.58 1.294-1.314 3.671-2.203 7.134-.052-.066-.074-.2-.066-.401.004-.202.034-.47.09-.805" transform="translate(120.000000, 950.000000)"/>
                <path d="M211.137 65.26c1.603.22 2.154.285 1.655.195 2.087-1.024 2.742-1.364 1.964-1.02.05-.029.09-.125.117-.288.255.036.261-.04.018-.228-.238-.19-1.711.296-4.418 1.455-2.712 1.162-6.628 2.858-11.75 5.09-5.128 2.23-9.284 3.993-12.469 5.286-3.189 1.293-8.042 3.696-14.56 7.208-6.513 3.515-15.696 8.24-27.548 14.178-11.852 5.937-21.012 10.458-27.479 13.56-6.461 3.104-14.228 7.43-23.301 12.978-9.074 5.548-15.808 9.747-20.2 12.597-4.393 2.852-8.917 5.437-13.57 7.756-4.654 2.32-8.632 4.377-11.932 6.173-3.303 1.796-6.991 3.761-11.064 5.894-4.077 2.132-6.858 3.513-8.342 4.144-1.488.632-3.38 1.452-5.676 2.46-2.298 1.008-4.112 1.757-5.442 2.245-1.332.49-3.554 1.626-6.666 3.41.012-.084.092-.193.24-.33.15-.133.363-.298.641-.493" transform="translate(120.000000, 950.000000)"/>
                <path d="M121.516 4.389c.967-1.28 1.292-1.725.975-1.338.12-2.317.141-3.053.063-2.206-.004-.054-.068-.134-.193-.24.157-.201.093-.244-.192-.129-.287.118-.58 1.637-.882 4.557-.306 2.92-.733 7.148-1.281 12.686-.545 5.539-1.032 10.006-1.459 13.403-.423 3.398-.685 8.786-.785 16.162-.102 7.376-.443 17.661-1.023 30.855-.583 13.191-1.095 23.352-1.534 30.48-.44 7.129-.441 15.987-.006 26.574.431 10.588.823 18.486 1.176 23.694.353 5.211.41 10.401.169 15.57-.239 5.171-.377 9.63-.415 13.378-.037 3.748-.115 7.911-.235 12.49-.122 4.578-.272 7.667-.448 9.268-.173 1.598-.376 3.64-.611 6.127-.239 2.485-.47 4.426-.692 5.823-.224 1.397-.313 3.883-.265 7.457-.068-.05-.125-.174-.171-.371-.05-.198-.091-.464-.123-.8" transform="translate(120.000000, 950.000000)"/>
                <path d="M44.815 30.951c-.193-1.59-.269-2.136-.229-1.637-1.528-1.755-2.026-2.299-1.495-1.632-.038-.038-.141-.052-.31-.042-.028-.257-.102-.244-.222.039-.127.283.719 1.582 2.536 3.895 1.814 2.313 4.455 5.654 7.92 10.022 3.471 4.367 6.237 7.92 8.296 10.657 2.064 2.738 5.629 6.8 10.694 12.184 5.068 5.387 11.989 13.032 20.762 22.937 8.778 9.903 15.495 17.572 20.152 23.009 4.654 5.436 10.828 11.818 18.52 19.146 7.692 7.327 13.48 12.744 17.367 16.253 3.882 3.508 7.54 7.207 10.974 11.097 3.43 3.89 6.439 7.197 9.024 9.923 2.583 2.725 5.427 5.778 8.531 9.16 3.106 3.386 5.155 5.713 6.146 6.982.988 1.271 2.264 2.885 3.826 4.84 1.562 1.954 2.75 3.51 3.565 4.67.812 1.16 2.478 3.011 5 5.554-.083.005-.21-.043-.38-.147-.168-.106-.382-.27-.64-.491" transform="translate(120.000000, 950.000000)"/>
                <path d="M7.601 96.202c-1.167-1.104-1.577-1.476-1.23-1.117-2.302-.379-3.034-.483-2.196-.31-.058-.005-.146.05-.265.164-.184-.18-.233-.122-.147.173.086.298 1.57.762 4.449 1.392 2.878.633 7.053 1.531 12.526 2.695 5.467 1.163 9.872 2.146 13.217 2.948 3.341.803 8.688 1.672 16.04 2.608 7.356.936 17.586 2.434 30.692 4.496 13.107 2.062 23.193 3.711 30.259 4.948 7.069 1.24 15.913 2.242 26.531 3.006 10.623.766 18.555 1.27 23.798 1.509 5.24.24 10.429.769 15.567 1.59 5.136.818 9.571 1.456 13.308 1.915 3.736.461 7.884 1.01 12.444 1.647 4.559.636 7.627 1.13 9.205 1.481 1.576.352 3.592.786 6.046 1.303 2.457.515 4.37.96 5.74 1.338 1.368.375 3.84.742 7.415 1.101-.058.062-.188.105-.388.13-.203.023-.474.035-.815.035" transform="translate(120.000000, 950.000000)"/>
                <path d="M173.77 21.06c1.488-.616 1.998-.839 1.528-.667 1.276-1.938 1.665-2.562 1.168-1.871.028-.05.013-.153-.046-.309.24-.095.205-.163-.102-.204-.305-.041-1.328 1.121-3.071 3.488-1.739 2.37-4.25 5.808-7.532 10.316-3.283 4.508-5.967 8.124-8.05 10.846-2.084 2.72-5.04 7.238-8.871 13.555-3.83 6.316-9.34 15.025-16.527 26.125-7.187 11.098-12.776 19.616-16.767 25.553-3.99 5.937-8.484 13.586-13.48 22.946-4.993 9.36-8.657 16.377-10.991 21.05-2.33 4.674-4.91 9.185-7.737 13.531-2.828 4.347-5.207 8.128-7.138 11.343-1.936 3.215-4.116 6.77-6.54 10.663-2.425 3.894-4.12 6.487-5.084 7.78-.958 1.296-2.17 2.957-3.637 4.985-1.464 2.027-2.644 3.588-3.54 4.682-.903 1.093-2.24 3.195-4.013 6.304-.032-.078-.02-.212.039-.404.064-.193.166-.444.307-.751" transform="translate(120.000000, 950.000000)"/>
                <path d="M61.865 20.303c.108-1.599.135-2.15.081-1.656-1.167-2.005-1.551-2.63-1.152-1.874-.03-.051-.13-.087-.298-.107.018-.254-.059-.254-.231 0-.173.253.413 1.687 1.756 4.301 1.344 2.613 3.306 6.389 5.887 11.328 2.583 4.94 4.628 8.947 6.134 12.022 1.508 3.076 4.24 7.733 8.197 13.971 3.957 6.239 9.307 15.043 16.051 26.413 6.745 11.37 11.89 20.16 15.435 26.373 3.544 6.215 8.399 13.64 14.565 22.278 6.165 8.638 10.824 15.043 13.976 19.216 3.153 4.173 6.048 8.49 8.685 12.953 2.635 4.463 4.963 8.273 6.985 11.433 2.021 3.159 4.236 6.69 6.644 10.594 2.409 3.904 3.98 6.574 4.714 8.01.732 1.438 1.68 3.262 2.843 5.473 1.163 2.213 2.034 3.965 2.614 5.254.58 1.291 1.868 3.421 3.865 6.391-.082-.008-.195-.08-.34-.216-.148-.137-.328-.34-.541-.607" transform="translate(120.000000, 950.000000)"/>
                <path d="M103.413 4.072c.722-1.433.96-1.932.716-1.497-.305-2.295-.418-3.02-.34-2.173-.012-.056-.09-.125-.234-.207.118-.225.048-.255-.211-.09-.259.166-.27 1.712-.036 4.637.23 2.926.583 7.163 1.059 12.711.477 5.548.817 10.03 1.02 13.444.204 3.415.929 8.758 2.174 16.03 1.25 7.271 2.793 17.445 4.63 30.523 1.837 13.078 3.193 23.163 4.067 30.253.872 7.09 2.49 15.801 4.852 26.137 2.358 10.336 4.187 18.032 5.487 23.087 1.305 5.055 2.312 10.147 3.02 15.276.71 5.13 1.388 9.54 2.033 13.228.646 3.69 1.328 7.799 2.046 12.325.72 4.524 1.14 7.589 1.26 9.193.123 1.605.293 3.65.512 6.137.224 2.487.354 4.437.388 5.85.04 1.413.408 3.873 1.104 7.382-.074-.036-.153-.146-.235-.33-.082-.183-.17-.439-.265-.766" transform="translate(120.000000, 950.000000)"/>
                <path d="M13.434 72.02c-.896-1.333-1.215-1.787-.957-1.362-2.157-.866-2.847-1.124-2.07-.773-.053-.02-.15.015-.291.105-.142-.215-.204-.17-.183.138.02.305 1.367 1.075 4.042 2.308 2.676 1.233 6.557 3.008 11.645 5.323 5.088 2.313 9.177 4.22 12.267 5.723 3.09 1.503 8.123 3.5 15.098 5.99 6.977 2.491 16.64 6.152 28.99 10.984 12.349 4.831 21.841 8.61 28.477 11.337 6.632 2.726 15.05 5.605 25.253 8.636 10.202 3.03 17.836 5.224 22.901 6.583 5.064 1.357 10.014 2.987 14.851 4.891 4.842 1.906 9.037 3.485 12.587 4.736 3.543 1.252 7.472 2.677 11.785 4.278 4.316 1.603 7.207 2.745 8.673 3.428 1.46.682 3.332 1.538 5.616 2.568 2.288 1.032 4.058 1.88 5.31 2.542 1.257.662 3.592 1.552 7.005 2.67-.072.048-.21.06-.412.039-.2-.022-.467-.072-.8-.15" transform="translate(120.000000, 950.000000)"/>
                <path d="M32.98 40.16c-.398-1.551-.545-2.083-.438-1.596-1.747-1.537-2.314-2.011-1.7-1.422-.042-.034-.145-.034-.31 0-.064-.25-.137-.226-.22.072-.086.295.925 1.47 3.033 3.523 2.108 2.056 5.17 5.02 9.19 8.89 4.019 3.875 7.232 7.032 9.64 9.473 2.41 2.442 6.482 5.999 12.22 10.669 5.74 4.668 13.617 11.331 23.632 19.99 10.015 8.66 17.691 15.38 23.03 20.16 5.338 4.777 12.306 10.29 20.903 16.54 8.6 6.248 15.057 10.854 19.373 13.817 4.315 2.966 8.435 6.151 12.36 9.556 3.92 3.405 7.342 6.285 10.264 8.642 2.922 2.36 6.147 5.012 9.677 7.957 3.526 2.944 5.864 4.982 7.015 6.113 1.151 1.13 2.632 2.56 4.443 4.293 1.805 1.732 3.188 3.12 4.148 4.161.963 1.04 2.864 2.653 5.704 4.84-.083.02-.216-.011-.4-.095-.183-.084-.418-.218-.704-.401" transform="translate(120.000000, 950.000000)"/>
                <path d="M7.177 136.382c-1.504-.581-2.025-.772-1.564-.572-2.27.517-2.986.697-2.148.542-.056.016-.115.1-.177.251-.243-.094-.268-.02-.076.219.19.24 1.74.107 4.648-.398 2.906-.507 7.11-1.257 12.613-2.249 5.503-.993 9.954-1.752 13.353-2.275 3.401-.524 8.68-1.747 15.835-3.667 7.155-1.918 17.188-4.402 30.1-7.454 12.908-3.051 22.868-5.343 29.879-6.876 7.013-1.533 15.577-3.954 25.692-7.262 10.118-3.311 17.644-5.848 22.58-7.61 4.935-1.762 9.935-3.236 15.001-4.422 5.064-1.187 9.411-2.275 13.043-3.263 3.63-.987 7.676-2.05 12.138-3.188 4.46-1.137 7.485-1.842 9.076-2.113 1.59-.272 3.621-.634 6.094-1.087 2.47-.453 4.409-.764 5.815-.934 1.406-.17 3.832-.764 7.28-1.784-.03.078-.134.167-.31.266-.177.098-.426.208-.746.33" transform="translate(120.000000, 950.000000)"/>
            </g>
        </g>
    </g>
</svg>
