<?xml version="1.0" encoding="UTF-8"?>
<svg width="198px" height="190px" viewBox="0 0 198 190" version="1.1" xmlns="http://www.w3.org/2000/svg" xmlns:xlink="http://www.w3.org/1999/xlink">
    <title>werkstatt-freisinn</title>
    <g id="Page-1" stroke="none" stroke-width="1" fill="none" fill-rule="evenodd" stroke-linecap="round" stroke-linejoin="round">
        <g id="werkstatt-freisinn" transform="translate(1.000000, 1.000000)" stroke="#50612D" stroke-width="1.5">
            <g transform="translate(0.000000, 0.000000)">
                <path d="M0.909561042,126.766011 C0.842995379,126.353404 0.761119615,125.817681 0.663933748,125.158841 C0.564750911,124.500667 0.47222464,123.838167 0.386354936,123.171342 C0.301150888,122.504516 0.227263003,121.823383 0.16469128,121.127941 C0.103450871,120.432499 0.0618473316,119.822241 0.039880663,119.297165 C0.0165826812,118.77209 0.00360237702,118.33852 0.000939750526,117.996456 C-0.00172287597,117.654392 0.00127257884,117.314657 0.00992611495,116.977251 C0.0192453077,116.639846 0.0332240968,116.305435 0.0518624822,115.974018 C0.0711665243,115.641936 0.0957958194,115.312849 0.125750367,114.986757 C0.154373602,114.660665 0.186657948,114.344555 0.222603406,114.038427 C0.25921452,113.732965 0.299153918,113.436155 0.342421598,113.147996 C0.385023622,112.860502 0.429622616,112.580994 0.47621858,112.309472 C0.5234802,112.037951 0.585386266,111.709196 0.661936778,111.323209 C0.738487289,110.937223 0.832012045,110.510308 0.942511045,110.042465 C1.05301004,109.574622 1.16550601,109.127077 1.27999895,108.69983 C1.39582321,108.273248 1.51164746,107.862305 1.62747171,107.467001 C1.74263031,107.072363 1.85679042,106.692698 1.96995204,106.328007 C2.08444498,105.962651 2.19760661,105.612268 2.30943692,105.276859 C2.42259855,104.941449 2.53442886,104.620348 2.64492786,104.313555 C2.75542686,104.007428 2.86193192,103.716607 2.96444304,103.441092 C3.0662885,103.165577 3.16513851,102.905369 3.26099306,102.660467 C3.35618196,102.415565 3.44804258,102.186302 3.53657491,101.972678 C3.62510724,101.759054 3.72961533,101.515151 3.85009918,101.240967 C3.97124868,100.966783 4.08707293,100.710235 4.19757193,100.471322 C4.30673962,100.231744 4.39127801,100.055388 4.45118711,99.9422541 C4.50976489,99.8291201 4.60661793,99.6427816 4.74174622,99.3832387 C4.87687452,99.1236958 5.05094373,98.7909485 5.26395384,98.3849969 C5.47762962,97.9790452 5.69163823,97.5780847 5.90597966,97.1821154 C6.11898978,96.7861462 6.30603929,96.4434165 6.46712819,96.1539263 C6.62821709,95.8637707 6.78897317,95.5809355 6.94939642,95.3054208 C7.10915401,95.0292405 7.2948722,94.7124651 7.50655101,94.3550945 C7.71889547,93.9970584 7.92391771,93.652665 8.12161773,93.3219142 C8.3199834,92.9918289 8.49205564,92.7063317 8.63783444,92.4654227 C8.78361324,92.2245137 8.93571578,91.9732895 9.09414206,91.7117501 C9.25256833,91.4502107 9.41066178,91.1913334 9.5684224,90.9351179 C9.72418605,90.6789025 9.88028253,90.4246836 10.0367118,90.1724612 C10.1938068,89.9202387 10.3495704,89.6703455 10.5040028,89.4227815 C10.6577695,89.1752176 10.8112033,88.9299828 10.9643043,88.6870773 C11.118071,88.4441718 11.2701736,88.2035955 11.420612,87.9653484 C11.5730473,87.7271014 11.7238185,87.4915163 11.8729256,87.2585932 C12.0240297,87.0250046 12.1738024,86.7937453 12.3222439,86.5648151 C12.4713509,86.3365505 12.6194595,86.1102823 12.7665696,85.8860107 C12.9150111,85.6624045 13.060457,85.4424586 13.2029076,85.2261728 C13.3460237,85.0098871 13.5217571,84.7463512 13.7301076,84.4355653 C13.9391238,84.1241138 14.1744334,83.7767257 14.4360365,83.3934008 C14.6956425,83.0094104 14.9472607,82.6423902 15.1908911,82.29234 C15.4338557,81.9416244 15.6671684,81.6068806 15.890829,81.2881087 C16.115821,80.9700023 16.3354876,80.6615456 16.5498291,80.3627385 C16.7641705,80.0639315 16.9721882,79.7751068 17.1738822,79.4962646 C17.3769074,79.2167569 17.5739418,78.9472316 17.7649852,78.6876887 C17.9560287,78.4281458 18.1410812,78.1785854 18.3201429,77.9390073 C18.4985388,77.6987638 18.7015641,77.4279075 18.9292187,77.1264385 C19.1555419,76.8249694 19.372546,76.5381413 19.5802308,76.265954 C19.7885814,75.9937667 19.9673102,75.7591799 20.1164173,75.5621935 C20.26619,75.3652071 20.4222865,75.1605675 20.5847067,74.9482748 C20.7471269,74.7353165 20.915538,74.5150378 21.0899401,74.2874387 C21.2650078,74.059174 21.4463992,73.8235889 21.6341144,73.5806834 C21.8211639,73.3377779 22.0045523,73.1011946 22.1842796,72.8709335 C22.3633412,72.6406724 22.5394074,72.4167334 22.7124781,72.1991167 C22.8842175,71.9821655 23.0532943,71.7715364 23.2197084,71.5672296 C23.3847913,71.3635883 23.5848211,71.1183535 23.8197979,70.8315254 C24.0567716,70.5446972 24.3187075,70.2362405 24.6056055,69.9061552 C24.8931692,69.5767354 25.1657556,69.2732699 25.4233647,68.9957586 C25.6803081,68.7182474 25.9179476,68.463363 26.1362829,68.2311054 C26.355284,67.9988478 26.5972501,67.7426324 26.8621815,67.4624591 C27.1284441,67.1829514 27.3584285,66.9473663 27.5521346,66.7557039 C27.747172,66.5640415 27.9918008,66.3414335 28.286021,66.0878801 C28.5782443,65.8349922 28.9193933,65.550826 29.3094681,65.2353816 C29.6995428,64.9206026 30.0909489,64.6217956 30.4836863,64.3389604 C30.8764237,64.0567907 31.2711581,63.7909256 31.6678895,63.5413652 C32.0639552,63.2918047 32.4393855,63.0625418 32.7941805,62.8535765 C33.1509724,62.6452767 33.4877947,62.4576073 33.8046472,62.2905681 C34.1208341,62.123529 34.4782917,61.9495022 34.8770201,61.7684876 C35.2750827,61.5868076 35.6541742,61.4227632 36.0142944,61.2763544 C36.3744146,61.1306111 36.6786197,61.0114876 36.9269096,60.9189838 C37.1751995,60.8264801 37.4281491,60.7366383 37.6857582,60.6494585 C37.942036,60.5622787 38.2019749,60.4777609 38.4655749,60.3959051 C38.7311719,60.3140493 39.00043,60.2348554 39.2733492,60.1583235 C39.5475998,60.0817917 39.8251786,60.0082545 40.1060857,59.9377121 C40.3869928,59.8665042 40.6722266,59.7986237 40.9617873,59.7340708 C41.2506822,59.6701833 41.543904,59.608625 41.8414525,59.549396 C42.139001,59.4908325 42.4412091,59.4352637 42.7480768,59.3826896 C43.0536132,59.330781 43.3694673,59.2838637 43.695639,59.2419375 C44.0224764,59.2006769 44.3592987,59.1644074 44.7061058,59.1331292 C45.0549098,59.1025164 45.4136988,59.0775604 45.7824725,59.058261 C46.1505806,59.0382962 46.5296721,59.0239881 46.9197469,59.0153366 C47.3098216,59.0066852 47.6769313,59.001694 48.0210757,59 C48.3645546,59 48.6857339,59.0013612 48.9846137,59.0073507 C49.2848248,59.0133401 49.5630693,59.0229898 49.8193471,59.0362997 C50.0742936,59.0496096 50.3591946,59.0719037 50.6740502,59.1031819 C50.9895715,59.1344602 51.381976,59.1767191 51.851264,59.2299586 C52.3198862,59.2831982 52.7479034,59.3337758 53.1353156,59.3816914 C53.5227277,59.429607 53.8645424,59.4798518 54.1607596,59.5324259 C54.4556455,59.5843345 54.7701683,59.6465582 55.1043279,59.7190971 C55.4398188,59.791636 55.7936153,59.8744901 56.1657174,59.9676593 C56.5371538,60.0601631 56.9278942,60.162982 57.3379387,60.2761161 C57.7473175,60.3892502 58.1247448,60.4957293 58.4702206,60.5955535 C58.8176934,60.6953777 59.1312176,60.7882141 59.4107934,60.8740629 C59.6903692,60.9599117 59.9373278,61.0391056 60.1516692,61.1116445 C60.3660107,61.1841834 60.5487334,61.2497346 60.6998375,61.3082981 C60.8502759,61.3668617 61.0243451,61.4390678 61.2220451,61.5249166 C61.4197451,61.6107654 61.6414087,61.7095914 61.887036,61.8213945 C62.1339946,61.9331975 62.4045841,62.0586433 62.6988043,62.1977316 C62.9936902,62.3361545 63.3122069,62.4878873 63.6543544,62.6529299 C63.9958362,62.8179726 64.3349883,62.9910012 64.6718105,63.1720157 C65.0086328,63.3530302 65.3427924,63.5416979 65.6742894,63.7380188 C66.0044551,63.9336742 66.332291,64.1373155 66.6577971,64.3489428 C66.9839688,64.5612356 67.3061466,64.7811815 67.6243305,65.0087807 C67.9445113,65.2357143 68.243724,65.4523328 68.5219684,65.6586361 C68.8015442,65.8649394 69.0594862,66.0605948 69.2957943,66.2456023 C69.532768,66.4306098 69.7494393,66.6049694 69.945808,66.7686811 C70.1401797,66.9323927 70.3538555,67.1210604 70.5868353,67.3346842 C70.8198151,67.5483079 71.0830823,67.7962047 71.3766369,68.0783744 C71.6695258,68.3605441 71.9198127,68.6061116 72.1274975,68.8150768 C72.3358481,69.0240421 72.5255602,69.224356 72.696634,69.4160184 C72.8683734,69.6076809 73.0564214,69.8256303 73.2607779,70.0698668 C73.4644689,70.3147688 73.6854669,70.5859579 73.9237719,70.883434 C74.1614114,71.18091 74.4150265,71.5046731 74.6846175,71.8547233 C74.954874,72.2041079 75.2141473,72.5514961 75.4624372,72.8968878 C75.7107271,73.2429449 75.949365,73.5860074 76.1783509,73.9260751 C76.4066711,74.2668083 76.6236752,74.6048796 76.8293631,74.9402888 C77.0363823,75.2763636 77.232751,75.6097764 77.4184692,75.9405272 C77.6028561,76.271278 77.7862445,76.6153386 77.9686344,76.9727092 C78.1503587,77.3300798 78.3304188,77.7004275 78.5088148,78.0837524 C78.6865451,78.4670773 78.8626113,78.863712 79.0370133,79.2736567 C79.2114153,79.6829358 79.3838204,80.1055249 79.5542285,80.5414238 C79.7239709,80.9773228 79.8837285,81.4009101 80.0335013,81.8121857 C80.183274,82.2234613 80.3223962,82.6220926 80.450868,83.0080794 C80.5793397,83.3947318 80.6981594,83.7687397 80.8073271,84.1301033 C80.9158291,84.4921323 81.0133478,84.8418497 81.0998832,85.1792555 C81.1870842,85.5166612 81.2702913,85.8530687 81.3495044,86.188478 C81.4293832,86.5245527 81.5049352,86.8602947 81.5761605,87.195704 C81.6473857,87.5304478 81.7149499,87.8655243 81.7788529,88.2009335 C81.8414246,88.5356773 81.9000024,88.8697556 81.9545863,89.2031683 C82.0078388,89.5372466 82.0557661,89.8906242 82.0983681,90.2633012 C82.1416358,90.6366436 82.1782469,90.9683927 82.2082014,91.2585483 C82.2368247,91.5480384 82.2661136,91.8578262 82.2960681,92.1879115 C82.3260227,92.5179968 82.3556444,92.8687124 82.3849333,93.2400584 C82.4148878,93.6114043 82.445508,94.0030479 82.4767939,94.414989 C82.5067484,94.8275957 82.5380343,95.2601671 82.5706515,95.7127034 C82.6019373,96.1652397 82.6332232,96.6384064 82.6645091,97.1322033 C82.6971262,97.6260003 82.7270808,98.1008307 82.7543727,98.5566945 C82.7803333,99.0125582 82.8049626,99.4487899 82.8282606,99.8653895 C82.8502273,100.282655 82.8708626,100.680288 82.8901667,101.058289 C82.9101364,101.436955 82.9271106,101.796322 82.9410894,102.13639 C82.9544025,102.476457 82.9647202,102.797226 82.9720424,103.098695 C82.9813616,103.400164 82.9880182,103.682334 82.9920121,103.945204 C82.9960061,104.207409 82.9986687,104.450647 83,104.674919 C83,104.899856 82.9966717,105.152078 82.9900152,105.431586 C82.9833586,105.711094 82.9710439,106.030198 82.9530712,106.3889 C82.9337672,106.747602 82.9154616,107.060051 82.8981545,107.326249 C82.8801818,107.592447 82.8615434,107.871622 82.8422394,108.163774 C82.8222697,108.456592 82.8006358,108.762719 82.7773379,109.082156 C82.7527086,109.401594 82.7254166,109.734341 82.6954621,110.080398 C82.6668389,110.426456 82.6362187,110.78549 82.6036015,111.157501 C82.5709843,111.530178 82.536703,111.915832 82.5007575,112.314464 C82.4641464,112.71376 82.4275353,113.108399 82.3909242,113.498378 C82.3536474,113.888358 82.3147065,114.273347 82.2741015,114.653344 C82.2341621,115.033342 82.1932242,115.408681 82.1512878,115.779361 C82.1100171,116.149376 82.0677479,116.515065 82.0244802,116.876429 C81.9818782,117.237792 81.937612,117.593832 81.8916817,117.944548 C81.8450858,118.295929 81.7991555,118.642319 81.7538908,118.983717 C81.7079605,119.325782 81.660366,119.662855 81.6111075,119.994936 C81.5618489,120.327018 81.5125903,120.654441 81.4633317,120.977206 C81.4120761,121.299306 81.361819,121.613419 81.3125605,121.919547 C81.2633019,122.225674 81.2147089,122.523483 81.1667817,122.812973 C81.11952,123.101798 81.0725912,123.382969 81.0259953,123.656487 C80.9807306,123.930006 80.9254811,124.259426 80.8602468,124.644747 C80.7950124,125.030068 80.7214574,125.446335 80.6395816,125.893547 C80.5577058,126.341425 80.4791584,126.756028 80.4039392,127.137357 C80.32872,127.519351 80.2515038,127.900346 80.1722907,128.280344 C80.0937432,128.660341 80.0135316,129.039008 79.9316558,129.416343 C79.84978,129.794344 79.766573,130.171014 79.6820346,130.546353 C79.5974962,130.922357 79.510628,131.297363 79.42143,131.671371 C79.3315663,132.044714 79.2463623,132.398091 79.1658178,132.731504 C79.0839421,133.064251 79.0060603,133.377034 78.9321724,133.669851 C78.8589501,133.962669 78.7887234,134.235189 78.7214921,134.487412 C78.6549264,134.739634 78.5923547,134.971559 78.5337769,135.183186 C78.4738678,135.394148 78.407635,135.623743 78.3350784,135.871973 C78.2631875,136.120868 78.1839743,136.387731 78.097439,136.672563 C78.0089066,136.957395 77.9137177,137.26086 77.8118723,137.582959 C77.7093612,137.905059 77.6001935,138.245792 77.4843692,138.605159 C77.368545,138.963861 77.2490596,139.317904 77.1259131,139.667288 C77.002101,140.016008 76.8746278,140.359736 76.7434934,140.698472 C76.6136904,141.037875 76.4798934,141.37162 76.3421025,141.699709 C76.2029802,142.028463 76.0605297,142.352226 75.9147509,142.670998 C75.7689721,142.98977 75.6175352,143.306878 75.4604403,143.622323 C75.302014,143.937102 75.1389281,144.250882 74.9711826,144.563665 C74.8034372,144.876447 74.6297008,145.187566 74.4499735,145.497021 C74.2709119,145.806476 74.0851937,146.114267 73.8928189,146.420395 C73.7017755,146.726522 73.5067381,147.023333 73.3077067,147.310826 C73.1073441,147.598985 72.9043188,147.877828 72.6986309,148.147353 C72.4922774,148.416878 72.281597,148.677087 72.06659,148.927978 C71.8535798,149.178204 71.6365758,149.419446 71.4155778,149.651703 C71.1945798,149.883961 70.9689222,150.11156 70.738605,150.334501 C70.5089535,150.557442 70.2756408,150.776056 70.0386671,150.990346 C69.8010276,151.2053 69.5593943,151.415264 69.313767,151.620236 C69.0668084,151.825874 68.8158558,152.027186 68.5609094,152.224173 C68.3059629,152.421159 68.0413644,152.615151 67.7671138,152.806148 C67.4928633,152.99781 67.2086279,153.187143 66.9144077,153.374147 C66.6195218,153.560486 66.3146511,153.744495 65.9997955,153.926175 C65.6856056,154.107855 65.3614308,154.286873 65.0272712,154.463229 C64.6917802,154.640251 64.3692696,154.805626 64.0597393,154.959355 C63.7515402,155.113085 63.4556559,155.2555 63.1720862,155.386603 C62.8891821,155.51704 62.6182598,155.636163 62.3593194,155.743973 C62.1017103,155.851118 61.8570815,155.947282 61.625433,156.032465 C61.3944501,156.116983 61.1488228,156.200835 60.8885511,156.284022 C60.6302763,156.367209 60.3580228,156.44973 60.0717904,156.531586 C59.7855581,156.612777 59.4863454,156.693301 59.1741525,156.773161 C58.8626252,156.853686 58.5371191,156.932879 58.1976342,157.010742 C57.856818,157.088605 57.5239897,157.161477 57.1991493,157.229357 C56.8743088,157.297903 56.5557921,157.360792 56.2435992,157.418025 C55.9314062,157.475923 55.6272012,157.528497 55.330984,157.575747 C55.0334354,157.622332 54.7422107,157.663925 54.4573096,157.700527 C54.1737399,157.73713 53.8525606,157.770737 53.4937717,157.80135 C53.1349828,157.831963 52.7385842,157.858915 52.3045761,157.882207 C51.8699023,157.9055 51.461522,157.923468 51.0794351,157.936113 C50.6986795,157.949422 50.3711765,157.959405 50.0969259,157.96606 C49.8233411,157.972715 49.5397713,157.978704 49.2462168,157.984028 C48.9539935,157.989352 48.6674283,157.993345 48.3865212,157.996007 C48.1056141,157.998669 47.8300323,158 47.5597757,158 C47.2888535,158 47.024255,157.998669 46.7659802,157.996007 C46.5070398,157.99268 46.1915185,157.987023 45.8194165,157.979037 C45.4479801,157.971051 45.0366043,157.956077 44.5852891,157.934116 C44.1353052,157.912155 43.7076208,157.884869 43.3022359,157.85226 C42.8955197,157.820316 42.5184253,157.783382 42.1709525,157.741455 C41.8254767,157.700195 41.530258,157.662262 41.2852964,157.627656 C41.0396691,157.593716 40.787718,157.557113 40.5294433,157.517849 C40.2705028,157.478585 40.004573,157.435993 39.7316538,157.390074 C39.4587346,157.344155 39.1791588,157.295574 38.8929265,157.244331 C38.6066941,157.193088 38.3134724,157.13885 38.0132612,157.081618 C37.7117188,157.024385 37.4035198,156.963825 37.0886642,156.899937 C36.7744743,156.836716 36.4676066,156.774159 36.1680611,156.712268 C35.8705126,156.650377 35.5806191,156.589484 35.2983807,156.52959 C35.0161423,156.469695 34.7418918,156.410799 34.4756291,156.352901 C34.2106978,156.294337 33.8908498,156.222464 33.5160851,156.137281 C33.1419861,156.052097 32.7375997,155.955601 32.3029259,155.847791 C31.8675865,155.73998 31.465197,155.635498 31.0957576,155.534343 C30.7269838,155.433187 30.3598742,155.328372 29.9944287,155.219896 C29.6276519,155.112086 29.2622064,154.999951 28.8980923,154.883489 C28.5353094,154.767693 28.1738579,154.648237 27.8137376,154.52512 C27.4549487,154.402004 27.0974911,154.275227 26.7413648,154.14479 C26.3839072,154.013688 26.0074784,153.865615 25.6120783,153.700572 C25.2166783,153.534864 24.8558924,153.376809 24.5297207,153.226407 C24.2048802,153.076006 23.9292984,152.946234 23.7029751,152.837093 C23.4753206,152.727952 23.2433392,152.614485 23.0070311,152.496693 C22.7700574,152.3789 22.5287569,152.257115 22.2831296,152.131336 C22.0375023,152.005558 21.7865497,151.874788 21.5302719,151.739027 C21.2726628,151.603932 21.0243729,151.472164 20.7854022,151.343723 C20.5477627,151.215948 20.2631945,151.061221 19.9316975,150.879541 C19.5988692,150.698526 19.2457384,150.500874 18.872305,150.286585 C18.4995373,150.072961 18.1610509,149.873313 17.8568458,149.68764 C17.5513095,149.501967 17.2800544,149.330602 17.0430806,149.173546 C16.8067725,149.016489 16.5661377,148.850781 16.321176,148.676421 C16.07688,148.502062 15.8279245,148.319716 15.5743093,148.129385 C15.3200285,147.938388 15.0614209,147.739405 14.7984865,147.532436 C14.5348865,147.324802 14.266294,147.108849 13.9927091,146.884577 C13.7197899,146.65964 13.4605167,146.442689 13.2148894,146.233723 C12.9705934,146.024093 12.7392777,145.822115 12.5209424,145.627791 C12.302607,145.433466 12.0979176,145.246462 11.9068741,145.066779 C11.715165,144.887095 11.536769,144.715065 11.3716862,144.550688 C11.2066034,144.38631 11.0358624,144.209954 10.8594634,144.021619 C10.6837301,143.832619 10.501673,143.63164 10.3132922,143.418681 C10.1262427,143.206389 9.93253657,142.981784 9.73217393,142.744868 C9.5331426,142.507952 9.32911884,142.25939 9.12010266,141.999181 C8.90908952,141.738308 8.70473293,141.481427 8.50703291,141.228539 C8.30800158,140.975651 8.11562682,140.726756 7.92990862,140.481854 C7.74419042,140.236952 7.56346465,139.996043 7.3877313,139.759127 C7.21332927,139.522211 7.04425248,139.288955 6.88050095,139.059359 C6.71808074,138.829764 6.56231709,138.605159 6.41321001,138.385546 C6.26210595,138.166598 6.08271149,137.9004 5.87502663,137.586952 C5.6666761,137.273505 5.44667659,136.929111 5.21502808,136.553772 C4.98537655,136.177768 4.77869017,135.821728 4.59496894,135.485653 C4.41324468,135.149579 4.26047648,134.859423 4.13666435,134.615186 C4.01351788,134.37095 3.88937292,134.116398 3.76422947,133.851531 C3.641083,133.585999 3.52659006,133.336439 3.42075065,133.10285 C3.31690822,132.869261 3.20008548,132.6014 3.07028244,132.299265 C2.93914809,131.997796 2.82066121,131.717623 2.7148218,131.458746 C2.60964806,131.199203 2.49082835,130.909047 2.35836268,130.588279 C2.22589701,130.268176 2.07978539,129.915464 1.9200278,129.530143 C1.76093586,129.145487 1.60217676,128.748186 1.44375048,128.338242 C1.28665552,127.927632 1.12989338,127.511365 0.973464078,127.089441 C0.822603293,126.682537 0.978677923,127.194431 0.909561042,126.766011 Z" id="STROKE_72593f6f-6726-4abf-829b-ffec1acf5f33"></path>
                <path d="M82.6338696,103.863728 C82.215199,103.802977 81.8122202,103.746566 81.4249332,103.694493 C81.0376461,103.642421 80.6660509,103.596358 80.3101475,103.556302 C79.9529087,103.516914 79.6110277,103.483201 79.2845047,103.455162 C78.9599849,103.427123 78.5780398,103.400086 78.1386694,103.37405 C77.6979635,103.348681 77.2492447,103.327652 76.7925132,103.310962 C76.3351139,103.294272 75.942485,103.280587 75.6146265,103.269905 C75.2887712,103.258556 74.9836158,103.248876 74.6991601,103.240865 C74.4140368,103.232186 74.086846,103.22284 73.7175879,103.212826 C73.3496652,103.202145 73.0027763,103.187792 72.676921,103.169767 C72.3497303,103.151742 71.9694545,103.125038 71.5360937,103.089656 C71.1034006,103.054273 70.7114395,103.021228 70.3602102,102.990518 C70.0083132,102.960477 69.6257004,102.926764 69.2123716,102.889378 C68.7990429,102.851326 68.3853803,102.807265 67.9713839,102.757195 C67.5580552,102.707126 67.1453942,102.650381 66.733401,102.58696 C66.3200722,102.523538 65.9074113,102.453775 65.495418,102.37767 C65.0834248,102.301564 64.6717654,102.218783 64.2604399,102.129326 C63.8497821,102.039869 63.4384566,101.940731 63.0264634,101.831914 C62.6144701,101.722429 62.2024769,101.603264 61.7904836,101.474419 C61.3778226,101.344906 60.9654955,101.205379 60.5535023,101.055839 C60.141509,100.906299 59.7288481,100.747078 59.3155193,100.578177 C58.9035261,100.409277 58.4771765,100.220349 58.0364706,100.011393 C57.5964325,99.803104 57.1423718,99.5747878 56.6742887,99.3264439 C56.2075411,99.0787675 55.7271049,98.8110634 55.2329801,98.5233316 C54.7381876,98.2355998 54.2300403,97.928174 53.7085383,97.6010543 C53.1950492,97.1751311 52.7413224,96.784924 52.3473581,96.430433 C51.9520582,96.0766097 51.6495737,95.7938848 51.4399046,95.5822583 C51.2295676,95.3712995 51.0352564,95.1613421 50.8569708,94.952386 C50.6766821,94.7427623 50.4770289,94.4994253 50.2580115,94.222375 C50.038994,93.944657 49.7989428,93.6328919 49.5378579,93.2870796 C49.2774408,92.9419349 48.9969916,92.5624093 48.6965103,92.1485027 C48.3966968,91.7339286 48.1072331,91.320022 47.8281194,90.906783 C47.5503411,90.493544 47.2829127,90.080305 47.0258343,89.667066 C46.7694236,89.2538271 46.5230289,88.8409219 46.2866503,88.4283505 C46.0509394,88.0151115 45.8252446,87.6025401 45.6095658,87.1906363 C45.3958902,86.7780649 45.1939,86.3818495 45.0035952,86.0019901 C44.8119549,85.6221307 44.632,85.2586272 44.4637304,84.9114798 C44.2941254,84.5636647 44.1355381,84.2322057 43.9879684,83.9171026 C43.8403987,83.6019995 43.7041805,83.3032524 43.5793138,83.0208613 C43.4551149,82.7384702 43.3272434,82.4447301 43.1956994,82.1396409 C43.0654908,81.8352193 42.9299404,81.5197824 42.789048,81.1933303 C42.6481557,80.8662106 42.5039247,80.5284094 42.356355,80.1799268 C42.209453,79.8314441 42.0588785,79.4719462 41.9046314,79.1014331 C41.7497166,78.7309199 41.6048178,78.3857753 41.4699351,78.0659991 C41.3370556,77.7462229 41.1864811,77.3843884 41.0182116,76.9804957 C40.8499421,76.5772706 40.7137239,76.2501509 40.609557,75.9991365 C40.5067256,75.7481222 40.4012233,75.4981093 40.29305,75.2490978 C40.1848768,75.0000862 40.057673,74.7106854 39.9114388,74.3808953 C39.7652046,74.0504377 39.5989383,73.6795907 39.4126398,73.2683545 C39.2270092,72.8571183 39.022348,72.405159 38.7986564,71.9124767 C38.574297,71.4204619 38.3512731,70.9397962 38.1295847,70.4704796 C37.9065608,70.0018305 37.685874,69.5445305 37.4675243,69.0985796 C37.2485068,68.6532962 37.0308248,68.2196957 36.8144782,67.797778 C36.5981317,67.3758603 36.3831206,66.9659593 36.1694451,66.5680749 C35.9537663,66.1695229 35.759455,65.8096913 35.5865113,65.4885799 C35.4142354,65.1674685 35.2282709,64.8239928 35.0286177,64.4581528 C34.8289646,64.0923128 34.6763869,63.8196017 34.5708846,63.6400197 C34.4653822,63.4611052 34.3184803,63.2264469 34.1301787,62.9360447 C33.9438802,62.6463101 33.7158483,62.3008316 33.4460829,61.8996093 C33.1769852,61.4990545 32.9225777,61.1255372 32.6828604,60.7790574 C32.4431431,60.4325775 32.2167805,60.1131351 32.0037727,59.8207301 C31.7914326,59.5283252 31.5814295,59.2449327 31.3737636,58.9705527 C31.1667653,58.6968403 30.9627719,58.4318065 30.7617833,58.1754515 C30.5621302,57.9190965 30.3808398,57.6904464 30.2179122,57.4895015 C30.05632,57.2885565 29.9147599,57.1149828 29.7932319,56.9687803 C29.6723717,56.8219102 29.49442,56.6126204 29.2593768,56.3409107 C29.0256692,56.0698687 28.8066517,55.8168516 28.6023244,55.5818595 C28.3986649,55.3468674 28.1702991,55.0851716 27.917227,54.7967722 C27.6654905,54.5083727 27.4074104,54.2119622 27.1429869,53.9075406 C26.8778956,53.603119 26.6064609,53.2906863 26.3286826,52.9702425 C26.0495688,52.6497987 25.7641116,52.3216776 25.4723109,51.9858792 C25.1798424,51.6494132 24.8810305,51.3049361 24.575875,50.9524479 C24.2707196,50.5999598 23.978585,50.2604896 23.6994712,49.9340375 C23.421693,49.6075854 23.1569356,49.2938175 22.905199,48.9927338 C22.6547979,48.6923178 22.41675,48.4045859 22.1910551,48.1295383 C21.966028,47.8544907 21.7543556,47.5924612 21.556038,47.3434496 C21.3577203,47.0937705 21.1513898,46.8270678 20.9370465,46.5433415 C20.7247064,46.2589476 20.5043535,45.9571964 20.2759877,45.6380878 C20.0482896,45.3196467 19.8122449,44.9838483 19.5678534,44.6306926 C19.3241297,44.2768692 19.0723931,43.9060223 18.8126438,43.5181518 C18.5522266,43.1296136 18.3161819,42.7747889 18.1045095,42.4536775 C17.8948403,42.1325661 17.6668084,41.7817469 17.4204137,41.4012199 C17.1726836,41.0200253 16.9797078,40.7099291 16.8414864,40.4709315 C16.703265,40.2312662 16.5393358,39.8954678 16.3496987,39.4635363 C16.1607294,39.0309372 15.9881196,38.6283796 15.8318693,38.2558637 C15.6762867,37.8840154 15.5066818,37.469775 15.3230543,37.0131426 C15.1394268,36.5565102 14.9664832,36.0985426 14.8042233,35.6392398 C14.6426311,35.179937 14.4920566,34.719299 14.3524997,34.2573259 C14.2116074,33.7953528 14.0820665,33.3317106 13.9638772,32.8663995 C13.8450202,32.401756 13.7371808,31.9354435 13.640359,31.4674621 C13.544205,30.9994806 13.4587348,30.5485227 13.3839483,30.1145884 C13.3098296,29.6806541 13.2467285,29.2637433 13.1946451,28.8638562 C13.1425617,28.463969 13.1021636,28.0807716 13.073451,27.714264 C13.0434029,27.3477564 13.0243724,26.9982724 13.0163595,26.665812 C13.0090144,26.3333515 13.0040064,26.0232554 13,25.7355236 C13,25.4477917 13,25.1216734 13.0053419,24.7571686 C13.010016,24.3919962 13.0260417,24.0555302 13.0534189,23.7477706 C13.0807961,23.440011 13.1252005,23.0898594 13.1866323,22.6973158 C13.2493995,22.3041045 13.3288601,21.868835 13.4250141,21.3915073 C13.5205004,20.9135119 13.6316785,20.439856 13.7585483,19.9705393 C13.883415,19.5005551 14.0046091,19.0926568 14.1221307,18.7468445 C14.2383168,18.4010323 14.3588432,18.0812561 14.4837099,17.7875159 C14.6092443,17.4937758 14.7584833,17.168325 14.931427,16.8111637 C15.1050384,16.4540024 15.3020206,16.0654643 15.5223736,15.6455494 C15.744062,15.2249669 15.989455,14.7730076 16.2585527,14.2896715 C16.5256472,13.8056679 16.7653645,13.3744039 16.9777046,12.9958797 C17.1907125,12.6166879 17.4157396,12.22114 17.6527859,11.8092362 C17.8905,11.3966649 18.0581018,11.1242876 18.1555913,10.9921046 C18.2524131,10.8592539 18.4220181,10.6599779 18.6644063,10.3942766 C18.9067946,10.1279077 19.1374974,9.87822855 19.3565149,9.6452392 C19.5748646,9.41224985 19.8215932,9.15122167 20.0967005,8.86215466 C20.3718078,8.57308765 20.6612715,8.2870248 20.9650914,8.00396611 C21.2675759,7.72023982 21.5830813,7.4395177 21.9116075,7.16179974 C22.2414692,6.88341419 22.5856872,6.6080328 22.9442616,6.33565557 C23.3021682,6.06261075 23.6740973,5.79257008 24.0600488,5.52553358 C24.4446649,5.25782949 24.8292809,5.00214204 25.213897,4.75847123 C25.5971776,4.51480043 25.9794565,4.28247867 26.3607339,4.06150597 C26.742679,3.84120085 27.1239564,3.63224479 27.5045661,3.43463778 C27.8851757,3.23769836 28.2647837,3.05210799 28.6433902,2.87786668 C29.0213289,2.70362536 29.3772323,2.54306966 29.7111004,2.39619959 C30.0449685,2.24932951 30.4292507,2.08576966 30.863947,1.90552002 C31.2979755,1.72593797 31.7153106,1.56972162 32.1159524,1.43687096 C32.5159264,1.3040203 32.916902,1.18118351 33.3188792,1.06836059 C33.7201886,0.954870074 34.1224997,0.85139343 34.5258124,0.757930654 C34.9284573,0.663800288 35.3548069,0.576345834 35.8048611,0.495567292 C36.2549153,0.414788751 36.7283403,0.34001853 37.225136,0.271256631 C37.7219318,0.202494732 38.1966922,0.146750863 38.6494174,0.104025023 C39.1021425,0.0612991825 39.533834,0.0315913718 39.9444917,0.0149015905 C40.353814,-0.00178819085 40.7671428,-0.00445855586 41.1844779,0.00689049543 C41.601813,0.0175719555 41.9684002,0.0305899849 42.2842394,0.0459445837 C42.5987432,0.0612991825 42.9312758,0.0806593288 43.2818373,0.104025023 C43.6323989,0.127390716 43.98897,0.158099914 44.3515508,0.196152615 C44.7141315,0.233537726 45.0820542,0.278600135 45.4553187,0.331339844 C45.8285833,0.384079553 46.2068558,0.444162766 46.5901364,0.511589482 C46.973417,0.579016199 47.3627072,0.653786419 47.7580071,0.735900143 C48.1519714,0.817346276 48.5315795,0.900127591 48.8968312,0.984244089 C49.2600797,1.067693 49.608638,1.15247708 49.9425061,1.23859636 C50.2763742,1.32404804 50.5955521,1.41016731 50.9000398,1.49695417 C51.2038598,1.58440862 51.4926557,1.67286447 51.7664276,1.76232169 C52.0401994,1.85177892 52.3226518,1.95125002 52.6137848,2.06073498 C52.9055855,2.17021995 53.2067346,2.29005258 53.5172319,2.42023287 C53.8263938,2.54974558 54.1445701,2.68993974 54.4717608,2.84081536 C54.8002871,2.99102339 55.1381616,3.15157909 55.4853844,3.32248245 C55.8319395,3.49271822 56.1958557,3.68364932 56.5771331,3.89527574 C56.9577428,4.10690217 57.3573829,4.33855634 57.7760535,4.59023824 C58.1947241,4.84192014 58.6307559,5.11429737 59.0841487,5.40736993 C59.5382094,5.6997749 60.0102989,6.0125414 60.5004173,6.34566944 C60.9898679,6.67812988 61.4419253,6.98789222 61.8565895,7.27495646 C62.2712537,7.5620207 62.6475231,7.82638683 62.9853976,8.06805487 C63.3246076,8.30905531 63.6250889,8.52735765 63.8868415,8.72296189 C64.1492618,8.91856612 64.4200288,9.12885737 64.6991426,9.35383562 C64.9795918,9.57881387 65.3218066,9.86587811 65.725787,10.2150283 C66.1304351,10.5648462 66.551109,10.9396986 66.9878084,11.3395858 C67.4245079,11.7388054 67.804116,12.0882894 68.1266326,12.3880379 C68.4471459,12.6877863 68.6851939,12.9127646 68.8407764,13.0629726 C68.9956912,13.2138482 69.1579511,13.3707322 69.3275561,13.5336245 C69.4958257,13.6965167 69.697482,13.8907858 69.9325252,14.1164316 C70.1669006,14.3420775 70.4333273,14.5991001 70.7318054,14.8874995 C71.0309512,15.1765665 71.3628161,15.4966765 71.7274001,15.8478295 C72.0926518,16.1989825 72.433865,16.5257684 72.7510397,16.8281873 C73.0668789,17.1312737 73.3583458,17.4099931 73.6254403,17.6643453 C73.8925348,17.9186976 74.1352569,18.1490166 74.3536066,18.3553023 C74.5712886,18.5609204 74.8080011,18.7818931 75.0637441,19.0182204 C75.3188193,19.2545477 75.605612,19.507231 75.9241222,19.7762703 C76.2433001,20.0459771 76.5197429,20.2762961 76.7534506,20.4672272 C76.9884937,20.6581583 77.2335529,20.8544301 77.4886282,21.0560427 C77.7457066,21.2576552 78.0047883,21.4565974 78.2658731,21.6528693 C78.5262902,21.8491411 78.7903799,22.0427426 79.0581421,22.2336737 C79.3252366,22.4246047 79.5940004,22.6128655 79.8644336,22.7984558 C80.1355345,22.9833786 80.4093064,23.165631 80.6857492,23.3452131 C80.9635274,23.5254627 81.2516556,23.7033758 81.5501337,23.8789523 C81.8499473,24.0545288 82.1617801,24.2281025 82.4856321,24.3996735 C82.8088165,24.571912 83.14402,24.741814 83.4912429,24.9093794 C83.837798,25.0762772 84.1963723,25.2418398 84.5669659,25.4060673 C84.936224,25.5696271 85.2961339,25.7225055 85.6466954,25.8647025 C85.9959214,26.0062318 86.3357991,26.1367459 86.6663286,26.2562447 C86.9961903,26.3757436 87.315702,26.4845609 87.6248639,26.5826969 C87.933358,26.6808328 88.3049532,26.7869798 88.7396495,26.9011379 C89.1736781,27.015296 89.5526184,27.1140995 89.8764704,27.1975484 C90.1983193,27.2803297 90.3926305,27.3290639 90.4594041,27.3437509 C90.5241746,27.3584379 90.6947812,27.3787994 90.9712239,27.4048355 C91.2476667,27.4308715 91.5157628,27.4549048 91.7755122,27.4769353 C92.0352616,27.4996334 92.3327381,27.5246681 92.6679417,27.5520394 C93.0031452,27.5800782 93.3630551,27.5897583 93.7476711,27.5810796 C94.1322872,27.5730685 94.4758375,27.5617194 94.778322,27.5470324 C95.079471,27.5316778 95.4029892,27.5119839 95.7488766,27.4879506 C96.0934285,27.4632497 96.4606834,27.4338757 96.8506413,27.3998286 C97.2405993,27.3657814 97.6519248,27.3267273 98.0846178,27.2826663 C98.5186464,27.2386053 98.9750441,27.1898711 99.453811,27.1364638 C99.9339133,27.0837241 100.436051,27.0256437 100.960224,26.9622225 C101.484397,26.8994689 101.980525,26.8393857 102.448608,26.7819729 C102.917359,26.72456 103.357731,26.6704851 103.769724,26.6197482 C104.181717,26.5683437 104.566333,26.5196095 104.923572,26.4735457 C105.282147,26.4281495 105.687796,26.3757436 106.140521,26.316328 C106.593247,26.2562447 107.010582,26.1981643 107.392527,26.1420866 C107.774472,26.0853414 108.045573,26.0406128 108.20583,26.0079008 C108.366754,25.9745212 108.608141,25.9257871 108.929989,25.8616983 C109.251838,25.796942 109.594721,25.7288477 109.958637,25.6574154 C110.321218,25.5859831 110.643401,25.5222282 110.925185,25.4661505 C111.208305,25.4107404 111.51079,25.3513248 111.832639,25.2879036 C112.156491,25.2244825 112.499707,25.1573895 112.862288,25.0866249 C113.226204,25.0151926 113.609485,24.9400886 114.01213,24.8613128 C114.416778,24.7818695 114.813413,24.7054303 115.202036,24.6319952 C115.590658,24.5585602 115.972603,24.4874617 116.347871,24.4186998 C116.722471,24.3499379 117.089058,24.2838464 117.447633,24.2204252 C117.806207,24.1576716 118.15777,24.0972546 118.502322,24.0391742 C118.846206,23.9810938 119.183079,23.9260175 119.512941,23.8739454 C119.842135,23.8212056 120.242776,23.7591197 120.714866,23.6876874 C121.18562,23.6162551 121.705786,23.5438215 122.275365,23.4703864 C122.846948,23.3969514 123.39349,23.3308599 123.914992,23.2721118 C124.436494,23.2126962 124.934625,23.1606241 125.409385,23.1158955 C125.885481,23.0718345 126.336871,23.0351169 126.763554,23.0057429 C127.190906,22.9757013 127.594552,22.9530032 127.974494,22.9376486 C128.353768,22.9229616 128.712343,22.9106112 129.050217,22.9005973 C129.388092,22.8905834 129.778717,22.8822386 130.222094,22.8755626 C130.665471,22.8682191 131.045079,22.8688867 131.360918,22.8775654 C131.677425,22.8862441 131.980577,22.9022663 132.270375,22.925632 C132.559505,22.9483301 132.888699,22.9800407 133.257957,23.0207637 C133.625879,23.0614868 134.032865,23.1108886 134.478913,23.168969 C134.926296,23.227717 135.412742,23.2948099 135.93825,23.3702478 C136.463758,23.4456856 136.965896,23.5247951 137.444663,23.6075764 C137.922094,23.6896902 138.375821,23.7754756 138.805843,23.8649329 C139.236533,23.9537225 139.642851,24.0461839 140.024796,24.142317 C140.406741,24.2384502 140.764647,24.3379213 141.098515,24.4407303 C141.432384,24.5435394 141.74021,24.6406739 142.021995,24.7321339 C142.303779,24.8235939 142.617615,24.9290733 142.963503,25.0485722 C143.308722,25.1687386 143.607868,25.2859009 143.86094,25.400059 C144.112677,25.5135495 144.414494,25.6640913 144.76639,25.8516844 C145.118955,26.0399452 145.521266,26.2649234 145.973324,26.5266192 C146.424713,26.788315 146.844052,27.0560191 147.231339,27.3297315 C147.618626,27.6027763 147.949489,27.8431091 148.223929,28.05073 C148.4977,28.2590185 148.779819,28.4799912 149.070284,28.7136481 C149.361417,28.9466375 149.639196,29.1762889 149.903619,29.4026023 C150.16871,29.6282482 150.420447,29.850556 150.658829,30.069526 C150.897878,30.2884959 151.124241,30.5037941 151.337916,30.7154205 C151.550257,30.9270469 151.797319,31.1864061 152.079104,31.4934981 C152.360888,31.7999225 152.64067,32.1460686 152.918448,32.5319363 C153.197562,32.9178041 153.4296,33.2526011 153.614563,33.5363273 C153.801529,33.8200536 153.986826,34.1167979 154.170453,34.4265603 C154.355416,34.7363226 154.524354,35.0253896 154.677265,35.2937613 C154.829509,35.562133 154.995775,35.8662208 155.176064,36.2060248 C155.355685,36.5451611 155.501586,36.8579276 155.613765,37.1443243 C155.725945,37.4307209 155.842131,37.7698573 155.962324,38.1617333 C156.083852,38.5529418 156.20972,38.99689 156.339928,39.4935779 C156.470137,39.9909334 156.576307,40.4081779 156.658439,40.7453115 C156.739902,41.0831127 156.797328,41.3414705 156.830715,41.5203849 C156.864769,41.6986318 156.894817,41.9539854 156.920859,42.2864459 C156.946901,42.6189063 156.96927,43.027806 156.987966,43.5131448 C157.007331,43.9991512 157.003324,44.5125289 156.975947,45.0532778 C156.947235,45.5940268 156.895819,46.1621469 156.8217,46.7576383 C156.746914,47.3537973 156.690156,47.8054228 156.651427,48.1125148 C156.613366,48.4202743 156.593,48.5838342 156.59033,48.6031943 C156.587659,48.6225545 156.543922,48.767088 156.459119,49.0367948 C156.372981,49.3065017 156.286843,49.573872 156.200705,49.8389057 C156.115903,50.1039395 156.017412,50.4113652 155.905232,50.761183 C155.793052,51.1110009 155.671858,51.4618201 155.54165,51.8136407 C155.411441,52.1654612 155.272552,52.5182832 155.124982,52.8721066 C154.978748,53.2252624 154.823499,53.5797533 154.659236,53.9355794 C154.496309,54.2914056 154.325034,54.6475655 154.145413,55.0040592 C153.965125,55.3612206 153.793516,55.6946824 153.630589,56.0044447 C153.468997,56.3142071 153.278692,56.6650263 153.059674,57.0569023 C152.841325,57.449446 152.621973,57.8112805 152.40162,58.1424057 C152.181267,58.473531 151.932202,58.826353 151.654423,59.2008717 C151.377981,59.5753903 151.114559,59.9191998 150.864158,60.2323001 C150.615092,60.546068 150.381718,60.8301281 150.164036,61.0844804 C149.945019,61.3395002 149.701295,61.6178858 149.432865,61.919637 C149.162432,62.2207207 148.867626,62.5448362 148.548448,62.8919837 C148.227267,63.2391311 147.880378,63.6096443 147.507782,64.0035231 C147.135852,64.397402 146.804655,64.7475536 146.51419,65.053978 C146.224393,65.3604023 145.92291,65.6785096 145.609741,66.0082997 C145.295238,66.3374221 145.091912,66.5477134 144.999764,66.6391734 C144.908284,66.7306334 144.703289,66.9249024 144.384779,67.2219806 C144.065601,67.5197263 143.758109,67.8057891 143.462302,68.0801691 C143.165827,68.3545491 142.827952,68.6673156 142.448678,69.0184686 C142.069404,69.3696216 141.711497,69.6994117 141.374958,70.0078388 C141.038419,70.316266 140.721912,70.603664 140.425437,70.870033 C140.12963,71.1364019 139.854523,71.3820754 139.600115,71.6070537 C139.345708,71.8313644 139.058915,72.0800421 138.739737,72.3530869 C138.419892,72.6267993 138.063654,72.9335575 137.671025,73.2733615 C137.277729,73.6131654 136.900792,73.9406189 136.540214,74.255722 C136.18164,74.5708251 135.85712,74.8552189 135.566655,75.1089036 C135.275522,75.3625883 135.019779,75.5855638 134.799426,75.77783 C134.577737,75.9694287 134.307972,76.209094 133.99013,76.4968258 C133.670284,76.7845577 133.303697,77.1196885 132.890368,77.5022182 C132.475704,77.8854156 132.104109,78.2348996 131.775582,78.5506703 C131.446388,78.866441 131.169946,79.1344789 130.946254,79.354784 C130.72323,79.5744215 130.496868,79.799066 130.267166,80.0287173 C130.037465,80.2590363 129.830801,80.4666572 129.647173,80.65158 C129.462878,80.8371703 129.267231,81.035445 129.060233,81.2464038 C128.851232,81.4573626 128.697318,81.615248 128.598494,81.7200598 C128.499001,81.8248716 128.305357,82.0308235 128.017563,82.3379155 C127.729101,82.6450075 127.453326,82.9390814 127.190238,83.2201373 C126.927818,83.5011932 126.629006,83.8206357 126.293802,84.1784646 C125.958598,84.5362935 125.64543,84.8710905 125.354297,85.1828556 C125.063832,85.4946207 124.795402,85.7836877 124.549007,86.0500566 C124.302613,86.3164256 124.078253,86.5600964 123.875929,86.7810691 C123.67227,87.0020418 123.450581,87.2437098 123.210864,87.5060732 C122.970479,87.7691041 122.699044,88.0688526 122.39656,88.4053186 C122.094075,88.741117 121.830653,89.0331882 121.606294,89.2815321 C121.38327,89.5305436 121.149896,89.7915718 120.906172,90.0646166 C120.661113,90.3376615 120.405036,90.6210539 120.137942,90.9147941 C119.87018,91.2085342 119.591066,91.5129559 119.300601,91.8280589 C119.009468,92.1438296 118.707317,92.4696141 118.394149,92.8054125 C118.082316,93.1418785 117.758464,93.4886922 117.422592,93.8458535 C117.086053,94.2030148 116.731819,94.5698562 116.35989,94.9463777 C115.986626,95.3228991 115.595332,95.7091007 115.18601,96.1049823 C114.776688,96.5001963 114.405093,96.8536859 114.071224,97.165451 C113.736021,97.4765485 113.452233,97.7379105 113.219861,97.9495369 C112.988156,98.1618309 112.751444,98.3764615 112.509723,98.5934287 C112.268671,98.8103958 112.029955,99.0216885 111.793576,99.2273066 C111.55653,99.4322571 111.264395,99.680601 110.917172,99.9723384 C110.569282,100.264076 110.174316,100.581515 109.732275,100.924657 C109.288898,101.267799 108.855871,101.588243 108.433194,101.885989 C108.011852,102.183734 107.599859,102.458782 107.197214,102.711132 C106.795237,102.964149 106.394595,103.205483 105.995289,103.435134 C105.59665,103.665453 105.199013,103.884423 104.802378,104.092044 C104.404407,104.299665 104.009107,104.495937 103.616479,104.68086 C103.223182,104.865782 102.831555,105.039356 102.441597,105.201581 C102.051639,105.363805 101.677706,105.513012 101.3198,105.649201 C100.961225,105.784722 100.619678,105.906891 100.295159,106.015708 C99.9719743,106.124526 99.6648156,106.219991 99.3736826,106.302105 C99.0832174,106.384219 98.7446751,106.467 98.3580558,106.550449 C97.9707688,106.633898 97.5497611,106.711338 97.0950328,106.782771 C96.6409721,106.85487 96.2169597,106.907276 95.8229953,106.939988 C95.4276954,106.973368 95.0330633,106.992728 94.639099,106.998069 C94.2458023,107.004077 93.8528396,106.996066 93.4602107,106.974035 C93.0662463,106.952673 92.6812964,106.919961 92.3053609,106.8759 C91.9314286,106.831839 91.5665108,106.776762 91.2106074,106.710671 C90.8533685,106.644579 90.5024731,106.567806 90.1579212,106.480352 C89.8120339,106.392897 89.4721561,106.295095 89.138288,106.186945 C88.8044199,106.078128 88.4738905,105.965639 88.1466998,105.849478 C87.8181735,105.73265 87.4933199,105.611482 87.1721388,105.485975 C86.8502899,105.361135 86.5414619,105.235294 86.2456548,105.108452 C85.9491799,104.980942 85.6667275,104.852764 85.3982975,104.723919 L82.6258567,103.900779 L82.6338696,103.863728 Z" id="STROKE_64439716-14ef-46aa-b693-4883c951f1d1"></path>
                <path d="M123.847804,187.842127 C122.963075,187.910705 122.191765,187.95598 121.533872,187.977952 C120.875315,188 120.259664,188 119.686918,187.976953 C119.114838,187.95365 118.578014,187.914034 118.076446,187.858106 C117.576874,187.801513 117.109897,187.733267 116.675515,187.653371 C116.241798,187.572808 115.837018,187.485254 115.461175,187.39071 C115.087327,187.296165 114.734101,187.197626 114.401496,187.095091 C114.070222,186.993223 113.68939,186.862392 113.258999,186.702598 C112.827943,186.542138 112.384914,186.359707 111.929911,186.155304 C111.474242,185.950236 111.069795,185.753823 110.716568,185.566065 C110.362677,185.377642 110.050029,185.20087 109.778623,185.03575 C109.505887,184.871295 109.250779,184.709504 109.0133,184.550376 C108.775155,184.391914 108.552309,184.237114 108.344764,184.085976 C108.136553,183.934837 107.941647,183.787361 107.760045,183.643547 C107.576447,183.500398 107.404158,183.361577 107.243177,183.227084 C107.082196,183.091926 106.885294,182.913822 106.652471,182.692774 C106.421643,182.47106 106.19647,182.244353 105.976951,182.012652 C105.756767,181.780285 105.566849,181.575883 105.407199,181.399444 C105.247549,181.223005 105.081911,181.03558 104.910287,180.837169 C104.739994,180.638093 104.563381,180.428364 104.380448,180.207982 C104.196185,179.9876 104.0066,179.755899 103.811694,179.512879 C103.615457,179.269859 103.424875,179.0315 103.239946,178.797802 C103.055683,178.564104 102.875744,178.334733 102.700129,178.10969 C102.525179,177.884648 102.355883,177.664265 102.192241,177.448544 C102.027935,177.232156 101.868617,177.020763 101.714288,176.814362 C101.55996,176.607296 101.40929,176.404558 101.262279,176.206148 C101.115267,176.008403 100.972912,175.814986 100.835214,175.625897 C100.697516,175.437473 100.563809,175.253378 100.434093,175.07361 C100.304377,174.893842 100.178985,174.718734 100.057917,174.548288 C99.9368487,174.377175 99.8121219,174.200403 99.6837365,174.017972 C99.5566815,173.836207 99.4253026,173.648116 99.2895999,173.453701 C99.1558928,173.259951 99.0181944,173.060209 98.8765048,172.854474 C98.7361456,172.64874 98.5921277,172.437013 98.4444512,172.219294 C98.2974399,172.002241 98.14677,171.779196 97.9924414,171.550158 C97.8374476,171.32112 97.6787951,171.08609 97.516484,170.845068 C97.3555033,170.604712 97.1905313,170.358363 97.0215681,170.106022 C96.8539353,169.853015 96.6823113,169.594682 96.506696,169.331023 C96.3317459,169.066697 96.159124,168.808364 95.9888304,168.556023 C95.8198672,168.303016 95.6535648,168.056002 95.4899233,167.81498 C95.3262818,167.573292 95.1656337,167.337596 95.007979,167.107892 C94.8509896,166.877523 94.6969936,166.653146 94.545991,166.434761 C94.3943233,166.216377 94.2449837,166.003651 94.0979724,165.796585 C93.9516264,165.589519 93.8089389,165.38778 93.6699101,165.191366 C93.5308814,164.995619 93.3941808,164.805531 93.2598085,164.621103 C93.124771,164.436674 92.9923943,164.258238 92.8626784,164.085794 C92.734293,163.912684 92.6108966,163.747231 92.4924894,163.589434 C92.3754125,163.431638 92.2363837,163.245878 92.075403,163.032154 C91.9144223,162.81843 91.7481199,162.599379 91.5764959,162.375002 C91.4048718,162.150625 91.2535367,161.957208 91.1224904,161.794751 C90.9914442,161.631628 90.8823498,161.4988 90.7952074,161.396265 C90.7080649,161.294397 90.5896576,161.166895 90.4399855,161.013759 C90.2909786,160.860624 90.152615,160.720138 90.0248948,160.592303 C89.8991702,160.464468 89.758811,160.323983 89.6038172,160.170847 C89.4481581,160.017712 89.2795275,159.851593 89.0979253,159.672491 C88.9143275,159.494054 88.7180907,159.302635 88.509215,159.098232 C88.2983435,158.893829 88.074168,158.676776 87.8366882,158.447073 C87.5985432,158.216703 87.347094,157.974017 87.0823406,157.719012 C86.8162568,157.463342 86.5591533,157.21766 86.3110302,156.981964 C86.0635723,156.746268 85.8257599,156.520559 85.597593,156.304838 C85.3700914,156.088451 85.1512375,155.882383 84.9410313,155.686636 C84.7301599,155.490223 84.5286014,155.303464 84.3363558,155.126359 C84.1441103,154.94992 83.9608451,154.783136 83.7865602,154.626005 C83.6129405,154.46954 83.409719,154.288108 83.1768957,154.081708 C82.942742,153.875973 82.7075904,153.675232 82.4714411,153.479485 C82.2332961,153.283738 82.0174356,153.106633 81.8238596,152.948171 C81.6316141,152.789709 81.4244013,152.619262 81.2022214,152.436831 C80.9800414,152.2544 80.8250476,152.127564 80.7372399,152.056322 C80.6487671,151.985747 80.5296946,151.890869 80.3800224,151.77169 C80.2310155,151.653176 80.0667088,151.522678 79.8871022,151.380195 C79.7081609,151.237047 79.5471802,151.109212 79.4041601,150.99669 C79.2598097,150.884169 79.1051485,150.762326 78.9401765,150.631162 C78.7738741,150.500664 78.5965958,150.361177 78.4083415,150.212702 C78.219422,150.064227 78.0198592,149.906431 77.809653,149.739313 C77.5994468,149.572861 77.3928992,149.409406 77.1900103,149.248946 C76.985791,149.088487 76.7862282,148.93069 76.5913218,148.775557 C76.3964154,148.62109 76.2048351,148.469286 76.0165808,148.320145 C75.8296569,148.170339 75.6463917,148.023528 75.4667852,147.879714 C75.2878438,147.735899 75.1125611,147.595414 74.9409371,147.458258 C74.7706434,147.320436 74.6043411,147.185277 74.44203,147.052781 C74.2783884,146.920286 74.1187381,146.790786 73.9630791,146.664283 C73.8080853,146.537779 73.6194984,146.383978 73.3973185,146.202878 C73.1764689,146.021779 72.914709,145.804393 72.6120387,145.55072 C72.3093683,145.297048 72.0416215,145.070007 71.8087982,144.869599 C71.5766401,144.669857 71.3823989,144.501741 71.2260747,144.365251 C71.0690853,144.22876 70.9107654,144.090605 70.7511151,143.950786 C70.5927953,143.811632 70.4328124,143.670481 70.2711665,143.527332 C70.1115162,143.384849 69.9498703,143.240702 69.7862288,143.09489 C69.6225872,142.949079 69.4636022,142.806596 69.3092736,142.667442 C69.1542798,142.527623 68.9676885,142.357509 68.7494998,142.157101 C68.5313111,141.956693 68.2928335,141.735645 68.034067,141.493957 C67.7746353,141.252269 67.5331642,141.022898 67.3096539,140.805845 C67.084813,140.588792 66.8769351,140.384056 66.68602,140.191638 C66.4944396,139.999886 66.295542,139.794484 66.0893271,139.575434 C65.8837773,139.356383 65.6705777,139.123683 65.4497281,138.877335 C65.2288786,138.631652 65.0010443,138.372653 64.7662254,138.100338 C64.5307412,137.828023 64.2882724,137.542058 64.0388188,137.242445 C63.7906957,136.942832 63.5602006,136.66286 63.3473336,136.402529 C63.1344665,136.142199 62.9402253,135.901177 62.76461,135.679463 C62.5876643,135.457749 62.4296771,135.255344 62.2906483,135.072247 C62.1516195,134.889816 62.030884,134.726693 61.9284417,134.582878 C61.8259995,134.439064 61.7195659,134.286261 61.6091412,134.12447 C61.4987164,133.962679 61.3849656,133.7919 61.2678887,133.612132 C61.1494814,133.431698 61.0274155,133.242609 60.9016909,133.044864 C60.7753011,132.847119 60.6452526,132.640386 60.5115455,132.424664 C60.3778384,132.208943 60.2441313,131.986896 60.1104242,131.758524 C59.9753867,131.530153 59.8406817,131.295788 59.7063094,131.055432 C59.5726023,130.815076 59.43823,130.568394 59.3031925,130.315387 C59.1668245,130.063046 59.0304566,129.80438 58.8940886,129.539389 C58.7577207,129.273732 58.6260092,129.013401 58.4989542,128.758397 C58.371234,128.503393 58.2481702,128.253382 58.1297629,128.008365 C58.0133513,127.763348 57.9005983,127.522992 57.7915039,127.287296 C57.6810792,127.052266 57.5756434,126.82223 57.4751968,126.597187 C57.3754154,126.372144 57.2766318,126.143107 57.178846,125.910074 C57.0830558,125.677042 56.9875983,125.440347 56.8924733,125.199991 C56.7980136,124.958968 56.7038864,124.714617 56.6100919,124.466937 C56.5176278,124.218591 56.4268267,123.96625 56.3376886,123.709914 C56.2478853,123.453578 56.1587472,123.190918 56.0702744,122.921931 C55.9818015,122.653611 55.8946591,122.3783 55.8088471,122.095998 C55.723035,121.814361 55.6385534,121.5264 55.5554022,121.232113 C55.4722511,120.937826 55.3904303,120.636881 55.3099399,120.329278 C55.2294496,120.021675 55.1549461,119.736044 55.0864296,119.472384 C55.0172478,119.209391 54.9560485,118.968035 54.9028317,118.748319 C54.8482846,118.529268 54.8000569,118.331857 54.7581487,118.156084 C54.7169057,117.980976 54.6753301,117.795216 54.6334219,117.598803 C54.5908485,117.401724 54.5389621,117.153711 54.4777629,116.854763 C54.4165636,116.555816 54.3530361,116.238559 54.2871804,115.902992 C54.219329,115.568091 54.1567993,115.254163 54.0995913,114.961208 C54.0423833,114.668918 53.9964838,114.429228 53.9618929,114.242136 C53.9266368,114.055044 53.8927111,113.868285 53.8601159,113.681859 C53.8275206,113.496099 53.7906015,113.279712 53.7493585,113.032697 C53.7074503,112.785683 53.6618834,112.508041 53.6126579,112.199772 C53.5634324,111.891504 53.5095505,111.552608 53.451012,111.183085 C53.3924736,110.814228 53.339922,110.459685 53.2933574,110.119458 C53.2461275,109.778565 53.2058823,109.452652 53.1726219,109.14172 C53.1400266,108.830788 53.1134182,108.534171 53.0927967,108.251869 C53.07151,107.970232 53.0565428,107.702911 53.0478951,107.449904 C53.0385822,107.196897 53.0305996,106.948551 53.0239475,106.704866 C53.0172954,106.460515 53.0123064,106.221157 53.0089803,105.986793 C53.0049891,105.751763 53.0023282,105.521394 53,105.295685 C53,105.069976 53,104.848595 53,104.631542 C53.0023282,104.415155 53.0086477,104.185451 53.0199563,103.942432 C53.0319301,103.700078 53.0488929,103.444741 53.0708448,103.176421 C53.0927967,102.9081 53.1207355,102.626797 53.1546612,102.33251 C53.1885869,102.038223 53.2268364,101.731286 53.2694098,101.411699 C53.3126485,101.091445 53.3622066,100.767197 53.4180842,100.438954 C53.4752922,100.110711 53.5374893,99.7784736 53.6046754,99.442241 C53.6711964,99.1060084 53.744702,98.765448 53.8251924,98.4205599 C53.9056827,98.0763375 53.9921599,97.7277875 54.0846241,97.3749097 C54.1777534,97.0220319 54.2672241,96.6907928 54.3530361,96.3811925 C54.4388481,96.0709263 54.5206689,95.7822989 54.5984984,95.5153102 C54.6776583,95.2489873 54.7538248,95.0036374 54.8269979,94.7792604 C54.8995057,94.5555491 54.9846525,94.3078689 55.0824383,94.0362195 C55.1795589,93.7645702 55.2839968,93.4782731 55.395752,93.1773283 C55.5075072,92.8763834 55.5979756,92.6356941 55.6671574,92.4552604 C55.7370044,92.2748266 55.8081818,92.0950587 55.8806897,91.9159566 C55.9538627,91.7361886 56.0416704,91.5267923 56.1441126,91.2877675 C56.2465549,91.0480769 56.3629666,90.7790908 56.4933476,90.4808092 C56.621733,90.1818617 56.7451294,89.8982279 56.8635367,89.6299076 C56.981944,89.3615873 57.0843862,89.1338812 57.1708635,88.9467894 C57.2566755,88.7603634 57.3464788,88.5699425 57.4402733,88.3755268 C57.5327374,88.1811112 57.6295254,87.9827006 57.7306373,87.7802952 C57.8317491,87.5785556 57.936187,87.3728212 58.0439509,87.163092 C58.1523801,86.9533627 58.2641353,86.7399715 58.3792165,86.5229184 C58.494963,86.3051994 58.6133702,86.0838185 58.7344384,85.8587757 C58.8561717,85.6343987 58.9822289,85.4056939 59.11261,85.1726614 C59.2436562,84.9402947 59.3773633,84.7039331 59.5137313,84.4635767 C59.6500992,84.2232203 59.7851368,83.9891891 59.9188439,83.761483 C60.0532162,83.533777 60.1845951,83.3120632 60.3129805,83.0963417 C60.4400355,82.881286 60.5660927,82.6725554 60.6911521,82.47015 C60.8168767,82.2670788 60.940273,82.0703328 61.0613412,81.8799119 C61.1824093,81.6894911 61.3018144,81.5050625 61.4195565,81.3266262 C61.5379637,81.1481898 61.6823142,80.9347986 61.8526078,80.6864526 C62.021571,80.4381065 62.2111557,80.1731152 62.4213619,79.8914788 C62.6335638,79.6105081 62.831131,79.3498446 63.0140636,79.1094882 C63.1956658,78.8697977 63.364629,78.6507471 63.5209532,78.4523365 C63.6752818,78.253926 63.8166388,78.0764884 63.9450243,77.9200237 C64.0727445,77.7628932 64.2117733,77.597773 64.3621106,77.4246632 C64.5117828,77.2515533 64.6651135,77.0734499 64.822103,76.8903529 C64.9784272,76.7079217 65.1137973,76.5491267 65.2282134,76.4139678 C65.3432946,76.278809 65.4906385,76.1190153 65.6702451,75.9345867 C65.8498516,75.7494923 66.0311212,75.5690585 66.2140538,75.3932854 C66.3969864,75.2168465 66.5829125,75.0523922 66.771832,74.8999223 C66.9614167,74.7467867 67.1347038,74.6082988 67.2916932,74.4844586 C67.4486826,74.3612843 67.6223023,74.2271241 67.8125522,74.0819782 C68.0008065,73.9368322 68.2053584,73.7810333 68.426208,73.6145815 C68.6470575,73.4481297 68.8842047,73.2706921 69.1376495,73.0822687 C69.3904291,72.8945111 69.6591738,72.6954347 69.9438834,72.4850396 C70.2299235,72.2753104 70.5312634,72.0549282 70.8479031,71.8238931 C71.1638776,71.592858 71.4712044,71.3704784 71.7698835,71.1567543 C72.0692277,70.9430302 72.3582612,70.7379616 72.636984,70.5415485 C72.9177024,70.3451353 73.1894405,70.1577106 73.4521982,69.9792743 C73.7142908,69.800838 73.9664052,69.63139 74.2085414,69.4709305 C74.4513429,69.3098052 74.685164,69.1576682 74.9100048,69.0145197 C75.1348456,68.8713711 75.3503735,68.7368781 75.5565885,68.6110405 C75.7634686,68.4858688 75.9603706,68.3693525 76.1472945,68.2614918 C76.3342183,68.153631 76.5544027,68.0321212 76.8078475,67.8969623 C77.0612923,67.7618035 77.3583083,67.608002 77.6988956,67.4355579 C78.0388176,67.2631139 78.3797375,67.0943318 78.7216552,66.9292116 C79.0635729,66.7647572 79.4058231,66.6046306 79.748406,66.4488317 C80.0916541,66.2930328 80.4362326,66.1408959 80.7821416,65.9924209 C81.1273853,65.8446117 81.4526727,65.7061238 81.7580039,65.5769572 C82.063335,65.4484564 82.3480447,65.3296098 82.6121329,65.2204174 C82.8768862,65.1112251 83.1223485,65.0116869 83.3485198,64.9218029 C83.5733606,64.8312531 83.7785777,64.7506905 83.9641711,64.6801149 C84.1484342,64.6095393 84.3563121,64.5333044 84.587805,64.4514101 C84.8179675,64.36885 85.0714123,64.2809635 85.3481395,64.1877505 C85.6248666,64.0945375 85.9235457,63.9956651 86.2441767,63.8911334 C86.5654728,63.7866017 86.910384,63.6764106 87.27891,63.5605601 C87.6481013,63.4440439 88.0159621,63.3321883 88.3824925,63.2249933 C88.749023,63.1171325 89.1145556,63.0139324 89.4790904,62.915393 C89.8442904,62.8161877 90.2094904,62.7216431 90.5746904,62.6317591 C90.93856,62.5412093 91.3024296,62.4549873 91.6662992,62.373093 C92.0314992,62.2911987 92.3614431,62.2209561 92.6561309,62.162365 C92.9521491,62.1031082 93.2029331,62.0545043 93.4084828,62.0165533 C93.6120369,61.9779364 93.8205801,61.9399854 94.0341123,61.9027002 C94.2469794,61.865415 94.4631725,61.8284627 94.6826916,61.7918433 C94.9035411,61.7552239 95.1283819,61.7189374 95.357214,61.6829839 C95.5860461,61.6476961 95.8185368,61.6127412 96.0546862,61.5781192 C96.2915007,61.5428314 96.531974,61.5082095 96.7761058,61.4742533 C97.0189073,61.4402971 97.2527284,61.4083384 97.4775692,61.3783771 C97.7037405,61.3484157 97.9199335,61.3201189 98.1261485,61.2934867 C98.3330286,61.2668544 98.5299306,61.2425524 98.7168545,61.2205808 C98.9051088,61.1979433 99.1259583,61.1726427 99.3794032,61.1446788 C99.6341784,61.1167148 99.8929449,61.0917471 100.155703,61.0697754 C100.419126,61.0478038 100.693192,61.0318244 100.977902,61.0218373 C101.261281,61.0111844 101.549649,61.0041934 101.843006,61 C102.135033,60.9982012 102.359209,61 102.515533,61.0038605 C102.671192,61.009187 102.850466,61.0198399 103.053355,61.0358193 C103.256244,61.0517986 103.508358,61.074769 103.809698,61.1047303 C104.111038,61.1340258 104.411713,61.1649859 104.711722,61.1976104 C105.010401,61.2295692 105.271496,61.257866 105.495007,61.2825008 C105.719847,61.3071357 105.956329,61.3334351 106.204452,61.361399 C106.452576,61.3893629 106.699368,61.4176597 106.944831,61.4462894 C107.190293,61.4749191 107.434757,61.5042146 107.678224,61.534176 C107.921026,61.5641373 108.162497,61.5940986 108.402637,61.6240599 C108.642113,61.6546871 108.879925,61.6856471 109.116074,61.71694 C109.353554,61.7488988 109.589371,61.7808575 109.823525,61.8128163 C110.057678,61.844775 110.289504,61.8773996 110.519001,61.9106899 C110.750494,61.9433145 110.980657,61.9766048 111.209489,62.010561 C111.436325,62.0445172 111.662164,62.0791391 111.887005,62.1144269 C112.111845,62.1490489 112.326375,62.1823393 112.530595,62.214298 C112.735479,62.2462567 112.97695,62.2842077 113.255008,62.328151 C113.533065,62.3714285 113.81711,62.4167034 114.107141,62.4639757 C114.397173,62.511248 114.646626,62.552528 114.855502,62.5878158 C115.064378,62.6231036 115.266269,62.6587243 115.461175,62.6946779 C115.654751,62.7306315 115.852318,62.7659192 116.053877,62.8005412 C116.255435,62.8351632 116.464644,62.8687865 116.681502,62.901411 C116.89836,62.9333698 117.042711,62.9570059 117.114553,62.9723195 C117.187061,62.987633 117.333075,63.0099376 117.552594,63.0392331 C117.772113,63.0678628 118.028884,63.0998216 118.322906,63.1351093 C118.614933,63.1703971 118.880352,63.2026888 119.119162,63.2319843 C119.358637,63.260614 119.62073,63.2919069 119.90544,63.3258631 C120.190815,63.3591535 120.498474,63.3954399 120.828418,63.4347226 C121.157031,63.4740052 121.508595,63.5152852 121.883107,63.5585627 C122.256955,63.602506 122.62149,63.6451176 122.976712,63.6863977 C123.332599,63.7276777 123.678175,63.7676262 124.013441,63.806243 C124.350037,63.8448598 124.675989,63.8818121 124.991299,63.9170999 C125.308604,63.9530535 125.616596,63.9873425 125.915275,64.0199671 C126.212623,64.0532574 126.500992,64.0848833 126.78038,64.1148446 C127.058437,64.1448059 127.327514,64.1737685 127.587611,64.2017324 C127.847043,64.2296963 128.096497,64.2559957 128.335972,64.2806306 C128.576113,64.3059313 128.807273,64.3292345 129.029453,64.3505404 C129.250303,64.372512 129.476474,64.3954823 129.707967,64.4194514 C129.937464,64.4434205 130.172615,64.4680553 130.413421,64.493356 C130.654892,64.5179909 130.900355,64.5439573 131.149808,64.5712554 C131.399262,64.5978877 131.654037,64.6251858 131.914134,64.6531497 C132.172235,64.6817794 132.435991,64.7110749 132.705401,64.7410363 C132.974145,64.7709976 133.247546,64.8016247 133.525604,64.8329177 C133.803661,64.8642106 134.086708,64.8965022 134.374744,64.9297926 C134.663445,64.9624172 134.956469,64.9960404 135.253818,65.0306624 C135.551832,65.0652844 135.840533,65.0992405 136.119921,65.1325309 C136.399974,65.1651554 136.672045,65.1971142 136.936133,65.2284071 C137.199556,65.2597001 137.454664,65.2899943 137.701456,65.3192898 C137.950245,65.3492511 138.189388,65.3782137 138.418885,65.4061776 C138.650378,65.4341415 138.872558,65.4614396 139.085425,65.4880719 C139.299622,65.5140384 139.554397,65.5456642 139.84975,65.5829495 C140.144438,65.6195688 140.414513,65.6541908 140.659976,65.6868154 C140.904107,65.7187741 141.119303,65.7487354 141.305561,65.7766993 C141.491155,65.8046632 141.689387,65.8356233 141.900259,65.8695794 C142.109134,65.9042014 142.329984,65.9421524 142.562807,65.9834325 C142.793635,66.0240467 143.036437,66.06799 143.291212,66.1152623 C143.545987,66.1625346 143.812403,66.213136 144.090461,66.2670663 C144.369849,66.3209967 144.659548,66.3782561 144.959557,66.4388446 C145.260897,66.499433 145.573878,66.5630176 145.8985,66.6295983 C146.222457,66.6961791 146.557723,66.7660888 146.904297,66.8393276 C147.251536,66.9125664 147.591458,66.9851394 147.924063,67.0570466 C148.256668,67.1289537 148.581955,67.1998622 148.899926,67.269772 C149.21723,67.3396817 149.527883,67.4085928 149.831884,67.4765051 C150.134554,67.5450832 150.429907,67.6126627 150.717943,67.6792434 C151.006644,67.7464899 151.288028,67.8124048 151.562094,67.8769881 C151.837491,67.9422372 152.105237,68.0068205 152.365334,68.070738 C152.624766,68.1339897 152.877546,68.1965756 153.123673,68.2584956 C153.369135,68.3197499 153.60728,68.3803383 153.838108,68.440261 C154.069601,68.5001836 154.293111,68.5587747 154.508639,68.6160341 C154.722837,68.6732935 154.930715,68.7292213 155.132273,68.7838175 C155.335162,68.8377479 155.530068,68.8903466 155.716992,68.9416138 C155.903916,68.992881 156.126761,69.0544681 156.385528,69.1263753 C156.644294,69.1989483 156.916365,69.2775135 157.20174,69.362071 C157.48778,69.4459627 157.744551,69.5241951 157.972052,69.5967681 C158.199554,69.6693411 158.42373,69.7412482 158.644579,69.8124896 C158.866759,69.8830652 159.084948,69.9529749 159.299145,70.0222189 C159.512012,70.0921286 159.722551,70.1607068 159.930762,70.2279533 C160.138307,70.2958656 160.342194,70.3627792 160.542422,70.4286942 C160.74398,70.4952749 160.946537,70.5621885 161.150091,70.629435 C161.35298,70.6966815 161.556534,70.764261 161.760753,70.8321733 C161.964307,70.9007514 162.17019,70.9696625 162.3784,71.0389064 C162.584615,71.1081504 162.792493,71.1780601 163.002034,71.2486357 C163.209579,71.3192113 163.446061,71.4007726 163.71148,71.4933198 C163.974903,71.5852012 164.267262,71.6887343 164.588559,71.8039189 C164.90919,71.9184377 165.210529,72.0269643 165.492578,72.1294986 C165.775958,72.2320329 166.018759,72.3202524 166.220983,72.394157 C166.423872,72.4673958 166.633745,72.5439636 166.850603,72.6238604 C167.068127,72.7030915 167.27667,72.7793264 167.476233,72.8525652 C167.675131,72.9264698 167.910282,73.0143564 168.181688,73.1162249 C168.455089,73.2180934 168.737803,73.3252883 169.02983,73.4378097 C169.321857,73.5503311 169.57896,73.6515338 169.80114,73.7414178 C170.02332,73.830636 170.248826,73.9248477 170.477658,74.024053 C170.70516,74.1232582 170.975568,74.2480971 171.288881,74.3985695 C171.600199,74.5483761 171.876926,74.6858653 172.119063,74.811037 C172.361864,74.9362088 172.585374,75.0560541 172.789594,75.1705729 C172.991817,75.2857576 173.216326,75.4165887 173.463118,75.5630663 C173.711242,75.7095438 173.980319,75.8720008 174.27035,76.0504371 C174.558386,76.2282076 174.827463,76.3956582 175.077582,76.5527886 C175.32637,76.7099191 175.536576,76.8447451 175.7082,76.9572665 C175.881155,77.0704537 176.05677,77.1873029 176.235046,77.307814 C176.411327,77.4283251 176.590601,77.5531639 176.772868,77.6823305 C176.955801,77.8108313 177.141394,77.943327 177.329649,78.0798174 C177.518568,78.2169737 177.709816,78.3577919 177.903392,78.5022721 C178.097633,78.6467522 178.294867,78.7952273 178.495096,78.9476971 C178.693993,79.1001669 178.896217,79.2566316 179.101767,79.4170912 C179.306651,79.5775507 179.514529,79.7420051 179.7254,79.9104543 C179.935607,80.0789035 180.14548,80.250016 180.355021,80.4237916 C180.562567,80.5975673 180.770445,80.7736733 180.978655,80.9521096 C181.18487,81.1312118 181.390752,81.3129771 181.596302,81.4974057 C181.801187,81.6811685 182.005739,81.8675945 182.209958,82.0566838 C182.415508,82.2464388 182.618729,82.4385242 182.819622,82.6329399 C183.021181,82.8273556 183.222074,83.0244345 183.422302,83.2241767 C183.623861,83.4239188 183.823756,83.6259913 184.021989,83.8303941 C184.222217,84.0354627 184.421114,84.2431945 184.618681,84.4535896 C184.814918,84.6633189 185.005833,84.8687204 185.191427,85.0697942 C185.377685,85.2702021 185.556959,85.4659494 185.729249,85.6570361 C185.902203,85.8481228 186.068506,86.0345488 186.228156,86.2163141 C186.389137,86.3980795 186.543798,86.5751842 186.692139,86.7476283 C186.840481,86.9200723 186.982836,87.0878558 187.119204,87.2509785 C187.255572,87.4134355 187.415887,87.6098486 187.60015,87.8402179 C187.785079,88.0705872 187.976659,88.3202649 188.174891,88.589251 C188.373789,88.8582371 188.574682,89.1388748 188.777571,89.4311641 C188.97913,89.7227877 189.183016,90.0260629 189.389231,90.3409897 C189.596111,90.6559165 189.778046,90.9395503 189.935036,91.1918912 C190.093356,91.444898 190.226065,91.6586221 190.333164,91.8330636 C190.439597,92.007505 190.546031,92.1849427 190.652464,92.3653764 C190.758898,92.5451444 190.86267,92.7209174 190.963782,92.8926957 C191.064229,93.064474 191.184632,93.2728716 191.324991,93.5178886 C191.46535,93.7629057 191.615355,94.0318918 191.775005,94.324847 C191.935986,94.6178021 192.082664,94.8941121 192.215041,95.1537769 C192.346753,95.4141075 192.46516,95.65746 192.570263,95.8838345 C192.675366,96.1102089 192.77415,96.3435743 192.866614,96.5839307 C192.958413,96.8249529 193.037573,97.0373454 193.104094,97.2211082 C193.17128,97.404871 193.240129,97.6006183 193.310641,97.8083502 C193.381819,98.016082 193.454659,98.2354655 193.529163,98.4665006 C193.604331,98.6982015 193.682161,98.941554 193.762651,99.1965581 C193.844472,99.4515623 193.927623,99.7182181 194.012105,99.9965255 C194.096586,100.274833 194.183729,100.565125 194.273532,100.867401 C194.363335,101.169678 194.447817,101.458638 194.526977,101.734282 C194.606137,102.009926 194.681305,102.271922 194.752483,102.520268 C194.822995,102.769279 194.889183,103.004642 194.951048,103.226356 C195.012247,103.448736 195.081761,103.706736 195.159591,104.000357 C195.238086,104.293312 195.310261,104.58194 195.376117,104.866239 C195.442638,105.150539 195.490865,105.381241 195.5208,105.558346 C195.550734,105.736116 195.580003,105.9292 195.608607,106.137598 C195.637211,106.34533 195.665815,106.568708 195.694419,106.807733 C195.723023,107.046758 195.750962,107.300763 195.778236,107.569749 C195.805509,107.839401 195.832783,108.124367 195.860057,108.424646 C195.886,108.724259 195.909282,109.024205 195.929904,109.324484 C195.949195,109.624097 195.964827,109.923711 195.976801,110.223324 C195.986779,110.522937 195.993764,110.822217 195.997755,111.121165 C196.001746,111.420112 196.001746,111.718727 195.997755,112.017008 C195.993764,112.315956 195.985449,112.613905 195.97281,112.910855 C195.960836,113.20847 195.943873,113.50542 195.921921,113.801705 C195.899969,114.097323 195.874026,114.392608 195.844092,114.687561 C195.812827,114.982514 195.777903,115.276467 195.739321,115.569423 C195.700074,115.862378 195.654507,116.166985 195.60262,116.483243 C195.550734,116.800167 195.492196,117.128077 195.427005,117.466973 C195.360484,117.805869 195.287644,118.156416 195.208484,118.518616 C195.130654,118.880815 195.046173,119.254333 194.955039,119.639169 C194.864571,120.024006 194.777096,120.387536 194.692614,120.729761 C194.608132,121.071986 194.526977,121.393238 194.449147,121.693517 C194.369322,121.993796 194.293821,122.272436 194.222643,122.529438 C194.151466,122.787105 194.083947,123.023134 194.020087,123.237524 C193.954897,123.451914 193.891036,123.660312 193.828507,123.862717 C193.767973,124.065122 193.694134,124.309141 193.606992,124.594772 C193.518519,124.879737 193.422396,125.188006 193.318624,125.519578 C193.215516,125.850484 193.123052,126.1481 193.041231,126.412426 C192.959411,126.676751 192.888233,126.907786 192.827699,127.105531 C192.765169,127.303276 192.694325,127.529317 192.615165,127.783655 C192.536005,128.037994 192.447532,128.320962 192.349746,128.63256 C192.252626,128.943492 192.159829,129.238777 192.071356,129.518416 C191.984213,129.798055 191.910708,130.030755 191.850839,130.216515 C191.79097,130.402275 191.730436,130.588035 191.669237,130.773796 C191.610033,130.95889 191.539854,131.174944 191.458698,131.421959 C191.376877,131.668307 191.284746,131.945616 191.182303,132.253885 C191.079861,132.562819 190.966776,132.902048 190.843047,133.271571 C190.718652,133.641094 190.597917,133.995969 190.48084,134.336197 C190.362433,134.675759 190.246686,135.00034 190.133601,135.30994 C190.021846,135.620206 189.913416,135.914826 189.808313,136.193799 C189.70321,136.473438 189.601433,136.738096 189.502982,136.987774 C189.403866,137.237452 189.301756,137.485465 189.196653,137.731814 C189.09155,137.977496 188.984451,138.221182 188.875357,138.46287 C188.766263,138.704558 188.654507,138.944248 188.540091,139.181942 C188.427006,139.419635 188.311259,139.655331 188.192852,139.889029 C188.073114,140.122727 187.950383,140.35809 187.824659,140.595117 C187.698269,140.832145 187.568886,141.070504 187.436509,141.310194 C187.304132,141.549885 187.167764,141.790907 187.027405,142.033261 C186.888376,142.275615 186.745356,142.519633 186.598345,142.765316 C186.451999,143.010999 186.284366,143.277654 186.095447,143.565283 C185.908523,143.852912 185.729249,144.120566 185.557625,144.368247 C185.386666,144.615261 185.238657,144.826322 185.113597,145.001429 C184.987873,145.176537 184.857824,145.357303 184.723452,145.543729 C184.588414,145.730155 184.448388,145.921242 184.303372,146.116989 C184.157691,146.313402 184.006689,146.515142 183.850364,146.722208 C183.694705,146.929274 183.544036,147.12835 183.398355,147.319437 C183.254669,147.509858 183.115641,147.691956 182.981268,147.865732 C182.848892,148.040173 182.721837,148.206292 182.600103,148.364088 C182.477705,148.521219 182.333354,148.70598 182.167052,148.918373 C181.999419,149.1301 181.826465,149.344157 181.648188,149.560544 C181.469247,149.776931 181.312923,149.960694 181.179216,150.111832 C181.045509,150.262971 180.88353,150.437412 180.69328,150.635157 C180.505026,150.832902 180.320098,151.023655 180.138496,151.207418 C179.956228,151.391181 179.798241,151.549976 179.664534,151.683803 C179.529496,151.81763 179.387807,151.95745 179.239465,152.103262 C179.091788,152.249073 178.93746,152.400877 178.776479,152.558674 C178.613503,152.71647 178.44454,152.879926 178.26959,153.049041 C178.093974,153.218822 177.916696,153.388602 177.737755,153.558383 C177.558148,153.728164 177.377544,153.897945 177.195941,154.067726 C177.013674,154.237507 176.829744,154.40762 176.64415,154.578067 C176.458557,154.749179 176.2713,154.919959 176.082381,155.090406 C175.894126,155.260852 175.703877,155.431965 175.511631,155.603743 C175.319385,155.774855 175.125144,155.945968 174.928907,156.11708 C174.732671,156.288859 174.535103,156.460637 174.336206,156.632415 C174.137308,156.804859 173.936748,156.97697 173.734524,157.148749 C173.531635,157.321193 173.329411,157.491972 173.127853,157.661087 C172.92829,157.830202 172.727729,157.997986 172.526171,158.164437 C172.324612,158.330889 172.123719,158.495676 171.923491,158.658799 C171.725259,158.821922 171.526694,158.98338 171.327796,159.143174 C171.128898,159.302968 170.930001,159.46143 170.731103,159.61856 C170.533536,159.775691 170.335969,159.931157 170.138401,160.084958 C169.942165,160.23876 169.745928,160.39123 169.549691,160.542368 C169.354119,160.693506 169.158215,160.84298 168.961978,160.990789 C168.767072,161.138598 168.577155,161.28208 168.392226,161.421233 C168.207963,161.561053 168.028689,161.696544 167.854405,161.827709 C167.680785,161.958873 167.511822,162.085709 167.347515,162.208217 C167.185204,162.330726 166.9893,162.477869 166.759802,162.649647 C166.52964,162.821426 166.282515,163.004523 166.018426,163.198938 C165.755003,163.39402 165.512202,163.572123 165.290022,163.733249 C165.069172,163.894374 164.855973,164.050839 164.650423,164.202643 C164.444208,164.354447 164.245643,164.50159 164.054728,164.644073 C163.863813,164.786556 163.680548,164.924045 163.504932,165.05654 C163.330647,165.189036 163.1241,165.347498 162.88529,165.531927 C162.644484,165.716355 162.40268,165.905778 162.159879,166.100193 C161.917077,166.293943 161.714521,166.457066 161.55221,166.589561 C161.388568,166.722057 161.224927,166.855884 161.061285,166.991043 C160.896313,167.126868 160.72735,167.265689 160.554396,167.407506 C160.380111,167.549323 160.202167,167.694136 160.020565,167.841945 C159.839628,167.989754 159.653702,168.140892 159.462787,168.29536 C159.271872,168.449161 159.076965,168.606291 158.878068,168.766751 C158.680501,168.927211 158.484264,169.087004 158.289357,169.246132 C158.093121,169.405926 157.921829,169.545412 157.775483,169.664592 C157.629802,169.784437 157.476471,169.910608 157.315491,170.043103 C157.15451,170.174933 156.985547,170.313754 156.808601,170.459566 C156.631655,170.605378 156.44706,170.757847 156.254814,170.916975 C156.061238,171.075437 155.860678,171.240558 155.653132,171.412336 C155.444922,171.584114 155.229061,171.76255 155.005551,171.947645 C154.78204,172.132739 154.563186,172.313839 154.348989,172.490943 C154.133461,172.668048 153.921592,172.841491 153.713381,173.011272 C153.505836,173.181053 153.30328,173.346839 153.105712,173.50863 C152.906815,173.670421 152.711908,173.82855 152.520993,173.983017 C152.328748,174.137485 152.141824,174.28829 151.960222,174.435433 C151.777954,174.582577 151.599013,174.725725 151.423398,174.864879 C151.248448,175.004033 151.077821,175.139524 150.911519,175.271354 C150.746547,175.403184 150.583903,175.531019 150.423588,175.654859 C150.265268,175.779365 150.100296,175.908865 149.928672,176.043358 C149.759044,176.178517 149.581765,176.318669 149.396837,176.463815 C149.212574,176.609627 149.021659,176.760765 148.824092,176.91723 C148.626524,177.07436 148.423303,177.236484 148.214427,177.403602 C148.003556,177.570719 147.786365,177.743163 147.562854,177.920934 C147.339344,178.09937 147.109514,178.2828 146.873365,178.471224 C146.63655,178.660313 146.393416,178.854396 146.143963,179.053472 C145.895839,179.252548 145.640732,179.457284 145.378639,179.667679 C145.115881,179.878074 144.863102,180.079814 144.6203,180.272898 C144.376168,180.465982 144.141017,180.650411 143.914846,180.826184 C143.690005,181.001957 143.474477,181.169074 143.268262,181.327536 C143.061382,181.485999 142.863815,181.635805 142.67556,181.776956 C142.488636,181.918107 142.310693,182.050603 142.14173,182.174443 C141.971436,182.298949 141.773869,182.441099 141.549028,182.600893 C141.322857,182.761352 141.096686,182.914155 140.870514,183.059301 C140.644343,183.204447 140.413183,183.351923 140.177034,183.50173 C139.941549,183.652202 139.699081,183.805005 139.449627,183.960138 C139.200173,184.115271 138.945066,184.272069 138.684303,184.430531 C138.421546,184.588327 138.151138,184.747455 137.87308,184.907915 C137.595023,185.068374 137.328939,185.217182 137.074829,185.354338 C136.820054,185.491495 136.57825,185.617332 136.349418,185.731851 C136.120586,185.845704 135.906056,185.949237 135.705828,186.04245 C135.504935,186.135663 135.318676,186.218889 135.147052,186.292128 C134.975428,186.365367 134.787506,186.440603 134.583287,186.517836 C134.378402,186.59507 134.155225,186.673635 133.913754,186.753532 C133.671617,186.833429 133.409192,186.913659 133.126478,186.994221 C132.843099,187.074118 132.537103,187.153016 132.208489,187.230916 C131.87921,187.308815 131.565897,187.377726 131.268548,187.437649 C130.971199,187.497572 130.622962,187.560158 130.223837,187.625407 C129.825376,187.690656 129.446872,187.745252 129.088324,187.789195 C128.728446,187.833804 128.357924,187.869758 127.976759,187.897056 C127.596259,187.924354 127.261326,187.944661 126.97196,187.957977 C126.683259,187.971293 126.373937,187.981281 126.043993,187.987939 C125.715379,187.995263 125.36182,188 124.983316,188 C124.606808,188 124.198369,187.996927 123.758,187.988937 C123.0942,187.976894 124.509731,187.790819 123.847804,187.842127 Z" id="STROKE_56850a54-6eea-47a7-abda-896dcb46235d"></path>
            </g>
        </g>
    </g>
</svg>