<?xml version="1.0" encoding="UTF-8"?>
<svg width="325px" height="278px" viewBox="0 0 325 278" version="1.1" xmlns="http://www.w3.org/2000/svg" xmlns:xlink="http://www.w3.org/1999/xlink">
    <title>next-level-4</title>
    <defs>
        <filter color-interpolation-filters="auto" id="filter-1">
            <feColorMatrix in="SourceGraphic" type="matrix" values="0 0 0 0 0.647059 0 0 0 0 0.129412 0 0 0 0 0.231373 0 0 0 1.000000 0"></feColorMatrix>
        </filter>
    </defs>
    <g id="wireframes-v0.6" stroke="none" stroke-width="1" fill="none" fill-rule="evenodd">
        <g id="next-level-4" transform="translate(-812.000000, -1863.000000)" filter="url(#filter-1)">
            <g transform="translate(814.376734, 1865.816772)">
                <g id="next-level" transform="translate(179.090133, 105.752222) rotate(11.000000) translate(-179.090133, -105.752222) translate(51.676503, 22.787369)" stroke="#000000" stroke-linecap="round" stroke-linejoin="round" stroke-width="4">
                    <path d="M115.645878,3.41060513e-13 C114.697045,0.842519522 114.748009,1.42325619 115.016321,1.16448234 C113.904102,2.22364974 113.428936,2.68101748 113.590822,2.53658556 C113.75121,2.39215364 113.788683,2.35303667 113.703243,2.41923463 C113.619302,2.48543259 113.588574,2.52229282 113.611058,2.52981532 C113.632043,2.53733781 113.347243,2.75172894 112.756658,3.1729887 C112.164575,3.59424846 110.491001,4.92347346 107.735937,7.16066369 C104.980873,9.39935842 100.639173,13.1914485 94.7108393,18.536934 C88.7825052,23.8824195 84.2242083,27.9340357 81.0359487,30.6917826 C77.8476891,33.448025 74.924743,36.1839567 72.2671106,38.8995777 C69.6079791,41.6151987 67.5102033,43.7613667 65.9737829,45.3380818 C64.4373625,46.9147969 62.1934394,48.9940147 59.2420133,51.5757353 C56.2905873,54.1574558 53.0438688,56.7451943 49.5018578,59.3389509 C45.9583478,61.9342119 43.2737343,63.9517453 41.4480172,65.3915509 C39.6208012,66.8313566 37.6984021,68.764638 35.6808198,71.1913952 C33.6617387,73.6166478 32.0870952,75.4115153 30.9568894,76.5759976 C29.8266836,77.7404799 28.8486209,78.6732694 28.0227012,79.374366 C27.1997795,80.0769671 26.5514851,80.64642 26.0778179,81.0827248 C25.6026518,81.5190295 24.6523196,82.2930944 23.2268213,83.4049192 C21.7983251,84.5182486 20.6478835,85.3306781 19.7754966,85.8422078 C18.9061075,86.3522331 17.2212914,87.4964047 14.7210483,89.2747227 C12.2208053,91.0530406 10.2361999,92.546256 8.7672321,93.7543689 C7.2967654,94.9624817 5.80606292,96.1585585 4.29512466,97.3425993 C2.7841864,98.5251357 1.72443109,99.4767314 1.11585874,100.197386 C0.507286386,100.918042 0.166276015,101.507053 0.0928276269,101.964421 C0.0163813459,102.421788 -0.0128481145,102.669279 0.00513924578,102.706891 C0.0261244994,102.744504 0.0276234461,102.742999 0.00963608584,102.702378 C-0.00835127439,102.663261 0.591631544,105.571599 0.817972494,105.694968" id="STROKE_bb5e5f8c-6380-407f-af54-76594175787f"></path>
                    <path d="M0.830309396,105.69257 C2.00098676,106.180027 2.41094868,106.357558 2.06019515,106.225162 C3.49468713,106.769791 4.11225317,107.000732 3.91289326,106.917984 C3.71503229,106.835237 3.66406811,106.817935 3.76000069,106.866079 C3.85593328,106.912718 3.90240063,106.924754 3.89940274,106.902187 C3.89790379,106.881124 4.21418154,107.045114 4.84823599,107.394158 C5.48378938,107.743202 7.40618851,108.67223 10.6154334,110.181243 C13.8231793,111.690255 19.1189579,113.953022 26.5027693,116.969543 C33.8865807,119.986064 39.5106286,122.330826 43.3749132,124.003829 C47.2361999,125.678336 50.9648297,127.121151 54.5608028,128.332273 C58.155277,129.544899 78.9501644,137.888099 82.8234426,139.952272 C86.6967208,142.016445 89.6788753,143.558556 91.7699059,144.578607 C93.8594376,145.597153 96.4323796,146.487064 99.4887319,147.248341 C102.545084,148.009617 104.84222,148.646773 106.380139,149.159807 C107.91656,149.672841 109.179422,150.14751 110.168727,150.583815 C111.155034,151.02012 111.948726,151.35788 112.549804,151.597095 C113.146385,151.836311 114.255605,152.356867 115.877465,153.158765 C117.496328,153.962168 118.726214,154.645211 119.567123,155.207893 C120.403535,155.770576 122.164048,156.791379 124.848661,158.270301 C127.533275,159.749224 129.739724,160.88813 131.46801,161.687019 C133.194797,162.484403 134.919335,163.30586 136.641624,164.151388 C138.359417,164.998421 141.706565,165.695005 142.617925,165.929706" id="STROKE_860f5b4f-f40a-4c32-9f41-6584f562fdc6"></path>
                    <path d="M142.617925,165.929706 C143.539777,165.058601 144.059162,163.382589 143.798345,163.65039 C144.879086,162.558124 145.341511,162.086463 145.185621,162.235409 C145.028231,162.384354 144.990757,162.424976 145.0732,162.357273 C145.157141,162.288066 145.189368,162.249702 145.169882,162.242179 C145.145898,162.234657 145.423953,162.011991 146.004045,161.574181 C146.579641,161.136372 148.212743,159.759755 150.903353,157.444331 C153.590964,155.127403 157.821741,151.211191 163.595684,145.695697 C169.368127,140.180204 173.809506,135.998448 176.919821,133.150431 C180.025638,130.302414 182.868391,127.482231 185.448078,124.68988 C188.026266,121.89753 190.060337,119.691182 191.55029,118.070836 C193.04474,116.450491 195.229455,114.307332 198.104434,111.641359 C200.979414,108.976891 204.149686,106.295874 207.615251,103.598307 C211.080816,100.902244 213.70697,98.8079815 215.493715,97.3155183 C217.275962,95.8245597 219.140652,93.8371163 221.087784,91.3531882 C223.037914,88.8692601 224.560094,87.0292577 225.654325,85.8331809 C226.750055,84.637104 227.700387,83.6764813 228.505322,82.9513127 C229.310256,82.2261441 229.94431,81.637885 230.407485,81.1865352 C230.866163,80.73669 231.794011,79.9355442 233.191029,78.7830978 C234.585049,77.629147 235.709259,76.7843707 236.563659,76.248769 C237.418059,75.7116628 239.069148,74.518595 241.516928,72.6695656 C243.967706,70.8190316 245.908842,69.2686452 247.340336,68.0184064 C248.774828,66.7681677 250.229556,65.5299649 251.704519,64.3037981 C253.18398,63.0761268 254.239673,61.4472829 254.82726,60.7100783" id="STROKE_db2710b9-7f48-41e2-aa90-f53ce3f684d9"></path>
                    <path d="M115.645878,0 C116.816556,0.484448725 117.228016,0.661979625 116.880261,0.532592698 C118.314753,1.07120339 118.932319,1.29913501 118.732959,1.21638756 C118.533599,1.13514461 118.481885,1.11784287 118.577818,1.16448234 C118.675249,1.21112181 118.722466,1.22315781 118.719468,1.20059032 C118.71647,1.17952733 119.034247,1.34201324 119.672798,1.68804804 C120.308352,2.03558735 122.232999,2.95784532 125.446741,4.45482198 C128.661982,5.95179863 133.965255,8.1957591 141.356561,11.1867034 C148.746368,14.1776477 154.376412,16.5036034 158.246692,18.1645705 C162.116973,19.824033 165.852348,21.2540595 169.452818,22.4546498 C173.051789,23.6552401 175.894541,24.6015701 177.981075,25.2936397 C180.06611,25.9857093 182.913359,27.0937729 186.522823,28.6178305 C190.132286,30.1418882 193.876655,31.9292332 197.755929,33.9798655 C201.635203,36.0304978 204.621855,37.562078 206.715883,38.5746059 C208.808413,39.5871338 211.384353,40.4687703 214.443703,41.2195154 C217.503053,41.9702605 219.801688,42.5991411 221.339607,43.1061573 C222.876027,43.6131735 224.13889,44.0833295 225.128195,44.5166253 C226.120497,44.949921 226.917188,45.2839198 227.518265,45.5186217 C228.114846,45.7533236 229.225565,46.270119 230.850424,47.0690081 C232.475282,47.8663926 233.708165,48.5449217 234.549075,49.1045954 C235.388485,49.6642691 237.153494,50.679806 239.844104,52.1512062 C242.534713,53.6211019 244.743411,54.7524852 246.470198,55.5453563 C248.198483,56.3397318 249.92452,57.1566749 251.648309,57.9961854 C253.372098,58.8372004 253.912902,60.4798899 254.82726,60.7100783" id="STROKE_3e61fc1a-8b33-4f4b-a3ff-d4ad8a5d4221"></path>
                </g>
                <g id="next-level-copy" opacity="0.348199754" transform="translate(124.002035, 194.533620) rotate(11.000000) translate(-124.002035, -194.533620) translate(8.754914, 137.553453)" stroke="#000000" stroke-linecap="round" stroke-linejoin="round" stroke-width="4">
                    <path d="M64,2.27373675e-13 C61.6453362,2.42270666 59.7877534,4.33738313 58.4272515,5.74402944 C57.0667496,7.15067574 55.0797532,9.00562344 52.4662622,11.3088725 C49.8527713,13.6121216 46.9777985,15.9207396 43.8413439,18.2347265 C40.703562,20.5500555 38.3263338,22.3499722 36.7096594,23.6344765 C35.0916576,24.9189808 33.3893711,26.6437332 31.6027998,28.8087337 C29.8149012,30.9723919 28.4205527,32.5736601 27.4197542,33.6125382 C26.4189558,34.6514163 25.5528802,35.4835925 24.8215275,36.1090669 C24.0928294,36.7358836 23.5187639,37.2439137 23.0993312,37.6331575 C22.6785711,38.0224012 21.8370509,38.7129732 20.5747706,39.7048736 C19.3098356,40.6981163 18.2911184,41.4229149 17.5186188,41.8792696 C16.7487738,42.3342821 15.2568673,43.3550403 13.0428994,44.941544 C10.8289314,46.5280478 9.07156116,47.8602009 7.77078861,48.9380033 C6.46868875,50.0158058 5.14867009,51.0828705 3.81073262,52.1391974 C2.47279515,53.1941822 1.53438067,54.0431362 0.99548919,54.6860594 C0.456597708,55.3289827 0.154632654,55.8544617 0.0895940271,56.2624965 C0.0219007622,56.6705313 -0.00398195676,56.8913265 0.0119458703,56.924882 C0.0305283351,56.9584375 0.0318556541,56.9570953 0.015927827,56.9208553 C0,56.8859576 -0.00398195676,56.9470286 0.00398195676,57.1040683 C0.00929123244,57.261108 0.104194535,57.4221744 0.288691865,57.5872674 C0.471861876,57.7523605 0.66365946,57.889938 0.864084617,58" id="STROKE_bb5e5f8c-6380-407f-af54-76594175787f"></path>
                    <path d="M0.644323969,59.9309282 C1.68294217,60.3674037 2.04665803,60.526367 1.73547152,60.4078181 C3.00814453,60.8954852 3.55604556,61.1022722 3.3791746,61.0281791 C3.20363349,60.954086 3.15841836,60.9385939 3.2435292,60.9817026 C3.32864004,61.0234641 3.3698656,61.0342413 3.36720588,61.0140341 C3.36587603,60.995174 3.64647582,61.142013 4.20900527,61.454551 C4.77286458,61.7670891 6.478406,62.5989521 9.32562953,63.9501402 C12.1715232,65.3013283 16.8699075,67.3274369 23.4207824,70.028466 C29.9716572,72.7294951 34.9612802,74.8290232 38.3896511,76.3270503 C41.8153624,77.8264245 45.1233813,79.1183382 48.3137079,80.2027912 C51.5027047,81.2885914 54.0234484,82.1447031 55.875939,82.7711263 C57.72444,83.3975495 60.2465135,84.3978059 63.4421595,85.7718955 C66.6364757,87.1473323 69.9518089,88.7591933 73.388159,90.6074785 C76.8245091,92.4557637 79.4702593,93.8365891 81.3254096,94.7499545 C83.1792301,95.6619728 85.4619294,96.4588101 88.1735075,97.1404663 C90.8850857,97.8221225 92.9230913,98.3926391 94.2875244,98.8520161 C95.6506277,99.3113931 96.7710321,99.7364179 97.6487376,100.12709 C98.5237834,100.517763 99.2279426,100.820197 99.7612152,101.034394 C100.290498,101.24859 101.274592,101.714703 102.713497,102.432732 C104.149743,103.152108 105.24089,103.763713 105.98694,104.267546 C106.729,104.771379 108.290917,105.685418 110.672691,107.009663 C113.054464,108.333908 115.012014,109.353698 116.545339,110.069033 C118.077334,110.783021 119.607334,111.518563 121.13534,112.275659 C122.659356,113.034103 123.82564,113.518402 124.634193,113.728557 C125.444076,113.938712 126.045171,113.985188 126.437479,113.867986 C126.829787,113.749438 127.037244,113.675344 127.059852,113.645707 C127.083789,113.617417 127.082459,113.617417 127.055862,113.645707 C127.030595,113.675344 127.086449,113.652443 127.223424,113.577003 C127.361729,113.501563 127.464793,113.343946 127.532616,113.104154 C127.596449,112.863015 127.633685,112.627938 127.644324,112.398923" id="STROKE_860f5b4f-f40a-4c32-9f41-6584f562fdc6"></path>
                    <path d="M206.494241,8.13288412 C207.938779,8.8372889 208.016609,9.16968312 208.764198,9.66409553 C209.510454,10.1585079 211.07959,11.0556272 213.471607,12.3554534 C215.863624,13.6539505 217.827211,14.6534079 219.362366,15.3538255 C220.898854,16.0555721 222.433343,16.7772548 223.965833,17.5188734 C225.498323,18.2618211 226.671011,18.7349684 227.483897,18.9383155 C228.29545,19.1429916 228.897786,19.1861862 229.290903,19.0678994 C229.68402,18.9496125 229.891239,18.8758494 229.912561,18.8466099 C229.884576,18.8758494 229.940545,18.8532553 230.07647,18.7788276 C230.213728,18.705729 230.315006,18.5502283 230.380303,18.3123256 C230.448266,18.0744228 230.486245,17.8411718 230.494241,17.6125725" id="STROKE_3e61fc1a-8b33-4f4b-a3ff-d4ad8a5d4221"></path>
                    <path d="M126.817664,113.960334 C127.641248,113.186314 127.936533,112.918281 127.703519,113.156235 C128.669055,112.185702 129.082187,111.766608 128.942914,111.898953 C128.802302,112.031299 128.768823,112.067393 128.842477,112.007236 C128.91747,111.945742 128.946262,111.911653 128.928852,111.904969 C128.907426,111.898285 129.15584,111.700435 129.674096,111.311419 C130.188334,110.922404 131.647351,109.699211 134.051147,107.64184 C136.452265,105.583132 140.232049,102.103382 145.390501,97.2025879 C150.547614,92.3017943 154.515551,88.5860943 157.294312,86.0554881 C160.069056,83.5248819 162.608777,81.0190069 164.913475,78.5378632 C167.216833,76.0567194 169.034076,74.0962683 170.365203,72.6565097 C171.700348,71.2167512 173.652176,69.3124466 176.220689,66.943596 C178.789202,64.5760822 181.621529,62.1938634 184.717672,59.7969395 C187.813814,57.4013524 190.160026,55.5404946 191.756307,54.214366 C193.348571,52.8895743 195.014489,51.1236309 196.75406,48.9165359 C198.49631,46.7094409 199.856229,45.0745062 200.833817,44.0117318 C201.812744,42.9489574 202.661773,42.0953958 203.380903,41.4510471 C204.100033,40.8066983 204.666499,40.2840005 205.0803,39.8829535 C205.490083,39.4832434 206.319025,38.7713851 207.567124,37.7473785 C208.812544,36.7220352 209.816916,35.971409 210.580238,35.4954999 C211.34356,35.0182541 212.818647,33.9581533 215.005499,32.3151977 C217.195029,30.6709052 218.929244,29.293309 220.208143,28.1824089 C221.489721,27.0715089 222.789378,25.9713034 224.107113,24.8817926 C225.428866,23.7909449 226.352219,22.9179994 226.87717,22.262956 C227.403461,21.6079127 227.694059,21.0758571 227.748965,20.6667892 C227.80387,20.2590581 227.821949,20.0391507 227.803201,20.007067 C227.785792,19.9736464 227.785792,19.9743148 227.803201,20.0090722 C227.819271,20.0438296 227.821949,19.9830042 227.811236,19.8265959 C227.800522,19.6701875 227.700085,19.5124424 227.509924,19.3533605 C227.318424,19.1942785 227.120898,19.0632698 226.917345,18.9603345" id="STROKE_db2710b9-7f48-41e2-aa90-f53ce3f684d9"></path>
                </g>
                <path id="Line" d="M61.7007909,127.127121 L63.0736381,127.731514 C110.714773,148.705412 144.896683,156.840193 165.447155,152.238501 L161.635371,145.802914 L182.82451,144.296136 L171.316448,162.151514 L167.048651,154.943483 C145.971558,160.137923 111.464567,152.165636 63.3535954,131.13038 L61.8648526,130.477208 L60.4920054,129.872816 L61.7007909,127.127121 Z" fill="#2E2E2E" fill-rule="nonzero"></path>
            </g>
        </g>
    </g>
</svg>