<?xml version="1.0" encoding="UTF-8"?>
<svg width="226px" height="160px" viewBox="0 0 226 160" version="1.1" xmlns="http://www.w3.org/2000/svg" xmlns:xlink="http://www.w3.org/1999/xlink">
    <title>Werkstatt</title>
    <g id="wireframes-v0.6" stroke="none" stroke-width="1" fill="none" fill-rule="evenodd" stroke-linecap="round" stroke-linejoin="round">
        <g id="Coaching" transform="translate(-474.000000, -1032.000000)" stroke="#000000" stroke-width="2.55">
            <g id="Werkstatt" transform="translate(476.000000, 1034.000000)">
                <path d="M102.422562,65.3524085 C102.252713,65.4192812 102.135817,65.4686871 102.071874,65.5006263 C102.00893,65.5335636 101.961972,65.5580171 101.930999,65.5739867 C101.900027,65.5909544 101.892034,65.5939487 101.907021,65.5829696 C101.921008,65.5719905 101.878047,65.5929506 101.778136,65.6458498 C101.679224,65.6997472 101.578813,65.7581361 101.476904,65.8210164 C101.375994,65.8848947 101.334031,65.9138396 101.351016,65.907851 C101.367002,65.9018624 101.340026,65.9223235 101.270088,65.9692342 C101.199151,66.017143 101.163683,66.037604 101.163683,66.0306173 C101.163683,66.0226325 101.107233,66.0625565 100.994333,66.1503893 C100.881434,66.2372239 100.711585,66.3764589 100.484787,66.568094 C100.259987,66.7597292 100.066659,66.9294061 99.9048032,67.0771249 C99.7429473,67.2248437 99.5850879,67.3705662 99.4312248,67.5142926 C99.27936,67.6580189 99.1494756,67.7922634 99.0415717,67.9170258 C98.9346669,68.0417883 98.8672269,68.1181429 98.8392518,68.1460897 C98.8122758,68.1730384 98.7907949,68.1979909 98.7748092,68.2209472 C98.7598225,68.2429054 98.7628198,68.2463987 98.7838012,68.2314273 C98.8057816,68.2164558 98.7768074,68.2618693 98.6968785,68.3676679 C98.6169497,68.4734664 98.5210351,68.6007242 98.4091347,68.749441 C98.2982334,68.899156 98.2113108,69.0209242 98.1483668,69.1147455 C98.086422,69.2085669 98.0789287,69.239508 98.1258868,69.2075688 C98.1748433,69.1766277 98.1163953,69.279931 97.9505429,69.5174788 C97.7826924,69.7550265 97.6048507,70.0180258 97.4170179,70.3064766 C97.228186,70.5959256 97.0683283,70.8514391 96.9374448,71.0730173 C96.8085596,71.2945954 96.6561952,71.5575947 96.4803517,71.8620151 C96.30251,72.1674336 96.1661314,72.4084747 96.0712159,72.5851384 C95.9753013,72.7628001 95.8813849,72.9399628 95.7894668,73.1166265 C95.6995468,73.2942883 95.6111255,73.4739462 95.5242029,73.6556004 C95.4362812,73.8382526 95.3473603,74.0338802 95.2574404,74.242483 C95.1655222,74.452084 95.0855934,74.6332391 95.0176538,74.7859483 C94.9487152,74.9386576 94.879277,75.1163193 94.8093393,75.3189336 C94.7394015,75.5215478 94.6819527,75.6642761 94.6369927,75.7471184 C94.594031,75.8299607 94.5011137,76.1084305 94.3582409,76.5825279 C94.2163672,77.0566253 94.1099619,77.5322198 94.039025,78.0093115 C93.9690873,78.4854051 93.9176331,78.8542029 93.8846624,79.1157051 C93.8516918,79.3762091 93.8262145,79.555368 93.8082305,79.6531818 C93.7902465,79.7509956 93.7542785,79.9595984 93.7003265,80.2789903 C93.6453755,80.5983822 93.5984173,80.9137818 93.5594519,81.2251889 C93.5184884,81.536596 93.4900138,81.777138 93.474028,81.946815 C93.4590413,82.116492 93.4475516,82.2477421 93.4395587,82.3405654 C93.4315658,82.4343867 93.4255711,82.5187262 93.4215747,82.5935836 C93.4175782,82.6694392 93.4175782,82.7208414 93.4215747,82.7477901 C93.4255711,82.7747388 93.4265702,82.7852188 93.424572,82.7792302 C93.4205756,82.7742397 93.4080867,82.8700573 93.3871054,83.0666829 C93.3651249,83.2643067 93.3326538,83.5622395 93.2896921,83.9604813 C93.2467303,84.3587231 93.216757,84.7474829 93.1997721,85.1267608 C93.1817881,85.5050406 93.1757935,85.8743375 93.1817881,86.2346515 C93.1877828,86.5949656 93.1887819,86.909866 93.1847855,87.179353 C93.180789,87.449838 93.171797,87.6749095 93.1578095,87.8545674 C93.1448211,88.0342254 93.1458202,88.2543064 93.1608068,88.5148104 C93.1787908,88.7753145 93.212261,89.0772396 93.2612174,89.420586 C93.3081756,89.7629342 93.3686218,90.0903109 93.442556,90.4027161 C93.5184884,90.7141232 93.6094075,91.0105589 93.7153132,91.292023 C93.8202198,91.572489 93.9186322,91.8369855 94.0105504,92.0855123 C94.1004703,92.333041 94.2038783,92.6174995 94.3207742,92.9388876 C94.4396684,93.2592776 94.5440754,93.5292636 94.6339954,93.7488455 C94.7239153,93.9674294 94.7853606,94.1061652 94.8183313,94.1650531 C94.8493037,94.223941 94.8962619,94.3222538 94.9592059,94.4599916 C95.0211507,94.5977294 95.0805978,94.7289795 95.1375471,94.853742 C95.1934973,94.9785044 95.2579399,95.1172403 95.330875,95.2699496 C95.402811,95.4226588 95.4407772,95.5000116 95.4447736,95.5020078 C95.4487701,95.5050021 95.5616695,95.7056201 95.7834721,96.1038619 C96.0062738,96.5021037 96.1976034,96.8434538 96.3574611,97.1279122 C96.5153206,97.4113726 96.6392103,97.6284593 96.7291303,97.7791723 C96.8190502,97.9298854 96.884492,98.0376802 96.9254555,98.1025567 C96.9684172,98.1674331 96.9829043,98.1873951 96.9689168,98.1624426 C96.9559284,98.1374901 96.9534306,98.1305035 96.9614235,98.1414825 C96.966419,98.1524616 96.9679177,98.1549569 96.9659195,98.1489683 C96.9629221,98.1429797 96.9789079,98.1724236 97.0138768,98.2373001 C97.0488456,98.3021766 97.1267763,98.4319296 97.2476686,98.626559 C97.368561,98.8201904 97.4230126,98.9050289 97.4110232,98.8810745 C97.400033,98.856122 97.4100241,98.866602 97.4409965,98.9125146 C97.471969,98.9584272 97.5179281,99.0188122 97.5788738,99.0936697 C97.6388204,99.1695253 97.7292399,99.2927906 97.8501323,99.4634657 C97.9710247,99.6331426 98.1333802,99.8627056 98.3371987,100.152155 C98.5400182,100.441603 98.7183594,100.691128 98.8722225,100.900729 C99.0260855,101.111328 99.1829458,101.314941 99.3428035,101.511566 C99.5036603,101.70919 99.6530274,101.880364 99.7909046,102.025089 C99.929781,102.169813 100.018702,102.262137 100.057667,102.302061 C100.096632,102.340987 100.146588,102.389395 100.207534,102.447285 C100.26748,102.505175 100.298453,102.535118 100.300451,102.537114 C100.302449,102.538112 100.297454,102.531624 100.285464,102.517651 C100.272476,102.504676 100.307944,102.53911 100.39187,102.620954 C100.473797,102.7018 100.551727,102.77566 100.625662,102.842532 C100.699596,102.909405 100.72857,102.92787 100.712584,102.897927 C100.697597,102.868982 100.740559,102.900422 100.841469,102.992247 C100.943379,103.085071 101.112228,103.223307 101.348018,103.406958 C101.584808,103.590608 101.904024,103.83664 102.305666,104.145053 C102.70531,104.452467 103.06449,104.720457 103.383207,104.949022 C103.698926,105.176589 103.973681,105.363233 104.207473,105.508956 C104.444262,105.654678 104.667064,105.793913 104.875878,105.926661 C105.08669,106.060406 105.327476,106.218106 105.598235,106.39976 C105.869993,106.581414 106.187211,106.753586 106.549888,106.916277 C106.912565,107.079965 107.248266,107.212712 107.556991,107.314518 C107.864717,107.415326 108.204415,107.512641 108.576084,107.606463 C108.944756,107.700284 109.273463,107.79161 109.562206,107.880441 C109.850949,107.968274 110.099728,108.05411 110.308542,108.137951 C110.515358,108.221791 110.768133,108.303635 111.066867,108.383483 C111.364602,108.463331 111.708795,108.540684 112.099447,108.615541 C112.4901,108.691397 112.866764,108.758769 113.229441,108.817657 C113.592119,108.877543 113.942307,108.929444 114.280006,108.97336 C114.617706,109.017277 114.937921,109.054705 115.240651,109.085646 C115.543382,109.115589 115.830126,109.139045 116.100885,109.156012 C116.371644,109.171982 116.62342,109.180965 116.856213,109.183246 C117.088007,109.184957 117.350273,109.176473 117.643012,109.15751 C117.935752,109.138546 118.303924,109.118584 118.747529,109.097624 C119.190135,109.076663 119.63374,109.053208 120.078344,109.027258 C120.523948,109.001307 120.889123,108.972362 121.173869,108.940423 C121.456618,108.908484 121.624468,108.890518 121.677421,108.886525 C121.731373,108.883531 121.931195,108.850594 122.276887,108.787714 C122.62258,108.724833 122.972768,108.639995 123.327452,108.533198 C123.683135,108.426401 123.957391,108.335075 124.15022,108.25922 C124.343048,108.182366 124.480925,108.12248 124.563851,108.079562 C124.646778,108.036643 124.810632,107.956296 125.055414,107.838521 C125.299197,107.719747 125.523497,107.619937 125.728315,107.539091 C125.931134,107.458245 126.178914,107.342964 126.471653,107.193249 C126.764392,107.042536 126.968211,106.928753 127.083109,106.851899 C127.198006,106.775045 127.274938,106.721647 127.313903,106.691704 C127.352869,106.662759 127.387338,106.637308 127.417311,106.615349 C127.446285,106.593391 127.527213,106.532507 127.660095,106.432697 C127.790979,106.332887 127.857419,106.280487 127.859418,106.275496 C127.859418,106.270506 127.852424,106.276495 127.838436,106.293462 C127.824449,106.31043 127.839935,106.302445 127.884895,106.269508 C127.929855,106.237569 128.006287,106.18966 128.114191,106.125782 C128.221096,106.060905 128.278545,106.023975 128.286537,106.014992 C128.29453,106.005011 128.28354,106.019484 128.253567,106.05841 C128.224593,106.096338 128.447394,105.98455 128.921972,105.723048 C129.39555,105.460548 129.844151,105.183076 130.267774,104.890633 C130.691397,104.597192 131.008614,104.378608 131.219427,104.234882 C131.428241,104.090157 131.654539,103.931958 131.898322,103.760285 C132.140107,103.588612 132.280482,103.48481 132.319447,103.448878 C132.358413,103.412946 132.410366,103.371525 132.475309,103.324615 C132.539252,103.276706 132.657147,103.181387 132.828994,103.038659 C133.002839,102.895931 133.155203,102.747713 133.286087,102.594006 C133.41697,102.441296 133.635276,102.21373 133.941004,101.911305 C134.249729,101.608881 134.472531,101.393292 134.609409,101.264537 C134.745288,101.13678 134.854191,101.031979 134.936118,100.950135 C135.018045,100.868291 135.14693,100.722069 135.322774,100.51147 C135.496619,100.299873 135.633497,100.125206 135.733408,99.987468 C135.834318,99.8487322 135.916245,99.756907 135.979189,99.7119925 C136.043132,99.667078 136.138548,99.5592832 136.265435,99.3886082 C136.390323,99.2189312 136.556176,98.976892 136.762992,98.6624906 C136.967809,98.3480892 137.149148,98.0571431 137.307007,97.7896524 C137.463868,97.5221617 137.623226,97.2247279 137.785082,96.8973512 C137.946938,96.5699745 138.097803,96.2515807 138.237679,95.9421697 C138.376555,95.6327588 138.47247,95.414674 138.525423,95.2879154 C138.580374,95.1611567 138.630329,95.0413847 138.675289,94.9285994 C138.71925,94.8168123 138.769705,94.6950441 138.826655,94.5632949 C138.883604,94.4305477 138.937056,94.3082804 138.987012,94.1964933 C139.037966,94.0847061 139.088921,93.973418 139.139876,93.8626289 C139.188832,93.7528379 139.225799,93.6704947 139.250777,93.6155992 C139.274756,93.5607037 139.282749,93.5397436 139.274756,93.5527189 C139.264765,93.5666923 139.276254,93.5457322 139.309225,93.4898386 C139.343195,93.432947 139.42712,93.2313308 139.561001,92.8849902 C139.693883,92.5376515 139.837255,92.1414059 139.991118,91.6962534 C140.14598,91.2501028 140.263376,90.9177356 140.343304,90.6991517 C140.423233,90.4795698 140.49417,90.3228681 140.556115,90.2290468 C140.621057,90.1352254 140.686499,89.9720361 140.75244,89.7394788 C140.819381,89.5069216 140.896812,89.190524 140.984733,88.790286 C141.069658,88.3890499 141.14559,88.0122672 141.212531,87.659938 C141.278472,87.3066107 141.334922,86.9762397 141.38188,86.6688249 C141.430836,86.3624083 141.475796,86.0519993 141.51676,85.7375979 C141.555725,85.4221983 141.588696,85.1028064 141.615672,84.7794221 C141.645645,84.4570359 141.671122,84.1067029 141.692104,83.7284231 C141.712086,83.3501433 141.725074,82.9449148 141.731069,82.5127376 C141.735752,82.0795623 141.737064,81.6957929 141.734066,81.3614295 C141.728072,81.026068 141.718081,80.6802264 141.704093,80.3239048 C141.692104,79.9675832 141.67362,79.665658 141.648642,79.4181293 C141.622665,79.1706005 141.602184,78.9979293 141.587197,78.9001155 C141.57321,78.8013036 141.56122,78.7718597 141.551229,78.8117837 C141.540239,78.8517077 141.524753,78.8003055 141.50477,78.6575773 C141.487786,78.514849 141.458811,78.2553431 141.417848,77.8790595 C141.378882,77.5027759 141.304449,77.1379704 141.194547,76.7846431 C141.085644,76.4323139 140.972744,76.1408687 140.855848,75.9103077 C140.737953,75.6797467 140.656526,75.5135631 140.611566,75.4117569 C140.567605,75.3099507 140.516151,75.1941711 140.457203,75.0644182 C140.398255,74.9356633 140.358291,74.8513239 140.33731,74.8113999 C140.315329,74.7714759 140.306337,74.7594987 140.310334,74.7754683 C140.316328,74.7914379 140.310833,74.7794607 140.293848,74.7395367 C140.273866,74.6996127 140.193438,74.5369224 140.052563,74.2514659 C139.91069,73.9660094 139.83176,73.811803 139.815774,73.7888467 C139.800787,73.7648923 139.713865,73.6081906 139.555006,73.3187417 C139.399145,73.0292928 139.216807,72.7378476 139.007993,72.4444063 C138.799179,72.150965 138.616841,71.8974476 138.46098,71.6838543 C138.307117,71.470261 138.184226,71.2736353 138.092308,71.0939773 C138.002388,70.9143194 137.967919,70.8564296 137.9889,70.920308 C138.010881,70.9851845 137.992397,70.9382738 137.93345,70.7795759 C137.875501,70.6208781 137.743119,70.3973037 137.536303,70.1088529 C137.329487,69.8214002 137.158639,69.5883439 137.023759,69.409684 C136.88888,69.2310242 136.77648,69.1002731 136.68656,69.0174308 C136.597639,68.9345885 136.557674,68.8971598 136.566666,68.9051446 C136.576657,68.9131294 136.580654,68.9166227 136.578656,68.9156246 C136.576657,68.9136284 136.570663,68.9076398 136.560672,68.8976588 C136.55168,68.8866797 136.502224,68.8427634 136.412304,68.7659097 C136.322384,68.689056 136.220974,68.6007242 136.108075,68.5009142 C135.994176,68.4011042 135.890768,68.3047876 135.797851,68.2119643 C135.703934,68.119141 135.661972,68.0772208 135.671963,68.0862037 C135.680955,68.0951866 135.685451,68.099179 135.685451,68.0981809 C135.685451,68.0961847 135.672962,68.0852056 135.647984,68.0652436 C135.623006,68.0462797 135.521597,67.948466 135.343755,67.7718023 C135.165913,67.5961368 135.017545,67.448418 134.898651,67.328646 C134.779757,67.2098722 134.683343,67.1145536 134.609409,67.0426904 C134.534475,66.9698292 134.440559,66.8750097 134.32766,66.758232 C134.216758,66.6404562 134.101861,66.5241776 133.982966,66.4093962 C133.862074,66.2936166 133.780147,66.2142677 133.737185,66.1713494 C133.692225,66.127433 133.626784,66.0650517 133.54086,65.9842057 C133.454936,65.9033596 133.403982,65.8544527 133.387996,65.837485 C133.373009,65.8205173 133.32705,65.7790962 133.250119,65.7132216 C133.172188,65.647347 133.09126,65.5789772 133.007335,65.5081121 C132.92341,65.4382451 132.879449,65.4033116 132.875452,65.4033116 C132.870457,65.4023135 132.884444,65.4088012 132.917415,65.4227745 C132.952384,65.4357498 132.771545,65.3089912 132.374898,65.0424985 C131.97925,64.7750078 131.672024,64.5808774 131.453218,64.4601073 C131.234413,64.3383392 130.999123,64.1641708 130.747347,63.9376021 C130.495571,63.7120316 130.27227,63.5213945 130.077443,63.365691 C129.884615,63.2109855 129.677799,63.0537848 129.456996,62.8940888 C129.23819,62.7333948 129.046861,62.6006475 128.883006,62.495847 C128.719152,62.3910465 128.557296,62.3007185 128.397439,62.2248629 C128.237581,62.1500055 128.063736,62.0726527 127.875903,61.9928047 C127.689069,61.9129568 127.559685,61.8600575 127.487749,61.8341069 C127.414813,61.8071582 127.290924,61.7677333 127.116079,61.7158321 C126.940236,61.6629328 126.731422,61.6065401 126.489637,61.5466542 C126.245854,61.4867682 125.937129,61.4139069 125.563462,61.3280703 C125.192792,61.2422337 124.864084,61.1653801 124.577339,61.0975093 C124.290595,61.0286404 123.994858,60.9562782 123.690129,60.8804226 C123.384401,60.8035689 123.129129,60.7406886 122.924311,60.6917817 C122.717495,60.6428748 122.646059,60.6204176 122.710002,60.62441 C122.774944,60.6274043 122.740974,60.6094385 122.608092,60.5705126 C122.475211,60.5305886 122.254407,60.4687064 121.945682,60.384866 C121.635958,60.3010257 121.322737,60.2306596 121.006019,60.1737679 C120.6903,60.1168763 120.369585,60.0734589 120.043875,60.0435159 C119.720163,60.0135729 119.43242,59.9916147 119.180644,59.9776413 C118.928868,59.9646661 118.672096,59.9621708 118.410329,59.9701556 C118.148562,59.9771423 117.947741,59.9821328 117.807866,59.9851271 C117.668989,59.9881214 117.501139,59.9886204 117.304314,59.9866242 C117.105491,59.9856261 116.845722,59.9995995 116.525008,60.0285444 C116.205292,60.0574893 115.907058,60.0914247 115.630304,60.1303506 C115.352551,60.1692765 115.157225,60.1937299 115.044326,60.2037109 C114.931426,60.21469 114.788054,60.2321568 114.614209,60.2561112 C114.440364,60.2810637 114.330961,60.2970333 114.286001,60.30402 C114.241041,60.3110067 114.127142,60.3294715 113.944305,60.3594145 C113.760469,60.3893575 113.600112,60.4168052 113.463233,60.4417577 C113.325356,60.4667102 113.251422,60.4806836 113.241431,60.4836779 C113.229441,60.4866722 113.197969,60.4931599 113.147015,60.5031409 C113.095061,60.5131219 113.032617,60.524101 112.959682,60.5360782 C112.885747,60.5490535 112.86077,60.5460592 112.884748,60.5270953 C112.907728,60.5081314 112.846782,60.5166152 112.701911,60.5525468 C112.558039,60.5894765 112.415666,60.6289014 112.274791,60.6708216 C112.136914,60.7137399 112.02951,60.7466772 111.952578,60.7696335 C111.878644,60.7915917 111.844674,60.8005746 111.850669,60.7965822 C111.856664,60.7915917 111.848171,60.7925898 111.825192,60.7995765 C111.801213,60.8075613 111.723782,60.8295195 111.592898,60.8654511 C111.462015,60.9023808 111.385083,60.924838 111.362104,60.9328228 C111.337126,60.9398095 111.331131,60.9373143 111.34412,60.9253371 C111.360106,60.9123618 111.319142,60.9213447 111.221229,60.9522858 C111.122317,60.9832268 111.00742,61.0191584 110.876536,61.0600805 C110.745653,61.1020007 110.601281,61.1484124 110.443422,61.1993154 C110.284563,61.2502185 110.204135,61.2766682 110.202136,61.2786644 C110.202136,61.2796625 110.207132,61.2776663 110.217123,61.2726758 C110.227114,61.2676853 110.191146,61.2741729 110.109219,61.2921387 C110.027292,61.3111026 109.798995,61.3914496 109.424329,61.5331798 C109.047664,61.67491 108.764916,61.7891924 108.576084,61.8760271 C108.388251,61.9638599 108.24338,62.0362221 108.141471,62.0931138 C108.040561,62.1500055 107.988107,62.1769542 107.984111,62.1739599 C107.982113,62.1709656 107.984111,62.1699675 107.990106,62.1709656 C107.994102,62.1719637 107.998098,62.1674722 108.002095,62.1574912 C108.006091,62.1485083 107.96313,62.1714646 107.87321,62.2263601 C107.78329,62.2812556 107.701363,62.3311606 107.627428,62.3760751 C107.552495,62.4209895 107.519025,62.4399534 107.527018,62.4329667 C107.535011,62.42598 107.529516,62.4249819 107.510533,62.4299724 C107.49055,62.435961 107.500042,62.4334658 107.539007,62.4224867 C107.577972,62.4115076 107.382147,62.5148109 106.95153,62.7323967 C106.519914,62.9499824 106.185212,63.1181622 105.947424,63.2369361 C105.706638,63.35571 105.542784,63.4395503 105.455862,63.4884572 C105.365942,63.5373641 105.234059,63.6107244 105.060214,63.7085382 C104.886369,63.8073501 104.814932,63.8477731 104.845905,63.8298073 C104.876877,63.8128396 104.842907,63.8323026 104.743995,63.8881962 C104.644084,63.9430917 104.603121,63.966048 104.621105,63.9570651 C104.63809,63.9470841 104.640088,63.9480822 104.627099,63.9600594 C104.613112,63.9710385 104.576145,63.9895033 104.516198,64.0154539 C104.455252,64.0414045 104.373825,64.0838237 104.271916,64.1427116 C104.173004,64.2015995 104.038623,64.2944228 103.868774,64.4211814 C103.696927,64.546942 103.546561,64.657232 103.417676,64.7520515 C103.288791,64.846871 103.219353,64.8977741 103.209361,64.9047608 C103.200369,64.9127456 103.214357,64.9092522 103.251324,64.8942807 C103.288291,64.8793092 103.243331,64.9132446 103.116444,64.9960869 C102.989557,65.0789292 102.922117,65.1198513 102.914124,65.1188532" id="STROKE_736ce0bd-9c24-4868-8d73-2163e2b9f091"></path>
                <path d="M122.655123,1.29937616 C122.873929,1.25745597 123.09673,1.08827807 123.323528,0.791842439 C123.272574,0.772878544 123.076248,0.650611324 122.734553,0.42504078 C122.390859,0.198472136 121.912784,0.0652258189 121.300329,0.0253018287 C120.685876,-0.0136240616 120.146357,-0.00763546311 119.68177,0.0432676243 C119.217184,0.0941707117 118.917451,0.111138407 118.782571,0.0941707117 C118.649689,0.0772030159 118.392418,0.129104203 118.010758,0.249874273 C117.628098,0.369646243 117.313878,0.489917264 117.068097,0.610687334 C116.822316,0.730459304 116.538069,0.895644813 116.215356,1.10624386 C115.893643,1.31784101 115.613892,1.50698091 115.376103,1.67366357 C115.136317,1.84034623 114.966468,1.96161535 114.866557,2.03747093 C114.768644,2.11332651 114.555833,2.25405858 114.228125,2.45966713 C113.898419,2.66527568 113.478792,2.9866638 112.969246,3.42383149 C112.462697,3.86199728 112.012098,4.33110416 111.617449,4.83115214 C111.221801,5.33120012 110.835645,5.78583455 110.458981,6.19505545 C110.084314,6.60327825 109.734625,7.09234713 109.409914,7.66226209 C109.086203,8.23117895 108.812946,8.75917372 108.590144,9.2462464 C108.37034,9.73331908 108.241954,10.1320599 108.204987,10.4424689 C108.169019,10.752878 108.139545,11.0318469 108.116566,11.2793756 C108.095584,11.5269043 108.074104,11.7689435 108.052123,12.0054932 C108.029144,12.2430409 108.019652,12.4202036 108.023648,12.5369813 C108.028644,12.653759 108.026646,12.6847 108.017654,12.6298046 C108.007663,12.5759072 108.001668,12.5973663 107.999625,12.694182 C107.997672,12.7919958 108.062114,13.0994105 108.192998,13.6164262 C108.325879,14.1334418 108.681063,14.8595594 109.258549,15.7947789 C109.836035,16.7309964 110.294627,17.4511254 110.634324,17.9551658 C110.972024,18.4602043 111.245281,18.8329945 111.454095,19.0735366 C111.660911,19.3140786 111.738841,19.4088981 111.687887,19.357995 C111.634934,19.3060938 111.746834,19.4193781 112.023588,19.697848 C112.30134,19.9753197 112.544624,20.2333285 112.753438,20.4718743 C112.96425,20.7094221 113.455813,21.0737285 114.228125,21.5647935 C115.003435,22.0548605 115.692322,22.4231593 116.294785,22.66969 C116.89625,22.9162206 117.387313,23.0709261 117.767974,23.1338064 C118.147636,23.1956885 118.420393,23.2421002 118.586246,23.2730413 C118.752098,23.3039824 118.926942,23.3294339 119.110779,23.3493959 C119.294615,23.370356 119.409513,23.3818341 119.455472,23.3838303 C119.500432,23.3858265 119.733724,23.4167676 120.155349,23.4766536 C120.576973,23.5375377 121.229892,23.5430273 122.114105,23.4931223 C122.99632,23.4442154 123.656732,23.3763446 124.095341,23.2895099 C124.53495,23.2026752 124.844175,23.1392959 125.023015,23.0993719 C125.202855,23.0584498 125.369707,23.0165296 125.52357,22.9736113 C125.678432,22.9306931 125.880752,22.8633213 126.13053,22.7714961 C126.382305,22.6806691 126.605607,22.5833543 126.800433,22.479552 C126.99526,22.3757496 127.124145,22.3048845 127.187089,22.2669567 C127.249034,22.2290289 127.357937,22.1651505 127.513798,22.0753216 C127.670658,21.9854926 127.822024,21.8911722 127.967894,21.7923603 C128.116761,21.6925503 128.313087,21.5423363 128.55687,21.3417183 C128.800653,21.1411002 128.98299,20.9804061 129.103883,20.8596361 C129.222777,20.738866 129.338674,20.6250826 129.451573,20.518286 C129.565472,20.4124874 129.628915,20.348609 129.641904,20.3266508 C129.653893,20.3046926 129.659888,20.2897211 129.659888,20.2817363 C129.659888,20.2737515 129.777783,20.1639605 130.013573,19.9523634 C130.250362,19.7417643 130.569578,19.427862 130.97122,19.0106563 C131.372863,18.5944487 131.726048,18.1078751 132.030777,17.5509354 C132.337504,16.9929976 132.559806,16.5398603 132.697683,16.1915235 C132.838558,15.8421886 132.918986,15.5682102 132.938969,15.3695884 C132.95995,15.1719646 133.000913,14.8895024 133.061859,14.5222017 C133.121806,14.154901 133.140289,13.9797345 133.11731,13.9967022 C133.093331,14.0136699 133.097827,14.0291404 133.130798,14.0431138 C133.166766,14.0570872 133.149281,13.6074433 133.078344,12.694182 C133.010405,11.7809207 132.910993,11.0483155 132.78011,10.4963663 C132.649227,9.94341907 132.541822,9.55266302 132.457897,9.32409818 C132.373972,9.09453523 132.28605,8.90439723 132.194132,8.75368417 C132.101214,8.6029711 132.044765,8.50964878 132.024782,8.47371719 C132.005799,8.4387837 131.986317,8.40534735 131.966334,8.37340816 C131.94935,8.34047087 131.918377,8.28657348 131.873417,8.211716 C131.830455,8.13685852 131.808975,8.10092693 131.808975,8.10392123 C131.806976,8.10691553 131.808975,8.11240508 131.814969,8.12038987 C131.819965,8.12737657 131.763015,8.04004284 131.644121,7.85838869 C131.525227,7.67773263 131.47677,7.6023761 131.498751,7.6323191 C131.519732,7.66326019 131.523229,7.66974784 131.509241,7.65178204 C131.498251,7.63381624 131.500249,7.63431529 131.515236,7.65327919 C131.529224,7.67224309 131.43181,7.55396826 131.222996,7.29845473 C131.01618,7.04294119 130.818356,6.77594951 130.629524,6.49747968 C130.439693,6.21900985 130.283333,5.9834583 130.160442,5.79082505 C130.037551,5.5981918 129.933144,5.45346733 129.847221,5.35665166 C129.761297,5.26083408 129.725329,5.21941294 129.739317,5.23238824 C129.752305,5.24536354 129.745312,5.23588159 129.718336,5.2039424 C129.69136,5.1720032 129.654393,5.12958396 129.607434,5.07668468 C129.558478,5.02478349 129.510521,4.97238325 129.463562,4.91948397 C129.416604,4.86758278 129.281225,4.71637067 129.057424,4.46584763 C128.832624,4.21532459 128.678262,4.03616569 128.594336,3.92837091 C128.512409,3.82157424 128.436477,3.72675476 128.366539,3.64391248 C128.295602,3.5620683 128.247645,3.50467757 128.222667,3.47174028 C128.197689,3.43880298 128.170214,3.41484859 128.14024,3.39987709 C128.111266,3.3839075 128.14074,3.40137424 128.228662,3.45227733 C128.316583,3.50318042 128.177208,3.36244835 127.810534,3.03008113 C127.442861,2.69871202 127.160613,2.46865002 126.963788,2.33989516 C126.766963,2.21213839 126.643073,2.12829801 126.592119,2.08837402 C126.543162,2.04944813 126.519683,2.03198138 126.521681,2.03597378 C126.52368,2.03996618 126.47872,2.01152034 126.386801,1.95063625 C126.293884,1.89075027 126.198469,1.83236143 126.100556,1.77546975 C126.004642,1.71957616 125.970672,1.70011321 125.998647,1.71708091 C126.025623,1.73305051 126.022626,1.72955716 125.989655,1.70660086 C125.956684,1.68364457 125.892242,1.64471868 125.796327,1.58982319 C125.698414,1.5349277 125.651456,1.50997521 125.655452,1.51496571 C125.659449,1.51995621 125.649957,1.51646286 125.626978,1.50448566 C125.604997,1.49250847 125.56853,1.47404362 125.517575,1.44909113 C125.46762,1.42513673 125.463124,1.42363958 125.504087,1.44459968 C125.547049,1.46555977 125.342731,1.3647517 124.891133,1.14217545 C124.440534,0.919599207 124.121818,0.762398496 123.934984,0.670573319 C123.747151,0.577750042 123.587793,0.499399211 123.45691,0.435520827 C123.327025,0.371642443 123.26558,0.341200401 123.272574,0.3441947 C123.278568,0.348187099 123.269077,0.34369565 123.244099,0.330720353 C123.216124,0.316746957 123.150682,0.284807764 123.047774,0.234902777 C122.943866,0.183999689 122.890414,0.157050996 122.887417,0.154056697 C122.881422,0.152060497 122.882921,0.153557647 122.891913,0.158548146 C122.903902,0.163538645 122.879923,0.151062398 122.819977,0.121119405 C122.759031,0.0911764124 122.676105,0.0677210682 122.571198,0.0507533724 C122.467291,0.0327875769 122.38886,0.0327875769 122.335908,0.0507533724" id="STROKE_30bd7c3c-c022-4526-a43a-cc1efa4e6cf4"></path>
                <path d="M203.815191,92.0976814 C204.035995,92.0906947 204.281276,91.9579474 204.551036,91.6994396 C204.504078,91.6744871 204.329234,91.523275 204.026503,91.2458033 C203.723773,90.9693296 203.273174,90.7637211 202.674706,90.6289776 C202.073242,90.4952322 201.538218,90.4173805 201.069635,90.3954223 C200.60405,90.3734641 200.306814,90.3435211 200.177929,90.3055933 C200.049044,90.2676655 199.786278,90.2786446 199.389631,90.3385306 C198.993983,90.3984166 198.665276,90.4682836 198.403509,90.5481315 C198.141742,90.6289776 197.834515,90.7482505 197.481829,90.9059503 C197.130142,91.0646482 196.823415,91.2078755 196.561648,91.3356322 C196.30088,91.463389 196.115545,91.5567113 196.005643,91.6155992 C195.89674,91.6744871 195.663947,91.7802857 195.307265,91.9329949 C194.949583,92.0857042 194.485996,92.3387225 193.916503,92.6920498 C193.345012,93.0453771 192.825974,93.4381294 192.359389,93.8703066 C191.890806,94.3034819 191.439208,94.6927408 191.004595,95.0380833 C190.568983,95.3824277 190.147358,95.8111115 189.739721,96.3241348 C189.332084,96.83616 188.979898,97.3157469 188.683162,97.7628956 C188.388424,98.2100443 188.199093,98.5838326 188.115167,98.8842607 C188.031242,99.1856868 187.958807,99.4566709 187.897861,99.6972129 C187.837914,99.937755 187.777468,100.173806 187.716522,100.405365 C187.658574,100.635926 187.623605,100.809096 187.611616,100.924876 C187.597628,101.039657 187.589635,101.0696 187.587637,101.014705 C187.587637,100.959809 187.579145,100.98027 187.56216,101.076088 C187.544176,101.171905 187.559662,101.485309 187.608618,102.016298 C187.657575,102.548285 187.894364,103.321313 188.318986,104.335382 C188.746605,105.349452 189.088301,106.131962 189.344074,106.682913 C189.599846,107.234862 189.812656,107.64558 189.982505,107.915067 C190.150356,108.184554 190.211801,108.289854 190.166841,108.230966 C190.121881,108.173076 190.214299,108.30233 190.444094,108.618728 C190.676887,108.936123 190.878208,109.229066 191.048057,109.497554 C191.217905,109.766043 191.647023,110.202712 192.335411,110.80756 C193.022799,111.411411 193.644245,111.882015 194.199751,112.219372 C194.756256,112.555732 195.217845,112.784297 195.584518,112.905067 C195.951192,113.025837 196.213958,113.114169 196.372816,113.170062 C196.530676,113.226954 196.699026,113.279354 196.877867,113.327263 C197.055709,113.37617 197.167109,113.405614 197.212069,113.415595 C197.255031,113.425576 197.48133,113.492948 197.890965,113.61771 C198.298602,113.742473 198.942529,113.849269 199.822745,113.9381 C200.702962,114.026931 201.366371,114.062364 201.812974,114.044398 C202.260575,114.026432 202.575794,114.011461 202.758632,113.999483 C202.942468,113.987506 203.113316,113.972535 203.271175,113.954569 C203.431033,113.936603 203.641845,113.902169 203.903612,113.851266 C204.165379,113.799364 204.40067,113.737482 204.609484,113.665619 C204.818298,113.592758 204.955676,113.542354 205.021617,113.514407 C205.089557,113.487458 205.208451,113.441546 205.3783,113.376669 C205.54615,113.311793 205.710004,113.241926 205.869862,113.167068 C206.030719,113.092211 206.247526,112.974435 206.520283,112.813741 C206.79304,112.654045 206.997858,112.523294 207.134736,112.421488 C207.273612,112.32068 207.406494,112.226359 207.533381,112.138526 C207.662266,112.051692 207.734202,111.998792 207.749189,111.979828 C207.765175,111.960865 207.774167,111.94739 207.776165,111.939405 C207.778163,111.931421 207.911545,111.841592 208.176309,111.669919 C208.442072,111.497247 208.806248,111.236244 209.268836,110.886909 C209.731424,110.536576 210.158045,110.110388 210.548697,109.608343 C210.936352,109.106299 211.226094,108.693585 211.417923,108.370201 C211.608753,108.047815 211.730645,107.789806 211.783598,107.596174 C211.835551,107.403541 211.919477,107.130561 212.035373,106.777234 C212.150271,106.423906 212.195231,106.25373 212.170253,106.266705 C212.142278,106.278683 212.144776,106.294652 212.177747,106.314614 C212.211716,106.333578 212.265668,105.886429 212.339603,104.973168 C212.413537,104.059907 212.428024,103.320315 212.383064,102.754392 C212.338104,102.189468 212.292145,101.787234 212.245187,101.54769 C212.200227,101.309144 212.143777,101.108027 212.075837,100.944339 C212.0059,100.78065 211.963937,100.679842 211.949949,100.641914 C211.935962,100.604985 211.922474,100.569053 211.909485,100.53412 C211.895498,100.498188 211.873018,100.439799 211.842046,100.358953 C211.813071,100.278107 211.797585,100.239181 211.795587,100.242175 C211.793589,100.24517 211.795087,100.250659 211.800083,100.258644 C211.804079,100.266629 211.761617,100.171809 211.672696,99.9741856 C211.582776,99.7765618 211.54531,99.6947177 211.560296,99.7286531 C211.576282,99.7635866 211.580279,99.7710723 211.572286,99.7511103 C211.562295,99.7311483 211.563294,99.7316474 211.575283,99.7526075 C211.587272,99.7735675 211.510341,99.6413193 211.344488,99.3558628 C211.178636,99.0714044 211.024274,98.7769649 210.881401,98.4725445 C210.739527,98.167126 210.622631,97.9101153 210.530713,97.7015125 C210.436797,97.4929096 210.354869,97.3342118 210.284932,97.2254189 C210.213995,97.1156279 210.184521,97.0682182 210.19651,97.0831897 C210.206502,97.0971631 210.200507,97.086683 210.178526,97.0517495 C210.159543,97.0158179 210.130569,96.9684082 210.091604,96.9095203 C210.052638,96.8506324 210.013673,96.7917445 209.974708,96.7328567 C209.937741,96.6739688 209.827339,96.5032937 209.643503,96.2208315 C209.459666,95.9373711 209.335777,95.7367531 209.271834,95.6189773 C209.205892,95.5002035 209.145446,95.3949039 209.090495,95.3030788 C209.033546,95.2112536 208.99458,95.1468761 208.973599,95.1099465 C208.953617,95.0730168 208.930138,95.04507 208.903162,95.0261061 C208.877185,95.0061441 208.90466,95.0281023 208.985588,95.0919807 C209.065517,95.1548609 208.95012,94.9941669 208.639397,94.6098985 C208.327674,94.2256301 208.083891,93.954646 207.908048,93.7969462 C207.734202,93.6392465 207.625799,93.5369412 207.582837,93.4900306 C207.539875,93.444118 207.518394,93.4226588 207.518394,93.4256531 C207.518394,93.4296455 207.477431,93.3952111 207.395504,93.3223498 C207.313577,93.2484904 207.229652,93.1761282 207.143728,93.1052631 C207.057805,93.034398 207.025833,93.0094455 207.047813,93.0304056 C207.070793,93.0503676 207.068795,93.0463752 207.041819,93.0184284 C207.013844,92.9904816 206.955895,92.9415747 206.867974,92.8717078 C206.781051,92.8028389 206.739088,92.7713987 206.742086,92.7773873 C206.744084,92.7833759 206.735591,92.7783854 206.716608,92.7624158 C206.696626,92.7464462 206.664155,92.7229909 206.619195,92.6920498 C206.573236,92.6601106 206.569739,92.6576154 206.608704,92.6845641 C206.64767,92.7115127 206.461336,92.5802626 206.049702,92.2908137 C205.637069,92.0023629 205.345329,91.7972534 205.174481,91.6754852 C205.002634,91.553717 204.857263,91.4514118 204.738369,91.3685695 C204.618476,91.2847292 204.562526,91.2453042 204.570519,91.2502947 C204.576513,91.2542871 204.567022,91.2477995 204.542044,91.2308318 C204.518065,91.2138641 204.459617,91.1724429 204.3667,91.1065683 C204.274782,91.0406938 204.225826,91.0062593 204.219831,91.003265 C204.213836,90.9992726 204.215834,91.0007698 204.225826,91.0077565 C204.235817,91.0147432 204.213337,90.9987736 204.158386,90.9598477 C204.103435,90.9209218 204.026503,90.8849902 203.927591,90.8520529 C203.82768,90.8191156 203.74925,90.8061403 203.692301,90.813127" id="STROKE_d84b2e0b-6d57-41e5-a5ad-e51a02775bfa"></path>
                <path d="M14.4164061,128.641415 C14.2415617,128.759191 14.1081804,128.991748 14.0162623,129.339087 C14.0672169,129.335094 14.2865217,129.370527 14.6741766,129.445384 C15.0608324,129.519244 15.5334117,129.460356 16.0919145,129.26872 C16.6494182,129.076087 17.1254944,128.871477 17.5201431,128.654889 C17.9137926,128.438301 18.1720627,128.31304 18.2949533,128.279105 C18.4178439,128.245169 18.6276572,128.103938 18.924393,127.855411 C19.2191306,127.606884 19.453422,127.384308 19.6272673,127.187683 C19.8011125,126.991057 19.9914431,126.739536 20.198259,126.433119 C20.4050749,126.126702 20.5834161,125.855718 20.7332827,125.620167 C20.8841484,125.383617 20.9895546,125.21394 21.0495012,125.111136 C21.1084487,125.007334 21.2453269,124.803721 21.4601356,124.500299 C21.6759435,124.195878 21.9277194,123.755717 22.2154632,123.179813 C22.5042062,122.603909 22.7315039,122.021518 22.8973562,121.432639 C23.0632086,120.84376 23.2365543,120.298798 23.4173933,119.797752 C23.5992314,119.296706 23.7281167,118.734277 23.8040491,118.110464 C23.8799815,117.485654 23.9259406,116.916238 23.9419263,116.402217 C23.9589112,115.887197 23.925441,115.485961 23.8415157,115.198508 C23.7575904,114.910057 23.6796598,114.652049 23.6077238,114.424482 C23.5377861,114.196915 23.4698466,113.97384 23.4039053,113.755256 C23.3349667,113.536672 23.2760191,113.376976 23.2270627,113.276168 C23.1781063,113.174362 23.1686147,113.145417 23.1985881,113.189333 C23.2275623,113.23325 23.225564,113.21229 23.1925934,113.126453 C23.1596227,113.039619 22.9877757,112.791092 22.6770523,112.380873 C22.3693263,111.970654 21.7858457,111.458129 20.9266106,110.8433 C20.0683746,110.227472 19.3954736,109.758366 18.9079077,109.435979 C18.4193426,109.113593 18.0386815,108.884529 17.7659243,108.748788 C17.4941662,108.613046 17.3907583,108.557652 17.4557004,108.582604 C17.5196435,108.608555 17.3782694,108.549667 17.031578,108.40594 C16.6838875,108.261216 16.372165,108.121981 16.0964105,107.988236 C15.8236533,107.85449 15.2541603,107.713758 14.3879314,107.566039 C13.5197043,107.417323 12.7733687,107.34496 12.1489246,107.348796 C11.5244805,107.352945 11.0314194,107.397361 10.6697414,107.482199 C10.3090625,107.568036 10.0497933,107.627922 9.8919338,107.661857 C9.73607255,107.695792 9.57221842,107.737214 9.4003714,107.78612 C9.2305226,107.836025 9.12511643,107.868464 9.0841529,107.883435 C9.04119115,107.897409 8.82038771,107.955797 8.42174259,108.058602 C8.0260948,108.161406 7.44661066,108.397956 6.68329018,108.768251 C5.91897059,109.138546 5.35796999,109.442966 5.00028841,109.681512 C4.64360593,109.920058 4.39282918,110.090733 4.24795814,110.193537 C4.10608444,110.295343 3.97370229,110.394155 3.85081169,110.489973 C3.72991931,110.584792 3.57555672,110.718538 3.38772393,110.891209 C3.20089025,111.064878 3.04003345,111.234056 2.90515352,111.398743 C2.77027359,111.562431 2.68235186,111.672721 2.64138833,111.729613 C2.6004248,111.785506 2.52748972,111.882821 2.42258311,112.021557 C2.31667739,112.159295 2.21676633,112.299028 2.12284994,112.440759 C2.02993265,112.582489 1.91303672,112.787099 1.77216213,113.05459 C1.62928931,113.323079 1.52688048,113.533179 1.46493562,113.68489 C1.40199166,113.836601 1.34054636,113.980328 1.28059972,114.116069 C1.2216522,114.251811 1.19018021,114.331659 1.18618377,114.355613 C1.18218733,114.379567 1.18218733,114.395038 1.18618377,114.402025 C1.18818199,114.409011 1.12373936,114.549743 0.992855873,114.824221 C0.860973277,115.099696 0.6931227,115.496441 0.489304141,116.014455 C0.288482915,116.532469 0.156100763,117.094399 0.0921576861,117.700245 C0.0252172773,118.30709 -0.00525559538,118.791168 0.000739068099,119.15248 C0.00673373158,119.512794 0.0372066043,119.784777 0.0921576861,119.968427 C0.147108768,120.152077 0.215547843,120.417572 0.29747491,120.764911 C0.381400199,121.113247 0.430856173,121.275439 0.445842831,121.251484 C0.4618286,121.22753 0.451337939,121.215553 0.414370848,121.215553 C0.377403757,121.216551 0.558742327,121.609303 0.958386558,122.393809 C1.35803079,123.177318 1.71920926,123.789652 2.04192198,124.230812 C2.36363559,124.670974 2.60342213,124.977391 2.7612816,125.150062 C2.91714285,125.322733 3.06551077,125.458475 3.20638536,125.557287 C3.34526173,125.657097 3.42918702,125.71848 3.45816123,125.741436 C3.48913366,125.76539 3.51860742,125.788347 3.54658251,125.810305 C3.57555672,125.833261 3.62301447,125.869692 3.68895577,125.919597 C3.75589618,125.969502 3.78836727,125.992957 3.78636905,125.989963 C3.78636905,125.986969 3.78237261,125.983475 3.77437973,125.979483 C3.76638684,125.97549 3.84831391,126.031883 4.02016093,126.148661 C4.19400617,126.26444 4.26594213,126.312848 4.23596881,126.293884 C4.20499639,126.273922 4.19950128,126.26993 4.21948349,126.281907 C4.23646837,126.292886 4.23447015,126.292886 4.21348883,126.281907 C4.19350661,126.26993 4.32339099,126.338799 4.60314195,126.488514 C4.8818938,126.638229 5.1556501,126.801917 5.42441085,126.979579 C5.69616893,127.15724 5.92296703,127.307954 6.10480515,127.431718 C6.28564417,127.55648 6.43201387,127.64581 6.54391425,127.699708 C6.65481553,127.754603 6.70227328,127.778558 6.68628751,127.771571 C6.67130085,127.764584 6.68129196,127.770573 6.71626083,127.789537 C6.7512297,127.808501 6.79868745,127.831956 6.85863409,127.859903 C6.92157805,127.888848 6.98302335,127.917792 7.04296999,127.946737 C7.10391573,127.97668 7.28075831,128.06102 7.5734977,128.199756 C7.8662371,128.338492 8.06905655,128.439799 8.18195605,128.503677 C8.29585465,128.568554 8.39826349,128.624447 8.48918255,128.671358 C8.58110072,128.718268 8.64454425,128.751705 8.67951312,128.771667 C8.71448199,128.791629 8.74795219,128.803107 8.77992373,128.806101 C8.80889794,128.809096 8.77542773,128.804105 8.67951312,128.79113 C8.58459761,128.779153 8.76044107,128.852513 9.2070435,129.011211 C9.65364593,129.169909 9.98934709,129.269719 10.214147,129.310641 C10.4359495,129.351563 10.5763246,129.380009 10.6352721,129.395978 C10.6942196,129.412946 10.7216951,129.419933 10.7176987,129.416938 C10.7157005,129.414942 10.7671547,129.422927 10.8720613,129.440893 C10.977967,129.459857 11.0833732,129.476824 11.1882798,129.491796 C11.2941855,129.505769 11.3321517,129.510261 11.3021784,129.50527 C11.2732042,129.50028 11.2772006,129.502276 11.3141677,129.511259 C11.3511348,129.520242 11.4235703,129.530722 11.5314743,129.542699 C11.6363809,129.555674 11.686836,129.560665 11.6828395,129.55767 C11.6768449,129.555674 11.686836,129.555674 11.7128128,129.55767 C11.7357924,129.559667 11.7737586,129.562162 11.8267114,129.565156 C11.8796643,129.56815 11.8836607,129.568649 11.8387008,129.566653 C11.7937408,129.563659 12.0110473,129.577133 12.4906204,129.607076 C12.9731908,129.637019 13.3158858,129.658478 13.5187052,129.671454 C13.7215247,129.683431 13.8923726,129.693911 14.0312489,129.702894 C14.1691262,129.711877 14.2340684,129.715869 14.2260755,129.714871 C14.2190817,129.714871 14.2300719,129.715869 14.2590461,129.717865 C14.2860221,129.718863 14.3544612,129.722856 14.4643634,129.729843 C14.5752646,129.736829 14.6337126,129.740323 14.6397073,129.740323 C14.6457019,129.741321 14.6427046,129.741321 14.6307153,129.740323 C14.618726,129.739325 14.6452024,129.740822 14.7101446,129.744814 C14.7740877,129.748806 14.8560147,129.739824 14.9559258,129.717865 C15.0528395,129.694909 15.1217781,129.665964 15.1627417,129.631031" id="STROKE_c18bdae9-a02c-4e78-b8fc-e60fc907d7cf"></path>
                <path d="M159.238301,138.713892 C159.402155,138.862609 159.671416,138.938963 160.046082,138.942956 C160.029097,138.890056 160.009615,138.659495 159.987634,138.251273 C159.964655,137.842052 159.785314,137.379931 159.449613,136.864912 C159.113912,136.348894 158.786703,135.919712 158.467987,135.577363 C158.15027,135.236013 157.95944,135.00645 157.895497,134.888674 C157.830554,134.771897 157.635228,134.596231 157.309518,134.361678 C156.983808,134.127124 156.699062,133.946967 156.455279,133.821207 C156.210497,133.695446 155.907766,133.566192 155.547087,133.433445 C155.186408,133.300698 154.867192,133.188911 154.58944,133.098084 C154.312686,133.007256 154.114862,132.944875 153.995968,132.91094 C153.877074,132.877004 153.637287,132.789671 153.276608,132.648939 C152.91493,132.509205 152.406383,132.365977 151.750967,132.219257 C151.09555,132.073534 150.448626,131.991191 149.810194,131.972227 C149.171763,131.954261 148.576792,131.916333 148.025283,131.858444 C147.472775,131.800554 146.871311,131.812531 146.22089,131.894375 C145.571468,131.975221 144.98449,132.072037 144.459957,132.184822 C143.934425,132.297608 143.537279,132.432351 143.268518,132.589053 C142.99676,132.746752 142.754475,132.88998 142.541665,133.018735 C142.330852,133.148488 142.124037,133.274747 141.921217,133.397513 C141.716399,133.52028 141.568032,133.619092 141.476113,133.693949 C141.387193,133.767808 141.361216,133.784776 141.398183,133.744852 C141.43515,133.704928 141.414668,133.712414 141.336737,133.767309 C141.258807,133.823203 141.050992,134.058255 140.713292,134.472467 C140.375593,134.886678 140.003924,135.60531 139.598285,136.628362 C139.191647,137.650416 138.886918,138.447898 138.684099,139.020807 C138.481279,139.593717 138.3459,140.034877 138.27796,140.344288 C138.209022,140.653699 138.179548,140.771973 138.189539,140.699112 C138.19953,140.627249 138.175052,140.785947 138.116105,141.175206 C138.058156,141.563467 137.995712,141.912801 137.928771,142.223211 C137.86283,142.532621 137.863829,143.143958 137.931769,144.057219 C138.000707,144.969482 138.116105,145.740015 138.27796,146.368818 C138.439816,146.998619 138.609665,147.484693 138.787507,147.827042 C138.964349,148.16939 139.090237,148.41592 139.165171,148.566633 C139.239105,148.718345 139.322031,148.873549 139.413949,149.032247 C139.504868,149.190945 139.564315,149.289258 139.59229,149.327186 C139.617268,149.365113 139.732166,149.57172 139.936984,149.947005 C140.139803,150.322291 140.524461,150.849288 141.090956,151.527995 C141.658451,152.205705 142.107052,152.694275 142.436758,152.993705 C142.768463,153.293135 143.004753,153.503235 143.145627,153.624005 C143.285503,153.744775 143.417885,153.854067 143.542774,153.951881 C143.669661,154.049694 143.845504,154.171463 144.070304,154.317185 C144.293106,154.463906 144.503918,154.584177 144.702741,154.677998 C144.901564,154.772818 145.034945,154.833702 145.102885,154.860651 C145.171823,154.888597 145.289219,154.938502 145.455071,155.010365 C145.620924,155.082229 145.787775,155.147105 145.955626,155.204995 C146.123476,155.261887 146.360265,155.328759 146.665993,155.405613 C146.97272,155.481469 147.210009,155.531374 147.37786,155.555328 C147.547708,155.58028 147.708565,155.605732 147.86043,155.631683 C148.013294,155.657633 148.102215,155.66961 148.127193,155.667614 C148.15217,155.665618 148.167656,155.662624 148.173651,155.658631 C148.179646,155.653641 148.338005,155.682087 148.648728,155.743969 C148.960451,155.806849 149.403057,155.875219 149.976546,155.949078 C150.553033,156.022938 151.155996,156.01645 151.785436,155.929615 C152.413876,155.842781 152.909935,155.750956 153.273611,155.65414 C153.638286,155.556326 153.906548,155.456516 154.078395,155.35471 C154.250242,155.253902 154.501018,155.117162 154.830725,154.944491 C155.16243,154.77182 155.314294,154.681492 155.286319,154.673507 C155.259343,154.66652 155.250851,154.680993 155.260842,154.716924 C155.270833,154.752856 155.621021,154.470394 156.311407,153.869537 C157.00379,153.26968 157.53282,152.751666 157.898494,152.315496 C158.261171,151.880325 158.50995,151.560933 158.64483,151.35732 C158.77871,151.154706 158.879121,150.970557 158.946061,150.804872 C159.012003,150.639188 159.052966,150.537881 159.068952,150.500951 C159.083939,150.464021 159.099425,150.429088 159.115411,150.39615 C159.131396,150.363213 159.155875,150.307319 159.188845,150.22847 C159.221816,150.14962 159.236303,150.110195 159.232307,150.110195 C159.230308,150.111193 159.22831,150.115684 159.226312,150.123669 C159.226312,150.131654 159.263279,150.034339 159.337213,149.831725 C159.412147,149.629111 159.442619,149.544771 159.428632,149.578707 C159.414644,149.612642 159.411647,149.619629 159.41964,149.599667 C159.427633,149.578707 159.428632,149.580204 159.422637,149.604158 C159.416643,149.627114 159.454609,149.479396 159.536536,149.161002 C159.616465,148.84161 159.712379,148.523216 159.82428,148.20582 C159.935181,147.888425 160.030596,147.622431 160.110525,147.40784 C160.192452,147.193248 160.245904,147.022573 160.270882,146.895815 C160.296859,146.769056 160.308848,146.715658 160.30685,146.735619 C160.304852,146.754583 160.308848,146.743105 160.318839,146.701185 C160.327831,146.659265 160.339321,146.604369 160.353309,146.536499 C160.367296,146.46763 160.381284,146.39926 160.395271,146.331389 C160.40826,146.263518 160.448224,146.063898 160.515165,145.732529 C160.581106,145.40116 160.63256,145.1701 160.669527,145.039349 C160.706494,144.908598 160.737966,144.790822 160.763943,144.686022 C160.788921,144.582219 160.807404,144.510356 160.819394,144.470432 C160.828386,144.430508 160.830384,144.394577 160.825388,144.362637 C160.821392,144.3297 160.824889,144.363635 160.835879,144.464444 C160.847868,144.565252 160.877342,144.369624 160.9243,143.877561 C160.971259,143.386496 160.987744,143.023687 160.973756,142.789133 C160.960768,142.553582 160.955273,142.404366 160.957271,142.341485 C160.95827,142.278605 160.95827,142.248163 160.957271,142.250159 C160.955273,142.253154 160.950277,142.199256 160.942284,142.088467 C160.934291,141.977678 160.9243,141.866889 160.912311,141.7561 C160.901321,141.646309 160.896325,141.606884 160.897324,141.637825 C160.899323,141.669764 160.900322,141.665772 160.900322,141.625848 C160.900322,141.584926 160.892828,141.509569 160.877842,141.399778 C160.863854,141.289987 160.855861,141.238585 160.853863,141.245572 C160.853863,141.25156 160.851865,141.241579 160.847868,141.215629 C160.843872,141.189678 160.836379,141.149255 160.825388,141.09436 C160.815397,141.039464 160.815397,141.034973 160.825388,141.080885 C160.832382,141.126798 160.79042,140.903224 160.6995,140.410162 C160.607582,139.917101 160.54314,139.567267 160.506173,139.36066 C160.469206,139.154054 160.436734,138.978887 160.408759,138.835161 C160.381783,138.692433 160.369294,138.625061 160.371293,138.633046 C160.373291,138.642029 160.371293,138.632048 160.365298,138.603103 C160.359303,138.574158 160.346814,138.502794 160.327831,138.38901 C160.307849,138.276225 160.296859,138.216838 160.294861,138.21085 C160.292862,138.204861 160.292862,138.207855 160.294861,138.219832 C160.296859,138.23181 160.291863,138.204362 160.279874,138.137489 C160.268884,138.071615 160.238911,137.991767 160.189954,137.897945 C160.140998,137.805122 160.095039,137.742741 160.052077,137.710802" id="STROKE_ce37772b-1e99-4b6d-b5f6-863bbad3e893"></path>
                <path d="M38.996025,51.1833844 C38.7812162,51.1225003 38.5059612,51.1739025 38.1702601,51.3375908 C38.2092254,51.3765167 38.3311169,51.5736414 38.5359346,51.9289649 C38.738754,52.2832904 39.1059271,52.6161566 39.637454,52.9275637 C40.1659835,53.2379728 40.649553,53.4750215 41.0881625,53.6387098 C41.525773,53.8023982 41.8000288,53.9221701 41.9109301,53.9980257 C42.0218314,54.0728832 42.2746063,54.1422511 42.669255,54.2061295 C43.0649028,54.271006 43.400604,54.3054405 43.6763585,54.3094329 C43.9491157,54.3134252 44.276824,54.2934633 44.6594833,54.2495469 C45.0441409,54.2056305 45.379842,54.1627122 45.6665868,54.120792 C45.9553297,54.0788718 46.1601474,54.0464336 46.2810398,54.0234773 C46.4039304,54.0015191 46.6587036,53.9725742 47.0453594,53.9366426 C47.4320152,53.8997129 47.950054,53.7999029 48.5994759,53.6372127 C49.250896,53.4745224 49.865349,53.2589329 50.4428349,52.990444 C51.0233181,52.7209571 51.572829,52.4883999 52.0913673,52.2927723 C52.6109048,52.0971447 53.1434308,51.8171778 53.6889452,51.4528714 C54.2354587,51.089563 54.7175295,50.7402281 55.1351577,50.4048666 C55.5527859,50.0695051 55.8475236,49.7715723 56.0193706,49.5110683 C56.1912176,49.2515624 56.3425829,49.0160108 56.4734663,48.8044137 C56.6043498,48.5928165 56.7332351,48.3862099 56.8601221,48.1845937 C56.9870092,47.9829776 57.0749309,47.8287712 57.1238873,47.7219745 C57.1698464,47.6161759 57.1853326,47.5897263 57.170346,47.6426256 C57.1563584,47.6965229 57.1718446,47.6800543 57.2168046,47.5932196 C57.2637628,47.5063849 57.3436917,47.2024636 57.4565912,46.6814555 C57.5714889,46.1594493 57.5824791,45.3509885 57.4895618,44.2560731 C57.3956454,43.1601596 57.310721,42.3112757 57.2347886,41.7094216 C57.1588562,41.1065693 57.0814251,40.6509368 57.0024954,40.342524 C56.9245648,40.0351092 56.8985879,39.9158363 56.9245648,39.9847052 C56.9475443,40.0545722 56.8985879,39.902861 56.7776955,39.5295717 C56.6548049,39.1572805 56.5533952,38.8179266 56.4734663,38.51151 C56.3955357,38.2040952 56.1202808,37.6576356 55.6477015,36.8721311 C55.1771204,36.0866266 54.7285197,35.4488409 54.3018995,34.9587739 C53.8762784,34.4687069 53.507107,34.1098901 53.1943854,33.8823233 C52.8826629,33.6547566 52.6593617,33.4900701 52.5244818,33.3882639 C52.3896019,33.2854597 52.2452304,33.1836535 52.0913673,33.0828454 C51.9375043,32.9810392 51.8410901,32.919157 51.8021248,32.8971989 C51.7631595,32.8742426 51.5678334,32.7409962 51.2161465,32.4974599 C50.8654587,32.2539236 50.2849754,31.9564898 49.4746967,31.6051587 C48.6644181,31.2528295 48.0449695,31.0167789 47.6163511,30.8970069 C47.1847353,30.777235 46.8780083,30.6948917 46.6961702,30.6499773 C46.5173294,30.6050628 46.3499784,30.567135 46.1941172,30.5361939 C46.0352586,30.5042547 45.8244462,30.4733136 45.5616802,30.4433706 C45.297915,30.4134276 45.0556306,30.4004523 44.8348272,30.4044447 C44.6130247,30.4084371 44.4646567,30.4134276 44.3897234,30.4194162 C44.3177875,30.4244067 44.1918996,30.4323915 44.0120596,30.4433706 C43.8332189,30.4543497 43.6548776,30.4708184 43.4770359,30.4927765 C43.3011925,30.5157328 43.0594077,30.5616454 42.7516817,30.6305143 C42.4449547,30.7003813 42.2106633,30.7622635 42.0488074,30.8161609 C41.8849532,30.8710564 41.7285924,30.9204623 41.5797249,30.9643787 C41.4338548,31.0082951 41.3499295,31.0367409 41.3279491,31.0497162 C41.3049695,31.0636896 41.2914815,31.0741697 41.2874851,31.0811564 C41.2854869,31.088143 41.1311243,31.1330575 40.8243973,31.2158998 C40.5186695,31.2987421 40.0915497,31.4359808 39.543038,31.627616 C38.9965245,31.8202492 38.4620004,32.0962238 37.9394655,32.4555397 C37.4159316,32.8148556 37.0137896,33.118777 36.7330395,33.3673038 C36.4502912,33.6158307 36.2549651,33.8239345 36.1470612,33.9916152 C36.0381581,34.159296 35.874304,34.3943485 35.6554988,34.6967727 C35.4376927,34.9991969 35.3422776,35.1479138 35.3692536,35.1429233 C35.3982278,35.1379328 35.400226,35.1214642 35.3752482,35.0935174 C35.3512696,35.0645725 35.1649355,35.4732943 34.8162459,36.3196829 C34.4665572,37.1660715 34.225272,37.8652404 34.0923903,38.4171895 C33.9615068,38.9701368 33.8815779,39.3673805 33.8526037,39.6089206 C33.8256277,39.8504608 33.8196331,40.0600617 33.8346197,40.2377235 C33.8486073,40.4153852 33.8566002,40.5241781 33.8585984,40.5641021 C33.8625948,40.6040261 33.864593,40.6424529 33.864593,40.6793826 C33.8665913,40.7163123 33.8705877,40.7781945 33.8765824,40.8650292 C33.8805788,40.9518639 33.8845753,40.993784 33.8885717,40.9907897 C33.8905699,40.9877954 33.8905699,40.9823059 33.8885717,40.9743211 C33.8865735,40.9673344 33.8980633,41.0706377 33.923041,41.2842311 C33.9460206,41.4988225 33.9560117,41.5876534 33.9530143,41.5507237 C33.9490179,41.513794 33.9480188,41.5063083 33.950017,41.5282665 C33.9520152,41.5512228 33.9510161,41.5507237 33.9470197,41.5267693 C33.9430232,41.5018168 33.9759939,41.6500346 34.0459316,41.9714228 C34.1158694,42.293809 34.1723191,42.6221838 34.2152809,42.9565472 C34.2582426,43.2909106 34.2917128,43.5713767 34.3156915,43.7979453 C34.338671,44.025512 34.3666461,44.2016767 34.3996168,44.3264391 C34.4335865,44.4512016 34.4475741,44.5045999 34.4415794,44.4866341 C34.4355847,44.4686683 34.437583,44.4801465 34.4475741,44.5210686 C34.4565661,44.5629888 34.4710532,44.6173852 34.4910354,44.6842579 C34.5100185,44.7511306 34.528502,44.8190014 34.546486,44.8878702 C34.56447,44.955741 34.6174229,45.1523667 34.7053446,45.4777472 C34.7922672,45.8031277 34.8497161,46.0321916 34.8776912,46.1649389 C34.9026689,46.2976861 34.9281463,46.41646 34.9541231,46.5212605 C34.9791009,46.6270591 34.9945871,46.6999203 35.0005818,46.7398443 C35.0085747,46.7797683 35.0220627,46.8127056 35.0410458,46.8386562 C35.061028,46.8656049 35.0435435,46.8371591 34.9885924,46.7533187 C34.9316431,46.6694783 34.9920893,46.8581191 35.169931,47.3192412 C35.3497709,47.7803633 35.4981388,48.1127305 35.6150348,48.3163429 C35.7339289,48.5199552 35.806864,48.6502073 35.83384,48.7070989 C35.8618151,48.7649887 35.8758026,48.7919374 35.8758026,48.787945 C35.8758026,48.7839526 35.9037777,48.8298652 35.9597279,48.9256828 C36.014679,49.0215004 36.0726274,49.1153217 36.1335732,49.2071469 C36.1935198,49.2999702 36.2159998,49.3334065 36.2010131,49.3074559 C36.1830291,49.2805072 36.1830291,49.2854977 36.2010131,49.3224274 C36.2199962,49.358359 36.2609598,49.4217384 36.3239037,49.5125654 C36.3858486,49.6043906 36.416821,49.6473089 36.416821,49.6413203 C36.4148228,49.6363298 36.4208175,49.6443146 36.434805,49.6652747 C36.4497917,49.6872329 36.4742699,49.7196711 36.5082396,49.7625894 C36.5412103,49.8065058 36.5442076,49.8095001 36.5172316,49.7715723 C36.4872583,49.7336445 36.6236369,49.9152987 36.9263674,50.3165348 C37.2290979,50.7167728 37.4439067,51.0007322 37.5707937,51.1684129 C37.6976808,51.3360937 37.8045856,51.4783229 37.8915082,51.5951006 C37.97943,51.7118782 38.0208931,51.7667737 38.0158975,51.759787 C38.0119011,51.7537984 38.0183953,51.7622823 38.0353802,51.7852386 C38.0533642,51.8081949 38.097325,51.8655856 38.1672628,51.9574108 C38.2352023,52.049236 38.2701711,52.0976438 38.2721694,52.1026343 C38.2761658,52.1076248 38.2741676,52.1051295 38.2661747,52.0951485 C38.2611792,52.0851676 38.2791631,52.1076248 38.3201267,52.1625203 C38.3610902,52.2174158 38.4235346,52.2758046 38.5074599,52.3376868 C38.5933834,52.4005671 38.662322,52.4359996 38.7142758,52.4439844" id="STROKE_d8177847-2846-431a-b1a4-c4b9df770193"></path>
                <path d="M205.53527,18.1862066 C205.668151,18.0275087 205.730596,17.7734923 205.722603,17.4241574 C205.673647,17.4411251 205.457839,17.4675748 205.075179,17.5035064 C204.694518,17.5384399 204.269397,17.7205931 203.799815,18.049966 C203.329234,18.380337 202.938581,18.6997289 202.627858,19.0081417 C202.320132,19.3175527 202.112317,19.5046964 202.004413,19.5695729 C201.897508,19.6354474 201.739649,19.8240883 201.530834,20.1354954 C201.32202,20.4479006 201.163162,20.7193838 201.054259,20.9499448 C200.944357,21.181504 200.832956,21.4684576 200.720056,21.8108058 C200.609155,22.1531541 200.515239,22.4550792 200.438307,22.7165814 C200.362375,22.9780835 200.31092,23.1652272 200.283944,23.2780125 C200.256968,23.3897997 200.183534,23.6173664 200.063641,23.9607127 C199.944746,24.3030609 199.827851,24.7826479 199.712953,25.3994735 C199.600053,26.0153011 199.545602,26.6206486 199.549598,27.215516 C199.553595,27.8113816 199.538608,28.3683212 199.504638,28.886335 C199.471668,29.4053469 199.504139,29.966778 199.602052,30.5706283 C199.698965,31.1754768 199.809367,31.7204392 199.933257,32.2055157 C200.056147,32.6905922 200.195523,33.0568948 200.351384,33.3044236 C200.505247,33.5519523 200.646622,33.7725323 200.775507,33.9661637 C200.904392,34.1587969 201.03028,34.3484359 201.153171,34.5350805 C201.276061,34.7217252 201.373475,34.8559696 201.445411,34.9378138 C201.516347,35.019658 201.532333,35.0436124 201.493368,35.009677 C201.455402,34.9767397 201.463894,34.9962026 201.518845,35.0680658 C201.573796,35.139929 201.801094,35.3260746 202.200738,35.6265026 C202.601381,35.9269307 203.286272,36.2493169 204.255409,36.5936613 C205.223547,36.9370076 205.978875,37.1940183 206.521392,37.3646933 C207.065907,37.5353684 207.483535,37.6471556 207.774276,37.7000549 C208.067016,37.7539522 208.180415,37.7774076 208.114474,37.7704209 C208.045535,37.7644323 208.193403,37.781899 208.558079,37.8228211 C208.923753,37.8637432 209.251961,37.9096558 209.542702,37.9605589 C209.835442,38.011462 210.406933,37.9895038 211.257176,37.8946843 C212.110416,37.7998648 212.828777,37.6666185 213.412257,37.4949454 C213.995738,37.3222741 214.444339,37.1476066 214.758059,36.970943 C215.074778,36.7932812 215.301076,36.6675207 215.436955,36.5936613 C215.575831,36.5188038 215.718205,36.4354625 215.864075,36.3436373 C216.010944,36.250814 216.101863,36.1919261 216.136832,36.1669736 C216.171801,36.1420211 216.361132,36.0277387 216.704826,35.8241264 C217.04852,35.6215121 217.527594,35.2437314 218.142047,34.6907841 C218.7565,34.1378368 219.198606,33.7021663 219.468366,33.3837725 C219.737127,33.0653787 219.925459,32.838311 220.033363,32.7025694 C220.140268,32.5678259 220.237681,32.4395701 220.325603,32.3178019 C220.411527,32.1960338 220.518931,32.0288521 220.647816,31.8162568 C220.776702,31.6036616 220.882108,31.4025445 220.964035,31.2129055 C221.04796,31.0222685 221.100413,30.8950107 221.121395,30.8311324 C221.145373,30.767254 221.188335,30.656964 221.25028,30.5002623 C221.311226,30.3425625 221.365677,30.1843637 221.413635,30.0256659 C221.462591,29.8679661 221.517542,29.6448908 221.578488,29.35644 C221.640433,29.0679892 221.679398,28.8439158 221.695384,28.6842198 C221.713368,28.5245238 221.731851,28.3733117 221.750834,28.2305835 C221.770817,28.0878552 221.779809,28.0050129 221.77781,27.9820566 C221.773814,27.9581022 221.769817,27.9436298 221.765821,27.9386393 C221.759826,27.9326507 221.781307,27.7834348 221.830264,27.4909915 C221.87922,27.1985483 221.928177,26.7828398 221.977133,26.2438659 C222.02509,25.7038939 221.997615,25.1414647 221.894706,24.5565783 C221.792797,23.9716918 221.689389,23.5110688 221.584482,23.1747092 C221.480575,22.8393476 221.379165,22.5933161 221.280253,22.4366144 C221.178344,22.2789146 221.041466,22.0488526 220.869619,21.7464284 C220.697772,21.4440042 220.608351,21.3057674 220.601358,21.331718 C220.595363,21.3586667 220.608851,21.3661524 220.641822,21.3541752 C220.676791,21.3431961 220.401536,21.0253013 219.816057,20.4004909 C219.22858,19.7746824 218.725028,19.2990878 218.305402,18.9737073 C217.887773,18.6483268 217.581546,18.4262496 217.386719,18.3074757 C217.191893,18.1887018 217.01505,18.1013681 216.856192,18.0454745 C216.698332,17.9895809 216.601918,17.9551465 216.566949,17.9421712 C216.533979,17.9281978 216.501008,17.9147235 216.468037,17.9017482 C216.436066,17.8887729 216.383113,17.8678128 216.309179,17.8388679 C216.233246,17.809923 216.196279,17.7969477 216.198277,17.799942 C216.198277,17.8029363 216.202274,17.8049325 216.210267,17.8059306 C216.21826,17.8079268 216.126341,17.7774847 215.934512,17.7146045 C215.741684,17.6517242 215.661755,17.6252745 215.694726,17.6352555 C215.727696,17.6462346 215.73469,17.6487299 215.715707,17.6427413 C215.695725,17.6367527 215.696724,17.6362536 215.718704,17.6412441 C215.741684,17.6462346 215.601808,17.6162916 215.299078,17.5514152 C214.997346,17.4865387 214.696115,17.4076888 214.395382,17.3148655 C214.09465,17.2210441 213.842874,17.1401981 213.640055,17.0723273 C213.437235,17.0054546 213.276378,16.9620372 213.157484,16.9420753 C213.03859,16.9211152 212.986636,16.9116332 213.001623,16.9136294 C213.019607,16.9156256 213.010115,16.9126313 212.973148,16.9046465 C212.934183,16.8956636 212.882229,16.8866807 212.817287,16.8776978 C212.753344,16.8677168 212.687902,16.8572368 212.620962,16.8462577 C212.557019,16.8342805 212.369686,16.8028403 212.058962,16.7519372 C211.74724,16.7010342 211.528934,16.6611102 211.404045,16.6321653 C211.281155,16.6022223 211.169754,16.5777688 211.069843,16.5588049 C210.97193,16.5398411 210.903491,16.5253686 210.864526,16.5153876 C210.827558,16.5064047 210.794588,16.5049076 210.765614,16.5108962 C210.736639,16.5158867 210.768111,16.5113952 210.86003,16.4974218 C210.952947,16.4834484 210.76911,16.4624883 210.30852,16.4345415 C209.845932,16.4065947 209.504736,16.4036004 209.284932,16.4255586 C209.066126,16.4475168 208.92725,16.4584959 208.868303,16.4584959 C208.808356,16.4584959 208.780381,16.459494 208.784377,16.4614902 C208.788374,16.4624883 208.738418,16.4684769 208.634511,16.479456 C208.531602,16.4904351 208.428194,16.5034104 208.324287,16.5183819 C208.223377,16.5343515 208.18641,16.5403401 208.213386,16.5363477 C208.24236,16.5323553 208.238363,16.5313572 208.201396,16.5333534 C208.166427,16.5353496 208.096989,16.5448316 207.993082,16.5617992 C207.890173,16.5787669 207.841716,16.5877498 207.847711,16.5887479 C207.853706,16.589746 207.844714,16.5927403 207.820735,16.5977308 C207.797756,16.6017232 207.760789,16.609708 207.709834,16.6216852 C207.656881,16.6336624 207.652885,16.6351596 207.697845,16.6261767 C207.740806,16.6161957 207.532991,16.6621083 207.0744,16.7639144 C206.615808,16.8657206 206.291097,16.9375838 206.100267,16.979504 C205.906439,17.0224223 205.743584,17.0583539 205.611702,17.0872988 C205.47882,17.1172418 205.415376,17.1312152 205.421371,17.129219 C205.428365,17.1272228 205.418374,17.129219 205.391398,17.1352076 C205.36642,17.1411962 205.300978,17.1561676 205.195073,17.180122 C205.090166,17.2030783 205.034715,17.2150555 205.028721,17.2160536 C205.024724,17.2170517 205.028721,17.2165527 205.04071,17.2145565 C205.049702,17.2115622 205.023226,17.2170517 204.961281,17.2310251 C204.898337,17.2449985 204.825402,17.2759396 204.742475,17.3238484 C204.656552,17.3717572 204.598604,17.4166717 204.56863,17.4585919" id="STROKE_1467e663-55a4-46f5-b830-24ebf038f257"></path>
            </g>
        </g>
    </g>
</svg>