<svg xmlns="http://www.w3.org/2000/svg" width="90" height="70" viewBox="0 0 90 70">
    <defs>
        <filter id="474lgvje4a" color-interpolation-filters="auto">
            <feColorMatrix in="SourceGraphic" values="0 0 0 0 0.552941 0 0 0 0 0.439216 0 0 0 0 0.058824 0 0 0 1.000000 0"/>
        </filter>
    </defs>
    <g fill="none" fill-rule="evenodd" stroke-linecap="round" stroke-linejoin="round">
        <g>
            <g>
                <g filter="url(#474lgvje4a)" transform="translate(-1015.000000, -2339.000000) translate(44.000000, 1872.000000) translate(562.000000, 302.000000)">
                    <g>
                        <path stroke="#000" d="M40.935 29.097c-.066.029-.113.05-.138.064l-.055.031c-.012.008-.016.009-.01.004l-.05.027c-.04.024-.079.049-.12.076-.039.027-.055.04-.049.037.007-.002-.004.006-.032.027-.028.02-.042.03-.042.026 0-.003-.022.014-.066.052-.045.037-.112.097-.201.18-.089.082-.165.155-.229.219l-.186.188c-.06.062-.111.12-.154.174-.042.053-.068.086-.08.098l-.025.032c-.006.01-.005.011.004.005.008-.006-.003.013-.035.059l-.113.164c-.044.065-.078.117-.103.157-.024.04-.027.054-.009.04.02-.013-.003.032-.069.134-.066.102-.136.216-.21.34-.074.124-.137.234-.189.33l-.18.34c-.07.131-.124.235-.161.311-.038.077-.075.153-.111.23-.036.076-.07.153-.105.231-.034.079-.07.163-.105.253l-.094.234c-.027.066-.055.142-.082.23-.028.087-.05.148-.068.184-.017.036-.054.156-.11.36s-.098.409-.126.614c-.027.205-.048.364-.06.477l-.03.231c-.008.043-.022.132-.043.27-.022.138-.04.273-.056.407-.016.135-.027.238-.033.311l-.014.17c-.003.04-.006.077-.007.109-.002.033-.002.055 0 .066l.001.014c-.002-.002-.006.039-.015.124l-.038.385c-.017.171-.029.339-.036.502-.007.163-.009.322-.007.477.003.155.003.29.002.407-.002.116-.006.213-.011.29-.005.078-.005.173.001.285.007.112.02.242.04.39.018.148.042.289.071.423.03.134.066.262.108.383l.116.342.122.368c.047.138.088.254.124.349.035.094.06.153.072.179l.056.127.07.17.076.179c.029.065.043.099.045.1.002 0 .046.087.134.259l.226.44c.062.123.11.216.146.281l.077.14c.017.028.023.036.018.025-.006-.01-.006-.013-.003-.009l.001.004c0-.003.006.01.02.038.013.028.044.084.091.167.048.084.07.12.065.11-.005-.01 0-.006.012.014s.03.045.054.078c.024.032.06.085.107.159l.192.296c.08.125.15.233.21.323.061.09.123.178.186.263.063.085.122.159.177.221l.105.12.059.062.036.039c.001 0 0-.003-.006-.009l.042.045.092.095c.03.029.041.037.035.024-.006-.012.01.001.05.04.04.04.107.1.2.18l.377.317c.158.133.3.248.425.347.124.098.233.178.325.24l.263.18c.083.058.178.126.285.204.107.079.232.153.375.223s.275.127.397.171c.12.044.255.086.401.126.145.04.275.08.389.118.113.038.211.075.294.111.081.036.18.071.299.106.117.034.252.067.406.1.154.032.303.061.446.087.143.026.28.048.414.067.133.019.259.035.378.048.12.013.232.023.34.03.106.007.205.011.297.012.091 0 .194-.003.31-.01.115-.009.26-.018.435-.027.174-.009.35-.019.524-.03.176-.011.32-.024.432-.037l.198-.024c.022 0 .1-.015.237-.042.136-.027.274-.064.414-.11.14-.046.248-.085.324-.118.076-.033.13-.059.163-.077.032-.019.097-.053.193-.104s.185-.094.266-.129c.08-.035.177-.084.292-.149.116-.065.196-.114.241-.147.046-.033.076-.056.091-.069l.041-.033.096-.078c.051-.043.077-.066.078-.068 0-.002-.003 0-.008.008-.006.007 0 .003.018-.01.018-.015.048-.035.09-.063.043-.028.065-.044.069-.047l-.013.018c-.012.017.076-.031.263-.144.187-.113.363-.233.53-.359l.375-.282.268-.204c.095-.074.15-.12.166-.135.015-.015.035-.033.061-.053.025-.02.072-.062.14-.123.068-.062.128-.126.18-.192.051-.066.137-.164.258-.294.121-.13.209-.223.263-.278l.129-.136c.032-.035.083-.098.152-.189.068-.09.122-.166.162-.225.04-.06.072-.1.097-.12.025-.018.062-.065.112-.138.05-.073.115-.178.196-.313.081-.136.153-.26.215-.376.062-.115.124-.243.188-.384.064-.141.123-.279.179-.412l.113-.282c.022-.054.041-.106.059-.154.017-.049.037-.101.06-.158l.063-.158.06-.143.044-.107c.01-.024.012-.033.01-.027-.005.006 0-.003.013-.027.013-.025.046-.111.099-.26.052-.15.109-.32.17-.513.06-.192.107-.335.138-.429.032-.095.06-.162.084-.202.026-.04.051-.111.077-.211.027-.1.057-.237.092-.41.033-.172.063-.334.09-.486.026-.152.048-.294.066-.427.02-.132.037-.266.054-.401.015-.136.028-.273.039-.413.011-.139.021-.29.03-.452.008-.163.013-.338.015-.524.002-.187.002-.352.001-.496-.002-.144-.006-.293-.012-.447-.004-.153-.012-.283-.021-.39-.01-.106-.019-.18-.025-.223-.005-.042-.01-.055-.014-.038s-.01-.005-.018-.066l-.034-.336c-.016-.162-.045-.319-.088-.471-.043-.152-.088-.277-.134-.377-.046-.099-.078-.17-.096-.214l-.06-.15-.048-.109c-.009-.017-.012-.022-.01-.015l-.007-.016-.095-.21c-.056-.123-.087-.19-.094-.2l-.102-.202c-.062-.125-.134-.25-.216-.376-.082-.127-.154-.236-.215-.328-.061-.092-.11-.177-.146-.254-.035-.077-.049-.102-.04-.075.008.028 0 .008-.022-.06-.023-.069-.075-.165-.157-.29-.081-.123-.149-.224-.202-.3-.053-.077-.097-.134-.133-.17l-.047-.048.005.005-.007-.008c-.004-.005-.023-.024-.059-.057l-.12-.114c-.044-.043-.085-.084-.122-.124l-.05-.055.006.006-.015-.015c-.01-.008-.05-.05-.12-.126l-.175-.19-.114-.124c-.03-.031-.067-.072-.111-.123l-.136-.15-.097-.102c-.017-.02-.043-.046-.077-.08l-.06-.064c-.006-.007-.024-.025-.055-.054l-.095-.088c-.033-.03-.05-.045-.052-.045l.016.008c.014.006-.057-.049-.214-.163-.155-.116-.277-.2-.363-.251-.086-.053-.179-.128-.278-.225-.1-.098-.187-.18-.264-.247-.076-.066-.157-.134-.244-.203-.086-.069-.162-.126-.226-.171-.065-.045-.129-.084-.192-.117-.063-.032-.131-.066-.205-.1-.074-.034-.125-.057-.153-.068-.029-.012-.078-.029-.147-.051-.069-.023-.151-.047-.246-.073l-.365-.094-.389-.1c-.113-.03-.23-.06-.35-.093l-.301-.081c-.082-.021-.11-.031-.085-.03.026.002.012-.006-.04-.023l-.26-.08c-.123-.036-.246-.066-.371-.09-.125-.025-.25-.044-.38-.057-.127-.012-.24-.022-.34-.028-.099-.006-.2-.007-.303-.003l-.237.006c-.055.002-.121.002-.199 0-.078 0-.18.007-.307.019-.126.012-.243.027-.352.044-.11.017-.187.027-.231.031-.045.005-.101.013-.17.023l-.129.02-.135.024-.19.036c-.054.01-.083.017-.087.018l-.037.008-.074.015c-.029.005-.039.004-.03-.004.01-.008-.014-.005-.071.01l-.168.052-.127.042-.04.012c.002-.002-.002-.002-.01.001l-.092.028c-.052.016-.082.026-.091.03-.01.002-.012.001-.007-.004.006-.005-.01-.001-.049.012l-.135.046-.171.06-.095.034.006-.002c.004-.002-.01 0-.043.008-.032.008-.122.043-.27.104-.148.061-.26.11-.334.148-.074.038-.131.069-.171.093-.04.025-.06.036-.062.035 0-.001 0-.002.002-.001.002 0 .003-.002.005-.006s-.015.006-.05.03l-.098.064c-.03.02-.042.028-.04.025.004-.003.002-.004-.006-.002l.011-.003c.016-.005-.061.04-.231.134l-.396.217c-.095.051-.16.087-.193.108l-.156.095-.085.052-.04.025-.048.03c.006-.004.007-.004.002.001s-.02.013-.044.024c-.024.011-.056.03-.096.055-.039.025-.092.065-.159.12l-.177.142-.083.066c-.003.004.002.002.017-.004.015-.007-.003.008-.053.044-.05.035-.077.053-.08.052M48.191.555c.088-.018.177-.09.268-.217-.02-.008-.1-.06-.236-.157-.138-.096-.33-.153-.575-.17-.246-.017-.462-.014-.648.007-.186.022-.306.03-.36.022-.054-.007-.157.015-.31.067-.153.05-.279.102-.377.154-.099.05-.213.121-.342.211-.129.09-.241.171-.336.242-.096.071-.164.123-.204.156-.04.032-.125.092-.256.18-.132.088-.3.225-.505.411-.202.187-.383.388-.541.6-.159.214-.313.408-.464.583-.15.174-.29.383-.42.626s-.24.468-.329.676c-.088.208-.14.378-.154.51-.015.133-.027.252-.036.358l-.026.31c-.009.101-.013.177-.011.227.002.05.001.063-.002.04-.004-.024-.007-.014-.008.027 0 .042.025.173.078.394.053.22.195.53.427.93.231.399.415.706.551.921.135.216.245.375.328.478.083.102.115.143.094.121l.135.145c.11.119.208.229.292.33.084.102.281.257.59.467.311.21.587.366.829.471.24.106.438.172.59.199.152.026.261.046.328.059.066.013.136.024.21.033.074.009.12.013.138.014.018.001.112.014.28.04.17.026.431.028.785.007.354-.02.618-.05.794-.087.176-.037.3-.064.372-.081.072-.018.139-.035.2-.054.062-.018.143-.047.244-.086.1-.039.19-.08.268-.125.078-.044.13-.074.155-.09.025-.017.068-.044.13-.082.064-.039.124-.079.183-.121.06-.043.138-.107.236-.192.097-.086.17-.155.219-.206.047-.052.094-.1.14-.146.045-.045.07-.072.075-.082.005-.009.008-.015.008-.019 0-.003.047-.05.141-.14.095-.09.223-.224.384-.402.16-.178.302-.386.424-.623.123-.238.212-.432.268-.58.056-.15.088-.266.096-.351.009-.085.025-.205.05-.362.024-.157.031-.231.022-.224-.01.007-.008.014.005.02.015.006.008-.186-.02-.576-.028-.39-.068-.703-.12-.938-.053-.236-.096-.403-.13-.5-.033-.098-.068-.18-.105-.244l-.068-.12-.023-.042-.038-.07-.025-.045c-.001.001 0 .003.002.007l-.068-.112-.059-.097c.009.014.01.016.004.009-.004-.008-.003-.008.003 0 .005.009-.034-.042-.117-.151-.083-.11-.162-.223-.238-.342-.076-.119-.139-.22-.188-.301-.05-.083-.091-.144-.125-.186-.035-.04-.05-.058-.044-.053.006.006.003.002-.008-.012-.01-.014-.026-.032-.044-.054l-.058-.067-.163-.194c-.09-.107-.152-.183-.185-.23-.033-.045-.064-.085-.092-.12l-.057-.074c-.01-.014-.021-.025-.033-.03l.035.021c.035.022-.02-.038-.167-.18-.148-.141-.26-.24-.34-.294-.078-.055-.128-.09-.149-.108L49.74.87c.001.002-.017-.01-.054-.036-.037-.026-.075-.05-.114-.075L49.53.733c.01.007.01.005-.004-.005-.013-.01-.039-.026-.077-.05-.04-.023-.058-.034-.057-.031l-.011-.005-.044-.024c-.02-.01-.022-.01-.005-.001l-.246-.13c-.18-.095-.308-.162-.383-.2l-.192-.101-.074-.04c.003.003 0 0-.01-.005l-.08-.04-.064-.035c-.002-.001-.002 0 .002.002.005.002-.005-.004-.029-.016-.024-.013-.057-.023-.1-.03-.041-.008-.073-.008-.094 0M80.147 39.816c.09-.003.19-.059.299-.168-.02-.01-.09-.075-.213-.192s-.305-.204-.548-.26c-.244-.057-.46-.09-.65-.1-.19-.008-.31-.021-.362-.037-.053-.016-.16-.011-.32.014s-.294.055-.4.088c-.106.035-.23.085-.373.152-.143.067-.267.127-.373.181-.106.054-.181.094-.226.118-.044.025-.138.07-.283.135-.145.064-.333.17-.564.32-.231.15-.442.315-.631.498-.19.183-.373.348-.55.493-.176.146-.347.327-.512.544-.165.216-.308.419-.428.608s-.197.347-.23.474c-.035.127-.064.241-.089.343l-.073.3c-.024.097-.038.17-.043.219-.006.048-.009.06-.01.038 0-.023-.003-.015-.01.026-.007.04 0 .173.019.397.02.225.116.551.288.98.173.428.312.759.415.992.104.233.19.406.26.52.067.114.092.159.074.134l.112.164c.095.134.176.257.245.37.07.114.243.299.522.554.279.256.53.454.756.597.226.142.413.239.561.29.15.05.256.088.32.112.064.024.132.046.205.066l.135.037c.018.005.11.033.276.086.165.052.426.098.783.135.357.038.626.053.807.045.181-.008.309-.014.383-.019.074-.005.144-.011.208-.019.065-.008.15-.022.256-.044.106-.022.202-.048.286-.078.085-.03.14-.052.167-.064l.145-.058c.068-.028.134-.057.2-.089.065-.031.152-.081.263-.149.11-.067.194-.123.25-.166l.16-.12c.053-.036.082-.058.088-.066.007-.008.01-.014.011-.017 0-.004.055-.042.162-.114.108-.073.256-.184.443-.331.188-.148.36-.328.52-.54.156-.212.274-.387.352-.523.077-.137.126-.246.148-.328.02-.08.055-.196.102-.346.046-.149.065-.22.055-.215-.012.005-.01.012.003.02.013.008.035-.18.065-.567.03-.386.036-.698.018-.937-.018-.239-.037-.409-.056-.51-.018-.1-.041-.186-.069-.255-.028-.07-.045-.112-.05-.128l-.017-.045-.027-.074c-.012-.035-.019-.051-.02-.05 0 .002 0 .004.002.007l-.051-.12-.046-.104.005.01c-.004-.009-.004-.008.001 0l-.093-.167c-.067-.12-.13-.245-.188-.373-.057-.13-.105-.238-.142-.326-.038-.088-.071-.155-.1-.201l-.036-.06c.004.005.002.001-.007-.014l-.035-.06-.048-.074-.134-.217c-.074-.12-.125-.204-.15-.254l-.074-.134-.047-.081c-.009-.016-.018-.028-.029-.036l.033.028c.033.027-.014-.041-.14-.203-.126-.163-.225-.277-.296-.344-.07-.067-.115-.11-.132-.13l-.026-.027c0 .002-.017-.013-.05-.043-.033-.032-.067-.062-.102-.092-.035-.03-.048-.04-.04-.032.01.009.01.007-.002-.005-.01-.012-.034-.032-.07-.062-.035-.029-.052-.042-.051-.04 0 .003-.003 0-.01-.006l-.04-.03c-.019-.013-.02-.014-.004-.003l-.227-.166-.355-.26-.176-.13-.068-.05-.012-.008-.071-.053-.06-.043.003.002-.028-.02c-.022-.017-.053-.032-.093-.046-.04-.014-.072-.02-.096-.017M5.46 56.406c-.067.053-.117.157-.152.313.02-.002.102.014.25.047.146.033.325.007.536-.079.211-.086.391-.178.54-.275.15-.097.248-.154.294-.169.047-.015.126-.078.239-.19.111-.111.2-.21.266-.299.066-.088.138-.201.216-.338.078-.138.146-.26.203-.365.057-.106.097-.182.12-.228.022-.047.074-.138.155-.274.082-.136.177-.334.286-.592.11-.258.195-.52.258-.783.063-.264.129-.509.197-.733.069-.225.118-.477.147-.757.028-.28.046-.535.052-.766.006-.23-.006-.41-.038-.54-.032-.129-.062-.244-.089-.346l-.077-.3c-.026-.098-.048-.17-.067-.215-.018-.046-.022-.059-.01-.039.01.02.01.01-.003-.028-.012-.04-.078-.15-.195-.334-.117-.184-.338-.414-.663-.69-.325-.276-.58-.486-.765-.63-.185-.145-.329-.248-.432-.309-.103-.06-.142-.086-.118-.074.025.011-.029-.015-.16-.08-.132-.064-.25-.127-.354-.187-.104-.06-.32-.123-.647-.19-.33-.066-.612-.098-.848-.096-.237.001-.423.021-.56.06-.137.038-.235.065-.295.08-.059.015-.121.034-.186.056-.064.022-.104.036-.12.043-.016.006-.1.033-.25.079s-.37.152-.659.318c-.29.166-.502.302-.637.41-.135.106-.23.183-.285.229-.054.046-.104.09-.15.133-.046.042-.105.102-.176.18-.07.078-.132.153-.183.227-.05.074-.084.123-.1.149l-.083.13c-.04.062-.078.125-.113.188-.035.064-.08.156-.133.276-.054.12-.093.214-.116.282l-.07.194c-.022.06-.034.096-.036.107v.02c.001.004-.023.067-.073.19-.05.124-.114.301-.19.534-.077.232-.127.484-.151.755-.025.272-.037.49-.035.652.003.161.014.283.035.365.02.083.047.202.078.357.031.157.05.23.056.219.006-.011.002-.017-.012-.017s.055.177.206.529c.151.351.288.626.41.823.122.198.213.335.273.412.059.078.115.139.168.183.053.045.085.072.096.083l.033.03.054.05.037.031-.005-.005.093.076.082.065c-.012-.009-.014-.01-.006-.005.006.005.006.005-.002 0l.147.093c.106.067.21.14.311.22l.258.202c.068.056.124.096.166.12l.054.033c-.006-.003-.002 0 .011.008l.054.031.07.04.201.113c.11.062.188.107.23.136.044.03.082.054.117.075l.072.045c.013.01.026.014.038.016.01 0-.002-.001-.038-.007s.03.027.2.099c.169.07.296.115.381.134.084.018.137.03.16.038l.03.01c0-.001.02.002.06.01.04.009.08.016.119.023l.043.006c-.01-.002-.01-.001.005.003.014.004.041.008.082.014.04.006.059.008.057.007h.012l.043.003h.004c-.017 0 .066.005.247.019l.39.029.194.014.073.005.013.001.078.006.066.004h-.003l.03.002c.024.002.055-.002.093-.012.037-.01.063-.023.078-.039M62.796 60.879c.064.061.17.093.317.095-.007-.022-.014-.118-.023-.287-.009-.17-.08-.362-.211-.576-.132-.215-.26-.393-.386-.535-.124-.142-.2-.237-.224-.286-.026-.049-.103-.121-.23-.219-.128-.097-.24-.172-.336-.224-.096-.053-.215-.106-.356-.161-.142-.056-.267-.102-.376-.14-.109-.037-.187-.063-.233-.077-.047-.015-.141-.05-.283-.11-.142-.057-.341-.117-.599-.178-.257-.06-.511-.094-.762-.102-.25-.008-.484-.023-.7-.048-.217-.024-.453-.019-.709.015-.255.034-.485.074-.691.121-.206.047-.362.103-.468.168-.107.065-.202.125-.285.178l-.244.158c-.08.05-.138.092-.175.123-.034.03-.045.038-.03.02.014-.016.006-.013-.024.01s-.112.121-.245.293-.279.47-.438.895c-.16.425-.28.756-.359.994-.08.238-.132.421-.16.55-.026.128-.038.177-.034.147l-.029.198c-.022.161-.047.306-.073.435-.026.129-.026.383 0 .762.028.379.073.699.137.96.063.261.13.463.2.605.07.143.119.245.148.308.03.063.062.127.098.193.036.066.059.107.07.123.01.015.055.101.135.257.08.156.23.375.453.657.223.281.4.484.529.608.13.125.223.212.278.262.055.05.107.096.156.136.05.04.119.091.207.152.087.06.17.11.248.15.078.04.13.064.157.076l.139.062c.065.03.13.057.196.08.066.024.159.052.279.084.12.031.214.052.28.062.066.01.13.021.189.032.06.01.095.016.105.015.01-.001.016-.002.018-.004.002-.002.064.01.186.036.123.026.297.054.522.085.226.03.463.028.71-.008.247-.036.441-.075.584-.115.143-.04.249-.082.316-.124.068-.042.166-.099.295-.17.13-.072.19-.11.18-.113-.011-.003-.015.003-.01.018.003.015.14-.102.412-.352.272-.25.48-.464.623-.645.142-.181.24-.314.293-.398.052-.084.092-.161.118-.23l.048-.126.019-.044.028-.07c.013-.032.02-.048.018-.048l-.003.005c0 .004.015-.037.044-.12.03-.085.041-.12.036-.106l-.004.009c.003-.009.004-.008.001.002l.045-.184c.031-.133.069-.265.113-.397.043-.132.08-.242.112-.332.032-.089.053-.16.063-.212.01-.053.015-.075.014-.067 0 .008.001.003.005-.014l.014-.068.016-.086.047-.248c.026-.138.046-.234.06-.288.015-.055.028-.104.038-.147l.022-.09c.003-.016.004-.031.002-.044l.004.042c.005.042.016-.04.035-.244.018-.204.025-.354.02-.452-.006-.098-.008-.16-.007-.186v-.038c-.001.002-.003-.02-.006-.067l-.012-.138c-.004-.045-.006-.062-.006-.049.001.013.001.012.001-.005s-.003-.048-.008-.094c-.006-.045-.01-.067-.01-.064l-.002-.012-.01-.05c-.003-.024-.003-.025 0-.006l-.048-.279c-.037-.205-.062-.35-.076-.436l-.039-.218-.014-.084-.003-.012-.014-.09-.013-.073v.003l-.006-.034c-.005-.027-.016-.06-.036-.1-.019-.038-.037-.064-.054-.077M16.082 22.117c-.082-.026-.187-.004-.315.064.015.017.061.1.14.249.077.149.217.288.42.42.203.13.387.23.555.298.167.069.272.119.315.15.042.032.139.061.29.088.15.027.279.042.384.044.105.001.23-.007.376-.026.147-.018.275-.036.385-.054.11-.017.189-.03.235-.04.047-.01.144-.022.292-.037.148-.016.346-.057.594-.126.249-.068.484-.159.705-.271.222-.114.432-.211.63-.294.198-.082.402-.2.61-.352.21-.153.394-.3.553-.44.16-.141.272-.266.338-.376.066-.109.124-.208.174-.297l.147-.26c.049-.085.083-.15.101-.194.018-.045.024-.056.018-.034-.005.023 0 .016.018-.02.018-.037.048-.165.091-.383.044-.22.049-.56.013-1.02-.036-.46-.068-.816-.097-1.069-.03-.253-.059-.444-.09-.574-.029-.13-.039-.18-.029-.15l-.056-.191c-.047-.157-.086-.3-.116-.428-.03-.13-.135-.359-.316-.689-.18-.33-.351-.597-.514-.803-.163-.206-.304-.357-.424-.452l-.256-.208c-.051-.043-.106-.086-.165-.128l-.11-.078c-.016-.01-.09-.066-.225-.168-.134-.102-.356-.227-.665-.375-.31-.148-.547-.247-.71-.297-.166-.05-.283-.085-.352-.104-.069-.019-.133-.035-.192-.048-.061-.013-.142-.026-.242-.039-.1-.013-.193-.018-.278-.016-.085.001-.141.003-.17.006l-.144.01c-.069.005-.137.012-.205.02-.067.01-.16.03-.277.059-.117.029-.207.055-.269.078-.062.023-.122.043-.18.062-.055.018-.087.03-.095.036-.01.006-.014.01-.016.013 0 .003-.06.022-.177.057-.117.034-.28.092-.49.172-.208.081-.413.197-.612.348-.2.151-.354.279-.462.383-.108.105-.182.192-.224.262-.041.07-.104.17-.187.297-.084.127-.12.19-.11.187.011-.002.012-.009.002-.02-.009-.013-.08.159-.213.514-.134.356-.226.65-.277.881-.05.233-.08.4-.092.5-.01.102-.012.19-.006.265l.009.137.002.049.005.077c.001.037.003.055.004.053v-.007l.013.13.012.112-.001-.009c0 .01 0 .01-.002 0-.001-.011.012.051.038.186.027.136.049.274.065.414.016.14.03.258.038.353.01.096.02.17.032.222l.017.068c-.003-.008-.002-.003.002.014.003.018.009.04.016.069l.022.085.06.248c.034.137.056.233.066.289l.03.15c.009.044.015.074.017.091.003.017.008.03.016.042.007.01 0-.001-.02-.036-.022-.035 0 .044.069.237.069.194.125.334.17.42.045.085.073.14.084.163.01.025.016.036.016.034l.032.058c.02.04.043.08.066.118.023.04.032.053.026.043-.007-.012-.007-.01 0 .006.007.015.023.042.047.08s.036.056.036.054l.006.01.028.04c.013.02.014.02.004.005l.156.228.247.358.122.18.048.069.007.01.05.073c.027.038.04.059.04.06l-.002-.003.021.029c.016.023.04.047.072.073.032.027.059.042.079.045M81.028 8.544c.053-.065.079-.17.075-.315-.02.007-.106.018-.26.033-.154.014-.325.09-.514.226-.19.137-.347.269-.472.396-.124.128-.208.206-.252.233-.043.027-.106.105-.19.234-.085.129-.149.241-.192.337-.045.095-.09.214-.135.356-.045.141-.083.266-.114.374-.03.109-.051.186-.062.233-.01.046-.04.14-.089.282-.048.142-.095.34-.14.595-.046.255-.068.505-.067.751.002.247-.004.477-.018.692-.013.214 0 .447.04.696.038.25.083.476.133.677.05.2.106.352.168.454.062.103.12.194.171.274l.152.235c.05.078.09.133.118.167.029.034.035.044.02.03-.016-.014-.012-.006.01.024s.113.107.274.231c.162.124.438.258.828.4.39.142.695.248.913.319.22.07.388.117.505.139.118.022.164.032.137.029-.028-.003.032.005.179.022.147.016.28.035.397.057.117.02.348.011.69-.028.344-.039.633-.094.869-.165.235-.072.415-.144.542-.217l.273-.156c.056-.03.114-.065.172-.103l.11-.073c.014-.01.09-.058.23-.142.138-.084.33-.24.578-.47.248-.228.426-.408.535-.54.108-.132.184-.225.227-.282.043-.055.083-.108.118-.159.035-.05.078-.12.13-.207.052-.088.094-.171.127-.25.034-.079.055-.131.064-.158l.052-.137c.024-.065.046-.13.065-.196.02-.065.042-.158.067-.277.025-.12.04-.212.047-.278l.022-.188c.008-.059.012-.093.011-.102-.002-.01-.003-.016-.005-.018-.002-.003.006-.065.026-.186.02-.12.04-.292.06-.515.019-.224.008-.456-.034-.698-.04-.242-.083-.433-.125-.572-.042-.139-.083-.24-.122-.305-.041-.066-.097-.16-.166-.286-.07-.125-.105-.182-.108-.172-.002.012.003.015.016.01.014-.005-.096-.136-.332-.395-.237-.259-.44-.455-.609-.59-.168-.135-.292-.226-.37-.276-.079-.049-.15-.085-.214-.108l-.116-.043-.04-.016-.064-.026-.045-.017c0 .002.002.003.005.003l-.111-.038-.097-.033.009.003c-.008-.002-.008-.002 0 0l-.168-.037c-.122-.027-.243-.06-.364-.098-.121-.039-.223-.072-.305-.1-.081-.028-.146-.046-.194-.054l-.063-.012c.007 0 .004 0-.011-.004-.016-.004-.037-.007-.063-.011l-.08-.013-.226-.04c-.125-.02-.213-.037-.264-.049-.049-.012-.094-.022-.134-.03l-.083-.018c-.015-.004-.028-.004-.04-.002l.038-.005c.038-.006-.036-.015-.222-.026-.186-.012-.324-.013-.412-.004-.088.009-.144.014-.168.014h-.034c.002.001-.019.004-.06.008l-.125.016-.045.008c.012-.002.01-.002-.005-.001-.014 0-.042.004-.084.011l-.058.011c.002 0-.002.002-.011.004l-.045.01c-.021.005-.023.006-.005.002l-.251.057-.392.09-.197.044-.077.017-.012.002-.08.02-.066.014h.005c.003-.002-.007 0-.032.006-.026.006-.055.019-.088.039-.035.02-.058.038-.07.055" transform="translate(410.095057, 166.239669)"/>
                    </g>
                </g>
            </g>
        </g>
    </g>
</svg>
