<svg xmlns="http://www.w3.org/2000/svg" width="42" height="47" viewBox="0 0 42 47">
    <defs>
        <filter id="2mta0r702a" color-interpolation-filters="auto">
            <feColorMatrix in="SourceGraphic" values="0 0 0 0 0.129412 0 0 0 0 0.486275 0 0 0 0 0.690196 0 0 0 1.000000 0"/>
        </filter>
    </defs>
    <g fill="none" fill-rule="evenodd" stroke-linecap="round" stroke-linejoin="round">
        <g>
            <g>
                <g>
                    <g>
                        <path stroke="#000" stroke-width=".5" d="M.052 16.21l.19.002.183.002.179.003.173.002.168.002.161.002.157.002.188.003.214.002.185.003.176.002.193.002.204.003.208.002.208.003.208.002.206.003.194.002.167.002.146.001.135.002.134.001.147.002.16.001.17.002.182.002.195.002.2.002.2.002.196.002.197.002.196.001.195.002.194.002.192.002.19.001.19.002.187.002.188.001.185.001.184.002.183.001.18.002h.18l.179.002.176.001.176.001.174.001.17.001.167.001.163.001h.161l.158.002h.155l.15.001.153.001h.156l.162.001.167.001.171.001h.176l.18.001h.186l.187.001h.186l.187.001H13.143l.173-.001h.17l.166-.001.209-.002M26.342 30.317c.003.183.006.403.007.66l.005.765.006.754.006.656.004.47.003.372.003.352.003.39.002.462v1.394l-.004.385-.006.368c-.003.126-.006.255-.011.387l-.014.365-.015.373c-.006.138-.009.263-.008.376l.001.154V39.339l-.003.21-.003.204c0 .075-.002.146-.003.214l-.004.24c-.002.093-.002.19-.003.29l-.002.305v.31l-.001.298-.001.275-.001.278-.004.31-.002.293-.003.282-.001.246-.001.128v.133l-.001.013v.098.068l-.001.117v.576l.001.229c0 .082 0 .16.002.233l.002.254.003.355.005.369M26.31 45.703l-1.223.012c-.451.003-.827.006-1.128.006l-.756.001-.609-.001c-.203 0-.407-.002-.612-.004-.204 0-.405-.003-.601-.004l-.564-.006-.507-.005-.456-.004-.37-.003-.247-.002h-.194l-.192-.001h-.193l-.197.001-.205.002-.215.002-.224.003-.246.003-.238.004c-.073 0-.134.002-.185.003l-.156.002-.164.003-.171.002-.18.003-.192.004-.204.003-.215.004-.226.004-.237.004-.25.004-.26.005-.272.005-.282.005-.255.004-.186.003-.152.003-.154.002-.157.002-.16.003-.162.002-.164.003-.167.003-.17.002-.173.003-.174.002-.178.003-.18.002-.182.003-.185.003-.188.002-.19.003-.193.003-.196.002-.198.003-.201.003-.204.003-.206.002-.21.003-.211.003-.214.002-.217.003-.219.003-.22.003c-.075 0-.15.002-.224.003l-.226.003-.228.002-.23.003-.233.003-.235.003c-.08 0-.158.002-.238.003l-.24.002-.242.003-.244.003-.247.003-.25.003-.25.003-.258.003-.268.003-.276.003-.252.003-.184.002-.15.001-.152.002-.154.002-.158.001-.16.002-.164.002-.164.002-.167.001-.17.002-.173.002-.175.002-.177.002-.18.001-.183.002-.185.002-.187.002-.19.002-.193.002-.195.002-.197.002-.2.002-.203.002-.205.002M.241 45.868c-.002-.265-.004-.47-.007-.612l-.01-.379-.01-.349c-.005-.123-.01-.242-.013-.358l-.011-.336-.01-.354-.013-.41c-.005-.145-.01-.294-.013-.449-.004-.154-.006-.313-.008-.477l-.003-.46-.001-.393c0-.12.001-.238.003-.354.003-.116.007-.23.012-.342.005-.112.008-.218.01-.318s.002-.214 0-.343c-.003-.13-.003-.255 0-.375v-.32c-.003-.094-.008-.192-.014-.296-.006-.104-.01-.22-.012-.352l-.008-.365L.127 38c-.002-.038-.002-.121-.003-.249v-.558c0-.244 0-.496.002-.755l.002-.8c0-.273 0-.538.002-.794l.001-.675.001-.616.001-.652v-.816-1.108c0-.412-.002-.85-.004-1.314L.12 28.19c-.003-.519-.008-1.03-.015-1.535-.007-.505-.016-.998-.027-1.478s-.019-.907-.022-1.28c-.003-.373-.003-.688 0-.943.004-.256.005-.634.003-1.135s-.008-1.134-.016-1.9l-.025-2.147L0 16.382M14.112.213l.19.002.184.003.178.002.173.003c.057 0 .113 0 .168.002l.162.002.156.002.188.002.215.003.184.002.176.003.193.002.205.002.208.003.208.002c.07 0 .139.002.208.003l.206.002.193.002.167.002.147.002.134.001.134.002.147.001.16.002.17.002.183.002c.063 0 .127 0 .194.002.067 0 .134 0 .2.002l.2.001.197.002.196.002.196.002.195.002.194.002.192.001.19.002.19.001.187.002c.063 0 .125 0 .188.002l.186.001.183.001.183.002.181.001.18.001.178.001.177.002h.176l.173.002h.17l.168.002h.163l.161.001.158.001.155.001.15.001h.152l.157.001.162.001h.166l.172.001.176.001h.18l.186.001h.187l.186.001H27.376l.17-.001.167-.001.162-.001.158-.001.154-.002.151-.001.184-.003.249-.003.239-.004.18-.003.175-.004.182-.004.17-.005c.054 0 .105-.002.153-.004l.163-.005.23-.008.23-.008.167-.008.158-.007.18-.009.203-.011.203-.012.18-.012.175-.014c.061-.005.125-.01.19-.017l.19-.019c.06-.006.117-.014.172-.021l.16-.021.191-.022c.075-.009.157-.016.247-.023.09-.007.173-.013.247-.017l.188-.01.157-.006.155-.006.176-.006.219-.007.232-.005c.078-.002.156-.003.235-.003h.207c.06 0 .12.002.182.004.062.003.095.004.102.006.006 0 .04.008.102.02.062.011.125.022.189.031.063.01.137.02.221.03l.22.027c.064.007.126.012.187.016l.133.01c.029.003.075.005.14.006l.188.004.207.003c.078 0 .151.002.222.003l.25.003.3.002c.103 0 .198.002.286.004.088.002.185.007.29.014.105.008.196.012.274.014l.234.007c.08.002.12.002.122 0L38.577.2l.143.002c.095.002.197.002.306.002.11 0 .245-.002.408-.005.163-.002.302-.005.417-.008l.259-.006M40.268.331l-.003 1-.002.947V3.43c0 .402.001.79.003 1.164.002.374.005.735.009 1.082.004.347.008.666.014.958.005.291.012.615.023.972.01.356.017.62.023.79.006.17.011.403.017.698.006.295.01.503.011.625l.002.204.004.32c.003.2.005.48.008.84l.009.892.005.609.004.535.004.532.005.6c.003.23.005.473.006.73l.005.765.006.754.006.657.004.47.003.371.003.353.003.39.002.462v1.393l-.004.385-.006.368c-.003.126-.006.255-.011.387l-.014.365-.015.373c-.006.138-.009.263-.008.376l.001.154V23.343l-.003.209-.003.205c0 .074-.002.145-.003.213l-.004.24c-.002.093-.003.19-.003.29l-.002.305v.31l-.001.299-.001.274c0 .088 0 .18-.002.278l-.003.31c0 .108-.002.206-.003.294l-.002.281-.001.247-.001.128v.132l-.001.014-.001.098v.185l-.001.112V28.231l.002.228c0 .082 0 .16.002.234 0 .073 0 .158.002.253l.003.356.005.368M40.372 29.706c-.365.005-.773.009-1.225.012-.451.004-.827.006-1.128.007h-1.365l-.61-.004-.603-.005-.563-.005-.508-.005-.455-.004-.37-.004-.248-.002h-.776l-.204.003c-.07 0-.142 0-.215.002l-.225.003-.245.003c-.087 0-.167.002-.24.003l-.184.003-.155.002-.163.003-.172.003-.18.003-.192.003-.204.004-.215.003-.226.004-.237.005c-.082 0-.165.002-.25.004l-.261.005-.272.004-.28.005-.255.004-.187.003-.152.003-.155.002-.157.003-.16.002-.162.003-.164.003-.214.002M14.194 15.737v-.757l-.004-1.313-.008-1.474c-.003-.518-.008-1.03-.015-1.535-.007-.505-.016-.997-.027-1.477-.011-.48-.019-.907-.022-1.28-.003-.374-.003-.688 0-.944.004-.255.004-.633.003-1.134-.002-.502-.008-1.135-.016-1.9l-.025-2.147c-.01-.666-.015-1.13-.02-1.391" transform="translate(-502.000000, -2361.000000) translate(44.000000, 1872.000000) translate(0.000000, 302.000000) translate(458.690909, 187.276596)"/>
                        <g filter="url(#2mta0r702a)" transform="translate(-502.000000, -2361.000000) translate(44.000000, 1872.000000) translate(0.000000, 302.000000) translate(458.690909, 187.276596)">
                            <g stroke="#8C8C8C" stroke-width=".5">
                                <path d="M.051.213l.19.002.184.003.179.002.173.003c.057 0 .113 0 .168.002l.161.002.157.002.188.002.214.003.185.002.176.003.193.002.204.002.208.003.208.002c.07 0 .139.002.208.003l.206.002.194.002.166.002.147.002.135.001.134.002.147.001.159.002.17.001.183.003c.063 0 .128 0 .195.002.067 0 .133 0 .2.002l.198.001.198.002.198.002.195.002.194.002.194.002.192.001.19.002.19.001.188.002c.063 0 .125 0 .187.002l.186.001.184.001.182.002h.181l.18.002.178.001.177.002h.176l.173.002h.17l.168.002h.163l.161.001.158.001.154.001.151.001h.153l.156.001.162.001h.167l.17.001.176.001h.18l.187.001h.187l.187.001h1.642l.17-.001.166-.001.162-.001.158-.001.155-.002.15-.001.184-.003.249-.003.239-.004.18-.003.175-.004.182-.004.17-.005c.054 0 .105-.002.153-.004l.163-.005.23-.008.23-.008.168-.008.157-.007.18-.009.204-.011.203-.012.179-.012.175-.014c.061-.005.125-.01.19-.017l.19-.019c.06-.006.118-.014.173-.021l.16-.021.19-.022c.074-.009.157-.016.248-.023.09-.007.173-.013.247-.017l.188-.01.157-.006.154-.006.177-.006.218-.007.232-.005C20.3.002 20.378 0 20.457 0h.207c.06 0 .12.002.182.004.061.003.095.004.102.006.006 0 .04.008.103.02.062.011.125.022.188.031.063.01.137.02.221.03l.221.027c.063.007.125.012.186.016l.133.01c.029.003.075.005.14.006l.189.004.206.003c.078 0 .152.002.222.003l.25.003.3.002c.104 0 .199.002.287.004.088.002.185.007.29.014.104.008.196.012.273.014l.234.007c.08.002.12.002.122 0L24.516.2l.143.002c.095.002.197.002.306.002.11 0 .246-.002.409-.005.163-.002.302-.005.417-.008l.259-.006M26.207.331l-.002 1-.003.947V3.43c0 .402.002.79.003 1.164.002.374.005.735.009 1.082.004.347.008.666.014.958.005.291.013.615.023.972.01.356.017.62.023.79.006.17.011.403.018.698.005.295.01.503.01.625l.002.204.004.32c.003.2.005.48.008.84l.009.892.005.609.004.535.004.532.005.6c.003.23.005.473.006.73l.005.765.006.754.006.657.004.47.003.371.003.353.003.39.002.462v1.393l-.004.385-.006.368c-.003.126-.006.255-.011.387l-.014.365-.015.373c-.006.138-.009.263-.008.376l.001.154V23.343l-.003.209-.003.205c0 .074-.002.145-.003.213l-.004.24c-.002.093-.002.19-.003.29l-.002.305v.31l-.001.299-.001.274-.001.278-.004.31-.002.294-.003.281-.001.247-.001.128v.132l-.001.014v.098.067l-.001.118v.576l.001.228c0 .082 0 .16.002.234l.002.253.003.356.005.368M26.31 29.706c-.364.005-.772.009-1.223.012-.452.004-.828.006-1.128.007h-1.365l-.612-.004-.601-.005-.564-.005-.508-.005-.455-.004-.369-.004-.248-.002H18.46l-.204.003c-.07 0-.142 0-.215.002l-.224.003-.246.003c-.087 0-.166.002-.239.003l-.184.003-.156.002-.163.003-.172.003-.18.003-.192.003-.204.004-.214.003-.227.004-.237.005c-.081 0-.164.002-.25.004l-.261.005-.271.004-.282.005-.255.004-.186.003-.152.003-.154.002-.157.003-.16.002-.162.003-.164.003-.168.002-.17.002-.172.003-.174.003-.178.002-.18.003-.182.003-.185.002-.188.003-.19.002-.193.003-.196.003-.198.003-.201.002-.204.003c-.069 0-.138.002-.206.003l-.21.002-.211.003-.214.003-.217.003-.219.003-.22.002-.224.003-.226.003-.228.003-.23.003c-.078 0-.156.002-.233.003l-.236.002-.237.003-.24.003-.242.003-.244.003-.247.003-.25.003-.25.003-.258.002-.268.003-.277.004-.251.002-.184.002-.15.002-.152.001-.155.002-.158.002-.16.002-.162.001-.165.002-.167.002-.17.002-.173.001-.175.002-.177.002-.18.002-.183.002-.185.002-.187.002c-.063 0-.126 0-.19.002l-.193.001-.195.002-.197.003-.2.002-.203.002-.205.002M.241 29.871c-.002-.265-.004-.469-.007-.612l-.01-.378-.01-.35c-.005-.122-.01-.242-.013-.357l-.011-.337-.01-.354-.013-.409c-.005-.145-.01-.295-.013-.45-.004-.153-.006-.312-.008-.477l-.003-.46-.001-.393c0-.12.001-.238.003-.354.003-.115.007-.23.012-.342.005-.112.008-.218.01-.317.002-.1.002-.214 0-.344-.003-.13-.003-.254 0-.375v-.32c-.003-.093-.008-.192-.014-.295-.006-.104-.01-.221-.012-.352l-.008-.365-.006-.227c-.002-.038-.002-.121-.003-.249v-.558c0-.244 0-.496.002-.754l.002-.8c0-.274 0-.539.002-.795l.001-.674.001-.617.001-.651v-.816-1.109c0-.412-.002-.85-.004-1.313L.12 12.193c-.003-.518-.008-1.03-.015-1.535-.007-.505-.016-.997-.027-1.477C.068 8.7.06 8.274.057 7.9c-.003-.374-.003-.688 0-.944.004-.255.005-.633.003-1.134-.002-.502-.008-1.135-.016-1.9L.019 1.776 0 .385M7.364 7.98l.089.001.085.001.084.002h.08l.079.002h.075l.072.001.088.001.1.002h.086l.082.002h.09l.096.002h.096l.097.002.097.001.096.001.09.001h.079l.068.002h.125l.069.002h.074l.079.001.085.001h.09l.094.002h.093l.092.002h.092l.09.001h.091l.091.001.09.001h.088l.089.002h.175l.086.001.085.001h.086l.084.001h.084l.083.001h.082l.082.001h.082l.078.001h.078l.076.001H11.907l.071.001H12.122l.075.001h.24l.084.001h.347l.087.001h.591l.08-.001h.077l.076-.001h.074l.072-.002h.07l.086-.001.115-.002.112-.002.084-.002.081-.001.085-.002.08-.002.07-.003.077-.002c.028 0 .064-.002.107-.004L15 7.996l.078-.003.073-.004c.026 0 .054-.002.084-.004l.095-.005.094-.006.084-.006.081-.006.089-.008c.03-.003.06-.005.088-.009l.08-.01.075-.01.089-.01c.034-.004.073-.007.116-.01.042-.004.08-.007.115-.008l.087-.005.074-.003.072-.003.082-.003.102-.003.108-.003.109-.001h.096c.029 0 .057 0 .086.002.028 0 .044.002.047.002l.048.01.088.014c.03.005.064.01.103.014l.103.013.086.007.063.005.066.002.087.002.096.002h.103l.117.002.14.001c.048 0 .092 0 .134.002.04.001.086.003.135.007l.127.006.11.003h.056l.002-.002h.066l.143.002.19-.003.194-.004.12-.003M7.458 21.804c-.001-.123-.002-.218-.004-.285l-.004-.176-.006-.163-.005-.167-.006-.157-.005-.165-.006-.19-.006-.21c-.002-.072-.003-.146-.003-.223l-.002-.214v-.183c0-.056 0-.111.002-.165 0-.054.002-.107.004-.16.003-.052.004-.101.005-.147V18.864v-.15l-.006-.137c-.003-.049-.005-.103-.006-.164l-.004-.17-.003-.106-.001-.116v-.26-.352l.001-.372v-.37l.001-.316v-.287-.304-.38-.517l-.001-.612-.005-.686c-.001-.242-.004-.48-.007-.716-.003-.235-.007-.465-.013-.689-.005-.224-.008-.423-.01-.596-.002-.175-.002-.321 0-.44.002-.12.002-.296 0-.529 0-.234-.003-.529-.007-.885L7.35 8.709 7.34 8.06M10.525 8.109v-.032l-.005-.026v.001l-.002-.001c0 .04-.054.139-.164.298-.11.16-.252.342-.425.547-.173.205-.306.361-.4.47-.093.108-.163.187-.21.238-.047.05-.159.18-.334.389-.175.21-.377.457-.605.745-.229.287-.4.5-.514.64-.114.139-.195.24-.243.304-.047.065-.087.118-.119.16-.031.043-.058.102-.08.178l.009-.011.011-.019M14.841 8.087l-.016-.017c-.033-.01-.047-.013-.041-.011.006.002.007.002.004.002l-.005-.002-.017.017c-.01.01-.013.015-.011.014l.002-.002c-.002 0-.033.047-.094.14-.062.093-.128.188-.198.285-.07.097-.156.211-.257.343-.1.133-.191.252-.273.358-.081.106-.169.219-.263.338l-.228.29c-.058.074-.108.136-.151.187-.043.05-.092.109-.145.175l-.196.247-.214.268c-.064.081-.135.168-.213.262-.077.094-.146.182-.207.264-.06.082-.12.16-.179.236l-.208.256c-.08.095-.15.18-.21.255l-.187.233c-.063.08-.13.157-.202.231-.071.074-.128.138-.17.192-.041.054-.092.117-.152.188-.06.072-.156.178-.288.318-.132.14-.23.25-.295.328-.065.077-.124.146-.178.206-.054.06-.107.112-.158.158-.051.046-.126.126-.226.24l-.268.3c-.08.086-.154.16-.223.223-.07.062-.13.12-.18.175l-.14.149c-.043.044-.142.146-.3.304-.158.16-.277.282-.358.369-.08.087-.14.148-.178.184-.038.036-.067.066-.085.09-.019.024-.05.056-.093.098s-.078.073-.104.094c-.025.02-.042.038-.051.052-.01.014-.016.025-.02.034l-.004.01v.001c0 .003 0 .006-.003.01l-.006.009c-.001 0-.001 0 0 0l-.004.004-.014.016-.015.02-.006.008.001-.003-.001.002-.001.001-.014.018-.014.018s0 0 0 0h-.001l-.013.017-.014.017-.004.006.001-.002-.009.011-.02.024c-.005.006-.009.01-.01.013l-.018.021c-.01.012-.014.017-.012.013l-.243.27h.029M18.935 8.154l-.001-.026-.011.036c.007.001-.01.054-.054.159-.043.104-.093.196-.15.276-.056.079-.103.141-.14.186-.037.045-.07.083-.098.113-.028.03-.047.052-.057.065-.01.012-.04.044-.09.094-.05.05-.098.097-.144.14l-.123.117-.12.113-.124.117-.137.131c-.052.05-.097.095-.136.135l-.11.111-.116.118-.14.143-.163.17-.164.175-.142.157c-.044.049-.084.095-.12.138-.038.042-.08.09-.124.144l-.135.162-.13.161c-.043.054-.083.102-.12.144-.039.042-.075.083-.11.123l-.117.138c-.044.052-.085.098-.121.137l-.096.103c-.028.028-.074.078-.138.148l-.248.268c-.103.107-.195.204-.275.29-.08.085-.147.16-.203.224l-.146.165c-.04.047-.081.091-.121.134-.04.043-.073.082-.098.116-.025.035-.06.08-.107.136l-.184.22-.207.25-.168.207-.133.163-.121.15c-.042.052-.079.096-.112.132-.032.037-.068.075-.107.116l-.15.163-.162.18c-.047.054-.094.105-.141.153l-.13.132-.132.131-.134.135c-.042.042-.09.091-.144.148-.054.056-.106.11-.155.165l-.129.137c-.036.039-.072.075-.107.11-.035.033-.08.08-.133.14-.054.06-.107.118-.16.173-.053.056-.114.118-.183.188l-.184.186-.163.168-.193.204-.17.182c-.041.043-.091.1-.15.169l-.156.182-.14.163c-.048.057-.105.12-.17.192-.064.071-.137.149-.217.233-.081.084-.154.158-.217.221l-.166.16-.125.12-.125.12c-.046.043-.097.095-.154.155-.057.06-.116.118-.176.175-.06.058-.115.11-.163.16l-.128.134-.123.13-.125.132-.133.14-.145.148-.117.12c-.033.034-.058.062-.076.084-.037.044-.075.09-.11.138l-.108.144c-.035.047-.067.086-.096.117-.028.03-.047.053-.058.067-.01.014-.018.026-.023.036l-.009.017h.001l-.018.037c0 .003.008-.002.022-.014.014-.012.025-.023.031-.031M19.514 12.546c.005-.018-.005.004-.029.067-.023.062-.057.13-.101.2-.044.072-.11.156-.196.252-.086.097-.15.17-.19.22-.041.05-.09.109-.148.176-.057.068-.107.124-.147.17-.041.045-.098.104-.17.176l-.234.234-.297.296-.258.258-.142.143-.083.086c-.02.021-.096.094-.228.219s-.255.24-.37.345c-.113.105-.214.198-.303.278-.09.08-.153.139-.19.177-.036.037-.131.13-.285.279-.154.148-.341.33-.563.548-.221.217-.488.486-.8.806-.314.32-.55.566-.709.735-.158.17-.278.3-.358.39l-.17.189-.086.091c-.023.025-.055.056-.096.094l-.11.105c-.033.032-.095.097-.184.196-.09.097-.173.185-.248.261-.075.077-.169.188-.281.335-.112.146-.204.264-.277.352-.072.088-.148.178-.227.27-.08.092-.159.189-.238.29-.08.103-.146.186-.2.25-.054.064-.093.115-.116.153-.023.038-.061.086-.115.143-.053.057-.155.177-.306.36.001.002.005 0 .011-.003.007-.004.013-.01.018-.016M19.631 17.413l.01-.017.014-.021c.005-.003.001.004-.011.02-.012.017-.027.04-.045.07-.017.029-.03.05-.04.062-.009.013-.022.035-.038.065-.017.03-.089.114-.215.25-.127.136-.233.248-.32.338-.087.09-.206.207-.356.35-.151.145-.274.264-.367.358-.094.095-.174.174-.24.236l-.242.227c-.096.088-.18.17-.255.247-.075.076-.153.15-.234.222-.082.072-.207.194-.377.367l-.386.393c-.088.09-.15.155-.188.198-.036.043-.1.107-.188.194-.09.086-.162.15-.22.193-.057.043-.101.078-.131.104-.03.026-.05.05-.059.072-.008.022-.021.048-.038.078-.017.03-.031.054-.044.07l-.027.035-.02.023-.014.02-.017.02-.011.015-.007.009-.019.02-.027.028.013-.013.023-.027" transform="translate(6.850193, 8.143673)"/>
                                <path d="M19.555 8.028v.466l-.002.442v.537l.002.542c0 .174.002.342.004.504l.007.447.01.452.012.369c.003.08.005.188.008.325l.005.292.001.095.002.149.004.391.004.416.003.284.002.25.002.247.002.28.003.34c0 .12.002.239.003.357 0 .118.001.235.003.351l.002.306.002.22.002.173.001.164.002.182v.215c.002.075.002.149.001.223v.427l-.002.179-.003.172c0 .058-.002.118-.005.18l-.005.17-.008.174c-.003.064-.004.122-.004.175v.072l.001.049v.11l-.001.097-.001.095-.002.1-.002.112-.002.135v.426l-.001.128v.13l-.002.143-.001.137-.001.132v.115l-.001.059v.068l-.001.046V21.139l.001.11.002.117.001.166.002.172M19.61 21.72c-.17.003-.36.004-.571.006l-.526.004H17.877c-.095 0-.19 0-.285-.002l-.28-.002-.263-.002-.237-.002-.212-.002-.172-.002h-.478l-.095.001-.1.001-.105.001-.114.002-.112.001-.086.002-.072.001-.077.001-.08.002-.083.001-.09.002-.095.001-.1.002-.106.002-.11.002-.117.002-.121.003-.127.002-.131.002-.118.002-.088.002h-.07l-.072.002-.074.001-.074.001-.076.002-.076.001-.078.001-.08.001-.08.002h-.08l-.083.002-.084.001-.086.002h-.086l-.087.002-.089.001-.09.002-.09.001-.094.002h-.094l-.095.002-.095.001-.098.002-.099.001-.1.001-.1.002-.102.001-.103.001-.104.002-.105.001-.108.002-.107.001-.108.001-.11.002-.11.001-.112.002-.113.001-.114.001-.115.002-.116.001-.117.002-.12.001-.125.001-.13.002-.117.001-.085.001-.07.001h-.07l-.073.002h-.073l-.075.002h-.075l-.078.001-.077.001-.08.001h-.08l-.082.002h-.082l-.084.002h-.085l-.087.002h-.087l-.089.001-.09.001-.09.001-.092.001-.094.001-.094.001-.096.001" transform="translate(6.850193, 8.143673)"/>
                            </g>
                        </g>
                    </g>
                </g>
            </g>
        </g>
    </g>
</svg>
