<?xml version="1.0" encoding="UTF-8"?>
<svg width="341px" height="328px" viewBox="0 0 341 328" version="1.1" xmlns="http://www.w3.org/2000/svg" xmlns:xlink="http://www.w3.org/1999/xlink">
    <title>forschungsraum-2</title>
    <defs>
        <radialGradient cx="45.8387223%" cy="43.3690519%" fx="45.8387223%" fy="43.3690519%" r="57.5698006%" id="radialGradient-1">
            <stop stop-color="#FFE8BA" offset="0%"></stop>
            <stop stop-color="#FFCD53" offset="24.4913168%"></stop>
            <stop stop-color="#DB7C57" stop-opacity="0.873023827" offset="51.8254207%"></stop>
            <stop stop-color="#BDBECA" stop-opacity="0.940375976" offset="79.8764956%"></stop>
            <stop stop-color="#B7CADF" offset="100%"></stop>
        </radialGradient>
        <filter x="-28.0%" y="-28.0%" width="156.0%" height="156.0%" filterUnits="objectBoundingBox" id="filter-2">
            <feGaussianBlur stdDeviation="19.6" in="SourceGraphic"></feGaussianBlur>
        </filter>
        <filter color-interpolation-filters="auto" id="filter-3">
            <feColorMatrix in="SourceGraphic" type="matrix" values="0 0 0 0 0.007843 0 0 0 0 0.149020 0 0 0 0 0.349020 0 0 0 1.000000 0"></feColorMatrix>
        </filter>
    </defs>
    <g id="wireframes-v0.6" stroke="none" stroke-width="1" fill="none" fill-rule="evenodd">
        <g id="Forschungsraum" transform="translate(-797.000000, -930.000000)">
            <g id="forschungsraum-2" transform="translate(797.338703, 982.718384)">
                <g id="Circle-Blur" transform="translate(66.661297, 6.281616)" fill="url(#radialGradient-1)">
                    <circle id="Oval" filter="url(#filter-2)" cx="105" cy="105" r="105"></circle>
                </g>
                <g filter="url(#filter-3)" id="Werkstatt" stroke-linecap="round" stroke-linejoin="round">
                    <g transform="translate(10.661297, 0.000000)">
                        <path d="M108.638493,56.4942973 C108.12763,56.759519 107.778601,56.9526827 107.591406,57.0737885 C107.405418,57.1948943 107.266531,57.2863292 107.174745,57.3480932 C107.080543,57.4086461 107.054577,57.4201511 107.096847,57.3826083 C107.136702,57.3438545 107.010496,57.4231788 106.718229,57.6205812 C106.425962,57.8191947 106.132488,58.033552 105.837806,58.263653 C105.540708,58.493754 105.417522,58.5972995 105.468246,58.5742894 C105.51897,58.5500682 105.441676,58.6233372 105.236365,58.7940964 C105.031053,58.9660667 104.92719,59.0405467 104.924775,59.0175366 C104.922359,58.9945265 104.759318,59.1374314 104.435651,59.4462511 C104.113191,59.7550709 103.629502,60.2449439 102.984583,60.91587 C102.343287,61.5867962 101.79257,62.179609 101.332431,62.6943087 C100.872293,63.2090083 100.425439,63.7152306 99.9918696,64.2129754 C99.560716,64.7107203 99.198402,65.1721334 98.9049276,65.5972147 C98.612661,66.0222961 98.4278809,66.2826735 98.3505872,66.3783471 C98.2720859,66.4728096 98.2129079,66.5569782 98.1730534,66.6308527 C98.1356143,66.7059383 98.1476914,66.7168378 98.2092848,66.6635513 C98.2684627,66.6102647 98.1905652,66.761647 97.9755923,67.117698 C97.7582039,67.472538 97.5009609,67.9012526 97.2038635,68.4038416 C96.906766,68.9076418 96.6742812,69.3157683 96.506409,69.6282213 C96.3397446,69.9418853 96.3270636,70.0417976 96.468366,69.9279581 C96.6072531,69.8141187 96.4538735,70.1550315 96.0082273,70.9506966 C95.5601656,71.7475728 95.0885536,72.6280119 94.5933911,73.5920141 C94.0994364,74.5560163 93.683983,75.406179 93.347031,76.1425022 C93.0124944,76.8776144 92.6187799,77.7501817 92.1658874,78.7602041 C91.7154103,79.7690154 91.3694005,80.5658916 91.1278578,81.1508326 C90.8875229,81.7345625 90.6532265,82.318898 90.4249687,82.903839 C90.1955031,83.487569 89.9738877,84.0779598 89.7601225,84.6750114 C89.5451495,85.2720629 89.3289688,85.9127126 89.1115804,86.5969604 C88.8953998,87.2799971 88.7057888,87.8709934 88.5427475,88.3699493 C88.3772907,88.8689052 88.2166649,89.4471854 88.0608699,90.1047899 C87.9074903,90.7611833 87.7752457,91.2262296 87.664136,91.4999287 C87.5542341,91.7736278 87.352546,92.6752605 87.0590717,94.2048267 C86.766805,95.734393 86.5868558,97.2554818 86.5192238,98.7680933 C86.4503842,100.280705 86.4050949,101.451192 86.3833561,102.279556 C86.3604095,103.10792 86.3368591,103.677722 86.3127048,103.988964 C86.2873429,104.300206 86.240242,104.964472 86.1714024,105.98176 C86.1049782,106.997838 86.0590851,107.998777 86.0337231,108.984579 C86.0071534,109.971591 85.996284,110.733346 86,111.269845 C86.0059457,111.806344 86.0107765,112.221737 86.0156074,112.516024 C86.0228537,112.811522 86.0325154,113.077349 86.0445925,113.313505 C86.0542542,113.549662 86.0693506,113.709521 86.0898817,113.793084 C86.1116206,113.876647 86.1176591,113.910557 86.1079974,113.894813 C86.0959203,113.877858 86.0874663,114.181228 86.0826355,114.804923 C86.0778046,115.428618 86.0723699,116.370216 86.0663313,117.629716 C86.0615005,118.889216 86.0904856,120.115413 86.1532867,121.308305 C86.2172955,122.499986 86.3151203,123.658363 86.446761,124.783436 C86.5820249,125.907297 86.6858883,126.892493 86.7583511,127.739023 C86.8320216,128.586763 86.8761031,129.293416 86.8905957,129.85898 C86.9038805,130.425755 86.9781549,131.114241 87.1134188,131.924439 C87.2498904,132.734637 87.4455399,133.668968 87.7003674,134.727433 C87.9551949,135.784686 88.249877,136.789865 88.5844136,137.742967 C88.9201579,138.694859 89.2963606,139.594069 89.7130217,140.440599 C90.1308905,141.285917 90.5215857,142.081583 90.8851074,142.827594 C91.2474214,143.574817 91.6622709,144.432246 92.129656,145.399881 C92.5994565,146.367517 93.0088713,147.178926 93.3579004,147.834108 C93.7069296,148.490501 93.9406221,148.905894 94.058978,149.080287 C94.1761262,149.25589 94.3542639,149.548966 94.5933911,149.959515 C94.8313107,150.370063 95.0601723,150.761841 95.2799762,151.134847 C95.4985723,151.507852 95.7461535,151.920823 96.0227198,152.373759 C96.295663,152.827906 96.4369655,153.058612 96.4466272,153.065879 C96.4562889,153.073145 96.8717423,153.664747 97.6929873,154.840684 C98.5106093,156.017832 99.2134984,157.025433 99.8016548,157.863485 C100.388603,158.701537 100.845723,159.342187 101.173013,159.785434 C101.501511,160.228681 101.74245,160.544767 101.89583,160.733692 C102.046794,160.923828 102.097518,160.981354 102.048002,160.906268 C101.998485,160.831182 101.9852,160.809989 102.008147,160.842688 C102.032301,160.875386 102.037132,160.882652 102.02264,160.864487 C102.010562,160.846321 102.06974,160.933517 102.200173,161.126075 C102.329399,161.318633 102.614419,161.699511 103.055234,162.268708 C103.494842,162.837906 103.692303,163.086172 103.647618,163.013509 C103.602932,162.939634 103.635541,162.969305 103.745443,163.102522 C103.856552,163.235738 104.018386,163.411342 104.230943,163.629332 C104.445916,163.846111 104.76898,164.201557 105.200133,164.695669 C105.630079,165.18978 106.206762,165.857679 106.930183,166.699364 C107.654811,167.539838 108.291879,168.264051 108.841389,168.872002 C109.390898,169.479953 109.946447,170.067316 110.508033,170.634091 C111.072035,171.199656 111.591956,171.687106 112.067795,172.096444 C112.544842,172.506993 112.850393,172.76737 112.984449,172.877576 C113.120921,172.987783 113.29302,173.124027 113.500747,173.286308 C113.706058,173.449801 113.812337,173.532759 113.819583,173.535181 C113.824414,173.538814 113.805694,173.521859 113.763424,173.484316 C113.718739,173.446774 113.838907,173.541842 114.123927,173.769521 C114.411363,173.997199 114.680079,174.203685 114.930076,174.388977 C115.177657,174.57548 115.271858,174.625133 115.21268,174.537937 C115.157126,174.450741 115.301447,174.535515 115.645646,174.792259 C115.992259,175.047792 116.562904,175.425642 117.357579,175.925809 C118.152255,176.425976 119.222892,177.09448 120.569493,177.931321 C121.919716,178.768162 123.125618,179.492375 124.187198,180.103959 C125.245155,180.715544 126.164829,181.212078 126.946219,181.593561 C127.726402,181.975044 128.463711,182.341389 129.158146,182.692596 C129.851373,183.043803 130.649672,183.460407 131.553041,183.942408 C132.458826,184.424409 133.503498,184.862812 134.687058,185.257617 C135.87424,185.653633 136.961786,185.961241 137.949695,186.180443 C138.94002,186.399644 140.027566,186.597047 141.212333,186.77265 C142.398307,186.947043 143.455056,187.12749 144.38258,187.313993 C145.311311,187.499285 146.113233,187.690027 146.788345,187.886218 C147.461041,188.083621 148.276248,188.259224 149.233964,188.413028 C150.191681,188.566833 151.289492,188.699444 152.527398,188.810861 C153.76772,188.922278 154.96396,189.013713 156.116119,189.085166 C157.267069,189.156618 158.375146,189.207482 159.440349,189.237759 C160.504345,189.269246 161.513993,189.283779 162.469294,189.281616 C163.424596,189.281616 164.326154,189.26198 165.173968,189.226859 C166.022991,189.19295 166.81042,189.142085 167.536256,189.074266 C168.260884,189.006447 169.077298,188.896846 169.985498,188.745464 C170.891283,188.59287 172.032572,188.413028 173.409365,188.205937 C174.784951,187.998847 176.160536,187.783884 177.536122,187.561049 C178.9105,187.339425 180.036692,187.13294 180.9147,186.941593 C181.792707,186.751457 182.315043,186.642462 182.481708,186.614607 C182.64958,186.586753 183.260683,186.419627 184.315017,186.113229 C185.36935,185.808043 186.433346,185.432009 187.507003,184.985129 C188.577037,184.538248 189.402509,184.164637 189.983419,183.864295 C190.560706,183.562741 190.97314,183.332035 191.220721,183.172175 C191.467095,183.011104 191.950784,182.707129 192.671789,182.260248 C193.394001,181.812157 194.059451,181.428857 194.668139,181.110349 C195.279242,180.79184 196.017155,180.351621 196.881877,179.78969 C197.745392,179.227759 198.34623,178.807522 198.68439,178.528979 C199.021342,178.250435 199.24658,178.059088 199.360105,177.954937 C199.472422,177.849575 199.571455,177.75814 199.657203,177.680632 C199.739327,177.604336 199.968189,177.388767 200.343788,177.033927 C200.720594,176.680298 200.908997,176.495007 200.908997,176.478052 C200.908997,176.462308 200.890278,176.483502 200.852839,176.541632 C200.817815,176.599763 200.866124,176.570698 200.997764,176.454436 C201.129405,176.336964 201.352228,176.16136 201.666234,175.927626 C201.977824,175.692681 202.145092,175.558859 202.168039,175.52616 C202.189777,175.493462 202.160792,175.542509 202.081083,175.673304 C202.000166,175.802887 202.656559,175.382044 204.05026,174.410776 C205.447584,173.439507 206.759161,172.428274 207.98499,171.377076 C209.212026,170.325877 210.129889,169.541112 210.738576,169.022779 C211.349679,168.504446 212.005467,167.938276 212.705941,167.32427 C213.406415,166.709052 213.812206,166.339074 213.923316,166.214335 C214.035633,166.089596 214.186598,165.943058 214.376209,165.774721 C214.564612,165.606384 214.903979,165.270921 215.394311,164.768332 C215.884642,164.265743 216.309154,163.754071 216.667845,163.233316 C217.026535,162.712561 217.636431,161.930823 218.49753,160.888102 C219.35863,159.84417 219.982414,159.09937 220.368882,158.6537 C220.754143,158.208031 221.062109,157.844713 221.292783,157.563748 C221.523456,157.281571 221.877316,156.782616 222.354363,156.06688 C222.831409,155.351145 223.203989,154.760754 223.472101,154.295708 C223.741421,153.831873 223.969075,153.518814 224.155063,153.356533 C224.338636,153.195462 224.598294,152.829117 224.934038,152.257497 C225.27099,151.685878 225.711806,150.87568 226.256484,149.826904 C226.801163,148.776917 227.275191,147.808676 227.678567,146.922181 C228.079528,146.035687 228.481696,145.054124 228.885072,143.977494 C229.288449,142.902074 229.659217,141.857537 229.997376,140.843881 C230.334328,139.831437 230.566813,139.117518 230.694831,138.702125 C230.821641,138.287943 230.93577,137.898588 231.037217,137.53406 C231.138665,137.169531 231.257625,136.771699 231.394097,136.340562 C231.531776,135.908214 231.661605,135.508565 231.783584,135.141615 C231.906771,134.775875 232.028146,134.411952 232.14771,134.049846 C232.268481,133.688951 232.359664,133.418279 232.421257,133.237832 C232.479227,133.058595 232.495531,132.991381 232.470169,133.03619 C232.4436,133.082211 232.474396,133.011969 232.562559,132.825466 C232.647099,132.640174 232.842749,131.983175 233.149508,130.854469 C233.458683,129.725763 233.781746,128.43962 234.118698,126.996039 C234.45565,125.553669 234.715308,124.477038 234.897673,123.766147 C235.076415,123.055256 235.249721,122.542373 235.417594,122.227498 C235.585466,121.913834 235.73643,121.382785 235.870486,120.634351 C236.004542,119.885917 236.142222,118.871051 236.283524,117.589751 C236.423619,116.308452 236.541975,115.104055 236.638592,113.97656 C236.732793,112.850276 236.807068,111.799683 236.861415,110.824781 C236.915762,109.849879 236.954409,108.863473 236.977355,107.865561 C237,106.867649 237.00634,105.858232 236.991848,104.83731 C236.979771,103.8176 236.944143,102.713115 236.884965,101.523856 C236.82941,100.333386 236.743663,99.0599582 236.627722,97.7035733 C236.511782,96.3471883 236.392822,95.1464243 236.270843,94.1012813 C236.147656,93.0549272 236.010581,91.9758745 235.859617,90.8641232 C235.706237,89.752372 235.550442,88.8138021 235.392232,88.0484134 C235.234021,87.2818137 235.116269,86.7471316 235.038976,86.4443671 C234.960474,86.1403915 234.910958,86.0525898 234.890427,86.180962 C234.866273,86.3093341 234.803471,86.1537132 234.702024,85.7140991 C234.600576,85.273274 234.427269,84.4703426 234.182103,83.3053048 C233.934522,82.140267 233.5867,81.0224604 233.138639,79.9518852 C232.690577,78.882521 232.246138,78.0063205 231.805323,77.3232838 C231.366923,76.639036 231.062579,76.1443188 230.892292,75.8391322 C230.719589,75.5339456 230.520316,75.1887941 230.294474,74.8036776 C230.067424,74.4197722 229.915252,74.1678722 229.837958,74.0479774 C229.757041,73.9292937 229.726245,73.8941731 229.745568,73.9426154 C229.767307,73.9910577 229.743757,73.955937 229.674917,73.8372533 C229.606077,73.7173586 229.306564,73.2335409 228.776378,72.3858003 C228.243777,71.5368487 227.949095,71.0790687 227.892332,71.0124606 C227.835569,70.9446413 227.516733,70.4820172 226.935823,69.6245881 C226.353705,68.767159 225.691275,67.9127576 224.948531,67.0613838 C224.204579,66.2100101 223.556641,65.4748979 223.004716,64.8560472 C222.452791,64.2359855 222.005937,63.6595219 221.664154,63.1266564 C221.324787,62.5950019 221.198581,62.4260594 221.285536,62.6198286 C221.372492,62.8135979 221.300633,62.6712986 221.06996,62.1929307 C220.836871,61.7157738 220.353182,61.0593804 219.618892,60.2237504 C218.883395,59.3881204 218.277123,58.71235 217.800076,58.1964393 C217.324237,57.6817396 216.93173,57.3087338 216.622555,57.0774217 C216.313381,56.8473207 216.176305,56.7431697 216.211329,56.7649687 C216.24756,56.7867678 216.260845,56.7958507 216.251183,56.7922175 C216.243937,56.7885844 216.222802,56.771024 216.187779,56.7395365 C216.153963,56.708049 215.98609,56.5869432 215.684162,56.3762191 C215.384649,56.165495 215.041659,55.9220724 214.65519,55.6459512 C214.268722,55.3698299 213.914862,55.1009751 213.59361,54.8393865 C213.272359,54.577798 213.129848,54.4597198 213.16608,54.4851521 C213.198688,54.5105843 213.214992,54.5208783 213.214992,54.516034 C213.212577,54.5111898 213.169099,54.4821244 213.084559,54.4288379 C212.998812,54.3743403 212.649782,54.1000356 212.037472,53.605924 C211.423953,53.1118123 210.913091,52.6976305 210.504884,52.3633784 C210.096676,52.0279154 209.766367,51.7590605 209.513955,51.5568138 C209.259127,51.3545671 208.938479,51.0869233 208.552011,50.7538824 C208.166751,50.4220525 207.768205,50.0950668 207.356375,49.7729254 C206.945752,49.450784 206.664959,49.2291604 206.513995,49.1080546 C206.365446,48.9869488 206.143831,48.8125564 205.849149,48.5848775 C205.555674,48.3571986 205.383575,48.2197435 205.332851,48.1725122 C205.278504,48.125281 205.120294,48.010836 204.85822,47.8291773 C204.593731,47.6487297 204.320184,47.4610157 204.037579,47.2660353 C203.751351,47.0722661 203.601594,46.9753814 203.588309,46.9753814 C203.573817,46.9765925 203.622125,46.9923362 203.733235,47.0226127 C203.843137,47.0541002 203.23928,46.7150039 201.921665,46.005324 C200.602842,45.296855 199.581117,44.7869996 198.856489,44.4757577 C198.135484,44.1645158 197.346847,43.6952308 196.490578,43.0679028 C195.63431,42.4417858 194.879489,41.9161866 194.226116,41.4911053 C193.572743,41.067235 192.877704,40.640337 192.140999,40.2104114 C191.405501,39.7792748 190.766621,39.4250403 190.224358,39.1477081 C189.680887,38.8715868 189.147681,38.6408803 188.624742,38.4555884 C188.103009,38.2702965 187.536592,38.0831881 186.925489,37.894263 C186.314386,37.7041269 185.89229,37.5793879 185.659202,37.5200461 C185.423697,37.4607043 185.025152,37.3765357 184.463565,37.2675405 C183.901979,37.1597563 183.232302,37.0507611 182.454534,36.9405548 C181.677975,36.8291375 180.697915,36.6983433 179.514356,36.5481721 C178.329589,36.3980009 177.278275,36.2617568 176.360413,36.13944 C175.443759,36.0159121 174.496911,35.8833012 173.519871,35.7416074 C172.542831,35.5987026 171.724002,35.4842576 171.063382,35.3982725 C170.403971,35.3110763 170.176921,35.262634 170.382232,35.2529455 C170.58392,35.242046 170.472811,35.1960258 170.048903,35.1148849 C169.623788,35.033744 168.916068,34.9114272 167.925743,34.7479343 C166.935418,34.5832305 165.937847,34.4621247 164.93303,34.3846169 C163.925797,34.3083203 162.911318,34.2744107 161.889592,34.2816165 C160.865451,34.2913655 159.960874,34.3143756 159.17586,34.3519184 C158.390847,34.3906722 157.590133,34.4633357 156.773718,34.5699088 C155.957304,34.6764819 155.332313,34.7564118 154.898744,34.8096983 C154.463967,34.8629849 153.938008,34.9192991 153.320866,34.9786409 C152.702517,35.0379827 151.899991,35.1633272 150.91329,35.3546744 C149.930211,35.5460216 149.011745,35.7464517 148.157892,35.9559647 C147.304038,36.1654777 146.703805,36.3047494 146.357191,36.3737797 C146.008162,36.44281 145.565535,36.5433278 145.02931,36.6753331 C144.494293,36.8061274 144.158549,36.8896904 144.022078,36.9260222 C143.88319,36.9623539 143.531746,37.0568164 142.967744,37.2094097 C142.403742,37.362003 141.911599,37.4994581 141.491314,37.621775 C141.072238,37.7440918 140.846999,37.8113056 140.815599,37.8234161 C140.78299,37.8367378 140.686373,37.8664087 140.525748,37.9124289 C140.367537,37.9596602 140.177926,38.0147633 139.956915,38.0777383 C139.734695,38.1407133 139.65559,38.1388967 139.719599,38.0722885 C139.7824,38.0056804 139.595808,38.0517006 139.159824,38.2103492 C138.723839,38.3702088 138.294497,38.5385459 137.871798,38.7153603 C137.450306,38.8933859 137.127242,39.0296299 136.902608,39.1240924 C136.676765,39.2185549 136.570486,39.2579143 136.583771,39.2421706 C136.600679,39.2264268 136.572298,39.2336932 136.498627,39.2639696 C136.426165,39.2942461 136.193076,39.386892 135.799361,39.5419074 C135.405647,39.6981339 135.171954,39.7919909 135.098284,39.8234784 C135.024613,39.856177 135.008309,39.8501217 135.049372,39.8053125 C135.091641,39.7605034 134.964228,39.8022849 134.66713,39.930657 C134.367617,40.0590292 134.0204,40.2085949 133.625478,40.379354 C133.231763,40.5501132 132.796986,40.7402493 132.321147,40.9497624 C131.8441,41.1592754 131.604369,41.2670595 131.601954,41.2731148 C131.599538,41.2791701 131.612823,41.2725093 131.641808,41.2531324 C131.669586,41.2325444 131.559684,41.2646374 131.312103,41.3494115 C131.062106,41.4341855 130.373709,41.757538 129.246913,42.3194689 C128.121324,42.8813999 127.277736,43.3294913 126.71615,43.6637433 C126.154563,43.9992064 125.726429,44.2710889 125.431747,44.4793909 C125.134649,44.6889039 124.98127,44.7894217 124.971608,44.7809443 C124.959531,44.7724669 124.961946,44.7688337 124.978854,44.7700448 C124.995762,44.7712559 125.009047,44.7567232 125.018709,44.7264467 C125.027163,44.6961703 124.899749,44.7809443 124.636467,44.9807689 C124.371978,45.1818045 124.132247,45.3640688 123.917274,45.5275616 C123.699886,45.6910544 123.603269,45.7606902 123.627423,45.7364691 C123.649162,45.713459 123.629234,45.713459 123.567641,45.7364691 C123.506048,45.7594792 123.535637,45.7479741 123.656408,45.7019539 C123.773556,45.6559337 123.19325,46.0416557 121.915489,46.8591199 C120.638936,47.676584 119.648008,48.3093618 118.942703,48.7574533 C118.237398,49.2055447 117.754917,49.5192087 117.495259,49.6984453 C117.2356,49.878893 116.849736,50.1507755 116.337665,50.5140929 C115.829218,50.8774103 115.61968,51.0269759 115.709051,50.9627899 C115.800837,50.8998149 115.699389,50.9706618 115.404707,51.1753306 C115.110025,51.3799994 114.989857,51.4647734 115.044204,51.4296527 C115.096136,51.3957431 115.102779,51.3987708 115.064132,51.4387357 C115.026693,51.4787006 114.916187,51.5483364 114.732614,51.6476432 C114.55025,51.7469499 114.311726,51.904993 114.017044,52.1217724 C113.724778,52.3385518 113.332271,52.6715927 112.839524,53.1208952 C112.346777,53.5701977 111.916227,53.9637916 111.547874,54.3016768 C111.179522,54.6383509 110.981457,54.8200096 110.953679,54.8466529 C110.922279,54.8732961 110.962133,54.8569469 111.073243,54.797605 C111.181937,54.7394742 111.0509,54.8599745 110.680132,55.1591058 C110.310572,55.4582372 110.113715,55.6090139 110.089561,55.611436" id="STROKE_4053a4dc-1207-47fe-bb8f-beee4af7585d" stroke="#000000" stroke-width="4"></path>
                    </g>
                </g>
                <g id="Group-7" transform="translate(0.000000, 12.534214)" fill="#022659" fill-rule="nonzero">
                    <path d="M50.9137253,123.710236 L66.1612974,127.247402 L54.183021,137.32316 L52.7782974,131.47714 C43.0604415,133.678779 34.7434491,135.265222 27.8193285,136.237683 C18.1036677,137.602204 9.40551879,137.644846 1.7243555,136.360071 L0.984191873,136.231594 L0,136.054489 L0.354210998,134.086105 L1.33840287,134.26321 C8.97663779,135.637712 17.7110855,135.637712 27.5411674,134.257121 C34.4004352,133.293768 42.6583024,131.718815 52.3121765,129.532156 L50.9137253,123.710236 Z" id="Line"></path>
                    <path d="M103.913725,195.710236 L119.161297,199.247402 L107.183021,209.32316 L105.778297,203.47714 C96.0604415,205.678779 87.7434491,207.265222 80.8193285,208.237683 C71.1036677,209.602204 62.4055188,209.644846 54.7243555,208.360071 L53.9841919,208.231594 L53,208.054489 L53.354211,206.086105 L54.3384029,206.26321 C61.9766378,207.637712 70.7110855,207.637712 80.5411674,206.257121 C87.4004352,205.293768 95.6583024,203.718815 105.312176,201.532156 L103.913725,195.710236 Z" id="Line-Copy" transform="translate(86.080649, 202.516698) rotate(-32.000000) translate(-86.080649, -202.516698) "></path>
                    <path d="M263.714301,208.466761 L276.981783,216.771816 L262.37725,222.402769 L262.946036,216.463608 C253.363385,215.861084 245.189333,216.036293 238.428461,216.985827 C228.852884,218.330674 222.531052,220.099059 219.542972,222.213244 L219.364194,222.343115 L218.562751,222.941186 L217.366609,221.3383 L218.168052,220.740229 C221.429733,218.306223 228.062147,216.422101 238.1503,215.005265 C245.072993,214.033004 253.400495,213.856294 263.137419,214.471703 L263.714301,208.466761 Z" id="Line-Copy-2" transform="translate(247.174196, 215.703974) rotate(-127.000000) translate(-247.174196, -215.703974) "></path>
                    <path d="M318.714301,106.466761 L331.981783,114.771816 L317.37725,120.402769 L317.946036,114.463608 C308.363385,113.861084 300.189333,114.036293 293.428461,114.985827 C283.852884,116.330674 277.531052,118.099059 274.542972,120.213244 L274.364194,120.343115 L273.562751,120.941186 L272.366609,119.3383 L273.168052,118.740229 C276.429733,116.306223 283.062147,114.422101 293.1503,113.005265 C300.072993,112.033004 308.400495,111.856294 318.137419,112.471703 L318.714301,106.466761 Z" id="Line-Copy-3" transform="translate(302.174196, 113.703974) rotate(179.000000) translate(-302.174196, -113.703974) "></path>
                    <path d="M295.714301,17.4667614 L308.981783,25.7718161 L294.37725,31.4027686 L294.946036,25.4636084 C285.363385,24.8610839 277.189333,25.0362929 270.428461,25.985827 C260.852884,27.330674 254.531052,29.0990594 251.542972,31.2132437 L251.364194,31.343115 L250.562751,31.9411861 L249.366609,30.3383 L250.168052,29.7402289 C253.429733,27.3062231 260.062147,25.4221007 270.1503,24.0052649 C277.072993,23.0330037 285.400495,22.8562938 295.137419,23.4717026 L295.714301,17.4667614 Z" id="Line-Copy-4" transform="translate(279.174196, 24.703974) rotate(140.000000) translate(-279.174196, -24.703974) "></path>
                </g>
            </g>
        </g>
    </g>
</svg>