<?xml version="1.0" encoding="UTF-8"?>
<svg width="81px" height="64px" viewBox="0 0 81 64" version="1.1" xmlns="http://www.w3.org/2000/svg" xmlns:xlink="http://www.w3.org/1999/xlink">
    <title>forschungsraum-icon</title>
    <defs>
        <filter color-interpolation-filters="auto" id="filter-1">
            <feColorMatrix in="SourceGraphic" type="matrix" values="0 0 0 0 0.007843 0 0 0 0 0.149020 0 0 0 0 0.349020 0 0 0 1.000000 0"></feColorMatrix>
        </filter>
    </defs>
    <g id="wireframes-v0.6" stroke="none" stroke-width="1" fill="none" fill-rule="evenodd">
        <g id="Home" transform="translate(-463.000000, -2049.000000)">
            <g id="Angebote" transform="translate(44.000000, 1872.000000)">
                <g id="forschungsraum-icon" transform="translate(419.374145, 177.400722)">
                    <g filter="url(#filter-1)" id="Werkstatt" stroke-linecap="round" stroke-linejoin="round">
                        <g transform="translate(2.173897, 0.000000)">
                            <path d="M26.1200449,14.080636 C25.9988036,14.1440149 25.9159698,14.1901744 25.8715433,14.2191146 C25.8274035,14.2480548 25.7944419,14.2699046 25.7726586,14.284664 C25.7503021,14.2991341 25.7441397,14.3018834 25.7541715,14.292912 C25.76363,14.2836511 25.733678,14.3026069 25.6643154,14.3497794 C25.5949527,14.3972412 25.5253035,14.4484653 25.4553677,14.5034516 C25.3848586,14.5584379 25.3556231,14.5831817 25.3676612,14.5776831 C25.3796994,14.5718951 25.3613555,14.5894039 25.3126297,14.6302095 C25.2639039,14.6713045 25.2392544,14.6891027 25.2386812,14.6836041 C25.2381079,14.6781054 25.1994139,14.7122548 25.1225991,14.7860522 C25.0460709,14.8598496 24.9312787,14.9769125 24.7782224,15.137241 C24.6260259,15.2975694 24.4953261,15.4392315 24.386123,15.5622271 C24.2769199,15.6852228 24.1708696,15.8061926 24.0679722,15.9251367 C23.965648,16.0440807 23.8796613,16.1543427 23.8100121,16.2559226 C23.7406494,16.3575026 23.6967962,16.4197239 23.6784524,16.4425866 C23.6598219,16.4651599 23.6457774,16.4852733 23.6363189,16.5029268 C23.6274336,16.5208697 23.6302998,16.5234744 23.6449176,16.5107407 C23.6589621,16.498007 23.6404749,16.5341822 23.5894562,16.6192663 C23.5378641,16.7040609 23.4768136,16.8065091 23.4063045,16.9266107 C23.3357954,17.0470017 23.2806206,17.1445301 23.2407801,17.2191957 C23.2012262,17.2941506 23.1982166,17.3180263 23.2317515,17.2908225 C23.264713,17.2636188 23.228312,17.3450853 23.1225483,17.5352221 C23.0162114,17.7256483 22.9042854,17.9360433 22.7867703,18.1664069 C22.6695417,18.3967705 22.5709436,18.5999304 22.490976,18.7758865 C22.4115816,18.9515533 22.3181427,19.1600671 22.2106593,19.401428 C22.1037492,19.6424994 22.0216319,19.8329256 21.9643074,19.9727066 C21.9072696,20.1121981 21.8516648,20.2518344 21.7974932,20.3916153 C21.743035,20.5311069 21.6904398,20.6721901 21.6397076,20.8148651 C21.5886888,20.95754 21.5373834,21.1106334 21.4857914,21.2741453 C21.434486,21.4373678 21.3894863,21.5785957 21.3507923,21.6978292 C21.311525,21.8170626 21.2734042,21.9552518 21.23643,22.1123969 C21.2000289,22.2692525 21.1686438,22.3803827 21.1422745,22.4457874 C21.1161919,22.5111922 21.0683259,22.7266516 20.9986767,23.0921658 C20.9293141,23.4576799 20.8866074,23.8211682 20.8705565,24.1826308 C20.8542191,24.5440933 20.8434707,24.8237999 20.8383115,25.0217505 C20.8328657,25.2197012 20.8272765,25.3558646 20.8215441,25.4302408 C20.815525,25.504617 20.8043468,25.6633537 20.7880093,25.906451 C20.7722451,26.1492589 20.7613534,26.3884493 20.7553343,26.6240221 C20.7490286,26.8598844 20.746449,27.041918 20.747331,27.1701229 C20.748742,27.2983277 20.7498885,27.3975925 20.751035,27.467917 C20.7527547,27.538531 20.7550477,27.6020546 20.7579139,27.6584879 C20.7602069,27.7149212 20.7637897,27.7531222 20.7686623,27.773091 C20.7738215,27.7930597 20.7752546,27.8011629 20.7729616,27.7974007 C20.7700954,27.7933491 20.768089,27.8658441 20.7669425,28.0148859 C20.7657961,28.1639277 20.7645063,28.3889374 20.7630731,28.689915 C20.7619267,28.9908926 20.7688056,29.2839117 20.78371,29.5689722 C20.7989009,29.8537433 20.8221173,30.1305559 20.8533592,30.3994099 C20.8854609,30.6679745 20.9101104,30.9034027 20.9273077,31.1056944 C20.9447917,31.3082754 20.9552534,31.4771412 20.9586929,31.6122918 C20.9618457,31.7477317 20.979473,31.9122565 21.0115747,32.1058661 C21.043963,32.2994757 21.0903959,32.522749 21.1508732,32.775686 C21.2113505,33.0283335 21.2812864,33.2685368 21.3606807,33.4962958 C21.4403618,33.7237654 21.5296446,33.938646 21.6285293,34.1409377 C21.7277007,34.34294 21.820423,34.5330768 21.9066963,34.7113481 C21.992683,34.8899089 22.0911378,35.0948052 22.2020607,35.326037 C22.3135568,35.5572688 22.4107217,35.7511679 22.4935556,35.9077341 C22.5763895,36.0645897 22.6318509,36.1638545 22.6599399,36.2055283 C22.6877422,36.2474915 22.730019,36.3175267 22.7867703,36.4156338 C22.8432349,36.5137409 22.8975498,36.6073623 22.9497151,36.696498 C23.0015937,36.7856337 23.0603513,36.8843196 23.1259878,36.9925558 C23.1907645,37.1010813 23.2242993,37.1562123 23.2265923,37.1579487 C23.2288852,37.1596852 23.3274833,37.3010578 23.5223865,37.5820667 C23.7164299,37.863365 23.8832441,38.1041471 24.0228291,38.3044129 C24.1621276,38.5046788 24.2706142,38.6577722 24.3482888,38.7636932 C24.4262501,38.8696141 24.4834313,38.9451479 24.5198323,38.9902946 C24.5556601,39.0357306 24.5676982,39.0494772 24.5559467,39.0315343 C24.5441952,39.0135914 24.5410424,39.0085269 24.5464882,39.0163407 C24.5522206,39.0241546 24.5533671,39.025891 24.5499277,39.02155 C24.5470614,39.0172089 24.5611059,39.0380458 24.5920611,39.0840607 C24.6227297,39.1300755 24.6903726,39.2210923 24.7949898,39.357111 C24.8993203,39.4931298 24.9461831,39.5524571 24.935578,39.535093 C24.924973,39.5174395 24.9327118,39.5245298 24.9587944,39.556364 C24.9851637,39.5881982 25.0235711,39.6301614 25.0740166,39.6822537 C25.1250354,39.7340565 25.2017069,39.8189959 25.3040311,39.9370717 C25.4060686,40.0551475 25.5429308,40.2147525 25.7146176,40.4158866 C25.886591,40.6167312 26.0377843,40.7897934 26.1681975,40.9350729 C26.2986106,41.0803525 26.4304569,41.2207122 26.5637363,41.3561522 C26.6975889,41.4913027 26.8209799,41.6077868 26.9339091,41.7056045 C27.0471249,41.8037116 27.1196403,41.865933 27.1514554,41.8922685 C27.1838438,41.9186041 27.2246874,41.9511617 27.2739865,41.9899415 C27.3227123,42.0290107 27.3479351,42.0488347 27.3496548,42.0494136 C27.3508013,42.0502818 27.3463586,42.0462301 27.3363268,42.0372587 C27.3257218,42.0282872 27.3542407,42.0510053 27.4218836,42.1054127 C27.4900997,42.1598202 27.5538732,42.2091632 27.613204,42.2534416 C27.6719616,42.2980095 27.6943182,42.3098749 27.6802737,42.289038 C27.667089,42.2682011 27.7013404,42.2884592 27.7830278,42.3498123 C27.8652884,42.4108761 28.0007175,42.5011694 28.189315,42.6206922 C28.3779125,42.740215 28.6320032,42.8999647 28.9515871,43.0999411 C29.2720309,43.2999176 29.5582233,43.4729797 29.8101644,43.6191275 C30.0612455,43.7652753 30.2795085,43.8839299 30.4649531,43.9750914 C30.6501112,44.0662529 30.8250941,44.1537968 30.989902,44.2377233 C31.1544232,44.3216497 31.3438806,44.4212039 31.5582741,44.5363857 C31.7732409,44.6515675 32.0211692,44.7563308 32.3020591,44.8506757 C32.5838089,44.94531 32.8419123,45.018818 33.0763694,45.0711997 C33.3113997,45.1235814 33.5695031,45.1707538 33.8506797,45.2127171 C34.1321428,45.2543909 34.3829374,45.2975117 34.6030633,45.3420796 C34.8234759,45.386358 35.0137932,45.4319387 35.1740151,45.4788218 C35.3336637,45.5259942 35.5271338,45.5679575 35.7544253,45.6047115 C35.9817168,45.6414654 36.2422566,45.6731549 36.5360445,45.6997799 C36.8304056,45.7264048 37.1143051,45.7482546 37.3877428,45.7653293 C37.6608939,45.782404 37.9238699,45.7945589 38.1766708,45.8017939 C38.4291851,45.8093183 38.6688014,45.8127912 38.8955197,45.8122744 C39.1222379,45.8122744 39.3362015,45.8075819 39.5374104,45.7991893 C39.7389059,45.791086 39.9257837,45.7789312 40.0980437,45.7627247 C40.2700172,45.7465182 40.4637739,45.7203274 40.6793139,45.6841522 C40.8942806,45.6476876 41.1651388,45.6047115 41.4918882,45.5552238 C41.8183511,45.5057361 42.144814,45.4543674 42.4712768,45.4011175 C42.7974531,45.348157 43.0647284,45.298814 43.2731028,45.2530886 C43.4814773,45.2076525 43.6054415,45.1816064 43.6449953,45.1749502 C43.6848359,45.1682939 43.8298668,45.1283565 44.0800881,45.0551379 C44.3303094,44.9822087 44.5828237,44.8923496 44.837631,44.7855604 C45.0915784,44.6787712 45.2874847,44.5894909 45.4253501,44.5177193 C45.5623556,44.4456583 45.6602371,44.3905273 45.7189947,44.3523263 C45.7774656,44.3138359 45.8922579,44.2411961 46.0633714,44.1344069 C46.2347716,44.0273284 46.3927005,43.9357328 46.5371582,43.8596202 C46.6821891,43.7835076 46.8573154,43.6783101 47.062537,43.5440278 C47.2674719,43.4097455 47.4100666,43.3093231 47.4903208,43.2427608 C47.5702885,43.1761984 47.6237435,43.130473 47.650686,43.1055845 C47.6773419,43.0804065 47.7008449,43.0585567 47.7211951,43.040035 C47.7406854,43.0218027 47.7950004,42.9702892 47.8841399,42.8854946 C47.9735661,42.8009893 48.0182792,42.7567109 48.0182792,42.7526593 C48.0182792,42.7488971 48.0138365,42.7539616 48.0049513,42.7678529 C47.9966392,42.7817441 48.0081041,42.7747985 48.0393459,42.747016 C48.0705878,42.718944 48.1234696,42.6769808 48.1979914,42.6211263 C48.27194,42.5649824 48.3116372,42.5330035 48.317083,42.5251897 C48.3222422,42.5173758 48.3153633,42.5290966 48.2964462,42.560352 C48.2772425,42.5913179 48.4330217,42.4907509 48.7637839,42.2586509 C49.095406,42.0265508 49.4066779,41.7849005 49.6975995,41.5337 C49.9888079,41.2824995 50.2066408,41.0949673 50.3510985,40.9711034 C50.4961294,40.8472396 50.6517654,40.7119443 50.8180063,40.5652178 C50.9842473,40.4182018 51.0805524,40.3297896 51.1069217,40.2999813 C51.1335775,40.2701729 51.1694053,40.2351553 51.214405,40.1949285 C51.2591181,40.1547017 51.339659,40.0745375 51.4560277,39.9544358 C51.5723964,39.8343342 51.6731441,39.712062 51.7582709,39.5876194 C51.8433978,39.4631767 51.9881421,39.276368 52.1925038,39.0271933 C52.3968655,38.7777292 52.544906,38.5997472 52.6366251,38.4932474 C52.7280577,38.3867477 52.8011464,38.2999272 52.8558912,38.2327861 C52.9106361,38.1653555 52.9946165,38.0461221 53.1078323,37.8750858 C53.2210481,37.7040494 53.3094711,37.5629662 53.3731013,37.451836 C53.4370181,37.3409952 53.4910464,37.2661849 53.5351862,37.2274051 C53.5787528,37.1889147 53.6403766,37.1013707 53.7200576,36.9647732 C53.8000253,36.8281757 53.9046424,36.6345661 54.0339091,36.3839443 C54.1631758,36.1330332 54.2756751,35.9016567 54.3714069,35.6898147 C54.4665655,35.4779728 54.5620108,35.2434129 54.6577427,34.9861349 C54.7534745,34.7291463 54.8414676,34.4795375 54.9217218,34.2373084 C55.0016895,33.9953687 55.0568643,33.8247665 55.0872463,33.7255018 C55.1173416,33.6265265 55.1444274,33.5334839 55.1685037,33.446374 C55.19258,33.3592642 55.2208123,33.2641957 55.2532006,33.1611688 C55.2858755,33.0578525 55.3166874,32.9623499 55.3456363,32.8746613 C55.3748718,32.787262 55.4036773,32.7002968 55.4320529,32.6137658 C55.4607152,32.5275241 55.4823552,32.4628429 55.4969729,32.4197221 C55.5107308,32.3768906 55.5146002,32.3608288 55.5085811,32.3715367 C55.5022754,32.382534 55.5095843,32.3657487 55.5305077,32.3211808 C55.5505713,32.2769024 55.5970041,32.1199021 55.6698062,31.8501798 C55.7431815,31.5804576 55.819853,31.2731132 55.8998206,30.9281465 C55.9797883,30.5834693 56.0414121,30.3261913 56.084692,30.1563126 C56.1271121,29.9864339 56.1682425,29.8638724 56.208083,29.788628 C56.2479235,29.713673 56.2837513,29.5867704 56.3155663,29.4079202 C56.3473814,29.2290701 56.3800564,28.9865516 56.4135912,28.6803648 C56.4468394,28.374178 56.4749284,28.0863681 56.4978582,27.8169353 C56.5202147,27.5477919 56.537842,27.296736 56.55074,27.0637678 C56.563638,26.8307995 56.5728099,26.595082 56.5782557,26.3566151 C56.5836299,26.1181483 56.5851347,25.8769321 56.5816952,25.6329666 C56.578829,25.3892905 56.5703736,25.1253563 56.5563291,24.841164 C56.5431445,24.5566823 56.5227943,24.2523765 56.4952786,23.9282468 C56.4677628,23.6041171 56.4395305,23.3171755 56.4105816,23.0674219 C56.3813462,22.817379 56.3488145,22.5595222 56.3129867,22.2938516 C56.2765857,22.028181 56.2396114,21.8038948 56.2020639,21.6209931 C56.1645164,21.4378019 56.1365707,21.3100311 56.1182268,21.2376807 C56.0995964,21.1650409 56.0878449,21.1440593 56.0829723,21.1747359 C56.0772399,21.2054124 56.0623355,21.1682243 56.0382592,21.0631716 C56.0141829,20.9578294 55.9730526,20.7659562 55.9148683,20.4875519 C55.8561107,20.2091476 55.7735635,19.94203 55.6672266,19.6861991 C55.5608897,19.4306575 55.4554127,19.2212755 55.3507955,19.058053 C55.2467516,18.8945412 55.1745228,18.7763206 55.134109,18.7033914 C55.093122,18.6304623 55.0458293,18.5479828 54.9922309,18.4559531 C54.9383459,18.3642128 54.9022315,18.3040173 54.8838877,18.2753666 C54.864684,18.2470052 54.8573751,18.2386126 54.8619611,18.2501886 C54.8671203,18.2617647 54.8615311,18.253372 54.8451937,18.2250107 C54.8288562,18.1963599 54.7577739,18.080744 54.6319466,17.878163 C54.5055462,17.6752925 54.4356103,17.5658987 54.4221391,17.5499816 C54.4086678,17.5337751 54.3329995,17.4232237 54.1951342,17.2183274 C54.0569822,17.0134312 53.8997698,16.8092584 53.7234971,16.6058091 C53.5469377,16.4023598 53.3931648,16.2266931 53.2621784,16.0788089 C53.131192,15.9306353 53.0251417,15.7928802 52.9440276,15.6655435 C52.8634867,15.5384962 52.8335347,15.4981247 52.8541715,15.5444289 C52.8748083,15.5907332 52.8577543,15.5567285 52.8030094,15.4424149 C52.7476913,15.3283907 52.6328991,15.1715351 52.4586327,14.971848 C52.2840797,14.7721609 52.1401952,14.6106749 52.0269794,14.4873898 C51.9140502,14.3643942 51.8208979,14.2752585 51.7475226,14.2199828 C51.6741473,14.1649965 51.6416156,14.140108 51.6499277,14.1453172 C51.6585264,14.1505264 51.6616792,14.1526969 51.6593862,14.1518287 C51.6576665,14.1509605 51.6526506,14.1467642 51.6443386,14.1392398 C51.6363131,14.1317153 51.5964726,14.1027752 51.524817,14.0524193 C51.4537347,14.0020634 51.3723339,13.9438937 51.2806148,13.8779102 C51.1888956,13.8119266 51.1049153,13.7476795 51.0286738,13.6851688 C50.9524322,13.622658 50.9186108,13.5944414 50.9272094,13.6005188 C50.9349482,13.6065962 50.9388176,13.6090562 50.9388176,13.6078986 C50.9382444,13.6067409 50.927926,13.5997953 50.9078624,13.5870616 C50.8875122,13.5740386 50.8046784,13.5084891 50.6593608,13.3904133 C50.5137567,13.2723375 50.3925154,13.1733621 50.2956371,13.0934873 C50.1987587,13.0133231 50.1203675,12.9490759 50.0604634,12.9007459 C49.9999861,12.8524158 49.9238879,12.7884581 49.8321687,12.7088727 C49.7407362,12.6295767 49.6461508,12.5514382 49.5484126,12.4744574 C49.450961,12.3974766 49.3843213,12.3445161 49.3484935,12.315576 C49.313239,12.2866358 49.2606438,12.244962 49.1907079,12.1905545 C49.1210587,12.136147 49.080215,12.1033 49.0681769,12.0920133 C49.0552789,12.0807266 49.0177313,12.0533782 48.9555343,12.009968 C48.892764,11.9668471 48.827844,11.9219899 48.7607744,11.8753962 C48.6928449,11.829092 48.6573037,11.8059399 48.6541509,11.8059399 C48.6507114,11.8062293 48.6621763,11.8099915 48.6885456,11.8172265 C48.7146282,11.824751 48.571317,11.7437185 48.258612,11.5741292 C47.9456204,11.4048293 47.7031379,11.2829913 47.5311645,11.2086151 C47.360051,11.1342389 47.1728866,11.0220958 46.9696713,10.8721858 C46.7664561,10.7225652 46.5873171,10.5969649 46.4322544,10.495385 C46.2771917,10.3940945 46.1122406,10.2920804 45.9374009,10.1893429 C45.7628479,10.0863159 45.6112247,10.001666 45.4825312,9.93539303 C45.3535512,9.86940948 45.2270074,9.81427848 45.1028999,9.77000005 C44.9790791,9.72572161 44.8446532,9.68100908 44.6996223,9.63586244 C44.5545914,9.59042639 44.4544169,9.56061804 44.3990988,9.54643736 C44.3432074,9.53225669 44.248622,9.51214328 44.1153426,9.48609714 C43.9820632,9.4603404 43.8231311,9.43429426 43.6385463,9.40795872 C43.4542482,9.38133378 43.2216541,9.35007842 42.9407642,9.31419263 C42.6595877,9.27830684 42.4100829,9.24574916 42.19225,9.21651961 C41.9747036,9.18700065 41.7499917,9.15531118 41.5181142,9.1214512 C41.2862367,9.08730182 41.0919067,9.05995337 40.9351243,9.03940587 C40.7786285,9.01856895 40.7247435,9.00699289 40.7734693,9.00467768 C40.8213352,9.00207307 40.794966,8.99107581 40.6943615,8.97168591 C40.5934705,8.952296 40.4255098,8.92306645 40.1904795,8.88399724 C39.9554491,8.84463863 39.7186991,8.81569848 39.4802293,8.79717678 C39.2411862,8.77894448 39.0004234,8.77084124 38.7579409,8.77256318 C38.5148852,8.77489286 38.300205,8.78039149 38.1139005,8.78936294 C37.927596,8.79862379 37.7375654,8.81598788 37.5438087,8.84145521 C37.3500519,8.86692255 37.2017249,8.88602305 37.0988275,8.89875672 C36.9956434,8.91149039 36.8708194,8.92494756 36.7243554,8.93912823 C36.5776047,8.95330891 36.3871442,8.98326197 36.1529737,9.02898741 C35.9196631,9.07471285 35.7016868,9.12260881 35.4990448,9.17267527 C35.2964028,9.22274174 35.1539515,9.25602292 35.0716909,9.2725188 C34.988857,9.28901469 34.8838099,9.31303502 34.7565496,9.34457979 C34.6295759,9.37583515 34.5498949,9.39580386 34.5175066,9.40448591 C34.484545,9.41316795 34.4011379,9.43574127 34.2672852,9.47220587 C34.1334326,9.50867046 34.016634,9.54151753 33.9168894,9.57074709 C33.8174315,9.59997665 33.7639764,9.61603843 33.7565242,9.61893245 C33.7487854,9.62211586 33.7258556,9.6292062 33.6877348,9.64020346 C33.6501873,9.65149012 33.6051876,9.66465789 33.5527357,9.67970677 C33.4999972,9.69475565 33.4812234,9.69432155 33.4964144,9.67840446 C33.5113188,9.66248738 33.4670356,9.67348464 33.363565,9.71139624 C33.2600943,9.74959724 33.1582001,9.78982405 33.0578822,9.83207668 C32.957851,9.87461871 32.8811796,9.90717638 32.8278678,9.9297497 C32.7742694,9.95232302 32.7490466,9.96172857 32.7521995,9.95796635 C32.7562122,9.95420413 32.7494766,9.95594054 32.7319926,9.96317558 C32.7147953,9.97041061 32.6594772,9.99254983 32.5660383,10.0295932 C32.4725994,10.066926 32.417138,10.0893546 32.399654,10.0968791 C32.38217,10.1046929 32.3783006,10.1032459 32.3880458,10.0925381 C32.3980776,10.0818302 32.3678389,10.0918146 32.2973298,10.1224911 C32.2262475,10.1531677 32.1438436,10.1889088 32.050118,10.2297144 C31.9566792,10.27052 31.8534951,10.3159561 31.7405659,10.3660225 C31.6273501,10.416089 31.5704555,10.4418457 31.5698823,10.4432927 C31.569309,10.4447397 31.5724619,10.443148 31.5793408,10.4385176 C31.5859331,10.4335978 31.5598505,10.4412669 31.5010929,10.461525 C31.4417621,10.4817831 31.2783874,10.5590533 31.0109687,10.6933357 C30.7438367,10.827618 30.543631,10.9346965 30.4103516,11.0145714 C30.2770722,11.0947356 30.1754646,11.1597062 30.1055287,11.2094833 C30.0350196,11.2595498 29.9986186,11.2835701 29.9963256,11.2815443 C29.9934594,11.2795185 29.9940326,11.2786503 29.9980453,11.2789397 C30.002058,11.2792291 30.0052109,11.2757563 30.0075039,11.2685212 C30.0095102,11.2612862 29.9792716,11.2815443 29.9167879,11.3292955 C29.8540176,11.3773362 29.797123,11.4208911 29.7461043,11.4599603 C29.6945122,11.4990295 29.6715825,11.5156701 29.6773149,11.5098821 C29.6824741,11.5043835 29.6777448,11.5043835 29.6631271,11.5098821 C29.6485094,11.5153807 29.6555316,11.5126314 29.6841938,11.5016342 C29.7119962,11.4906369 29.5742742,11.5828113 29.2710277,11.7781573 C28.9680679,11.9735034 28.7328943,12.1247157 28.5655068,12.2317942 C28.3981193,12.3388728 28.2836137,12.4138278 28.2219899,12.4566592 C28.1603661,12.4997801 28.0687903,12.5647507 27.9472624,12.6515712 C27.8265944,12.7383916 27.7768654,12.7741327 27.7980755,12.7587944 C27.8198588,12.7437456 27.7957825,12.7606755 27.7258466,12.8095844 C27.6559108,12.8584933 27.6273918,12.8787514 27.6402898,12.8703587 C27.6526146,12.8622555 27.654191,12.862979 27.6450191,12.8725292 C27.6361338,12.8820795 27.6099079,12.8987201 27.5663413,12.922451 C27.5230613,12.9461819 27.4664534,12.9839488 27.3965175,13.0357517 C27.3271549,13.0875546 27.2340027,13.16714 27.1170607,13.274508 C27.0001188,13.381876 26.897938,13.4759315 26.8105181,13.5566745 C26.7230983,13.6371281 26.6760923,13.6805383 26.6694999,13.6869052 C26.6620478,13.693272 26.6715063,13.6893651 26.6978756,13.6751844 C26.7236716,13.6612931 26.692573,13.6900886 26.60458,13.7615708 C26.5168735,13.8330529 26.4701541,13.8690834 26.4644217,13.8696622" id="STROKE_4053a4dc-1207-47fe-bb8f-beee4af7585d" stroke="#000000"></path>
                        </g>
                    </g>
                    <path d="M8.24040882,32.2874085 L15.757401,34.0359301 L9.57075469,38.6498121 L8.95377644,35.704 L8.7349572,35.7427238 C7.92197452,35.8822157 7.16906217,35.9971362 6.47615406,36.08748 C4.32706961,36.3676853 2.39248671,36.3892395 0.67219222,36.1511054 L0.246582817,36.0861611 L0,36.0449675 L0.0823872464,35.5518019 L0.328970063,35.5929955 C2.10201784,35.8891973 4.1296213,35.8891973 6.41150945,35.5916766 C7.09761352,35.5022199 7.84408195,35.3882791 8.65084868,35.2498486 L8.85177644,35.214 L8.24040882,32.2874085 Z" id="Line" fill="#022659" fill-rule="nonzero"></path>
                    <path d="M21.1022787,50.0695283 L28.6657531,51.6045706 L22.612188,56.3917252 L21.9127764,53.465 L21.6230278,53.5241156 C20.7237229,53.7036034 19.8946986,53.8511927 19.1358689,53.9668773 C16.9123619,54.3058537 14.9145666,54.3498569 13.1423183,54.0976092 L12.7373416,54.0341387 L12.4909353,53.9919024 L12.575408,53.4990897 L12.8218143,53.541326 C14.6364757,53.8523761 16.7161107,53.8299954 19.0605139,53.4725883 C19.8116298,53.3580797 20.6333879,53.2117787 21.525702,53.033679 L21.7967764,52.978 L21.1022787,50.0695283 Z" id="Line-Copy" fill="#022659" fill-rule="nonzero" transform="translate(20.578344, 53.230627) rotate(-32.000000) translate(-20.578344, -53.230627) "></path>
                    <path d="M58.6304689,51.7230707 L65.3706606,55.4823679 L58.1492689,58.2052344 L58.369,55.238 L58.2234987,55.2396901 C57.3160576,55.254116 56.4834349,55.3100261 55.7257752,55.4072875 C53.5037349,55.6925328 52.0160634,56.0813653 51.2817857,56.5556841 L51.1721108,56.6312843 L50.9709487,56.7797223 L50.6740728,56.3773981 L50.8752349,56.2289602 C51.6542369,55.6541329 53.2424661,55.2219691 55.6621122,54.911357 C56.4387396,54.8116607 57.2894724,54.7545095 58.2144552,54.7397706 L58.406,54.737 L58.6304689,51.7230707 Z" id="Line-Copy-2" fill="#022659" fill-rule="nonzero" transform="translate(58.022367, 54.964153) rotate(-130.000000) translate(-58.022367, -54.964153) "></path>
                    <path d="M71.8001733,27.9840347 L78.5816498,31.6683361 L71.3909054,34.4711372 L71.578,31.503 L71.3803347,31.5084836 C70.5458293,31.5369168 69.7763343,31.6018472 69.0719649,31.7031578 C66.8776499,32.0187695 65.4066634,32.4305803 64.6767775,32.9205507 L64.5676937,32.9985613 L64.3690591,33.1503647 L64.0654523,32.7530954 L64.2640869,32.601292 C65.0386209,32.0093666 66.6106096,31.5520329 69.0007816,31.2082508 C69.7234705,31.1043053 70.5105443,31.0378655 71.3621183,31.008814 L71.609,31.002 L71.8001733,27.9840347 Z" id="Line-Copy-3" fill="#022659" fill-rule="nonzero" transform="translate(71.323551, 31.227586) rotate(180.000000) translate(-71.323551, -31.227586) "></path>
                    <path d="M65.9293736,6.93426283 L72.755738,10.534714 L65.6000795,13.4259163 L65.751,10.454 L65.5318999,10.4625575 C64.6736368,10.5001213 63.8825817,10.5741568 63.1588488,10.684548 C60.9374098,11.0233848 59.4456412,11.4490425 58.7009955,11.9442161 L58.5896312,12.0229766 L58.3900605,12.1735473 L58.0889192,11.7744058 L58.2884899,11.6238352 C59.0756439,11.029949 60.6671805,10.5588201 63.0834556,10.1902648 C63.8252889,10.0771128 64.6337189,10.0014256 65.5088598,9.96308721 L65.776,9.953 L65.9293736,6.93426283 Z" id="Line-Copy-4" fill="#022659" fill-rule="nonzero" transform="translate(65.422329, 10.180090) rotate(140.000000) translate(-65.422329, -10.180090) "></path>
                </g>
            </g>
        </g>
    </g>
</svg>