<?xml version="1.0" encoding="UTF-8"?>
<svg width="276px" height="252px" viewBox="0 0 276 252" version="1.1" xmlns="http://www.w3.org/2000/svg" xmlns:xlink="http://www.w3.org/1999/xlink">
    <title>forschungsraum-3</title>
    <defs>
        <linearGradient x1="50%" y1="9.7304405%" x2="18.7246887%" y2="63.3013672%" id="linearGradient-1">
            <stop stop-color="#90B5FF" offset="0%"></stop>
            <stop stop-color="#D4D4D4" offset="100%"></stop>
        </linearGradient>
        <filter x="-9.0%" y="-10.0%" width="117.9%" height="120.0%" filterUnits="objectBoundingBox" id="filter-2">
            <feGaussianBlur stdDeviation="7" in="SourceGraphic"></feGaussianBlur>
        </filter>
    </defs>
    <g id="wireframes-v0.6" stroke="none" stroke-width="1" fill="none" fill-rule="evenodd">
        <g id="Forschungsraum" transform="translate(-72.000000, -1320.000000)">
            <g id="forschungsraum-3" transform="translate(93.000000, 1341.000000)">
                <g id="Triangle-Blur" fill="url(#linearGradient-1)">
                    <polygon id="Triangle" filter="url(#filter-2)" points="117 0 234 210 0 210"></polygon>
                </g>
                <path d="M206.093929,113.145339 L207.854661,114.093929 L207.380366,114.974295 C203.296601,122.554411 197.650585,128.828665 190.451827,133.78781 C186.171374,136.736566 181.038845,139.429176 175.054163,141.868526 L177.010914,147.600365 L161.5,145.5 L172.486841,134.351487 L174.406866,139.972541 C180.218013,137.596786 185.188155,134.985259 189.317216,132.140795 C196.045642,127.505657 201.356341,121.69015 205.257983,114.685842 L205.619634,114.025705 L206.093929,113.145339 Z" id="Line" fill="#022659" fill-rule="nonzero"></path>
                <path d="M11.5984705,199.876224 C11.9104832,199.403558 12.2377647,198.985992 12.5803148,198.623527 C12.9188818,198.261061 13.2282391,197.924485 13.5083867,197.6138 C13.7885343,197.303115 14.0315059,197.002388 14.2373015,196.711619 C14.4444249,196.42085 14.6488928,196.074316 14.8507052,195.672019 C15.0538454,195.268394 15.2589772,194.8495 15.4661006,194.415338 C15.6732239,193.981176 15.9115485,193.51714 16.1810744,193.02323 C16.4479448,192.530648 16.7400419,192.072587 17.0573654,191.649046 C17.3733613,191.225506 17.6647945,190.756823 17.9316649,190.242998 C18.1985354,189.7305 18.4348684,189.246549 18.640664,188.791143 C18.8424765,188.337065 19.0495998,187.892281 19.262034,187.45679 C19.4771237,187.022628 19.7194314,186.603071 19.9889573,186.198118 C20.2584832,185.793165 20.4828668,185.492438 20.6621081,185.295936 C20.8440049,185.098107 21.0305487,184.858455 21.2217395,184.576979 C21.4116025,184.294176 21.585533,184.025314 21.743531,183.770393 C21.9041843,183.515472 22.0887365,183.227358 22.2971876,182.906052 C22.5043109,182.583417 22.7346692,182.225598 22.9882626,181.832595 C23.2431836,181.44092 23.5273143,181.013396 23.8406548,180.550024 C24.1539952,180.086652 24.4965453,179.588759 24.8683052,179.056346 C25.2387373,178.523933 25.6350598,177.956999 26.0572728,177.355545 C26.4847966,176.752763 26.9010349,176.162594 27.3059875,175.585038 C27.7135956,175.007483 28.1052712,174.441877 28.4810142,173.88822 C28.8541017,173.334564 29.214576,172.79352 29.562437,172.26509 C29.910298,171.737988 30.2435541,171.224826 30.5622054,170.725606 C30.8808567,170.226386 31.1908779,169.74177 31.4922689,169.27176 C31.7896767,168.803077 32.075799,168.349662 32.3506358,167.911517 C32.6254725,167.473371 32.8916791,167.051158 33.1492556,166.644878 C33.4055043,166.239925 33.6504675,165.850241 33.8841451,165.475826 C34.1271167,165.104066 34.3641136,164.735626 34.5951358,164.370504 C34.8288134,164.005383 35.0598356,163.644245 35.2882024,163.28709 C35.5192245,162.928607 35.7462636,162.574108 35.9693195,162.223591 C36.1923754,161.873075 36.4114481,161.525878 36.6265378,161.182 C36.8442828,160.838122 37.0739773,160.478312 37.3156212,160.102569 C37.5559374,159.726826 37.8062114,159.335814 38.0664433,158.929534 C38.322692,158.523253 38.5908902,158.100376 38.8710378,157.660903 C39.1511854,157.222758 39.4426185,156.76868 39.7453373,156.298669 C40.0493837,155.828658 40.3527663,155.35732 40.655485,154.884654 C40.956876,154.41066 41.2576032,153.934675 41.5576665,153.456698 C41.8617129,152.978721 42.1650955,152.498752 42.4678142,152.016792 C42.7692052,151.534832 43.0705963,151.050881 43.3719873,150.564937 C43.6693951,150.077666 43.985391,149.575791 44.3199749,149.05931 C44.6545587,148.542829 45.0024197,148.011744 45.3635578,147.466054 C45.7260237,146.919035 46.1017666,146.356749 46.4907868,145.779193 C46.8771515,145.20031 47.2787848,144.606158 47.695687,143.996738 C48.1139168,143.387317 48.5314827,142.784535 48.9483848,142.188392 C49.3666147,141.59092 49.786836,141.002079 50.209049,140.421868 C50.6299342,139.84033 51.0528111,139.266758 51.4776794,138.701151 C51.9052033,138.135545 52.3340548,137.577906 52.764234,137.028232 C53.195741,136.478559 53.6046768,135.953448 53.9910415,135.4529 C54.3800616,134.95368 54.7451829,134.479686 55.0864053,134.030919 C55.4316109,133.583479 55.7562369,133.161266 56.0602833,132.76428 C56.3656575,132.368621 56.6504521,131.998853 56.9146671,131.654975 C57.1802098,131.311097 57.4291561,130.985143 57.661506,130.677114 C57.8978391,130.369084 58.1680288,130.010601 58.4720753,129.601666 C58.7774494,129.19273 59.0755211,128.787113 59.3662904,128.384816 C59.6597152,127.982519 59.9723918,127.55765 60.3043202,127.110211 C60.6362486,126.661444 60.9416228,126.251844 61.2204426,125.881412 C61.5005902,125.51098 61.7641414,125.152497 62.0110962,124.805964 C62.2567232,124.45943 62.5355431,124.062444 62.8475558,123.615004 C63.1582408,123.167565 63.4994632,122.671 63.8712231,122.12531 C64.2443106,121.579619 64.6512549,120.98414 65.0920558,120.338871 C65.5248905,119.696257 65.9291793,119.09945 66.3049223,118.548449 C66.6833207,117.998776 67.0338371,117.495572 67.3564715,117.038838 C67.6751228,116.582105 67.9884633,116.137321 68.2964928,115.704486 C68.6031947,115.271652 68.9052496,114.850102 69.2026574,114.439839 C69.501393,114.030903 69.7828683,113.639228 70.0470834,113.264812 C70.3139538,112.891725 70.6199918,112.45026 70.9651974,111.940418 C71.3130584,111.431904 71.6708772,110.875591 72.0386539,110.271482 C72.4064306,109.666044 72.6971999,109.18342 72.9109618,108.82361 C73.1260515,108.4638 73.3862833,108.036276 73.6916575,107.541038 C73.9983594,107.045801 74.2798347,106.581101 74.5360834,106.146939 C74.7949876,105.712777 75.0246821,105.335706 75.2251668,105.015727 C75.4243239,104.69442 75.6380858,104.358509 75.8664525,104.007992 C76.0948193,103.656148 76.2740607,103.380648 76.4041766,103.181491 C76.5303094,102.983661 76.6126277,102.850226 76.6511314,102.781185 C76.6909628,102.712144 76.7898774,102.539541 76.9478754,102.263376 C77.1032179,101.987212 77.2758207,101.707728 77.4656837,101.424925 C77.6542191,101.140795 77.8859051,100.807538 78.1607418,100.425157 C78.438234,100.042775 78.7290033,99.6464528 79.0330497,99.2361892 C79.333113,98.824598 79.6491089,98.3990658 79.9810373,97.9595925 C80.3103103,97.5201193 80.6760955,97.0328483 81.0783927,96.4977797 C81.48069,95.9640388 81.8590884,95.4608353 82.2135879,94.9881692 C82.5667598,94.5168309 82.8654954,94.112542 83.1097947,93.7753028 C83.3501109,93.4380635 83.5964018,93.0888748 83.8486674,92.7277366 C84.0969498,92.3679262 84.3498793,91.9961664 84.6074557,91.6124571 C84.8637045,91.2300756 85.121281,90.8357446 85.3801851,90.4294642 C85.6430724,90.0231838 85.909279,89.6056179 86.1788049,89.1767663 C86.4483308,88.7492425 86.7218398,88.3104331 86.999332,87.8603382 C87.2768242,87.4102432 87.5596272,86.9488627 87.847741,86.4761967 C88.1318718,86.0048583 88.4219772,85.5222344 88.7180574,85.0283249 C89.0114821,84.5344154 89.3022514,84.0504637 89.5903653,83.5764699 C89.874496,83.1024761 90.1539798,82.6384402 90.4288165,82.1843621 C90.7023255,81.730284 90.9725153,81.2868276 91.2393857,80.853993 C91.5036007,80.4198306 91.7638326,79.9962899 92.0200814,79.5833709 C92.2776578,79.170452 92.5305873,78.7681547 92.7788698,78.3764792 C93.0258245,77.9834759 93.2668045,77.6010944 93.5018099,77.2293345 C93.7407983,76.8575747 93.974476,76.4964366 94.2028427,76.1459202 C94.4312095,75.794076 94.7087016,75.3705353 95.0353192,74.8752981 C95.3645922,74.3800609 95.7171002,73.8423369 96.0928432,73.262126 C96.4659307,72.6832428 96.8084809,72.144191 97.1204936,71.6449707 C97.4311786,71.1457503 97.7319057,70.641883 98.022675,70.1333686 C98.3134444,69.6248543 98.5922642,69.1116929 98.8591347,68.5938846 C99.1260051,68.0760762 99.3669852,67.6200066 99.5820748,67.2256756 C99.7971644,66.8300169 100.024203,66.4277197 100.263192,66.0187838 C100.504836,65.609848 100.745816,65.2002483 100.986132,64.7899848 C101.230431,64.3797213 101.440874,63.9873819 101.61746,63.6129666 C101.795374,63.2385513 102.048303,62.7970865 102.376248,62.2885722 C102.702866,61.7787301 103.013551,61.3007532 103.308303,60.8546414 C103.604383,60.4072019 103.938967,59.9066538 104.312055,59.3529972 C104.685142,58.7980128 105.052255,58.2523225 105.413393,57.7159262 C105.773204,57.1795298 106.12704,56.6517636 106.474901,56.1326276 C106.822762,55.6121638 107.163984,55.100994 107.498568,54.5991182 C107.833152,54.0972425 108.159769,53.6039968 108.47842,53.1193813 C108.797072,52.6334381 109.10311,52.1594443 109.396535,51.6973999 C109.692615,51.2353556 109.975418,50.7852606 110.244944,50.3471151 C110.514469,49.9089696 110.772046,49.4834373 111.017673,49.0705184 C111.264628,48.6575994 111.499633,48.2566299 111.722689,47.8676097 C111.943089,47.4799173 112.156851,47.1101491 112.363975,46.7583049 C112.571098,46.4077885 112.817389,45.9968611 113.102847,45.5255228 C113.388306,45.0541844 113.68505,44.5801906 113.993079,44.1035414 C114.305092,43.6255644 114.624407,43.1376297 114.951025,42.639737 C115.274987,42.1431721 115.606915,41.6366493 115.94681,41.1201687 C116.284049,40.603688 116.606684,40.0978291 116.914713,39.6025919 C117.224071,39.106027 117.588528,38.5012534 118.008086,37.7882711 C118.426315,37.0752889 118.742975,36.52296 118.958065,36.1312844 C119.173154,35.7409366 119.432059,35.2563211 119.734777,34.6774379 C120.038824,34.0985547 120.74052,33.2667421 121.839867,32.182 C122.081511,32.5789864 122.197022,32.7608832 122.186401,32.7276903 C122.305895,32.9109148 122.492439,33.1983648 122.746032,33.5900404 C122.999625,33.9817159 123.323587,34.440441 123.717918,34.9662156 C124.109594,35.4906626 124.282197,35.7123907 124.235727,35.6314002 C124.189257,35.5517374 124.197223,35.5597037 124.259626,35.6552991 C124.322028,35.7508944 124.343935,35.7489029 124.325347,35.6493243 C124.306759,35.5484181 124.365179,35.5902411 124.500606,35.7747933 C124.634705,35.9580178 124.841828,36.2680389 125.121976,36.7048567 C125.402123,37.1403468 125.679615,37.5831394 125.954452,38.0332343 C126.229289,38.4833293 126.499479,38.9400628 126.765021,39.4034349 C127.029236,39.8681347 127.272872,40.2890199 127.495928,40.6660906 C127.718984,41.044489 127.965275,41.452761 128.2348,41.8909065 C128.504326,42.329052 128.700164,42.6689467 128.822314,42.9105906 C128.941808,43.1522345 129.006202,43.1840996 129.015496,43.006186 C129.028773,42.8296001 129.19009,43.0878404 129.499448,43.780907 C129.804822,44.4739735 130.097583,45.051529 130.37773,45.5135733 C130.660533,45.9756177 130.912135,46.382562 131.132536,46.7344061 C131.350281,47.0862502 131.583958,47.4600016 131.833568,47.8556603 C132.084506,48.2526467 132.320176,48.622415 132.540576,48.9649651 C132.758321,49.3075153 133.008595,49.6952077 133.291398,50.1280423 C133.574201,50.5622047 133.930692,51.0355347 134.360872,51.5480321 C134.793706,52.0618573 135.146214,52.4820787 135.418395,52.8086963 C135.690577,53.1366416 135.933548,53.4234278 136.14731,53.6690548 C136.359745,53.9160095 136.457995,54.0401508 136.442063,54.0414785 C136.42613,54.0441339 136.406878,54.0355038 136.384307,54.0155881 C136.363064,53.9956724 136.344476,53.9830591 136.328543,53.9777482 C136.316594,53.9711097 136.384307,54.0640496 136.531683,54.2565681 C136.676404,54.4490866 136.89946,54.739192 137.200851,55.1268844 C137.498259,55.5132491 137.771768,55.8723957 138.021378,56.2043241 C138.269661,56.5362525 138.540514,56.9093401 138.833939,57.3235868 C139.130019,57.7391612 139.411494,58.1467693 139.678365,58.5464111 C139.945235,58.9460529 140.210778,59.362955 140.474993,59.7971174 C140.740536,60.2312798 140.989482,60.6468542 141.221832,61.0438406 C141.452854,61.4421547 141.730346,61.9393835 142.054309,62.5355269 C142.380926,63.1329981 142.565478,63.4775398 142.607965,63.5691521 C142.649124,63.662092 142.755341,63.8844841 142.926617,64.2363282 C143.100547,64.5868446 143.269167,64.9300586 143.432475,65.2659702 C143.59844,65.6018817 143.787639,65.9889103 144.000073,66.4270558 C144.212507,66.8638736 144.430252,67.3060023 144.653308,67.7534418 C144.876364,68.1995536 145.107386,68.6496486 145.346375,69.1037266 C145.586691,69.5591324 145.831654,70.0171937 146.081264,70.4779103 C146.329547,70.9399547 146.588451,71.4053184 146.857977,71.8740013 C147.12883,72.3413565 147.392382,72.7914515 147.64863,73.2242861 C147.907534,73.6571208 148.161792,74.0733591 148.411402,74.4730009 C148.66234,74.8726427 148.909958,75.2556881 149.154258,75.6221371 C149.397229,75.9872584 149.696629,76.4187653 150.052456,76.916658 C150.408283,77.4132229 150.817883,77.9994085 151.281255,78.6752148 C151.74861,79.351021 152.153563,79.9465006 152.496113,80.4616536 C152.839991,80.9768065 153.153331,81.470716 153.436134,81.9433821 C153.718937,82.4173759 153.992446,82.8794202 154.256661,83.3295152 C154.522204,83.7809378 154.749243,84.1726134 154.937779,84.5045418 C155.127642,84.8364702 155.322152,85.1843312 155.521309,85.5481248 C155.723121,85.9119183 155.930908,86.2923083 156.14467,86.6892947 C156.357105,87.0862811 156.573522,87.4998639 156.793922,87.9300432 C157.0276,88.3535838 157.251984,88.7671667 157.467073,89.1707916 C157.684818,89.5757443 157.897252,89.9707391 158.104376,90.3557761 C158.308844,90.7408131 158.509992,91.1158922 158.707822,91.4810135 C158.904323,91.8474625 159.14132,92.290255 159.418812,92.809391 C159.693649,93.3298548 159.997032,93.8954609 160.32896,94.5062092 C160.663544,95.1169575 160.980204,95.6852189 161.278939,96.2109936 C161.579003,96.7380959 161.856495,97.2286861 162.111416,97.6827642 C162.367664,98.13817 162.603334,98.5563998 162.818423,98.9374537 C163.033513,99.3185075 163.228023,99.6630492 163.401953,99.9710788 C163.573229,100.279108 163.757117,100.608381 163.953618,100.958898 C164.154103,101.309414 164.364546,101.675863 164.584946,102.058245 C164.808002,102.441954 165.052965,102.856865 165.319836,103.302976 C165.586706,103.750416 165.744704,104.02658 165.79383,104.13147 C165.842955,104.236359 165.996306,104.496591 166.253882,104.912165 C166.510131,105.326412 166.729204,105.694853 166.911101,106.017487 C167.092998,106.340121 167.282197,106.685991 167.478698,107.055095 C167.672545,107.4242 167.856433,107.768078 168.030363,108.086729 C168.201639,108.40538 168.362956,108.698141 168.514315,108.965011 C168.667002,109.23321 168.84558,109.543895 169.050048,109.897066 C169.254515,110.248911 169.486865,110.644569 169.747097,111.084043 C170.006001,111.522188 170.308056,112.024064 170.653262,112.58967 C170.995812,113.153948 171.382177,113.782621 171.812356,114.475687 C172.23988,115.167426 172.644169,115.821325 173.025222,116.437384 C173.408932,117.053443 173.769406,117.631663 174.106645,118.172042 C174.441229,118.711094 174.783779,119.262095 175.134296,119.825046 C175.480829,120.387996 175.833337,120.962233 176.19182,121.547754 C176.55163,122.134604 176.880903,122.667017 177.179639,123.144994 C177.475719,123.621643 177.740598,124.04452 177.974275,124.413624 C178.20397,124.781401 178.462874,125.166438 178.750988,125.568735 C179.041757,125.969705 179.359745,126.387271 179.70495,126.821433 C180.048828,127.255595 180.340261,127.620053 180.57925,127.914805 C180.818238,128.209558 181.035983,128.473773 181.232485,128.70745 C181.427659,128.941128 181.669303,129.260443 181.957416,129.665396 C182.246858,130.069021 182.37631,130.217725 182.345773,130.111508 C182.311252,130.005291 182.357722,130.051097 182.485183,130.248926 C182.615299,130.446755 182.781263,130.732878 182.983075,131.107293 C183.184888,131.483036 183.376742,131.841519 183.558639,132.182741 C183.73788,132.523963 183.940357,132.910992 184.166068,133.343827 C184.391779,133.776661 184.634087,134.236714 184.892991,134.723985 C185.151896,135.209928 185.42806,135.722426 185.721485,136.261478 C186.012254,136.800529 186.31962,137.366135 186.643582,137.958296 C186.967544,138.550456 187.307439,139.169171 187.663266,139.814439 C188.017766,140.459708 188.359652,141.077095 188.688925,141.6666 C189.018198,142.256105 189.33353,142.817064 189.634921,143.349477 C189.933656,143.883218 190.219115,144.388413 190.491296,144.865062 C190.760822,145.341712 191.017071,145.790479 191.260042,146.211364 C191.501686,146.632249 191.713457,147.000026 191.895353,147.314694 C192.075923,147.63069 192.255828,147.945358 192.435069,148.258699 C192.61431,148.572039 192.699948,148.726054 192.691982,148.720743 C192.686671,148.715432 192.814131,148.941143 193.074363,149.397877 C193.330612,149.853283 193.588188,150.310016 193.847093,150.768078 C194.107325,151.224811 194.412035,151.759216 194.761224,152.371292 C195.109085,152.98204 195.434374,153.558932 195.737093,154.101967 C196.04114,154.645002 196.322615,155.15418 196.581519,155.629501 C196.844406,156.104823 197.084723,156.546288 197.302468,156.953896 C197.520213,157.360176 197.71605,157.733264 197.889981,158.073158 C198.062584,158.413053 198.254438,158.782157 198.465545,159.180472 C198.672668,159.580113 198.899043,160.008965 199.14467,160.467026 C199.391625,160.926415 199.655176,161.415014 199.935324,161.932822 C200.215471,162.45063 200.513543,162.998976 200.829539,163.577859 C201.145535,164.155415 201.440951,164.69845 201.715788,165.206964 C201.99328,165.716806 202.250193,166.192128 202.486526,166.632929 C202.720203,167.072402 202.933965,167.478018 203.127811,167.849778 C203.322985,168.222866 203.537411,168.636449 203.771089,169.090527 C204.000783,169.545933 204.231142,170.018599 204.462164,170.508525 C204.695841,170.997124 204.929519,171.521571 205.163197,172.081866 C205.394219,172.642161 205.625905,173.160633 205.858255,173.637282 C206.091932,174.113932 206.210099,174.370844 206.212754,174.40802 C206.218065,174.443868 206.236653,174.477725 206.268518,174.50959 C206.2964,174.540128 206.420541,174.791729 206.640942,175.264395 C206.858687,175.737062 207.073777,176.218358 207.286211,176.708284 C207.5013,177.199538 207.641374,177.521509 207.706432,177.674196 C207.774146,177.825555 207.831237,177.94173 207.877707,178.022721 C207.924177,178.103711 207.908909,178.086451 207.831901,177.97094 C207.753566,177.855429 207.805347,178.014091 207.987244,178.446925 C208.16914,178.87976 208.360995,179.321225 208.562808,179.77132 C208.767275,180.221415 209.016222,180.751172 209.309646,181.360593 C209.605727,181.968686 209.898488,182.544914 210.187929,183.089276 C210.478698,183.633639 210.766812,184.147464 211.052271,184.630752 C211.340385,185.11404 211.620532,185.567454 211.892713,185.990994 C212.164895,186.415863 212.426454,186.812185 212.677392,187.179962 C212.929658,187.547739 213.164663,187.894272 213.382408,188.219562 C213.600153,188.544852 213.845116,188.920595 214.117298,189.346791 C214.389479,189.771659 214.627804,190.179267 214.832272,190.569615 C215.038067,190.961291 215.227266,191.31579 215.399869,191.633114 C215.5738,191.950437 215.76831,192.290332 215.983399,192.652798 C216.202472,193.016592 216.339891,193.266202 216.395655,193.401629 C216.450091,193.538383 216.581534,193.757456 216.789986,194.058847 C216.997109,194.361566 217.088721,194.497656 217.064822,194.467119 C217.039596,194.435254 217.024327,194.415338 217.019016,194.407372 C217.01105,194.399405 217.226139,194.763863 217.664285,195.500744 C218.105086,196.236297 218.500745,196.909448 218.851261,197.520196 C219.201777,198.130945 219.556941,198.742357 219.916751,199.354433 C220.277889,199.967837 220.463105,200.27653 220.472399,200.280513 C220.483021,200.283169 220.55339,200.394697 220.683506,200.615097 C220.81495,200.83417 220.919839,201.004781 220.998174,201.126931 C221.076509,201.250408 221.442294,201.861156 222.095529,202.959176 C221.390514,202.995024 221.095761,203.010957 221.211272,203.006973 C221.328111,203.00299 221.312842,203.002326 221.165466,203.004982 C221.015434,203.00631 220.644338,203.034855 220.052178,203.090619 C219.461345,203.145056 218.745708,203.205467 217.905265,203.271852 C217.063495,203.338238 216.402293,203.385372 215.921661,203.413254 C215.445012,203.441136 215.04205,203.461715 214.712777,203.474992 C214.383504,203.489597 214.278615,203.483623 214.398109,203.457068 C214.518931,203.429186 214.290564,203.431842 213.713009,203.465035 C213.134126,203.498227 212.455664,203.529429 211.677624,203.558638 C210.899584,203.58652 210.412313,203.609755 210.215811,203.628343 C210.019309,203.648259 209.725221,203.668839 209.333545,203.690082 C208.94187,203.711325 208.422734,203.739871 207.776137,203.77572 C207.130868,203.81024 206.58385,203.842769 206.135083,203.873307 C205.688971,203.903844 205.276716,203.933718 204.898318,203.962927 C204.522575,203.992137 204.029993,204.027321 203.420572,204.06848 C202.811152,204.108312 202.491837,204.132211 202.462627,204.140177 C202.432089,204.146816 202.204387,204.155446 201.779518,204.166067 C201.350667,204.176689 200.911857,204.182 200.46309,204.182 C200.015651,204.182 199.48191,204.178681 198.861867,204.172042 C198.24448,204.165404 197.738622,204.16142 197.344291,204.160093 C196.94996,204.158765 196.664501,204.159429 196.487915,204.162084 C196.310002,204.166067 196.071677,204.168059 195.772941,204.168059 C195.476861,204.169387 195.12037,204.169387 194.703468,204.168059 C194.285238,204.168059 193.934058,204.162748 193.649927,204.152126 C193.364469,204.141505 193.107556,204.120261 192.879189,204.088396 C192.653478,204.057859 192.442372,204.03396 192.24587,204.0167 C192.048041,203.999439 191.935185,203.990145 191.907303,203.988818 C191.880749,203.98749 191.706818,203.97023 191.385511,203.937037 C191.064205,203.903844 190.804637,203.88592 190.606807,203.883264 C190.40765,203.880609 190.249652,203.844761 190.132814,203.77572 C190.015975,203.706678 189.795574,203.655562 189.471612,203.622369 C189.144995,203.589176 188.766596,203.564613 188.336417,203.548681 C187.90491,203.532748 187.513234,203.520135 187.16139,203.510841 C186.810874,203.501547 186.427165,203.492917 186.010262,203.48495 C185.594688,203.475656 185.145921,203.46769 184.663961,203.461051 C184.182001,203.454413 183.666184,203.447774 183.11651,203.441136 C182.568165,203.435825 182.031104,203.431178 181.50533,203.427195 C180.975572,203.423212 180.4571,203.420556 179.949913,203.419228 C179.444054,203.416573 178.946162,203.415245 178.456235,203.415245 C177.967637,203.415245 177.490324,203.415909 177.024296,203.417237 C176.554285,203.418565 176.070334,203.421884 175.572441,203.427195 C175.074549,203.431178 174.562715,203.437153 174.03694,203.445119 C173.512493,203.453085 172.972778,203.462379 172.417793,203.473001 C171.862809,203.483623 171.292556,203.495572 170.707034,203.508849 C170.124168,203.522126 169.544621,203.532748 168.968393,203.540714 C168.392165,203.550008 167.820585,203.556647 167.253651,203.56063 C166.682734,203.564613 166.117128,203.565941 165.556833,203.564613 C164.996538,203.563285 164.438898,203.559302 163.883914,203.552664 C163.331585,203.547353 162.807802,203.538059 162.312564,203.524782 C161.817327,203.512832 161.350636,203.497564 160.91249,203.478976 C160.477,203.460388 160.070056,203.439144 159.691657,203.415245 C159.310604,203.391346 158.878433,203.356162 158.395145,203.309692 C157.913185,203.26455 157.449149,203.218744 157.003037,203.172274 C156.556925,203.127131 156.145998,203.082653 155.770255,203.038838 C155.397168,202.993696 155.168801,202.9771 155.085155,202.989049 C155.002837,203.000999 154.781108,202.998343 154.41997,202.981083 C154.06016,202.963823 153.548326,202.932621 152.884469,202.887479 C152.217957,202.843665 151.517588,202.806489 150.783362,202.775951 C150.051792,202.746741 149.287029,202.722843 148.489073,202.704255 C147.689789,202.686994 147.000042,202.671062 146.419831,202.656457 C145.835637,202.641852 145.359652,202.628575 144.991875,202.616626 C144.624098,202.606004 144.20786,202.600029 143.74316,202.598701 C143.278461,202.597374 142.860895,202.597374 142.490463,202.598701 C142.117375,202.600029 141.714414,202.602685 141.281579,202.606668 C140.848745,202.610651 140.42454,202.613306 140.008966,202.614634 C139.596047,202.617289 139.095499,202.619945 138.507321,202.6226 C137.9218,202.623928 137.281178,202.623928 136.585456,202.6226 C135.891062,202.6226 135.16613,202.620609 134.410661,202.616626 C133.656519,202.61397 132.87516,202.610651 132.066582,202.606668 C131.254021,202.604012 130.493905,202.602021 129.786234,202.600693 C129.075907,202.600693 128.418689,202.601357 127.814579,202.602685 C127.210469,202.604012 126.60636,202.606004 126.00225,202.608659 C125.39814,202.611315 124.798014,202.614634 124.20187,202.618617 C123.601743,202.623928 123.025516,202.628575 122.473187,202.632558 C121.923513,202.636541 121.448192,202.641188 121.047222,202.646499 C120.644925,202.650482 120.226031,202.655129 119.790541,202.66044 C119.356379,202.667079 118.967359,202.675709 118.623481,202.686331 C118.278275,202.69828 117.915146,202.71554 117.534092,202.738111 C117.153038,202.76201 116.888159,202.797195 116.739455,202.843665 C116.594734,202.890135 116.250193,202.898765 115.70583,202.869555 C115.164123,202.839018 114.64034,202.803833 114.134481,202.764002 C113.625967,202.722843 113.047747,202.67239 112.399823,202.612642 C111.747916,202.551568 111.112604,202.493812 110.49389,202.439376 C109.871192,202.384939 109.267082,202.333159 108.681561,202.284033 C108.094711,202.234908 107.523794,202.187774 106.96881,202.142632 C106.41117,202.098817 105.870791,202.057658 105.347672,202.019154 C104.823225,201.979323 104.316038,201.944802 103.826112,201.915593 C103.336185,201.885055 102.861528,201.860493 102.402139,201.841905 C101.941422,201.823317 101.496638,201.810703 101.067786,201.804065 C100.640263,201.796098 100.129757,201.794771 99.5362687,201.800082 C98.9414529,201.80672 98.2995034,201.803401 97.6104199,201.790124 C96.9226642,201.778174 96.3570582,201.760914 95.9136018,201.738343 C95.46749,201.715772 95.0386385,201.698512 94.6270472,201.686562 C94.2141283,201.67594 93.7434538,201.665983 93.2150237,201.656689 C92.6839382,201.648722 92.0950972,201.64142 91.4485006,201.634781 C90.8058872,201.628143 90.1021989,201.622168 89.3374358,201.616857 C88.571345,201.611546 87.8590266,201.605572 87.2004806,201.598933 C86.5392792,201.592294 85.9298586,201.585656 85.3722188,201.579017 C84.8145791,201.571051 84.309384,201.563749 83.8566336,201.55711 C83.4025556,201.550471 82.9106376,201.542505 82.3808799,201.533211 C81.8524498,201.523917 81.3027763,201.513295 80.7318594,201.501346 C80.1622703,201.489397 79.6603945,201.478111 79.2262321,201.467489 C78.7960528,201.45554 78.2981602,201.448237 77.7325542,201.445582 C77.1682758,201.442927 76.536948,201.445582 75.8385706,201.453548 C75.1415209,201.460187 74.4750086,201.470809 73.8390337,201.485413 C73.2043866,201.498691 72.6002768,201.515287 72.0267045,201.535203 C71.4544599,201.555118 70.9837854,201.571051 70.614681,201.583 C70.2495597,201.59495 69.9880001,201.602252 69.8300022,201.604908 C69.6720042,201.608891 69.4044699,201.609555 69.0273992,201.606899 C68.6543117,201.605572 68.300476,201.60358 67.9658921,201.600925 C67.6313083,201.598269 67.2542376,201.59495 66.8346801,201.590967 C66.4111394,201.588311 65.944448,201.584992 65.4346059,201.581009 C64.9207807,201.578353 64.363141,201.575698 63.7616867,201.573043 C63.1575769,201.570387 62.5089888,201.567732 61.8159222,201.565076 C61.1241834,201.562421 60.3853107,201.560429 59.5993042,201.559102 C58.8159531,201.557774 58.0797359,201.55711 57.3906524,201.55711 C56.7028967,201.555782 56.0622749,201.554455 55.4687869,201.553127 C54.8766265,201.553127 54.3316001,201.552463 53.8337074,201.551135 C53.3384702,201.551135 52.8903668,201.551135 52.4893973,201.551135 C52.0871,201.549808 51.6536015,201.549144 51.1889017,201.549144 C50.7281851,201.549144 50.2342756,201.549144 49.7071732,201.549144 C49.1813986,201.549144 48.6237588,201.54848 48.0342539,201.547152 C47.4460768,201.547152 46.828026,201.547152 46.1801018,201.547152 C45.5281943,201.547152 44.9108075,201.547152 44.3279411,201.547152 C43.7477302,201.547152 43.2007122,201.547152 42.686887,201.547152 C42.1757172,201.547152 41.6984041,201.547152 41.2549478,201.547152 C40.8114914,201.547152 40.4018917,201.547152 40.0261487,201.547152 C39.6530612,201.547152 39.2680242,201.547152 38.8710378,201.547152 C38.4740514,201.547152 38.0657794,201.547152 37.6462219,201.547152 C37.2253367,201.547152 36.7944936,201.547152 36.3536926,201.547152 C35.9102362,201.547152 35.456822,201.547152 34.9934499,201.547152 C34.5287501,201.547152 34.0799829,201.547152 33.6471482,201.547152 C33.2116581,201.547152 32.6918582,201.546488 32.0877485,201.545161 C31.482311,201.545161 30.8403614,201.544497 30.1618997,201.543169 C29.4794549,201.541841 28.9324368,201.542505 28.5208456,201.545161 C28.110582,201.547816 27.8350815,201.551799 27.6943438,201.55711 C27.5522784,201.563749 27.2880634,201.568396 26.9016987,201.571051 C26.5126786,201.573706 25.9995173,201.575034 25.3622147,201.575034 C24.7235844,201.575034 24.1712555,201.573043 23.705228,201.569059 C23.2378727,201.565076 22.7811392,201.55711 22.3350274,201.545161 C21.8862602,201.534539 21.4919292,201.505993 21.1520345,201.459523 C20.8147952,201.414381 20.6541419,201.397784 20.6700744,201.409734 C20.686007,201.421683 20.6574611,201.415708 20.5844369,201.39181 C20.5140681,201.367911 20.5373031,201.371894 20.6541419,201.403759 C20.7683252,201.435624 20.5585465,201.410398 20.0248056,201.328079 C19.4884092,201.245761 19.0031299,201.164771 18.5689675,201.085108 C18.1387882,201.006773 17.731844,200.945698 17.3481347,200.901883 C16.9670809,200.859396 16.7831925,200.835498 16.7964697,200.830187 C16.8097468,200.826204 16.7566383,200.817573 16.637144,200.804296 C16.5176498,200.789691 16.5707584,200.804296 16.7964697,200.848111 C17.0195256,200.890598 16.7732347,200.86338 16.057597,200.766456 C15.3446147,200.670861 14.1994617,200.512199 12.6221378,200.290471" id="STROKE_848006a3-1937-4eda-b3b4-235caf61916a" stroke="#000000" stroke-width="4" stroke-linecap="round" stroke-linejoin="round"></path>
            </g>
        </g>
    </g>
</svg>