<?xml version="1.0" encoding="UTF-8"?>
<svg width="67px" height="81px" viewBox="0 0 67 81" version="1.1" xmlns="http://www.w3.org/2000/svg" xmlns:xlink="http://www.w3.org/1999/xlink">
    <title>werkstatt-powers</title>
    <g id="Page-1" stroke="none" stroke-width="1" fill="none" fill-rule="evenodd" stroke-linecap="round" stroke-linejoin="round">
        <g id="werkstatt-powers" transform="translate(1.000000, 1.000000)" stroke="#B04900" stroke-width="1.5">
            <g transform="translate(0.000000, 0.000000)">
                <path d="M19.851,3.68137624 C19.841,4.30070957 19.8293333,5.49670957 19.816,7.26937624 C19.8026667,9.0420429 19.78,10.9150429 19.748,12.8883762 C19.7153333,14.8617096 19.6493333,17.6080429 19.55,21.1273762 C19.4513333,24.6467096 19.3966667,26.7160429 19.386,27.3353762 C19.376,27.9540429 19.3546667,28.8237096 19.322,29.9443762 C19.2893333,31.0650429 19.2646667,32.0547096 19.248,32.9133762 C19.2293333,33.7713762 19.213,34.5083762 19.199,35.1243762 C19.1843333,35.7397096 19.1603333,37.0410429 19.127,39.0283762 C19.0943333,41.0157096 19.0713333,42.5080429 19.058,43.5053762 C19.0453333,44.5027096 19.0363333,45.2973762 19.031,45.8893762 C19.0256667,46.4820429 19.0196667,47.1560429 19.013,47.9113762 C19.007,48.6667096 19,49.2960429 18.992,49.7993762 C18.984,50.3020429 18.9793333,51.2220429 18.978,52.5593762 C18.9753333,53.8967096 18.974,54.7843762 18.974,55.2223762 C18.974,55.6603762 18.982,56.2483762 18.998,56.9863762" id="STROKE_1a3e0b29-0af8-4497-aa8b-b2c1527d0636"></path>
                <path d="M27.894,3.82137624 C27.8913333,4.35870957 27.8893333,5.2690429 27.888,6.55237624 C27.8866667,7.83570957 27.8853333,8.9630429 27.884,9.93437624 C27.8813333,10.9057096 27.875,12.2940429 27.865,14.0993762 C27.8543333,15.9040429 27.8243333,17.9733762 27.775,20.3073762 C27.727,22.6420429 27.682,24.3753762 27.64,25.5073762 C27.5986667,26.6400429 27.5486667,27.9457096 27.49,29.4243762 C27.4326667,30.9030429 27.391,31.9473762 27.365,32.5573762 C27.339,33.1680429 27.3023333,33.8383762 27.255,34.5683762 C27.2096667,35.2990429 27.159,36.2527096 27.103,37.4293762 C27.0456667,38.6060429 26.9826667,39.8680429 26.914,41.2153762 C26.8446667,42.5627096 26.7763333,43.8513762 26.709,45.0813762 C26.6423333,46.3113762 26.5856667,47.4073762 26.539,48.3693762 C26.4916667,49.3320429 26.448,50.2340429 26.408,51.0753762 C26.3673333,51.9167096 26.332,52.7027096 26.302,53.4333762 C26.2733333,54.1640429 26.2323333,55.0440429 26.179,56.0733762" id="STROKE_caf751e7-915f-48e9-8701-865fecf3a940"></path>
                <path d="M20.111,3.54037624 C20.133,3.4490429 20.2346667,3.1920429 20.416,2.76937624 C20.598,2.34670957 20.801,1.98670957 21.025,1.68937624 C21.2476667,1.3920429 21.413,1.18870957 21.521,1.07937624 C21.629,0.970042904 21.7743333,0.853376238 21.957,0.729376238 C22.139,0.605376238 22.3713333,0.484376238 22.654,0.366376238 C22.9353333,0.248376238 23.1213333,0.177709571 23.212,0.154376238 C23.3033333,0.131042904 23.4936667,0.102709571 23.783,0.0693762376 C24.073,0.0360429043 24.4583333,0.0703762376 24.939,0.172376238 C25.4183333,0.274376238 25.788,0.402709571 26.048,0.557376238 C26.3086667,0.712042904 26.611,0.912709571 26.955,1.15937624 L27.168,1.36037624 C27.5013333,1.8170429 27.705,2.1400429 27.779,2.32937624 L28.013,3.41837624 L28.062,3.82137624" id="STROKE_a62e8978-73c7-4380-a68b-11ab3245a184"></path>
                <path d="M19.103,57.4143762 L19.283,57.7423762 C19.293,57.7697096 19.4063333,57.9383762 19.623,58.2483762 C19.839,58.5583762 20.137,58.8490429 20.517,59.1203762 C20.8963333,59.3917096 21.2533333,59.5757096 21.588,59.6723762 C21.9213333,59.7683762 22.3236667,59.8187096 22.795,59.8233762 C23.2663333,59.8273762 23.5983333,59.7977096 23.791,59.7343762 C23.9836667,59.6717096 24.1143333,59.6237096 24.183,59.5903762 C24.2523333,59.5577096 24.3716667,59.4797096 24.541,59.3563762 C24.711,59.2330429 24.8456667,59.1110429 24.945,58.9903762 C25.0436667,58.8703762 25.0963333,58.8083762 25.103,58.8043762 C25.1096667,58.8003762 25.2263333,58.5720429 25.453,58.1193762 C25.6796667,57.6667096 25.9393333,57.0910429 26.232,56.3923762 L26.179,56.3923762 L26.095,56.4143762" id="STROKE_9a02c3a6-0838-4424-a9a5-d577cc21a644"></path>
                <path d="M37.863,3.62337624 C37.8523333,4.24270957 37.8406667,5.43870957 37.828,7.21137624 C37.8146667,8.9840429 37.7916667,10.8573762 37.759,12.8313762 C37.727,14.8047096 37.6613333,17.5510429 37.562,21.0703762 C37.4633333,24.5897096 37.4086667,26.6587096 37.398,27.2773762 C37.3873333,27.8960429 37.366,28.7657096 37.334,29.8863762 C37.3013333,31.0070429 37.2763333,31.9967096 37.259,32.8553762 C37.241,33.7140429 37.225,34.4510429 37.211,35.0663762 C37.1963333,35.6823762 37.172,36.9837096 37.138,38.9703762 C37.1053333,40.9577096 37.0826667,42.4500429 37.07,43.4473762 C37.0566667,44.4447096 37.0476667,45.2393762 37.043,45.8313762 C37.0376667,46.4240429 37.0316667,47.0980429 37.025,47.8533762 C37.0183333,48.6093762 37.0113333,49.2387096 37.004,49.7413762 C36.996,50.2440429 36.9913333,51.1640429 36.99,52.5013762 C36.9873333,53.8387096 36.986,54.7267096 36.986,55.1653762 C36.986,55.6033762 36.9936667,56.1913762 37.009,56.9293762" id="STROKE_daf40b86-61fc-4244-a467-1890f39bc928"></path>
                <path d="M45.906,3.76437624 C45.9033333,4.3010429 45.9013333,5.21137624 45.9,6.49537624 C45.8986667,7.77870957 45.8973333,8.9060429 45.896,9.87737624 C45.8933333,10.8480429 45.887,12.2360429 45.877,14.0413762 C45.8663333,15.8467096 45.8363333,17.9163762 45.787,20.2503762 C45.7383333,22.5843762 45.6933333,24.3177096 45.652,25.4503762 C45.61,26.5823762 45.56,27.8877096 45.502,29.3663762 C45.4446667,30.8450429 45.403,31.8897096 45.377,32.5003762 C45.351,33.1103762 45.3143333,33.7807096 45.267,34.5113762 C45.2216667,35.2413762 45.171,36.1947096 45.115,37.3713762 C45.0576667,38.5480429 44.9943333,39.8100429 44.925,41.1573762 C44.8563333,42.5047096 44.788,43.7933762 44.72,45.0233762 C44.654,46.2533762 44.5973333,47.3497096 44.55,48.3123762 C44.5033333,49.2743762 44.46,50.1760429 44.42,51.0173762 C44.3793333,51.8587096 44.344,52.6447096 44.314,53.3753762 C44.2853333,54.1060429 44.2443333,54.9863762 44.191,56.0163762" id="STROKE_57aa864d-054f-4369-a0ea-e79584dc206c"></path>
                <path d="M38.123,3.48337624 C38.145,3.39137624 38.2463333,3.13437624 38.427,2.71237624 C38.6096667,2.28970957 38.813,1.92970957 39.037,1.63237624 C39.2596667,1.3350429 39.425,1.13137624 39.533,1.02137624 C39.641,0.912042904 39.786,0.795376238 39.968,0.671376238 C40.1506667,0.548042904 40.3833333,0.427376238 40.666,0.309376238 C40.9473333,0.191376238 41.1333333,0.120709571 41.224,0.0973762376 C41.3153333,0.0740429043 41.5056667,0.045709571 41.795,0.0123762376 C42.085,-0.0209570957 42.4703333,0.0130429043 42.951,0.114376238 C43.4303333,0.216376238 43.8,0.344709571 44.06,0.499376238 C44.3206667,0.654709571 44.6226667,0.855709571 44.966,1.10237624 L45.179,1.30237624 C45.5123333,1.7590429 45.7163333,2.0820429 45.791,2.27137624 L46.025,3.36137624 L46.074,3.76437624" id="STROKE_77cd7115-5775-427d-8d91-1213295fca5b"></path>
                <path d="M37.115,57.3563762 L37.295,57.6843762 C37.305,57.7117096 37.418,57.8803762 37.634,58.1903762 C37.8506667,58.5003762 38.149,58.7910429 38.529,59.0623762 C38.9076667,59.3343762 39.2643333,59.5183762 39.599,59.6143762 C39.9323333,59.7103762 40.3346667,59.7607096 40.806,59.7653762 C41.2773333,59.7693762 41.6093333,59.7400429 41.802,59.6773762 C41.9946667,59.6140429 42.1256667,59.5660429 42.195,59.5333762 C42.2636667,59.5000429 42.3826667,59.4217096 42.552,59.2983762 C42.7226667,59.1750429 42.8576667,59.0533762 42.957,58.9333762 C43.0556667,58.8127096 43.1083333,58.7503762 43.115,58.7463762 C43.1216667,58.7430429 43.238,58.5150429 43.464,58.0623762 C43.6906667,57.6090429 43.9506667,57.0333762 44.244,56.3353762 L44.191,56.3353762 L44.107,56.3563762" id="STROKE_8bf257f2-ab69-4891-a0c2-38b717c25ce1"></path>
                <path d="M56.295,4.08737624 C56.2843333,4.70670957 56.2723333,5.90270957 56.259,7.67537624 C56.2463333,9.4480429 56.2236667,11.3213762 56.191,13.2953762 C56.1583333,15.2687096 56.0926667,18.0150429 55.994,21.5343762 C55.8946667,25.0537096 55.84,27.1227096 55.83,27.7413762 C55.8193333,28.3600429 55.7976667,29.2297096 55.765,30.3503762 C55.7323333,31.4717096 55.707,32.4613762 55.689,33.3193762 C55.6723333,34.1780429 55.6566667,34.9150429 55.642,35.5303762 C55.628,36.1463762 55.6046667,37.4477096 55.572,39.4343762 C55.538,41.4217096 55.5146667,42.9140429 55.502,43.9113762 C55.4886667,44.9087096 55.4793333,45.7033762 55.474,46.2953762 C55.4686667,46.8880429 55.463,47.5620429 55.457,48.3173762 C55.4503333,49.0733762 55.443,49.7027096 55.435,50.2053762 C55.427,50.7080429 55.422,51.6280429 55.42,52.9653762 C55.4186667,54.3027096 55.418,55.1907096 55.418,55.6293762 C55.418,56.0673762 55.4256667,56.6553762 55.441,57.3933762" id="STROKE_e3aeab4e-f2af-4956-81a1-29607ffae76e"></path>
                <path d="M64.338,4.22837624 C64.3353333,4.7650429 64.3333333,5.67537624 64.332,6.95937624 C64.3306667,8.24270957 64.3286667,9.3700429 64.326,10.3413762 C64.3246667,11.3120429 64.3186667,12.7000429 64.308,14.5053762 C64.298,16.3107096 64.2686667,18.3803762 64.22,20.7143762 C64.1706667,23.0483762 64.1253333,24.7817096 64.084,25.9143762 C64.042,27.0463762 63.9923333,28.3517096 63.935,29.8303762 C63.8763333,31.3090429 63.834,32.3537096 63.808,32.9643762 C63.782,33.5743762 63.7463333,34.2447096 63.701,34.9753762 C63.6536667,35.7053762 63.6016667,36.6587096 63.545,37.8353762 C63.489,39.0120429 63.4263333,40.2740429 63.357,41.6213762 C63.2883333,42.9687096 63.2206667,44.2573762 63.154,45.4873762 C63.086,46.7173762 63.0286667,47.8137096 62.982,48.7763762 C62.9353333,49.7383762 62.8916667,50.6400429 62.851,51.4813762 C62.811,52.3227096 62.7766667,53.1087096 62.748,53.8393762 C62.718,54.5700429 62.6763333,55.4503762 62.623,56.4803762" id="STROKE_01e11561-7744-41d4-ab75-48266f1da07d"></path>
                <path d="M56.554,3.94737624 C56.5766667,3.85537624 56.679,3.5980429 56.861,3.17537624 C57.0416667,2.75337624 57.2433333,2.39370957 57.466,2.09637624 C57.69,1.7990429 57.856,1.59537624 57.964,1.48537624 C58.0726667,1.3760429 58.218,1.25937624 58.4,1.13537624 C58.582,1.0120429 58.8136667,0.891376238 59.095,0.773376238 C59.3776667,0.655376238 59.5646667,0.584709571 59.656,0.561376238 C59.7473333,0.538042904 59.938,0.509709571 60.228,0.476376238 C60.5173333,0.443042904 60.9013333,0.477042904 61.38,0.578376238 C61.8606667,0.680376238 62.2313333,0.808709571 62.492,0.963376238 C62.752,1.11870957 63.054,1.31970957 63.398,1.56637624 L63.611,1.76637624 C63.9443333,2.2230429 64.148,2.5460429 64.222,2.73537624 L64.457,3.82537624 L64.505,4.22837624" id="STROKE_d8acee8a-0da2-4625-a9ef-465531d64d7f"></path>
                <path d="M55.546,57.8203762 L55.726,58.1483762 C55.7366667,58.1757096 55.85,58.3443762 56.066,58.6543762 C56.282,58.9643762 56.5796667,59.2550429 56.959,59.5263762 C57.339,59.7983762 57.6956667,59.9823762 58.029,60.0783762 C58.3636667,60.1743762 58.7666667,60.2247096 59.238,60.2293762 C59.7093333,60.2333762 60.0413333,60.2040429 60.234,60.1413762 C60.4266667,60.0780429 60.5576667,60.0300429 60.627,59.9973762 C60.6956667,59.9640429 60.8153333,59.8857096 60.986,59.7623762 C61.1553333,59.6390429 61.2893333,59.5173762 61.388,59.3973762 C61.4873333,59.2767096 61.54,59.2147096 61.546,59.2113762 C61.5526667,59.2073762 61.6693333,58.9790429 61.896,58.5263762 C62.1226667,58.0737096 62.3823333,57.4980429 62.675,56.7993762 L62.623,56.7993762 L62.539,56.8203762" id="STROKE_00bd5884-6f95-4ded-b6b1-da32bd2e726c"></path>
                <path d="M1.97,3.87037624 C1.96,4.48970957 1.94833333,5.68570957 1.935,7.45837624 C1.92233333,9.2310429 1.89966667,11.1043762 1.867,13.0783762 C1.83433333,15.0517096 1.76866667,17.7980429 1.67,21.3173762 C1.57066667,24.8367096 1.51566667,26.9057096 1.505,27.5243762 C1.495,28.1430429 1.47366667,29.0127096 1.441,30.1333762 C1.40833333,31.2547096 1.383,32.2443762 1.365,33.1023762 C1.34766667,33.9610429 1.332,34.6980429 1.318,35.3133762 C1.30333333,35.9293762 1.28,37.2307096 1.248,39.2173762 C1.214,41.2047096 1.19033333,42.6970429 1.177,43.6943762 C1.16433333,44.6917096 1.15533333,45.4863762 1.15,46.0783762 C1.14466667,46.6710429 1.13866667,47.3450429 1.132,48.1003762 C1.126,48.8563762 1.119,49.4857096 1.111,49.9883762 C1.103,50.4917096 1.09766667,51.4117096 1.095,52.7483762 C1.09366667,54.0857096 1.093,54.9737096 1.093,55.4123762 C1.093,55.8503762 1.101,56.4383762 1.117,57.1763762" id="STROKE_f305ea40-7e8c-4872-879b-71585590e728"></path>
                <path d="M10.013,4.01137624 C10.0103333,4.5480429 10.0083333,5.45837624 10.007,6.74237624 C10.0056667,8.02570957 10.004,9.1530429 10.002,10.1243762 C10.0006667,11.0957096 9.99466667,12.4837096 9.984,14.2883762 C9.97333333,16.0937096 9.944,18.1633762 9.896,20.4973762 C9.84666667,22.8313762 9.801,24.5647096 9.759,25.6973762 C9.71766667,26.8293762 9.66833333,28.1347096 9.611,29.6133762 C9.55233333,31.0927096 9.51,32.1373762 9.484,32.7473762 C9.458,33.3573762 9.42233333,34.0277096 9.377,34.7583762 C9.32966667,35.4883762 9.27733333,36.4417096 9.22,37.6183762 C9.164,38.7950429 9.10166667,40.0570429 9.033,41.4043762 C8.96366667,42.7517096 8.896,44.0403762 8.83,45.2703762 C8.762,46.5003762 8.70466667,47.5967096 8.658,48.5593762 C8.61133333,49.5213762 8.56766667,50.4230429 8.527,51.2643762 C8.48633333,52.1057096 8.45166667,52.8917096 8.423,53.6223762 C8.39366667,54.3530429 8.352,55.2333762 8.298,56.2633762" id="STROKE_f6c13534-acf4-4671-8f66-cc07ac46ca63"></path>
                <path d="M2.23,3.73037624 C2.252,3.63837624 2.35433333,3.38137624 2.537,2.95937624 C2.71766667,2.53670957 2.91933333,2.17670957 3.142,1.87937624 C3.366,1.5820429 3.532,1.37837624 3.64,1.26837624 C3.748,1.1590429 3.89333333,1.04237624 4.076,0.918376238 C4.258,0.795042904 4.48966667,0.674376238 4.771,0.556376238 C5.05366667,0.438376238 5.24066667,0.367709571 5.332,0.344376238 C5.42266667,0.321042904 5.61333333,0.292709571 5.904,0.259376238 C6.19333333,0.226042904 6.57733333,0.260376238 7.056,0.362376238 C7.53666667,0.463709571 7.90733333,0.591709571 8.168,0.746376238 C8.428,0.901709571 8.73,1.10270957 9.074,1.34937624 L9.287,1.54937624 C9.62033333,2.0060429 9.824,2.3290429 9.898,2.51837624 L10.132,3.60837624 L10.181,4.01137624" id="STROKE_60cd79a8-171f-4682-b466-423615c97ec7"></path>
                <path d="M1.222,57.6033762 L1.402,57.9313762 C1.41266667,57.9587096 1.526,58.1273762 1.742,58.4373762 C1.958,58.7473762 2.25533333,59.0380429 2.634,59.3093762 C3.01466667,59.5813762 3.37166667,59.7653762 3.705,59.8613762 C4.03966667,59.9573762 4.44266667,60.0077096 4.914,60.0123762 C5.38533333,60.0163762 5.71733333,59.9870429 5.91,59.9243762 C6.10266667,59.8610429 6.23333333,59.8130429 6.302,59.7803762 C6.37133333,59.7470429 6.49133333,59.6687096 6.662,59.5453762 C6.83133333,59.4220429 6.96533333,59.3003762 7.064,59.1803762 C7.16266667,59.0597096 7.21533333,58.9973762 7.222,58.9933762 C7.22866667,58.9900429 7.34533333,58.7620429 7.572,58.3093762 C7.79866667,57.8560429 8.05833333,57.2803762 8.351,56.5823762 L8.298,56.5823762 L8.214,56.6033762" id="STROKE_3b6ee7fb-403c-42dc-b1c9-9119e005ae98"></path>
                <path d="M21.517,70.0603762 L21.492,70.0783762 L21.406,70.2083762 C21.1873333,70.4843762 21.046,70.6627096 20.982,70.7433762 C20.9193333,70.8247096 20.8646667,70.8973762 20.818,70.9613762 C20.7726667,71.0247096 20.6696667,71.1533762 20.509,71.3473762 C20.3476667,71.5407096 20.2313333,71.6823762 20.16,71.7723762 C20.088,71.8623762 20.0233333,71.9500429 19.966,72.0353762 C19.91,72.1207096 19.847,72.2147096 19.777,72.3173762 C19.7063333,72.4207096 19.621,72.5443762 19.521,72.6883762 C19.421,72.8330429 19.283,73.0587096 19.107,73.3653762 C18.931,73.6727096 18.7916667,73.9723762 18.689,74.2643762 C18.5876667,74.5570429 18.5146667,74.8817096 18.47,75.2383762 C18.4273333,75.5950429 18.411,75.8773762 18.421,76.0853762 C18.4316667,76.2927096 18.4596667,76.4787096 18.505,76.6433762 C18.551,76.8080429 18.619,76.9620429 18.709,77.1053762 C18.7996667,77.2493762 18.8463333,77.3220429 18.849,77.3233762 C18.8503333,77.3247096 18.9156667,77.3943762 19.045,77.5323762 C19.1736667,77.6703762 19.292,77.7733762 19.4,77.8413762 C19.508,77.9087096 19.6343333,77.9703762 19.779,78.0263762 C19.925,78.0823762 20.0813333,78.1317096 20.248,78.1743762 C20.4133333,78.2170429 20.593,78.2577096 20.787,78.2963762 C20.9823333,78.3350429 21.2516667,78.3607096 21.595,78.3733762 C21.9403333,78.3860429 22.2216667,78.3790429 22.439,78.3523762 C22.6563333,78.3257096 22.8393333,78.2843762 22.988,78.2283762 C23.1366667,78.1730429 23.2513333,78.1250429 23.332,78.0843762 C23.4126667,78.0437096 23.4613333,78.0203762 23.478,78.0143762 C23.4953333,78.0090429 23.6293333,77.9187096 23.88,77.7433762 C24.1326667,77.5673762 24.323,77.4020429 24.451,77.2473762 C24.5796667,77.0927096 24.676,76.9550429 24.74,76.8343762 C24.8053333,76.7143762 24.8516667,76.6047096 24.879,76.5053762 C24.9063333,76.4067096 24.9303333,76.3083762 24.951,76.2103762 C24.973,76.1130429 24.9826667,75.9610429 24.98,75.7543762 C24.9773333,75.5477096 24.9363333,75.2993762 24.857,75.0093762 C24.779,74.7200429 24.712,74.5003762 24.656,74.3503762 C24.6,74.2003762 24.572,74.1223762 24.572,74.1163762 C24.572,74.1103762 24.525,74.0027096 24.431,73.7933762 C24.3376667,73.5840429 24.164,73.2793762 23.91,72.8793762 C23.656,72.4800429 23.452,72.1853762 23.298,71.9953762 C23.1433333,71.8053762 23.0366667,71.6740429 22.978,71.6013762 C22.9206667,71.5287096 22.86,71.4593762 22.796,71.3933762 C22.7326667,71.3273762 22.6826667,71.2757096 22.646,71.2383762 C22.6093333,71.2010429 22.5696667,71.1577096 22.527,71.1083762 C22.4836667,71.0577096 22.421,70.9757096 22.339,70.8623762 C22.257,70.7490429 22.1873333,70.6557096 22.13,70.5823762 C22.0733333,70.5090429 22.028,70.4470429 21.994,70.3963762 C21.9586667,70.3450429 21.9333333,70.3127096 21.918,70.2993762 C21.902,70.2860429 21.812,70.1293762 21.648,69.8293762" id="STROKE_14a6fd32-47c4-42eb-9074-fe58d64eaaa1"></path>
                <path d="M36.369,70.3313762 C36.373,70.3440429 36.3903333,70.3700429 36.421,70.4093762 C36.4343333,70.4200429 36.467,70.4710429 36.519,70.5623762 C36.571,70.6543762 36.6633333,70.7993762 36.796,70.9973762 C36.9293333,71.1947096 37.0643333,71.4090429 37.201,71.6403762 C37.3363333,71.8717096 37.4366667,72.0573762 37.502,72.1973762 C37.568,72.3373762 37.6173333,72.4460429 37.65,72.5233762 C37.6826667,72.6007096 37.701,72.6500429 37.705,72.6713762 C37.709,72.6927096 37.722,72.7537096 37.744,72.8543762 C37.766,72.9557096 37.7803333,73.0437096 37.787,73.1183762 C37.793,73.1930429 37.796,73.2337096 37.796,73.2403762 C37.796,73.2470429 37.7903333,73.2623762 37.779,73.2863762 C37.7683333,73.3103762 37.7286667,73.3917096 37.66,73.5303762 C37.5906667,73.6690429 37.5313333,73.7753762 37.482,73.8493762 C37.4326667,73.9233762 37.374,74.0040429 37.306,74.0913762 C37.2386667,74.1787096 37.201,74.2273762 37.193,74.2373762 C37.185,74.2473762 37.1213333,74.3243762 37.002,74.4683762 C36.8806667,74.6123762 36.7306667,74.7840429 36.552,74.9833762 C36.3726667,75.1827096 36.2153333,75.3680429 36.08,75.5393762 C35.9433333,75.7100429 35.839,75.8450429 35.767,75.9443762 C35.6943333,76.0430429 35.611,76.1593762 35.517,76.2933762 C35.425,76.4280429 35.2753333,76.6867096 35.068,77.0693762 C34.8593333,77.4520429 34.7356667,77.6983762 34.697,77.8083762 C34.6576667,77.9177096 34.62,78.0380429 34.584,78.1693762 C34.5486667,78.3000429 34.533,78.4347096 34.537,78.5733762 L34.64,78.6193762 C34.64,78.6193762 34.698,78.6140429 34.814,78.6033762 C34.9286667,78.5920429 35.0613333,78.5527096 35.212,78.4853762 C35.362,78.4187096 35.4826667,78.3590429 35.574,78.3063762 C35.6653333,78.2543762 35.7536667,78.2023762 35.839,78.1503762 C35.925,78.0983762 35.9896667,78.0580429 36.033,78.0293762 C36.077,78.0013762 36.1323333,77.9660429 36.199,77.9233762 C36.265,77.8800429 36.369,77.8057096 36.511,77.7003762 C36.653,77.5950429 36.806,77.4820429 36.97,77.3613762 C37.1326667,77.2400429 37.25,77.1520429 37.322,77.0973762 C37.392,77.0427096 37.5143333,76.9427096 37.689,76.7973762 C37.865,76.6513762 38.0616667,76.4910429 38.279,76.3163762 C38.4963333,76.1410429 38.6343333,76.0340429 38.693,75.9953762 C38.7516667,75.9567096 38.844,75.9040429 38.97,75.8373762 C39.0953333,75.7707096 39.1866667,75.7290429 39.244,75.7123762 C39.3013333,75.6957096 39.3506667,75.6850429 39.392,75.6803762 C39.4353333,75.6750429 39.4816667,75.6773762 39.531,75.6873762 C39.609,75.7180429 39.7396667,75.7977096 39.923,75.9263762 C40.1083333,76.0557096 40.268,76.1797096 40.402,76.2983762 C40.536,76.4170429 40.6473333,76.5160429 40.736,76.5953762 C40.826,76.6753762 40.891,76.7330429 40.931,76.7683762 C40.9716667,76.8037096 41.059,76.8800429 41.193,76.9973762 C41.3256667,77.1147096 41.411,77.1893762 41.449,77.2213762 C41.4863333,77.2533762 41.5546667,77.3110429 41.654,77.3943762 C41.7513333,77.4770429 41.8646667,77.5757096 41.994,77.6903762 C42.1213333,77.8050429 42.2176667,77.8933762 42.283,77.9553762 C42.347,78.0173762 42.416,78.0780429 42.49,78.1373762 C42.5626667,78.1967096 42.6226667,78.2457096 42.67,78.2843762 C42.7166667,78.3237096 42.7633333,78.3623762 42.81,78.4003762 C42.858,78.4390429 42.901,78.4713762 42.939,78.4973762 C42.9783333,78.5227096 43.0363333,78.5600429 43.113,78.6093762 C43.1896667,78.6580429 43.241,78.6880429 43.267,78.6993762 C43.2943333,78.7113762 43.3236667,78.7210429 43.355,78.7283762 C43.3863333,78.7363762 43.4026667,78.7403762 43.404,78.7403762 C43.4066667,78.7410429 43.4326667,78.7390429 43.482,78.7343762 C43.526,78.6517096 43.552,78.5253762 43.56,78.3553762 C43.5693333,78.1847096 43.5563333,78.0083762 43.521,77.8263762 C43.487,77.6443762 43.4493333,77.4883762 43.408,77.3583762 C43.3646667,77.2283762 43.315,77.0893762 43.259,76.9413762 C43.2016667,76.7933762 43.1483333,76.6580429 43.099,76.5353762 C43.0496667,76.4120429 42.9976667,76.2823762 42.943,76.1463762 C42.8896667,76.0110429 42.8246667,75.8703762 42.748,75.7243762 C42.6693333,75.5783762 42.6003333,75.4527096 42.541,75.3473762 C42.4796667,75.2427096 42.4353333,75.1587096 42.408,75.0953762 C42.3806667,75.0320429 42.303,74.8767096 42.175,74.6293762 C42.0476667,74.3820429 41.9763333,74.2317096 41.961,74.1783762 C41.945,74.1250429 41.9356667,74.0947096 41.933,74.0873762 C41.9303333,74.0800429 41.9193333,74.0400429 41.9,73.9673762 C41.8793333,73.8947096 41.865,73.8260429 41.857,73.7613762 C41.8476667,73.6960429 41.8413333,73.6443762 41.838,73.6063762 C41.834,73.5690429 41.834,73.5227096 41.838,73.4673762 C41.8366667,73.4560429 41.8756667,73.3700429 41.955,73.2093762 C42.0343333,73.0493762 42.1053333,72.9253762 42.168,72.8373762 C42.23,72.7487096 42.2996667,72.6530429 42.377,72.5503762 C42.4536667,72.4477096 42.555,72.3147096 42.681,72.1513762 C42.809,71.9880429 42.912,71.8620429 42.99,71.7733762 C43.0693333,71.6840429 43.232,71.5057096 43.478,71.2383762 C43.724,70.9710429 43.9193333,70.7550429 44.064,70.5903762 C44.21,70.4250429 44.3423333,70.2693762 44.461,70.1233762 C44.579,69.9767096 44.679,69.8390429 44.761,69.7103762 C44.843,69.5817096 44.9023333,69.4820429 44.939,69.4113762 C44.977,69.3413762 45.0056667,69.2807096 45.025,69.2293762 C45.0456667,69.1780429 45.0593333,69.1343762 45.066,69.0983762 C45.0726667,69.0623762 45.068,69.0157096 45.052,68.9583762 C44.964,68.9343762 44.8983333,68.9243762 44.855,68.9283762 C44.8123333,68.9317096 44.7686667,68.9400429 44.724,68.9533762 C44.6813333,68.9660429 44.587,69.0057096 44.441,69.0723762 C44.295,69.1390429 44.1213333,69.2277096 43.92,69.3383762 C43.7193333,69.4497096 43.55,69.5440429 43.412,69.6213762 C43.2753333,69.6987096 43.166,69.7607096 43.084,69.8073762 C43.002,69.8540429 42.8996667,69.9107096 42.777,69.9773762 C42.6543333,70.0440429 42.5403333,70.1070429 42.435,70.1663762 C42.3283333,70.2263762 42.2223333,70.2867096 42.117,70.3473762 C42.0116667,70.4080429 41.886,70.4797096 41.74,70.5623762 C41.594,70.6443762 41.437,70.7313762 41.269,70.8233762 C41.101,70.9153762 40.978,70.9793762 40.9,71.0153762 C40.8206667,71.0520429 40.7176667,71.0903762 40.591,71.1303762 C40.4636667,71.1710429 40.365,71.1987096 40.295,71.2133762 C40.2256667,71.2287096 40.156,71.2390429 40.086,71.2443762 C40.0686667,71.2457096 39.986,71.2220429 39.838,71.1733762 C39.6906667,71.1240429 39.568,71.0763762 39.47,71.0303762 C39.3713333,70.9843762 39.268,70.9273762 39.16,70.8593762 C39.052,70.7920429 38.947,70.7250429 38.845,70.6583762 C38.745,70.5917096 38.6696667,70.5427096 38.619,70.5113762 C38.5696667,70.4800429 38.505,70.4467096 38.425,70.4113762 C38.3456667,70.3760429 38.254,70.3283762 38.15,70.2683762 C38.0473333,70.2083762 37.9613333,70.1570429 37.892,70.1143762 C37.8246667,70.0723762 37.7646667,70.0360429 37.712,70.0053762 C37.66,69.9747096 37.608,69.9450429 37.556,69.9163762 C37.5026667,69.8877096 37.456,69.8630429 37.416,69.8423762 C37.374,69.8217096 37.3216667,69.7940429 37.259,69.7593762 C37.1956667,69.7240429 37.093,69.6570429 36.951,69.5583762 C36.809,69.4590429 36.7113333,69.3923762 36.658,69.3583762 C36.6046667,69.3243762 36.5263333,69.2723762 36.423,69.2023762 C36.3203333,69.1323762 36.2463333,69.0860429 36.201,69.0633762 C36.1563333,69.0407096 36.1216667,69.0250429 36.097,69.0163762 C36.0723333,69.0077096 36.036,69.0033762 35.988,69.0033762 C35.9706667,69.0020429 35.9556667,69.0297096 35.943,69.0863762 C35.9296667,69.1430429 35.9256667,69.2120429 35.931,69.2933762 C35.9376667,69.3740429 35.9526667,69.4687096 35.976,69.5773762 C35.9993333,69.6860429 36.021,69.7710429 36.041,69.8323762 C36.0616667,69.8930429 36.0986667,69.9893762 36.152,70.1213762 L36.185,70.2073762" id="STROKE_5ca2496c-9402-416c-ac51-64b2e249c748"></path>
                <path d="M56.214,73.8473762 C56.204,73.8207096 56.1893333,73.7870429 56.17,73.7463762 C56.1486667,73.7057096 56.1303333,73.6643762 56.115,73.6223762 C56.0976667,73.5803762 56.0833333,73.5277096 56.072,73.4643762 C56.0613333,73.4010429 56.0533333,73.3460429 56.048,73.2993762 C56.042,73.2527096 56.0356667,73.1750429 56.029,73.0663762 C56.0236667,72.9577096 56.0346667,72.8213762 56.062,72.6573762 C56.0893333,72.4940429 56.14,72.3197096 56.214,72.1343762 C56.2886667,71.9490429 56.3596667,71.7973762 56.427,71.6793762 C56.4936667,71.5613762 56.5856667,71.4187096 56.703,71.2513762 C56.8203333,71.0840429 56.9303333,70.9403762 57.033,70.8203762 C57.1343333,70.6997096 57.278,70.5603762 57.464,70.4023762 C57.6506667,70.2443762 57.8493333,70.0973762 58.06,69.9613762 C58.2713333,69.8253762 58.4433333,69.7257096 58.576,69.6623762 C58.7086667,69.5997096 58.805,69.5560429 58.865,69.5313762 C58.9236667,69.5073762 59.0383333,69.4740429 59.209,69.4313762 C59.379,69.3893762 59.5696667,69.3503762 59.781,69.3143762 C59.9916667,69.2783762 60.1576667,69.2567096 60.279,69.2493762 C60.399,69.2420429 60.5076667,69.2437096 60.605,69.2543762 C60.703,69.2650429 60.774,69.2757096 60.818,69.2863762 C60.8606667,69.2977096 60.966,69.3343762 61.134,69.3963762 C61.302,69.4583762 61.452,69.5230429 61.584,69.5903762 C61.7153333,69.6577096 61.8193333,69.7147096 61.896,69.7613762 C61.9726667,69.8080429 62.0936667,69.9040429 62.259,70.0493762 C62.423,70.1947096 62.552,70.3157096 62.646,70.4123762 C62.7386667,70.5090429 62.8383333,70.6143762 62.945,70.7283762 C63.0516667,70.8430429 63.1343333,70.9347096 63.193,71.0033762 C63.2516667,71.0727096 63.3506667,71.2293762 63.49,71.4733762 C63.628,71.7180429 63.7306667,71.9223762 63.798,72.0863762 C63.866,72.2503762 63.9313333,72.4590429 63.994,72.7123762 C64.0566667,72.9657096 64.0996667,73.1557096 64.123,73.2823762 C64.1463333,73.4090429 64.1683333,73.6157096 64.189,73.9023762 C64.211,74.1883762 64.2186667,74.4163762 64.212,74.5863762 C64.2073333,74.7557096 64.182,74.9823762 64.136,75.2663762 C64.0906667,75.5503762 64.0326667,75.8023762 63.962,76.0223762 C63.892,76.2430429 63.8206667,76.4270429 63.748,76.5743762 C63.676,76.7217096 63.6323333,76.8100429 63.617,76.8393762 C63.601,76.8687096 63.547,76.9487096 63.455,77.0793762 C63.3623333,77.2093762 63.241,77.3433762 63.091,77.4813762 C62.943,77.6193762 62.8226667,77.7207096 62.73,77.7853762 C62.6373333,77.8500429 62.5033333,77.9167096 62.328,77.9853762 C62.152,78.0540429 62.0133333,78.1020429 61.912,78.1293762 C61.81,78.1560429 61.6563333,78.1937096 61.451,78.2423762 C61.2436667,78.2903762 61.077,78.3247096 60.951,78.3453762 C60.8256667,78.3660429 60.5936667,78.3837096 60.255,78.3983762 C59.9156667,78.4130429 59.5806667,78.4067096 59.25,78.3793762 C58.9193333,78.3513762 58.6716667,78.3203762 58.507,78.2863762 C58.343,78.2523762 58.2293333,78.2250429 58.166,78.2043762 C58.1006667,78.1837096 58.003,78.1417096 57.873,78.0783762 C57.7423333,78.0157096 57.6453333,77.9657096 57.582,77.9283762 C57.518,77.8917096 57.4546667,77.8533762 57.392,77.8133762 C57.3293333,77.7733762 57.2596667,77.7163762 57.183,77.6423762 C57.1063333,77.5683762 57.0393333,77.4940429 56.982,77.4193762 C56.9246667,77.3453762 56.8576667,77.2493762 56.781,77.1313762 C56.7043333,77.0140429 56.649,76.9213762 56.615,76.8533762 C56.5823333,76.7860429 56.559,76.7363762 56.545,76.7043762 C56.529,76.6717096 56.508,76.6230429 56.482,76.5583762 C56.4573333,76.4937096 56.4273333,76.3997096 56.392,76.2763762 C56.3566667,76.1530429 56.3306667,76.0560429 56.314,75.9853762 C56.296,75.9153762 56.2823333,75.8580429 56.273,75.8133762 C56.2636667,75.7680429 56.252,75.6887096 56.238,75.5753762 C56.2233333,75.4613762 56.2096667,75.3593762 56.197,75.2693762 C56.185,75.1793762 56.179,75.1017096 56.179,75.0363762 C56.179,74.9717096 56.181,74.8837096 56.185,74.7723762 C56.189,74.6610429 56.1923333,74.5833762 56.195,74.5393762 C56.1976667,74.4953762 56.2023333,74.3687096 56.209,74.1593762" id="STROKE_af967a45-6711-48ee-a719-227c53f64723"></path>
                <path d="M0,72.5983762 C0.074,72.4930429 0.232,72.2883762 0.474,71.9843762 C0.715333333,71.6803762 0.933,71.3780429 1.127,71.0773762 C1.321,70.7767096 1.60066667,70.3430429 1.966,69.7763762 C2.33333333,69.2103762 2.58933333,68.8327096 2.734,68.6433762 C2.87866667,68.4540429 3.01866667,68.2757096 3.154,68.1083762 C3.288,67.9410429 3.396,67.8127096 3.478,67.7233762 C3.56133333,67.6347096 3.63166667,67.5733762 3.689,67.5393762 C3.74633333,67.5047096 3.77833333,67.4863762 3.785,67.4843762 C3.79166667,67.4823762 3.80533333,67.4743762 3.826,67.4603762 C3.84533333,67.4470429 3.86033333,67.4407096 3.871,67.4413286 C3.881,67.4427096 3.929,67.4470429 4.015,67.4543762 C4.10366667,67.5350429 4.16366667,67.5943762 4.195,67.6323762 C4.22633333,67.6703762 4.29733333,67.7830429 4.408,67.9703762 C4.51733333,68.1577096 4.62,68.3383762 4.716,68.5123762 C4.814,68.6870429 4.91566667,68.8787096 5.021,69.0873762 C5.12633333,69.2967096 5.21233333,69.4787096 5.279,69.6333762 C5.34566667,69.7880429 5.43033333,69.9830429 5.533,70.2183762 C5.63433333,70.4543762 5.76333333,70.7473762 5.92,71.0973762 C6.07733333,71.4473762 6.193,71.7140429 6.267,71.8973762 C6.34233333,72.0800429 6.39266667,72.2167096 6.418,72.3073762 C6.44266667,72.3980429 6.46133333,72.4670429 6.474,72.5143762 C6.486,72.5623762 6.499,72.6237096 6.513,72.6983762 L6.511,72.8063762 C6.44233333,73.0157096 6.29666667,73.2993762 6.074,73.6573762 C5.85133333,74.0147096 5.67233333,74.2913762 5.537,74.4873762 C5.403,74.6840429 5.27666667,74.8657096 5.158,75.0323762 C5.038,75.1990429 4.97533333,75.2903762 4.97,75.3063762 C4.964,75.3237096 4.912,75.4150429 4.814,75.5803762 C4.71666667,75.7463762 4.61766667,75.8993762 4.517,76.0393762 C4.417,76.1800429 4.331,76.3077096 4.259,76.4223762 C4.189,76.5370429 4.137,76.6267096 4.103,76.6913762 C4.06766667,76.7567096 3.996,76.8883762 3.888,77.0863762 C3.78133333,77.2843762 3.69433333,77.4403762 3.627,77.5543762 C3.55766667,77.6677096 3.47233333,77.8093762 3.371,77.9793762 C3.269,78.1487096 3.18633333,78.2707096 3.123,78.3453762 C3.06033333,78.4200429 3.00566667,78.4783762 2.959,78.5203762 L2.92,78.5333762 C2.904,78.5053762 2.799,78.2623762 2.605,77.8043762 C2.411,77.3463762 2.23733333,76.9343762 2.084,76.5683762 C1.93,76.2023762 1.818,75.9290429 1.748,75.7483762 C1.676,75.5670429 1.61066667,75.4277096 1.552,75.3303762 C1.49466667,75.2323762 1.44066667,75.1510429 1.39,75.0863762 C1.33933333,75.0217096 1.26466667,74.9110429 1.166,74.7543762 C1.06666667,74.5977096 0.978,74.4643762 0.9,74.3543762 C0.820666667,74.2443762 0.744,74.1393762 0.67,74.0393762 C0.596666667,73.9387096 0.547,73.8653762 0.521,73.8193762 C0.493666667,73.7733762 0.467,73.7207096 0.441,73.6613762 C0.415,73.6020429 0.373333333,73.5257096 0.316,73.4323762 C0.258666667,73.3390429 0.225333333,73.2833762 0.216,73.2653762 C0.206,73.2480429 0.19,73.1980429 0.168,73.1153762 C0.145333333,73.0320429 0.122333333,72.9283762 0.099,72.8043762" id="STROKE_87f627f1-f6c3-44f0-820f-c271e5b49346"></path>
                <path d="M2.496,35.0333762 C3.37733333,35.0727096 3.83033333,35.0917096 3.855,35.0903762 C3.87966667,35.0890429 4.06666667,35.1127096 4.416,35.1613762 C4.76466667,35.2100429 5.12,35.2483762 5.482,35.2763762 C5.84266667,35.3050429 6.128,35.3167096 6.338,35.3113762 C6.546,35.3053762 6.74833333,35.2903762 6.945,35.2663762 C7.14166667,35.2423762 7.28166667,35.2260429 7.365,35.2173762 C7.44966667,35.2087096 7.598,35.1863762 7.81,35.1503762 C8.02333333,35.1143762 8.39766667,35.0693762 8.933,35.0153762" id="STROKE_57cc4524-b564-4c4f-a114-1708c1fa0b54"></path>
                <path d="M19.845,45.0353762 L20.043,45.0083762 C20.0503333,45.0090429 20.25,44.9787096 20.642,44.9173762 C21.0353333,44.8560429 21.3453333,44.8043762 21.572,44.7623762 C21.7973333,44.7197096 21.9456667,44.6903762 22.017,44.6743762 C22.0903333,44.6590429 22.2363333,44.6357096 22.455,44.6043762 L22.882,44.5493762 C22.932,44.5433762 23.223,44.4947096 23.755,44.4033762 C24.2876667,44.3127096 24.9123333,44.2557096 25.629,44.2323762 L26.283,44.2333762" id="STROKE_5db47e0a-030a-4d4e-9ed2-28bef38c7877"></path>
                <path d="M38.748,19.8153762 C39.2553333,19.8320429 39.5613333,19.8437096 39.666,19.8503762 C39.7686667,19.8570429 39.887,19.8663762 40.021,19.8783762 C40.1536667,19.8910429 40.3873333,19.8997096 40.722,19.9043762 C41.0566667,19.9097096 41.2463333,19.9127096 41.291,19.9133762 C41.335,19.9140429 41.506,19.9093762 41.804,19.8993762 C42.1026667,19.8893762 42.4196667,19.8637096 42.755,19.8223762 C43.0896667,19.7810429 43.379,19.7457096 43.623,19.7163762 C43.865,19.6877096 44.034,19.6707096 44.13,19.6653762 C44.2266667,19.6600429 44.322,19.6500429 44.416,19.6353762 C44.5093333,19.6200429 44.595,19.6103762 44.673,19.6063762 C44.7516667,19.6017096 44.8586667,19.5993762 44.994,19.5993762 L45.703,19.5573762" id="STROKE_cec1eaa9-8cbb-4d14-8159-375ec9db4dfe"></path>
                <path d="M56.638,30.8043762 C57.176,30.8197096 57.5746667,30.8363762 57.834,30.8543762 C58.0913333,30.8717096 58.31,30.8940429 58.49,30.9213762 C58.6693333,30.9487096 58.8393333,30.9753762 59,31.0013762 C59.16,31.0267096 59.3506667,31.0467096 59.572,31.0613762 C59.7933333,31.0760429 59.9783333,31.0840429 60.127,31.0853762 C60.2736667,31.0867096 60.4883333,31.0827096 60.771,31.0733762 C61.055,31.0640429 61.3363333,31.0373762 61.615,30.9933762 C61.895,30.9493762 62.093,30.9123762 62.209,30.8823762 C62.3256667,30.8523762 62.4386667,30.8217096 62.548,30.7903762 C62.6566667,30.7597096 62.791,30.7280429 62.951,30.6953762 C63.111,30.6627096 63.3876667,30.6130429 63.781,30.5463762" id="STROKE_3a7c4a33-86b6-42cf-b481-9d5b53596e40"></path>
            </g>
        </g>
    </g>
</svg>