<?xml version="1.0" encoding="UTF-8"?>
<svg width="91px" height="67px" viewBox="0 0 91 67" version="1.1" xmlns="http://www.w3.org/2000/svg" xmlns:xlink="http://www.w3.org/1999/xlink">
    <title>werkstatt-contact</title>
    <g id="Page-1" stroke="none" stroke-width="1" fill="none" fill-rule="evenodd" stroke-linecap="round" stroke-linejoin="round">
        <g id="werkstatt-contact" transform="translate(-8.000000, -9.000000)" stroke="#B04900">
            <g transform="translate(9.000000, 10.000000)">
                <path d="M5,24.7024439 C5.00402735,24.4469267 5.0637663,23.7598547 5.17921686,22.6412278 C5.29399619,21.5226009 5.40609063,20.7511228 5.51550017,20.3267934 C5.62423849,19.902464 5.74338078,19.5434919 5.87292704,19.249877 C6.00113086,18.956262 6.14544406,18.6971321 6.30586664,18.4724871 C6.46561799,18.2478421 6.6018765,18.0849417 6.71464217,17.9837858 C6.82606538,17.8826299 6.94386522,17.7942826 7.0680417,17.7187441 C7.19423184,17.6432056 7.30464822,17.5850738 7.39929083,17.5443487 C7.49460466,17.5029667 7.59461706,17.4691386 7.69932804,17.4428643 C7.80471023,17.4159332 8.03024156,17.3890021 8.37592201,17.362071 C8.72227368,17.3351398 9.07768689,17.3361251 9.44216162,17.3650268 C9.80663635,17.3945854 10.1758096,17.4445065 10.5496815,17.5147901 C10.9242246,17.5850738 11.3074936,17.6638966 11.6994885,17.7512585 C12.0914835,17.8386205 12.6264491,17.9266393 13.3043855,18.0153149 C13.982322,18.1039905 14.4213026,18.1476715 14.6213274,18.1463578 C14.8220234,18.1450441 15.0955473,18.1141718 15.4418989,18.053741 C15.7869082,17.9939671 16.031905,17.9381342 16.1768894,17.8862426 C16.3238875,17.8350077 16.474913,17.7693221 16.6299657,17.6891856 C16.7856897,17.6097059 16.9709476,17.4816189 17.1857394,17.3049244 C17.4012023,17.12823 17.5716933,16.96106 17.6972122,16.8034144 C17.8234023,16.6464257 17.91536,16.5229366 17.9730853,16.4329472 C18.0308106,16.342301 18.1348503,16.1455725 18.2852046,15.8427616 C18.43623,15.5392938 18.5640982,15.2460073 18.6688092,14.9629021 C18.7735202,14.6804537 18.8940049,14.2909377 19.0302634,13.7943541 C19.1665219,13.2977705 19.2893559,12.7529079 19.3987655,12.1597664 C19.5061613,11.5666248 19.5991259,11.0835068 19.6776591,10.7104122 C19.7575348,10.3373176 19.858554,9.92546849 19.9807168,9.47486484 C20.1022084,9.02426118 20.2515558,8.60026022 20.428759,8.20286195 C20.6073046,7.80612054 20.7804804,7.48229021 20.9482865,7.23137098 C21.117435,6.97979488 21.3094051,6.75777734 21.5241968,6.56531834 C21.7389886,6.3735162 21.9054522,6.24510073 22.0235876,6.18007192 C22.1417231,6.11504311 22.2578449,6.06577887 22.371953,6.03227918 C22.4874035,5.99877949 22.67736,5.97349051 22.9418223,5.95641223 C23.2056134,5.93999082 23.4586649,5.95148581 23.7009768,5.99089721 C23.9446312,6.03096546 24.5084595,6.28057099 25.3924618,6.73971378 C26.2757928,7.19819972 26.920168,7.58574514 27.3255874,7.90235004 C27.7303356,8.21895494 28.0612491,8.48957987 28.318328,8.71422485 C28.5740644,8.93886982 28.9714291,9.28601855 29.5104221,9.75567105 C30.0487439,10.2253236 30.4957792,10.5931633 30.851528,10.8591902 C31.2079481,11.125874 31.6056484,11.3748227 32.044629,11.6060362 C32.4836096,11.8379066 32.8427146,11.9998218 33.1219438,12.0917817 C33.4011731,12.1837416 33.6804023,12.2441724 33.9596316,12.2730741 C34.2395321,12.3026327 34.4815084,12.3124855 34.6855605,12.3026327 C34.8889415,12.2934367 35.0869526,12.2619076 35.2795939,12.2080453 C35.4735777,12.1548399 35.6799792,12.0747034 35.8987982,11.9676358 C36.1176173,11.8605682 36.3663059,11.6976677 36.6448639,11.4789345 C36.9227507,11.2595443 37.1905692,11.004684 37.4483193,10.7143533 C37.7067406,10.4233658 37.9899972,10.0052766 38.2980891,9.46008556 C38.606181,8.91423769 38.841445,8.46100661 39.0038813,8.10039231 C39.1663175,7.73977802 39.3656711,7.31183592 39.601942,6.81656601 C39.8368705,6.3212961 40.133216,5.72716927 40.4909785,5.03418551 C40.8487409,4.34185861 41.1514631,3.80553516 41.3991448,3.42521516 C41.6481689,3.04555203 41.9196791,2.68493773 42.2136753,2.34337228 C42.5083427,2.00180682 42.8523451,1.67830493 43.2456825,1.37286659 C43.6390199,1.06742825 44.0350421,0.819793294 44.4337493,0.629961724 C44.8324565,0.440130155 45.19626,0.30810197 45.5251598,0.233877169 C45.8540597,0.159652369 46.1517476,0.120897827 46.4182236,0.117613544 C46.6826859,0.113672404 46.9317101,0.132392818 47.1652961,0.173774787 C47.3968684,0.214499898 47.6314613,0.278871849 47.8690746,0.366890639 C48.1073592,0.454909429 48.3486643,0.577413193 48.5929899,0.73440193 C48.8366443,0.891390668 49.1880301,1.20208386 49.6471475,1.66648151 C50.106936,2.13087915 50.4818148,2.54798312 50.7717836,2.91779341 C51.0610812,3.28826055 51.3795771,3.68927153 51.7272712,4.12082635 C52.0736229,4.55238116 52.3424482,4.86603021 52.5337471,5.06177349 C52.7237035,5.25817362 52.843517,5.38002053 52.8931876,5.42731421 C52.9428582,5.47460789 53.0509253,5.5524454 53.2173889,5.66082675 C53.3851949,5.76920809 53.5375628,5.85689845 53.6744926,5.92389783 C53.8107511,5.99089721 53.9849337,6.05001431 54.1970406,6.10124912 C54.4104899,6.1531408 54.535002,6.17974349 54.5705768,6.18105721 C54.6048093,6.18237092 54.7202598,6.1879542 54.9169285,6.19780705 C55.1135972,6.2076599 55.3743678,6.17186121 55.6992403,6.09041099 C56.0261265,6.00830391 56.2962942,5.9235694 56.5097435,5.83620747 C56.7218503,5.74818868 56.9695321,5.62075849 57.2527887,5.4539169 C57.5360453,5.28773217 57.8048705,5.11629259 58.0592645,4.93959815 C58.3150009,4.76224686 58.7096807,4.45910752 59.243304,4.03018013 C59.7755847,3.60059589 60.1766412,3.26986857 60.4464733,3.03799817 C60.7163054,2.80547092 61.059301,2.52039514 61.47546,2.18277083 C61.8909477,1.84514651 62.2265598,1.58306071 62.4822962,1.39651343 C62.7373614,1.20996614 63.0172619,1.02538942 63.3219977,0.842783276 C63.6247198,0.659520273 63.9391883,0.497933539 64.2654033,0.358023075 C64.5916182,0.21811261 64.9362918,0.119255685 65.2994241,0.0614523007 C65.6618852,0.00299205959 65.9636004,-0.0137577848 66.2045699,0.0112027676 C66.4455394,0.03616332 66.7076524,0.123853682 66.990909,0.274273853 C67.2728232,0.424037167 67.4956696,0.578398478 67.6594483,0.737357785 C67.8218846,0.896973949 67.9517665,1.0575754 68.049094,1.21916213 C68.1444078,1.38009201 68.2346875,1.55711487 68.3199329,1.75023073 C68.4051784,1.94400344 68.4853897,2.21988323 68.5605668,2.5778701 C68.6364151,2.93585697 68.6867569,3.23242774 68.7115922,3.46758242 C68.7364275,3.70339395 68.7582423,3.90373523 68.7770366,4.06860625 C68.7938172,4.23413412 68.8394604,4.58982199 68.9139663,5.13566986 C68.987801,5.68086087 69.0757313,6.15412608 69.1777574,6.55546549 C69.2797835,6.95746176 69.3690563,7.25764524 69.4455759,7.45601595 C69.5214242,7.65438665 69.6351967,7.87968848 69.7868934,8.13192143 C69.9406037,8.38481124 70.1637857,8.66397531 70.4564395,8.96941365 C70.7497644,9.27485199 71.004494,9.49949696 71.2206282,9.64334857 C71.4374336,9.78720017 71.6176573,9.8988658 71.7612993,9.97834545 C71.9056125,10.0571683 72.1442327,10.1540546 72.4771599,10.2690045 C72.8087446,10.3839544 73.1299254,10.4690174 73.4407022,10.5241933 C73.7528214,10.5793693 74.14683,10.6125405 74.622728,10.6237071 C75.0986259,10.6355305 75.6040577,10.6204228 76.1390234,10.578384 C76.6726466,10.537002 77.2965495,10.4555518 78.010732,10.3340333 C78.7255858,10.2125148 79.3719746,10.1189128 79.9498987,10.0532271 C80.5284939,9.98688459 80.8503459,9.95404176 80.9154546,9.95469861 C80.9812346,9.95469861 81.1601159,9.98130131 81.4520984,10.0345067 C81.7434097,10.0870552 81.9125582,10.1228539 81.9595438,10.1419028 C82.0058583,10.1609516 82.1266787,10.2614507 82.3220049,10.4434 C82.5186736,10.6253492 82.6639936,10.803029 82.757965,10.9764391 C82.8539501,11.1498493 82.924093,11.3964989 82.9683938,11.7163881 C83.0133658,12.0362773 83.0103453,12.3633919 82.9593323,12.697732 C82.9089905,13.0327288 82.8301216,13.3742943 82.7227257,13.7224283 C82.6153299,14.0705623 82.5223653,14.3392167 82.4438321,14.5283914 C82.3652989,14.7175661 82.2525332,14.9727549 82.1055351,15.2939578 C81.9598795,15.6151607 81.8430865,15.8772465 81.7551561,16.0802152 C81.6658833,16.2838408 81.5400287,16.6053721 81.3775925,17.0448092 C81.2164987,17.4842463 81.093329,17.898066 81.0080836,18.2862683 C80.9214957,18.6751274 80.859743,19.0393544 80.8228257,19.3789493 C80.7852371,19.719201 80.7671141,19.9550126 80.7684565,20.0863839 C80.7684565,20.2177552 80.7788605,20.36095 80.7996685,20.5159681 C80.8204764,20.6703294 80.8775305,20.9202634 80.9708306,21.26577 C81.0641308,21.6106197 81.1406504,21.8589115 81.2003893,22.0106454 C81.259457,22.1623793 81.3074496,22.2848831 81.3443669,22.3781567 C81.3812842,22.4714304 81.413503,22.5495963 81.4410232,22.6126545 C81.4698858,22.6757128 81.5544601,22.8951029 81.6947459,23.2708249 C81.8350318,23.6472037 82.0172691,24.0777733 82.241458,24.5625335 L82.4539005,25" id="STROKE_a75bb69b-2ae5-4c6a-a4f2-d7ebcdd03383" stroke-width="1.5"></path>
                <path d="M6,33.1674618 C6.30863072,33.2846598 6.68861156,33.437298 7.13994251,33.6253763 C7.59060974,33.8141564 8.05787001,34.0113578 8.54172334,34.2169807 C9.02491294,34.4226036 9.4370843,34.590681 9.7782374,34.721213 C10.1180631,34.8510431 10.6002571,35.0324545 11.2248195,35.265447 C11.8487181,35.4977377 12.3866648,35.6924829 12.8386595,35.8496827 C13.2913179,36.0061806 13.8292645,36.1767143 14.4524995,36.3612837 C15.0777256,36.545853 15.8529529,36.7820035 16.7781813,37.0697352 C17.7040735,37.3581687 18.3120428,37.5416854 18.6020893,37.6202853 C18.8914721,37.6988851 19.1367174,37.7620458 19.3378251,37.8097671 C19.5369417,37.8581903 19.9886045,37.9704758 20.6928136,38.1466237 C21.3963589,38.3227717 22.0438197,38.4792697 22.635196,38.6161177 C23.2265722,38.7536674 23.831223,38.8782342 24.4491481,38.989818 C25.067737,39.1014017 25.6879852,39.201406 26.3098927,39.2898309 C26.932464,39.3782558 27.7040408,39.4838743 28.6246232,39.6066867 C29.5432144,39.729499 30.114679,39.8007301 30.339017,39.8203801 C30.5646825,39.84003 30.9357031,39.866347 31.4520788,39.8993308 C31.9691182,39.9323147 32.6092781,39.9586316 33.3725584,39.9782816 C34.1365024,39.9979316 35.0414873,40.0042476 36.0875131,39.9972298 C37.1348664,39.9895102 38.0617542,39.9621406 38.8681764,39.915121 C39.6745986,39.8688032 40.7368856,39.7638864 42.0550375,39.6003706 C43.3731894,39.4375566 44.584482,39.2694791 45.6889154,39.0961383 C46.7933488,38.9234993 47.6087312,38.7957745 48.1350627,38.7129639 C48.6627217,38.6301533 49.3344084,38.5154116 50.1501227,38.3687386 C50.9665007,38.2220656 51.8854238,38.0567953 52.906892,37.8729277 C53.9296875,37.6897619 54.6803571,37.5508086 55.1589007,37.4560677 C55.6374442,37.3620285 56.0459651,37.2806215 56.3844633,37.2118466 C56.7209703,37.1423699 57.3365725,37.0041184 58.2312697,36.7970919 C59.1272944,36.5893637 59.9473229,36.3770738 60.6913553,36.1602224 C61.4353876,35.9433709 62.4030943,35.6166902 63.5944752,35.1801801 C64.7845287,34.7429683 65.5763491,34.4468152 65.9699362,34.2917208 C66.3628596,34.1359246 66.7143004,33.9941641 67.0242586,33.8664393 C67.3355442,33.7380127 67.538975,33.655553 67.6345509,33.6190602 C67.7307906,33.5832692 67.9216107,33.5036167 68.2070111,33.3801026 C68.4930753,33.2565885 68.7645376,33.1397413 69.021398,33.0295611 C69.2782584,32.9186792 69.5082381,32.8207802 69.711337,32.7358643 C69.9164271,32.6509483 70.0850125,32.5842788 70.2170932,32.5358557 C70.3491739,32.4874325 70.7042651,32.3769014 71.282367,32.2042624 C71.8598051,32.0309216 72.3044988,31.9056531 72.6164482,31.8284568 C72.9290612,31.7505587 73.2512982,31.6737132 73.5831592,31.5979205 C73.9150202,31.5221278 74.2332749,31.4547564 74.5379233,31.3958065 C74.8438991,31.3361548 75.149875,31.2775558 75.4558508,31.2200095 C75.7604992,31.1631649 75.9612751,31.1266721 76.0581785,31.1105311 C76.1544182,31.09439 76.4683587,31.0575463 77,31" id="STROKE_80616e4b-4d94-4b92-abfc-5092f0647980" stroke-width="1.5"></path>
                <path d="M4,36.7829955 C4.03139412,36.820346 4.38908669,37.1895918 5.0730777,37.890733 C5.75640076,38.5918742 6.26037656,39.1154366 6.58500511,39.4614203 C6.9089657,39.807404 7.18316327,40.114399 7.40759782,40.3824053 C7.63203237,40.6497563 8.04282776,41.2483474 8.63998398,42.1781786 C9.23647224,43.1073545 9.6375822,43.7878546 9.84331388,44.2196789 C10.0497135,44.6515033 10.2213792,45.0705498 10.358311,45.4768185 C10.4965787,45.8830873 10.591763,46.1884441 10.6438639,46.392889 C10.6973007,46.5973339 10.7397162,46.7899839 10.7711103,46.970839 C10.8025044,47.1516941 10.8318946,47.5691025 10.859281,48.223064 C10.8866674,48.8770256 10.8435839,49.4788931 10.7300307,50.0286664 C10.6178135,50.5784397 10.4742021,51.0302499 10.2991966,51.3840968 C10.1235231,51.7372885 9.98391945,51.9823603 9.88038566,52.1193122 C9.7761839,52.2569193 9.65962488,52.374213 9.53070861,52.4711933 C9.40112437,52.5675183 9.24515572,52.6428746 9.06280264,52.6972622 C8.88044957,52.7509945 8.75186728,52.7752396 8.67705576,52.7699974 C8.6029122,52.7654105 8.5294366,52.7411654 8.45662897,52.6972622 C8.38448929,52.6540142 8.32971657,52.6074899 8.29231081,52.5576892 C8.25290117,52.5078885 8.22718471,52.4607089 8.21516143,52.4161504 C8.20380611,52.3722472 8.19812845,52.2988567 8.19812845,52.195979 C8.19946437,52.092446 8.26191863,51.928628 8.38549123,51.7045249 C8.5110677,51.4797666 8.63330438,51.2985838 8.75220126,51.1609767 C8.87043017,51.0240248 9.06146672,50.8566028 9.32531092,50.6587106 C9.58715123,50.4614737 9.81726344,50.30814 10.0156476,50.1987095 C10.2140317,50.0892791 10.5029244,49.9729683 10.8823256,49.8497771 C11.2637308,49.726586 11.5977108,49.6384519 11.8842656,49.5853748 C12.1701525,49.5322978 12.495115,49.4972407 12.8591532,49.4802036 C13.2245273,49.4631666 13.696775,49.4929814 14.2758963,49.5696483 C14.8550176,49.6463151 15.315576,49.729207 15.6575715,49.8183241 C15.9982311,49.9080963 16.6251115,50.1728263 17.5382128,50.6125139 C18.4513141,51.0522015 19.1813944,51.4506069 19.7284536,51.8077303 C20.2748448,52.1641983 20.7247159,52.4784013 21.0780667,52.7503392 C21.4307496,53.0222772 22.1711832,53.6126774 23.2993676,54.5215398 C24.42822,55.4304023 25.2808709,56.1246631 25.8573203,56.6043223 C26.4351057,57.0846368 27.0626541,57.5744527 27.7399655,58.07377 C28.416609,58.5730874 29.0922505,59.0252252 29.7668901,59.4301834 C30.4428656,59.8357968 31.0286665,60.1499998 31.5242928,60.3727923 C32.0199191,60.5955849 32.4921668,60.7662833 32.9410359,60.8848875 C33.3912409,61.004147 33.7786577,61.076227 34.1032863,61.1011273 C34.4272468,61.1260277 34.7712462,61.1129222 35.1352844,61.061811 C35.4986547,61.0106998 35.7731862,60.9559845 35.9588791,60.8976653 C36.1452399,60.8400014 36.3720123,60.7443316 36.6391963,60.6106561 C36.9057123,60.4769806 37.1608731,60.3220087 37.4046784,60.1457405 C37.6484838,59.9694723 37.9099902,59.7604405 38.1891974,59.5186451 C38.4684047,59.2768497 38.7345868,59.0304674 38.9877436,58.7794981 C39.2395645,58.5285289 39.5358048,58.2546252 39.8764643,57.9577869 C40.2171239,57.6609486 40.5147001,57.4221019 40.7691928,57.2412468 C41.0230176,57.0603917 41.2304192,56.9247504 41.3913976,56.8343228 C41.5530439,56.7445505 41.7414086,56.6564164 41.9564917,56.5699205 C42.1715748,56.4840798 42.5396208,56.3943076 43.0606295,56.3006037 C43.5809704,56.2062445 44.053886,56.1636518 44.4793765,56.1728256 C44.9041991,56.1819994 45.4345593,56.261615 46.0704572,56.4116723 C46.7056871,56.5610743 47.2226882,56.7203055 47.6214603,56.8893657 C48.0222363,57.0577706 48.3158047,57.1950501 48.5021655,57.3012042 C48.6905302,57.4073583 48.8518425,57.5020451 48.9861025,57.5852647 C49.1203625,57.667829 49.511119,57.9751516 50.1583723,58.5072326 C50.8062934,59.0393135 51.2595043,59.4616364 51.5180048,59.7742012 C51.7765053,60.0874213 51.9755574,60.3629633 52.115161,60.600827 C52.2561006,60.8386908 52.3703217,61.0837626 52.4578245,61.3360424 C52.5446593,61.5889774 52.6001,61.8255307 52.6241465,62.0457021 C52.6475251,62.2658735 52.632496,62.5256889 52.5790592,62.8251483 C52.5256224,63.1246077 52.4284342,63.402443 52.2874947,63.6586545 C52.1452192,63.9148659 51.9782292,64.1278293 51.7865247,64.2975448 C51.5934843,64.466605 51.3429993,64.6130583 51.0350697,64.7369048 C50.7271402,64.8607512 50.4268922,64.9393838 50.1343257,64.9728027 C49.8410913,65.0062216 49.5605481,65.0088427 49.2926961,64.980666 C49.0255121,64.9524893 48.7215904,64.884341 48.3809308,64.7762211 C48.0402712,64.6681012 47.6131108,64.5229584 47.0994495,64.3407927 C46.5851204,64.1579718 46.1299056,63.9902222 45.7338054,63.8375437 C45.3370371,63.6848653 44.9359272,63.5066313 44.5304755,63.3028417 C44.1230199,63.0983968 43.6898478,62.8516868 43.2309593,62.5627118 C42.7714029,62.2730815 42.3576017,61.9896763 41.9895557,61.7124962 C41.6221777,61.4353161 41.2608114,61.136512 40.9054567,60.8160839 C40.549434,60.4963111 40.1974191,60.1477064 39.849412,59.7702696 C39.5007369,59.3928329 39.2245354,59.0648692 39.0208076,58.7863785 C38.8177478,58.5072326 38.6607772,58.2654371 38.5498958,58.0609922 C38.4403504,57.8565473 38.3528476,57.6792962 38.2873876,57.5292389 C38.2219275,57.3791816 38.146114,57.0705484 38.0599472,56.6033394 C37.9757842,56.1367856 37.9490658,55.6816991 37.979792,55.2380799 C38.0111861,54.7951159 38.0719705,54.4144028 38.1621451,54.0959406 C38.2523197,53.7774783 38.41263,53.4056114 38.6430762,52.9803397 C38.8728545,52.5550681 39.1654209,52.1481441 39.5207757,51.7595678 C39.8754624,51.3709914 40.1693648,51.0826716 40.4024828,50.8946085 C40.6362688,50.7065454 40.8981091,50.5201205 41.1880038,50.3353338 C41.4785663,50.1512023 41.8195599,49.9693643 42.2109845,49.7898197 C42.602409,49.6109304 43.1554799,49.4261437 43.870197,49.2354595 C44.5855822,49.0447753 45.3477245,48.8989773 46.156624,48.7980653 C46.9648556,48.6971534 47.6665476,48.6460422 48.2616999,48.6447317 C48.8568522,48.6434211 49.6520586,48.7076378 50.647319,48.8373817 C51.6425793,48.9671256 52.6451873,49.1696046 53.6551427,49.4448189 C54.6650982,49.7206885 55.4499512,49.9582247 56.0097017,50.1574274 C56.5701201,50.3572854 57.1088298,50.5587816 57.6258308,50.7619159 C58.1434998,50.9650503 58.873914,51.260578 59.8170735,51.6484991 C60.7615689,52.0370755 61.6469499,52.413857 62.4732164,52.7788436 C63.2988149,53.1438301 63.931373,53.4259248 64.3708907,53.6251275 C64.8104083,53.8256408 65.5207838,54.1421372 66.502017,54.5746168 C67.4819143,55.0077517 68.4407708,55.422539 69.3785866,55.8189786 C70.3170704,56.214763 71.107601,56.5328976 71.7501785,56.7733825 C72.3947599,57.0145226 72.9284599,57.1970159 73.3512786,57.3208624 C73.7754332,57.4447088 74.162182,57.5459483 74.5115251,57.624581 C74.8615361,57.7038689 75.4717175,57.7831569 76.3420694,57.8624448 C77.2130892,57.942388 77.9956043,57.942388 78.6896147,57.8624448 C79.3836251,57.7825016 79.9049679,57.6943675 80.253643,57.5980425 C80.6016501,57.5017175 80.9466515,57.3827856 81.288647,57.2412468 C81.6293066,57.099708 82.0127156,56.9018158 82.4388741,56.6475702 C82.8643646,56.3939799 83.3015444,56.0817428 83.7504135,55.7108587 C84.1992826,55.3399747 84.7119419,54.8380362 85.2883913,54.2050434 C85.8661767,53.5720505 86.3848476,52.9285732 86.8444041,52.2746117 C87.3032926,51.6213053 87.6543056,51.0764466 87.897443,50.6400353 C88.1399125,50.2036241 88.3406344,49.7855605 88.4996089,49.3858444 C88.6592514,48.9861284 88.7708007,48.6417829 88.8342569,48.3528079 C88.8997169,48.0638329 88.9448042,47.791895 88.9695188,47.5369941 C88.9942333,47.2827485 89.0039187,47.0494717 88.998575,46.8371635 C88.9932313,46.6248553 88.9568275,46.3686439 88.8893636,46.0685293 C88.8198957,45.7684146 88.7460861,45.5197389 88.6679348,45.3225019 C88.5897835,45.125265 88.4905915,44.9178714 88.3703587,44.700321 C88.2507938,44.4827707 87.9181498,44.0617584 87.3724265,43.437284 C86.8273711,42.8121544 86.3975389,42.3442901 86.0829297,42.0336911 C85.7683206,41.7230921 85.5138278,41.4704847 85.3194515,41.2758689 C85.126411,41.0819083 84.9881433,40.9351274 84.9046483,40.835526 C84.8224892,40.7365799 84.7239651,40.6143717 84.609076,40.4689012 C84.4948549,40.3240861 84.325527,40.0583732 84.1010925,39.6717627 C83.8766579,39.2858074 83.7009844,38.9313052 83.574072,38.608256 C83.4464917,38.2845516 83.3623287,38.0090096 83.3215832,37.7816302 C83.2815056,37.5535955 83.2521153,37.3186804 83.2334125,37.076885 C83.2167135,36.8344343 83.2096999,36.6460436 83.2123717,36.5117128 C83.2150436,36.377382 83.2183834,36.2695898 83.2223911,36.188336 C83.225063,36.106427 83.2150436,35.710315 83.1923329,35" id="STROKE_af5a80ba-36c4-4e5f-877f-3590780d0bba" stroke-width="1.5"></path>
                <path d="M82,29.2697851 C82.0281893,29.3286498 82.0898124,29.4535486 82.1848694,29.6444815 C82.2792708,29.8354144 82.3680999,29.9954056 82.4513566,30.1244551 C82.5333023,30.2535046 82.6096756,30.3565178 82.6804767,30.4334947 C82.7506221,30.5112263 82.8178176,30.5817885 82.882063,30.6451812 C82.9469639,30.708574 83.0121926,30.7621559 83.0777492,30.8059271 C83.1433057,30.850453 83.2177123,30.8900734 83.3009691,30.9247885 C83.3842259,30.9595036 83.6159682,30.9832759 83.996196,30.9961053 C84.3777349,31.0089348 84.6350443,30.9900679 84.768124,30.9395047 C84.8998926,30.8881867 85.0054386,30.8353594 85.084762,30.7810228 C85.1640854,30.7266862 85.2325919,30.6731042 85.2902817,30.6202769 C85.3466603,30.5674496 85.3869775,30.5308479 85.4112335,30.5104716 C85.4354894,30.4893407 85.5066182,30.3738754 85.6246199,30.1640756 C85.7413105,29.9535211 85.8271896,29.744476 85.882257,29.5369402 C85.9386356,29.3286498 85.9737084,29.1554517 85.9874753,29.0173461 C86.0018977,28.8792405 86.0038644,28.7566057 85.9933753,28.6494418 C85.9841974,28.5422779 85.9746917,28.4509621 85.9648583,28.3754946 C85.9543692,28.2992724 85.9242132,28.1887124 85.8743903,28.0438147 C85.8258784,27.898917 85.7649109,27.7706221 85.6914876,27.6589302 C85.6187198,27.5479929 85.5580801,27.4679973 85.5095682,27.4189434 C85.4604008,27.3698894 85.3699328,27.3061194 85.2381642,27.2276331 C85.1063956,27.1499015 85.0372335,27.1087717 85.0306779,27.1042437 C85.0247778,27.0997156 84.964138,27.0808487 84.8487585,27.047643 C84.7333791,27.0144373 84.5875158,26.9985891 84.4111688,27.0000984 C84.232855,27.0008531 84.0699471,27.0238707 83.9224449,27.0691512 C83.7755983,27.1136771 83.672019,27.1491469 83.611707,27.1755605 C83.5527061,27.2027288 83.5205835,27.218577 83.5153389,27.2231051 C83.5094388,27.2268784 83.4379822,27.2634802 83.3009691,27.3329103 C83.1626449,27.4023405 83.0525099,27.4668652 82.9705643,27.5264846 C82.8873075,27.5868587 82.8207676,27.6445913 82.7709447,27.6996826 C82.7204661,27.754774 82.6647431,27.8253361 82.6037755,27.9113691 C82.5421524,27.9966475 82.5028185,28.0434373 82.4857738,28.0517388 C82.4706958,28.0592855 82.417595,28.1747509 82.3264715,28.3981348 C82.316638,28.4554902 82.2943488,28.49662 82.2596038,28.5215243 C82.2196143,28.5539753 82.1920806,28.5901998 82.1770026,28.6301976 L82.0698177,28.9347091" id="STROKE_219bb6a8-66d2-4e42-99ec-7483a0d64aec" stroke-width="1.5"></path>
                <path d="M1.39307191,29.2861266 C1.44658451,29.2380995 1.5007497,29.20485 1.55556748,29.1863781 C1.60908007,29.1685219 1.62833156,29.1611331 1.61332193,29.1642118 C1.59700711,29.1672904 1.66389785,29.1460477 1.81399416,29.1004836 C1.96474306,29.0555352 2.02151861,29.0407576 1.98432083,29.0561509 C2.09134603,29.0426048 2.18564566,29.0281352 2.26721974,29.0127419 C2.350099,28.9967329 2.43297827,28.9958093 2.51585753,29.0099711 C2.60004198,29.0241329 2.6597542,29.0358318 2.69499421,29.0450678 C2.72958162,29.0543037 2.7843994,29.0783173 2.85944755,29.1171083 C2.93514829,29.1565151 2.97365126,29.1765264 2.97495644,29.1771421 C2.97365126,29.172832 3.00921756,29.2079287 3.08165534,29.280585 C3.15539831,29.3526255 3.18607016,29.3843357 3.1736709,29.3757155 C3.23697238,29.463765 3.26372868,29.5004011 3.25393979,29.4856235 C3.18868053,29.4024998 3.2441509,29.4850078 3.42035091,29.7331475 C3.59589833,29.9819029 3.72772204,30.233737 3.81582205,30.4886498 C3.90392205,30.7429468 3.95058242,30.9079628 3.95580316,30.9836978 C3.96037131,31.058817 3.97113909,31.1450194 3.9881065,31.2423049 C4.0057265,31.3389747 4.00376872,31.4371839 3.98223317,31.5369323 C3.96069761,31.6366808 3.93850946,31.7275012 3.91566872,31.8093934 C3.89217538,31.8919014 3.87553427,31.9445464 3.86574538,31.9673285 C3.85399871,31.9901106 3.84877797,32.000578 3.85008316,31.9987308 C3.85008316,31.9968836 3.85138834,31.993805 3.85399871,31.9894948 C3.8553039,31.9851847 3.85399871,31.9894948 3.85008316,32.0024252 C3.84486242,32.0159713 3.82202168,32.0541466 3.78156093,32.1169512 C3.7404476,32.1797558 3.72511167,32.2065401 3.73555315,32.1973041 C3.73685834,32.1973041 3.71825945,32.213621 3.68758759,32.2407132 C3.65691574,32.2678054 3.62689648,32.2924346 3.59752981,32.314601 C3.56946833,32.337383 3.54923796,32.3481583 3.5368387,32.3469269 C3.52509203,32.3463111 3.52052388,32.3456954 3.52313425,32.3450797 C3.52574462,32.3438482 3.42818202,32.3995719 3.23044646,32.5122507 C3.03466867,32.6243138 2.8633631,32.7092847 2.71652976,32.7671635 C2.56969642,32.8244265 2.44929308,32.8650647 2.35531974,32.8890783 C2.26069381,32.9130918 2.17520418,32.9300244 2.09885084,32.9398761 C2.02380269,32.9497278 1.99378343,32.9503435 2.00879306,32.9417233 C2.02445528,32.9337188 2.01890824,32.9417233 1.99215195,32.9657368 C1.96670083,32.9897503 1.86718046,33.0011414 1.69359082,32.9999099 C1.52130636,32.9992942 1.38883006,32.9832851 1.29616191,32.9518829 C1.20414635,32.9204806 1.13399264,32.8949277 1.08570079,32.8752243 C1.03740893,32.8561366 1.01456819,32.8462849 1.01717856,32.8456692 C1.01978893,32.8450535 1.01456819,32.8419748 1.00151634,32.8364332 C0.987811891,32.8308917 0.960403001,32.8161141 0.919289665,32.7921006 C0.878828923,32.7674713 0.864145588,32.7585432 0.875239663,32.7653163 C0.885681145,32.7720893 0.888291516,32.7739365 0.883070775,32.7708578 C0.877850034,32.7690107 0.84456781,32.7440735 0.783224103,32.6960465 C0.723838173,32.6480195 0.692187431,32.6218509 0.688271875,32.6175408 C0.684356319,32.6132306 0.681745949,32.6104598 0.680440764,32.6092284 C0.679135578,32.6079969 0.681745949,32.6104598 0.688271875,32.6166172 C0.695450394,32.6221587 0.690882246,32.6178486 0.67456743,32.6036868 C0.658252614,32.589525 0.653684466,32.5858306 0.660862985,32.5926036 C0.668694096,32.5999924 0.671304467,32.6021475 0.668694096,32.5990688 C0.666083726,32.5966059 0.614528908,32.5519654 0.514029643,32.4651473 C0.413530379,32.3789449 0.328693337,32.2785807 0.259518518,32.1640547 C0.190996292,32.0501444 0.150209253,31.9774881 0.137157401,31.9460858 C0.126063326,31.9146835 0.114642955,31.872198 0.102896288,31.8186294 C0.0911496203,31.7650608 0.0852762867,31.7330427 0.0852762867,31.7225753 C0.0852762867,31.7127236 0.0852762867,31.7108764 0.0852762867,31.7170337 C0.0852762867,31.723191 0.0758136936,31.6711618 0.0568885074,31.5609458 C0.0392685064,31.4507299 0.0239325797,31.3402062 0.0108807271,31.2293745 C-0.000213347589,31.1185429 -0.0028237181,31.040345 0.00304961555,30.9947809 C0.00957554183,30.9492168 0.0134910976,30.9113493 0.0147962829,30.8811785 C0.0161014681,30.8503919 0.0174066534,30.8349986 0.0187118386,30.8349986 C0.0187118386,30.8343829 0.0187118386,30.8337672 0.0187118386,30.8331515 C0.0200170239,30.8245312 0.0187118386,30.8291492 0.0147962829,30.8414638 C0.0121859123,30.8537785 0.0121859123,30.8559335 0.0147962829,30.847929 C0.0161014681,30.8399245 0.0161014681,30.8377694 0.0147962829,30.8414638 C0.0147962829,30.8451582 0.0134910976,30.8497762 0.0108807271,30.8553178 C0.0134910976,30.8519313 0.0161014681,30.8423874 0.0187118386,30.8276099 C0.0213222091,30.8134481 0.0200170239,30.8174503 0.0147962829,30.8396166 C0.00957554183,30.861783 0.00827035658,30.8691717 0.0108807271,30.861783 C0.0121859123,30.8543942 0.0255640612,30.7955918 0.0510151737,30.6853759 C0.0764662862,30.5757758 0.0898444351,30.5237465 0.0911496203,30.5292881 C0.0989807319,30.5028116 0.113011473,30.4649441 0.133241845,30.4156856 C0.154124809,30.3670429 0.164566291,30.3421057 0.164566291,30.3408743 C0.165218884,30.3390271 0.167502958,30.3334855 0.171418514,30.3242495 C0.174028884,30.3143978 0.18055481,30.2990046 0.190996292,30.2780697 C0.202090367,30.2571348 0.218731479,30.2257325 0.240919629,30.1838628 C0.262455185,30.1419931 0.283990742,30.1038177 0.305526299,30.0693368 C0.328367041,30.0342401 0.337177041,30.020694 0.3319563,30.0286985 C0.328693337,30.0373187 0.335219263,30.0311614 0.351534079,30.0102266 C0.366543709,29.9899074 0.387426674,29.968049 0.414182971,29.9446512 C0.440939269,29.9218691 0.453338529,29.9110938 0.451380751,29.9123253 C0.448770381,29.9135568 0.44974927,29.9104781 0.454317418,29.9030893 C0.460843344,29.8950848 0.463453715,29.8913904 0.462148529,29.8920062 C0.462148529,29.8926219 0.4647589,29.8904668 0.469979641,29.885541 C0.460843344,29.8957006 0.492820383,29.8596803 0.561995202,29.7802509 C0.631822613,29.7008216 0.652052984,29.674653 0.622686316,29.7017452 C0.593319648,29.7294531 0.592014462,29.7260666 0.61877076,29.6915856 C0.644221873,29.6564889 0.658905207,29.6392485 0.662820763,29.6398642 C0.666736318,29.6404799 0.69936595,29.6330912 0.760709657,29.6176979 C0.820748179,29.6023046 0.862187811,29.5924529 0.885028552,29.5881428 C0.907869294,29.5832169 0.914721517,29.5816776 0.90558522,29.5835248 C0.897101516,29.5859877 0.886333738,29.5884506 0.873281885,29.5909136 C0.860882625,29.5939922 0.87817633,29.5893742 0.925162999,29.5770596 C0.972149668,29.5641292 0.997600781,29.5558169 1.00151634,29.5521225 C1.1721016,29.3911726 1.21827663,29.4430037 1.39307191,29.2861266 Z" id="STROKE_2f43e3c0-2a39-435f-bc85-e2776a3fa241" stroke-width="0.5" fill="#B04900" fill-rule="nonzero"></path>
                <path d="M8,27 C8.04095004,26.98908 8.26995527,26.8959869 8.68701569,26.7207207 C9.1028161,26.5449085 9.56366156,26.3469833 10.0695521,26.1269451 C10.5754426,25.9069069 11.011718,25.7267267 11.3783784,25.5864046 C11.7450387,25.4460824 12.2855793,25.2506143 13,25" id="STROKE_4b69742b-9e20-4ea0-a55d-d171a4a7e167" stroke-width="1.5"></path>
                <path d="M19,24 C19.1634502,23.9563289 19.4046389,23.8966223 19.7235662,23.8208802 C20.0444867,23.7451382 20.4295249,23.6595019 20.8786808,23.5639713 C21.3271722,23.4684408 21.6052369,23.4107813 21.7128749,23.3909928 C21.8198484,23.3712044 22.0567183,23.3237803 22.4234846,23.2487206 C22.7909154,23.1729785 23.3095044,23.0682361 23.9792516,22.9344933 C24.64767,22.801433 25.2576183,22.6908905 25.8090967,22.6028659 C26.3619039,22.5148414 26.8439491,22.4425111 27.2552324,22.3858751 C27.6665157,22.3299215 28.0628492,22.2739679 28.444233,22.2180143 C28.8262813,22.1613784 29.0618224,22.1258956 29.1508562,22.111566 C29.2405545,22.0965541 29.5236024,22.0593654 30,22" id="STROKE_e99c5fdc-db6a-4036-8798-3f9c3a97f107" stroke-width="1.5"></path>
                <path d="M42,21 C42.0843819,21 42.3763963,21.0054306 42.8760434,21.0162917 C43.3756904,21.02767 43.9308168,21.0431859 44.5414227,21.0628394 C45.152693,21.0824929 45.5922096,21.0982674 45.8599726,21.1101629 C46.1284,21.1220584 46.4715751,21.1391259 46.8894979,21.1613654 C47.3074208,21.1830877 47.6701964,21.1978278 47.9778248,21.2055857 C48.2841244,21.2133437 48.5784643,21.2254978 48.8608446,21.2420481 C49.1438894,21.2585984 49.6903783,21.3020429 50.5003114,21.3723817 C51.3115734,21.4427205 52.0357959,21.5042669 52.6729787,21.5570209 C53.3088327,21.609775 53.7343964,21.6423584 53.9496699,21.6547711 C54.1649433,21.6666667 54.4692496,21.6933023 54.8625888,21.734678 C55.2559279,21.7760538 55.6841493,21.8151021 56.147253,21.8518231 C56.6103567,21.8885441 56.9744612,21.9159555 57.2395665,21.9340574 C57.5026785,21.9521593 57.7561563,21.9741402 58,22" id="STROKE_b75cadfe-2d38-4aff-bf0d-0c52a01e4140" stroke-width="1.5"></path>
                <path d="M70,24.1695 C70.0462169,24.1801667 70.2057398,24.2155 70.4785688,24.2755 C70.7506523,24.3355 71.0335445,24.3941667 71.3272456,24.4515 C71.6216921,24.5088333 71.9019754,24.5675 72.1680954,24.6275 C72.4364517,24.6868333 72.7137533,24.7545 73,24.8305" id="STROKE_4bf37995-70d8-4b67-83d8-24580fd663cc" stroke-width="1.5"></path>
            </g>
        </g>
    </g>
</svg>