<?xml version="1.0" encoding="UTF-8"?>
<svg width="146px" height="100px" viewBox="0 0 146 100" version="1.1" xmlns="http://www.w3.org/2000/svg" xmlns:xlink="http://www.w3.org/1999/xlink">
    <title>werkstatt-focus</title>
    <g id="Page-1" stroke="none" stroke-width="1" fill="none" fill-rule="evenodd" stroke-linecap="round" stroke-linejoin="round">
        <g id="werkstatt-focus" transform="translate(1.000000, 1.000000)" stroke="#D44752" stroke-width="1.5">
            <g>
                <path d="M32,88 C33.4064322,86.7036401 34.5385674,85.6549693 35.3964053,84.8539877 C36.255562,84.0523517 37.5047349,82.876728 39.1439241,81.3271166 C40.782454,79.7768507 42.2333936,78.3973824 43.4967429,77.1887117 C44.7600923,75.9800409 50.5945113,70.2504703 61,60" id="STROKE_73aeb71f-312c-401e-b333-97678b6917d6"></path>
                <path d="M88,30 C92.6336853,25.3579917 96.5914483,21.3965862 99.873289,18.1157835 C103.153826,14.8349808 107.529396,10.463053 113,5" id="STROKE_dc32c889-8ec8-48d1-abce-15b78ba46ca0"></path>
                <path d="M1.77635684e-12,41 C6.13142114,41.2837688 11.9628278,41.5393508 17.4942201,41.7667458 C23.0262746,41.9941409 28.7119789,42.2 34.551333,42.384323 C40.3900248,42.5686461 47.2062471,42.7738717 55,43" id="STROKE_e90b7ad7-cf26-4eb9-a97c-b2273898241e"></path>
                <path d="M98.1054161,46.1750435 C107.271274,47.309723 113.067321,48.0262058 115.493558,48.3244918 C117.920459,48.622778 120.682048,48.9552803 123.778324,49.3219988 C126.874601,49.6893813 130.946023,50.1421457 135.992591,50.6802919 L143.145659,51.3829016" id="STROKE_8b192b58-a6a4-47cb-9876-707bf37edc5c" transform="translate(120.625538, 48.778973) rotate(-3.000000) translate(-120.625538, -48.778973) "></path>
                <path d="M34,-8.8817842e-14 C34.673026,0.725408926 36.2009141,2.38605581 38.5836645,4.98194064 C40.9657525,7.57782548 43.0553789,9.84764266 44.8525437,11.7913922 C46.6483837,13.7351417 51.3642024,18.8046777 59,27" id="STROKE_90dbf23a-1df5-490f-b869-a9732d267834"></path>
                <path d="M87.901627,61.5891422 C93.4797209,69.9710509 97.3619834,75.7982773 99.5484147,79.0708214 C101.733517,82.3427014 103.564295,85.0806681 105.040751,87.2847214 C106.515877,89.4887747 108.613561,92.6132314 111.333802,96.6580916" id="STROKE_6b14d22f-ee88-46f5-bb6e-115320b3d390" transform="translate(99.617714, 79.123617) rotate(-3.000000) translate(-99.617714, -79.123617) "></path>
                <path d="M108,4.689 C109.504321,4.653 110.472531,4.618 110.90463,4.584 C111.337346,4.55 112.035802,4.459 113,4.311" id="STROKE_f2912f94-1d1c-45bb-967b-6a641eed1cfc"></path>
                <path d="M113.744,5 C113.629333,6.10879058 113.552333,6.90620847 113.513,7.39225365 C113.473,7.87829884 113.387333,8.74754762 113.256,10" id="STROKE_670b9bdd-439c-4ec8-8aa2-4805216332cc"></path>
                <path d="M31.8985,83 C31.7485,84.3159888 31.6508333,85.1524782 31.6055,85.5094681 C31.5595,85.8657994 31.4988333,86.3261979 31.4235,86.8906636 C31.3468333,87.4551293 31.2395,88.1582414 31.1015,89" id="STROKE_025a678f-aab4-4bab-b278-9ce801126743"></path>
                <path d="M31,88.924 C32.4649481,88.7086667 33.3847847,88.577 33.7595096,88.529 C34.1342345,88.4816667 34.4492298,88.4416667 34.7044954,88.409 C34.9585036,88.377 35.3360578,88.324 35.8371581,88.25 L36.2832443,88.178 L37,88.076" id="STROKE_80580482-0323-4f1b-b83c-88c8056079d1"></path>
            </g>
        </g>
    </g>
</svg>